<?xml version="1.0" encoding="UTF-8" ?>
<svg version="1.1" width="16" height="112" xmlns="http://www.w3.org/2000/svg">
<rect x="6" y="4" width="1" height="1" fill="#F1892D" />
<rect x="7" y="4" width="1" height="1" fill="#F1892D" />
<rect x="8" y="4" width="1" height="1" fill="#F1892D" />
<rect x="9" y="4" width="1" height="1" fill="#F1892D" />
<rect x="5" y="5" width="1" height="1" fill="#F1892D" />
<rect x="6" y="5" width="1" height="1" fill="#F1892D" />
<rect x="7" y="5" width="1" height="1" fill="#FFE947" />
<rect x="8" y="5" width="1" height="1" fill="#FFE947" />
<rect x="9" y="5" width="1" height="1" fill="#F1892D" />
<rect x="10" y="5" width="1" height="1" fill="#F1892D" />
<rect x="4" y="6" width="1" height="1" fill="#F1892D" />
<rect x="5" y="6" width="1" height="1" fill="#F1892D" />
<rect x="6" y="6" width="1" height="1" fill="#FFE947" />
<rect x="7" y="6" width="1" height="1" fill="#F1892D" />
<rect x="8" y="6" width="1" height="1" fill="#F1892D" />
<rect x="9" y="6" width="1" height="1" fill="#FFE947" />
<rect x="10" y="6" width="1" height="1" fill="#F1892D" />
<rect x="11" y="6" width="1" height="1" fill="#F1892D" />
<rect x="4" y="7" width="1" height="1" fill="#F1892D" />
<rect x="5" y="7" width="1" height="1" fill="#FFE947" />
<rect x="6" y="7" width="1" height="1" fill="#F1892D" />
<rect x="7" y="7" width="1" height="1" fill="#FFE947" />
<rect x="8" y="7" width="1" height="1" fill="#FFE947" />
<rect x="9" y="7" width="1" height="1" fill="#FFE947" />
<rect x="10" y="7" width="1" height="1" fill="#FFE947" />
<rect x="11" y="7" width="1" height="1" fill="#F1892D" />
<rect x="4" y="8" width="1" height="1" fill="#F1892D" />
<rect x="5" y="8" width="1" height="1" fill="#FFE947" />
<rect x="6" y="8" width="1" height="1" fill="#F1892D" />
<rect x="7" y="8" width="1" height="1" fill="#FFE947" />
<rect x="8" y="8" width="1" height="1" fill="#FFE947" />
<rect x="9" y="8" width="1" height="1" fill="#FFE947" />
<rect x="10" y="8" width="1" height="1" fill="#FFE947" />
<rect x="11" y="8" width="1" height="1" fill="#F1892D" />
<rect x="4" y="9" width="1" height="1" fill="#F1892D" />
<rect x="5" y="9" width="1" height="1" fill="#F1892D" />
<rect x="6" y="9" width="1" height="1" fill="#FFE947" />
<rect x="7" y="9" width="1" height="1" fill="#F1892D" />
<rect x="8" y="9" width="1" height="1" fill="#F1892D" />
<rect x="9" y="9" width="1" height="1" fill="#FFE947" />
<rect x="10" y="9" width="1" height="1" fill="#F1892D" />
<rect x="11" y="9" width="1" height="1" fill="#F1892D" />
<rect x="5" y="10" width="1" height="1" fill="#F1892D" />
<rect x="6" y="10" width="1" height="1" fill="#F1892D" />
<rect x="7" y="10" width="1" height="1" fill="#FFE947" />
<rect x="8" y="10" width="1" height="1" fill="#FFE947" />
<rect x="9" y="10" width="1" height="1" fill="#F1892D" />
<rect x="10" y="10" width="1" height="1" fill="#F1892D" />
<rect x="6" y="11" width="1" height="1" fill="#F1892D" />
<rect x="7" y="11" width="1" height="1" fill="#F1892D" />
<rect x="8" y="11" width="1" height="1" fill="#F1892D" />
<rect x="9" y="11" width="1" height="1" fill="#F1892D" />
<rect x="13" y="16" width="1" height="1" fill="#AEB5BD" />
<rect x="14" y="16" width="1" height="1" fill="#4D80C9" />
<rect x="15" y="16" width="1" height="1" fill="#4D80C9" />
<rect x="12" y="17" width="1" height="1" fill="#AEB5BD" />
<rect x="13" y="17" width="1" height="1" fill="#4D80C9" />
<rect x="14" y="17" width="1" height="1" fill="#AEB5BD" />
<rect x="15" y="17" width="1" height="1" fill="#AEB5BD" />
<rect x="11" y="18" width="1" height="1" fill="#AEB5BD" />
<rect x="12" y="18" width="1" height="1" fill="#4D80C9" />
<rect x="13" y="18" width="1" height="1" fill="#AEB5BD" />
<rect x="14" y="18" width="1" height="1" fill="#AEB5BD" />
<rect x="15" y="18" width="1" height="1" fill="#AEB5BD" />
<rect x="10" y="19" width="1" height="1" fill="#AEB5BD" />
<rect x="11" y="19" width="1" height="1" fill="#4D80C9" />
<rect x="12" y="19" width="1" height="1" fill="#AEB5BD" />
<rect x="13" y="19" width="1" height="1" fill="#AEB5BD" />
<rect x="14" y="19" width="1" height="1" fill="#AEB5BD" />
<rect x="9" y="20" width="1" height="1" fill="#AEB5BD" />
<rect x="10" y="20" width="1" height="1" fill="#4D80C9" />
<rect x="11" y="20" width="1" height="1" fill="#AEB5BD" />
<rect x="12" y="20" width="1" height="1" fill="#AEB5BD" />
<rect x="13" y="20" width="1" height="1" fill="#AEB5BD" />
<rect x="8" y="21" width="1" height="1" fill="#AEB5BD" />
<rect x="9" y="21" width="1" height="1" fill="#4D80C9" />
<rect x="10" y="21" width="1" height="1" fill="#AEB5BD" />
<rect x="11" y="21" width="1" height="1" fill="#AEB5BD" />
<rect x="12" y="21" width="1" height="1" fill="#AEB5BD" />
<rect x="7" y="22" width="1" height="1" fill="#AEB5BD" />
<rect x="8" y="22" width="1" height="1" fill="#4D80C9" />
<rect x="9" y="22" width="1" height="1" fill="#AEB5BD" />
<rect x="10" y="22" width="1" height="1" fill="#AEB5BD" />
<rect x="11" y="22" width="1" height="1" fill="#AEB5BD" />
<rect x="6" y="23" width="1" height="1" fill="#AEB5BD" />
<rect x="7" y="23" width="1" height="1" fill="#4D80C9" />
<rect x="8" y="23" width="1" height="1" fill="#AEB5BD" />
<rect x="9" y="23" width="1" height="1" fill="#AEB5BD" />
<rect x="10" y="23" width="1" height="1" fill="#AEB5BD" />
<rect x="2" y="24" width="1" height="1" fill="#823E2C" />
<rect x="5" y="24" width="1" height="1" fill="#AEB5BD" />
<rect x="6" y="24" width="1" height="1" fill="#4D80C9" />
<rect x="7" y="24" width="1" height="1" fill="#AEB5BD" />
<rect x="8" y="24" width="1" height="1" fill="#AEB5BD" />
<rect x="9" y="24" width="1" height="1" fill="#AEB5BD" />
<rect x="1" y="25" width="1" height="1" fill="#823E2C" />
<rect x="2" y="25" width="1" height="1" fill="#823E2C" />
<rect x="3" y="25" width="1" height="1" fill="#823E2C" />
<rect x="4" y="25" width="1" height="1" fill="#AEB5BD" />
<rect x="5" y="25" width="1" height="1" fill="#4D80C9" />
<rect x="6" y="25" width="1" height="1" fill="#AEB5BD" />
<rect x="7" y="25" width="1" height="1" fill="#AEB5BD" />
<rect x="8" y="25" width="1" height="1" fill="#AEB5BD" />
<rect x="2" y="26" width="1" height="1" fill="#823E2C" />
<rect x="3" y="26" width="1" height="1" fill="#823E2C" />
<rect x="4" y="26" width="1" height="1" fill="#823E2C" />
<rect x="5" y="26" width="1" height="1" fill="#AEB5BD" />
<rect x="6" y="26" width="1" height="1" fill="#AEB5BD" />
<rect x="7" y="26" width="1" height="1" fill="#AEB5BD" />
<rect x="3" y="27" width="1" height="1" fill="#823E2C" />
<rect x="4" y="27" width="1" height="1" fill="#F1892D" />
<rect x="5" y="27" width="1" height="1" fill="#823E2C" />
<rect x="6" y="27" width="1" height="1" fill="#AEB5BD" />
<rect x="2" y="28" width="1" height="1" fill="#823E2C" />
<rect x="3" y="28" width="1" height="1" fill="#823E2C" />
<rect x="4" y="28" width="1" height="1" fill="#823E2C" />
<rect x="5" y="28" width="1" height="1" fill="#823E2C" />
<rect x="6" y="28" width="1" height="1" fill="#823E2C" />
<rect x="1" y="29" width="1" height="1" fill="#823E2C" />
<rect x="2" y="29" width="1" height="1" fill="#823E2C" />
<rect x="3" y="29" width="1" height="1" fill="#823E2C" />
<rect x="5" y="29" width="1" height="1" fill="#823E2C" />
<rect x="6" y="29" width="1" height="1" fill="#823E2C" />
<rect x="7" y="29" width="1" height="1" fill="#823E2C" />
<rect x="0" y="30" width="1" height="1" fill="#823E2C" />
<rect x="1" y="30" width="1" height="1" fill="#823E2C" />
<rect x="2" y="30" width="1" height="1" fill="#823E2C" />
<rect x="6" y="30" width="1" height="1" fill="#823E2C" />
<rect x="1" y="31" width="1" height="1" fill="#823E2C" />
<rect x="7" y="32" width="1" height="1" fill="#AEB5BD" />
<rect x="8" y="32" width="1" height="1" fill="#AEB5BD" />
<rect x="6" y="33" width="1" height="1" fill="#AEB5BD" />
<rect x="7" y="33" width="1" height="1" fill="#AEB5BD" />
<rect x="8" y="33" width="1" height="1" fill="#4D80C9" />
<rect x="9" y="33" width="1" height="1" fill="#AEB5BD" />
<rect x="4" y="34" width="1" height="1" fill="#AEB5BD" />
<rect x="5" y="34" width="1" height="1" fill="#AEB5BD" />
<rect x="6" y="34" width="1" height="1" fill="#AEB5BD" />
<rect x="7" y="34" width="1" height="1" fill="#AEB5BD" />
<rect x="8" y="34" width="1" height="1" fill="#4D80C9" />
<rect x="9" y="34" width="1" height="1" fill="#4D80C9" />
<rect x="10" y="34" width="1" height="1" fill="#4D80C9" />
<rect x="11" y="34" width="1" height="1" fill="#AEB5BD" />
<rect x="3" y="35" width="1" height="1" fill="#AEB5BD" />
<rect x="4" y="35" width="1" height="1" fill="#AEB5BD" />
<rect x="5" y="35" width="1" height="1" fill="#AEB5BD" />
<rect x="6" y="35" width="1" height="1" fill="#AEB5BD" />
<rect x="7" y="35" width="1" height="1" fill="#AEB5BD" />
<rect x="8" y="35" width="1" height="1" fill="#4D80C9" />
<rect x="9" y="35" width="1" height="1" fill="#4D80C9" />
<rect x="10" y="35" width="1" height="1" fill="#4D80C9" />
<rect x="11" y="35" width="1" height="1" fill="#4D80C9" />
<rect x="12" y="35" width="1" height="1" fill="#AEB5BD" />
<rect x="2" y="36" width="1" height="1" fill="#AEB5BD" />
<rect x="3" y="36" width="1" height="1" fill="#AEB5BD" />
<rect x="4" y="36" width="1" height="1" fill="#AEB5BD" />
<rect x="5" y="36" width="1" height="1" fill="#AEB5BD" />
<rect x="6" y="36" width="1" height="1" fill="#AEB5BD" />
<rect x="7" y="36" width="1" height="1" fill="#AEB5BD" />
<rect x="8" y="36" width="1" height="1" fill="#4D80C9" />
<rect x="9" y="36" width="1" height="1" fill="#4D80C9" />
<rect x="10" y="36" width="1" height="1" fill="#4D80C9" />
<rect x="11" y="36" width="1" height="1" fill="#4D80C9" />
<rect x="12" y="36" width="1" height="1" fill="#4D80C9" />
<rect x="13" y="36" width="1" height="1" fill="#AEB5BD" />
<rect x="1" y="37" width="1" height="1" fill="#AEB5BD" />
<rect x="2" y="37" width="1" height="1" fill="#AEB5BD" />
<rect x="3" y="37" width="1" height="1" fill="#AEB5BD" />
<rect x="4" y="37" width="1" height="1" fill="#AEB5BD" />
<rect x="5" y="37" width="1" height="1" fill="#AEB5BD" />
<rect x="6" y="37" width="1" height="1" fill="#AEB5BD" />
<rect x="7" y="37" width="1" height="1" fill="#F1892D" />
<rect x="8" y="37" width="1" height="1" fill="#F1892D" />
<rect x="9" y="37" width="1" height="1" fill="#4D80C9" />
<rect x="10" y="37" width="1" height="1" fill="#4D80C9" />
<rect x="11" y="37" width="1" height="1" fill="#4D80C9" />
<rect x="12" y="37" width="1" height="1" fill="#4D80C9" />
<rect x="13" y="37" width="1" height="1" fill="#4D80C9" />
<rect x="14" y="37" width="1" height="1" fill="#AEB5BD" />
<rect x="2" y="38" width="1" height="1" fill="#AEB5BD" />
<rect x="3" y="38" width="1" height="1" fill="#4D80C9" />
<rect x="4" y="38" width="1" height="1" fill="#4D80C9" />
<rect x="5" y="38" width="1" height="1" fill="#4D80C9" />
<rect x="6" y="38" width="1" height="1" fill="#4D80C9" />
<rect x="7" y="38" width="1" height="1" fill="#F1892D" />
<rect x="8" y="38" width="1" height="1" fill="#F1892D" />
<rect x="9" y="38" width="1" height="1" fill="#AEB5BD" />
<rect x="10" y="38" width="1" height="1" fill="#AEB5BD" />
<rect x="11" y="38" width="1" height="1" fill="#AEB5BD" />
<rect x="12" y="38" width="1" height="1" fill="#AEB5BD" />
<rect x="13" y="38" width="1" height="1" fill="#AEB5BD" />
<rect x="3" y="39" width="1" height="1" fill="#AEB5BD" />
<rect x="4" y="39" width="1" height="1" fill="#4D80C9" />
<rect x="5" y="39" width="1" height="1" fill="#4D80C9" />
<rect x="6" y="39" width="1" height="1" fill="#4D80C9" />
<rect x="7" y="39" width="1" height="1" fill="#4D80C9" />
<rect x="8" y="39" width="1" height="1" fill="#AEB5BD" />
<rect x="9" y="39" width="1" height="1" fill="#AEB5BD" />
<rect x="10" y="39" width="1" height="1" fill="#AEB5BD" />
<rect x="11" y="39" width="1" height="1" fill="#AEB5BD" />
<rect x="12" y="39" width="1" height="1" fill="#AEB5BD" />
<rect x="3" y="40" width="1" height="1" fill="#AEB5BD" />
<rect x="4" y="40" width="1" height="1" fill="#4D80C9" />
<rect x="5" y="40" width="1" height="1" fill="#4D80C9" />
<rect x="6" y="40" width="1" height="1" fill="#4D80C9" />
<rect x="7" y="40" width="1" height="1" fill="#4D80C9" />
<rect x="8" y="40" width="1" height="1" fill="#AEB5BD" />
<rect x="9" y="40" width="1" height="1" fill="#AEB5BD" />
<rect x="10" y="40" width="1" height="1" fill="#AEB5BD" />
<rect x="11" y="40" width="1" height="1" fill="#AEB5BD" />
<rect x="12" y="40" width="1" height="1" fill="#AEB5BD" />
<rect x="4" y="41" width="1" height="1" fill="#AEB5BD" />
<rect x="5" y="41" width="1" height="1" fill="#4D80C9" />
<rect x="6" y="41" width="1" height="1" fill="#4D80C9" />
<rect x="7" y="41" width="1" height="1" fill="#4D80C9" />
<rect x="8" y="41" width="1" height="1" fill="#AEB5BD" />
<rect x="9" y="41" width="1" height="1" fill="#AEB5BD" />
<rect x="10" y="41" width="1" height="1" fill="#AEB5BD" />
<rect x="11" y="41" width="1" height="1" fill="#AEB5BD" />
<rect x="4" y="42" width="1" height="1" fill="#AEB5BD" />
<rect x="5" y="42" width="1" height="1" fill="#4D80C9" />
<rect x="6" y="42" width="1" height="1" fill="#4D80C9" />
<rect x="7" y="42" width="1" height="1" fill="#4D80C9" />
<rect x="8" y="42" width="1" height="1" fill="#AEB5BD" />
<rect x="9" y="42" width="1" height="1" fill="#AEB5BD" />
<rect x="10" y="42" width="1" height="1" fill="#AEB5BD" />
<rect x="11" y="42" width="1" height="1" fill="#AEB5BD" />
<rect x="5" y="43" width="1" height="1" fill="#AEB5BD" />
<rect x="6" y="43" width="1" height="1" fill="#4D80C9" />
<rect x="7" y="43" width="1" height="1" fill="#4D80C9" />
<rect x="8" y="43" width="1" height="1" fill="#AEB5BD" />
<rect x="9" y="43" width="1" height="1" fill="#AEB5BD" />
<rect x="10" y="43" width="1" height="1" fill="#AEB5BD" />
<rect x="5" y="44" width="1" height="1" fill="#AEB5BD" />
<rect x="6" y="44" width="1" height="1" fill="#4D80C9" />
<rect x="7" y="44" width="1" height="1" fill="#4D80C9" />
<rect x="8" y="44" width="1" height="1" fill="#AEB5BD" />
<rect x="9" y="44" width="1" height="1" fill="#AEB5BD" />
<rect x="10" y="44" width="1" height="1" fill="#AEB5BD" />
<rect x="6" y="45" width="1" height="1" fill="#AEB5BD" />
<rect x="7" y="45" width="1" height="1" fill="#4D80C9" />
<rect x="8" y="45" width="1" height="1" fill="#AEB5BD" />
<rect x="9" y="45" width="1" height="1" fill="#AEB5BD" />
<rect x="6" y="46" width="1" height="1" fill="#AEB5BD" />
<rect x="7" y="46" width="1" height="1" fill="#4D80C9" />
<rect x="8" y="46" width="1" height="1" fill="#AEB5BD" />
<rect x="9" y="46" width="1" height="1" fill="#AEB5BD" />
<rect x="7" y="47" width="1" height="1" fill="#AEB5BD" />
<rect x="8" y="47" width="1" height="1" fill="#AEB5BD" />
<rect x="7" y="49" width="1" height="1" fill="#511E43" />
<rect x="8" y="49" width="1" height="1" fill="#511E43" />
<rect x="11" y="49" width="1" height="1" fill="#E93841" />
<rect x="4" y="50" width="1" height="1" fill="#E93841" />
<rect x="7" y="50" width="1" height="1" fill="#511E43" />
<rect x="8" y="50" width="1" height="1" fill="#511E43" />
<rect x="7" y="51" width="1" height="1" fill="#F1892D" />
<rect x="8" y="51" width="1" height="1" fill="#F1892D" />
<rect x="10" y="51" width="1" height="1" fill="#E93841" />
<rect x="5" y="52" width="1" height="1" fill="#E93841" />
<rect x="7" y="52" width="1" height="1" fill="#F1892D" />
<rect x="8" y="52" width="1" height="1" fill="#F1892D" />
<rect x="3" y="53" width="1" height="1" fill="#E93841" />
<rect x="7" y="53" width="1" height="1" fill="#F1892D" />
<rect x="8" y="53" width="1" height="1" fill="#F1892D" />
<rect x="12" y="53" width="1" height="1" fill="#E93841" />
<rect x="7" y="54" width="1" height="1" fill="#F1892D" />
<rect x="8" y="54" width="1" height="1" fill="#F1892D" />
<rect x="6" y="55" width="1" height="1" fill="#F1892D" />
<rect x="7" y="55" width="1" height="1" fill="#F1892D" />
<rect x="8" y="55" width="1" height="1" fill="#F1892D" />
<rect x="9" y="55" width="1" height="1" fill="#F1892D" />
<rect x="5" y="56" width="1" height="1" fill="#F1892D" />
<rect x="6" y="56" width="1" height="1" fill="#E93841" />
<rect x="7" y="56" width="1" height="1" fill="#F1892D" />
<rect x="8" y="56" width="1" height="1" fill="#E93841" />
<rect x="9" y="56" width="1" height="1" fill="#F1892D" />
<rect x="10" y="56" width="1" height="1" fill="#F1892D" />
<rect x="4" y="57" width="1" height="1" fill="#F1892D" />
<rect x="5" y="57" width="1" height="1" fill="#E93841" />
<rect x="6" y="57" width="1" height="1" fill="#E93841" />
<rect x="7" y="57" width="1" height="1" fill="#E93841" />
<rect x="8" y="57" width="1" height="1" fill="#E93841" />
<rect x="9" y="57" width="1" height="1" fill="#E93841" />
<rect x="10" y="57" width="1" height="1" fill="#E93841" />
<rect x="11" y="57" width="1" height="1" fill="#F1892D" />
<rect x="3" y="58" width="1" height="1" fill="#F1892D" />
<rect x="4" y="58" width="1" height="1" fill="#E93841" />
<rect x="5" y="58" width="1" height="1" fill="#E93841" />
<rect x="6" y="58" width="1" height="1" fill="#F1892D" />
<rect x="7" y="58" width="1" height="1" fill="#E93841" />
<rect x="8" y="58" width="1" height="1" fill="#E93841" />
<rect x="9" y="58" width="1" height="1" fill="#E93841" />
<rect x="10" y="58" width="1" height="1" fill="#E93841" />
<rect x="11" y="58" width="1" height="1" fill="#E93841" />
<rect x="12" y="58" width="1" height="1" fill="#F1892D" />
<rect x="3" y="59" width="1" height="1" fill="#F1892D" />
<rect x="4" y="59" width="1" height="1" fill="#E93841" />
<rect x="5" y="59" width="1" height="1" fill="#E93841" />
<rect x="6" y="59" width="1" height="1" fill="#E93841" />
<rect x="7" y="59" width="1" height="1" fill="#E93841" />
<rect x="8" y="59" width="1" height="1" fill="#E93841" />
<rect x="9" y="59" width="1" height="1" fill="#E93841" />
<rect x="10" y="59" width="1" height="1" fill="#E93841" />
<rect x="11" y="59" width="1" height="1" fill="#E93841" />
<rect x="12" y="59" width="1" height="1" fill="#F1892D" />
<rect x="3" y="60" width="1" height="1" fill="#F1892D" />
<rect x="4" y="60" width="1" height="1" fill="#E93841" />
<rect x="5" y="60" width="1" height="1" fill="#E93841" />
<rect x="6" y="60" width="1" height="1" fill="#E93841" />
<rect x="7" y="60" width="1" height="1" fill="#E93841" />
<rect x="8" y="60" width="1" height="1" fill="#E93841" />
<rect x="9" y="60" width="1" height="1" fill="#E93841" />
<rect x="10" y="60" width="1" height="1" fill="#E93841" />
<rect x="11" y="60" width="1" height="1" fill="#E93841" />
<rect x="12" y="60" width="1" height="1" fill="#F1892D" />
<rect x="3" y="61" width="1" height="1" fill="#F1892D" />
<rect x="4" y="61" width="1" height="1" fill="#E93841" />
<rect x="5" y="61" width="1" height="1" fill="#E93841" />
<rect x="6" y="61" width="1" height="1" fill="#E93841" />
<rect x="7" y="61" width="1" height="1" fill="#E93841" />
<rect x="8" y="61" width="1" height="1" fill="#E93841" />
<rect x="9" y="61" width="1" height="1" fill="#F1892D" />
<rect x="10" y="61" width="1" height="1" fill="#E93841" />
<rect x="11" y="61" width="1" height="1" fill="#E93841" />
<rect x="12" y="61" width="1" height="1" fill="#F1892D" />
<rect x="4" y="62" width="1" height="1" fill="#F1892D" />
<rect x="5" y="62" width="1" height="1" fill="#E93841" />
<rect x="6" y="62" width="1" height="1" fill="#E93841" />
<rect x="7" y="62" width="1" height="1" fill="#E93841" />
<rect x="8" y="62" width="1" height="1" fill="#E93841" />
<rect x="9" y="62" width="1" height="1" fill="#E93841" />
<rect x="10" y="62" width="1" height="1" fill="#E93841" />
<rect x="11" y="62" width="1" height="1" fill="#F1892D" />
<rect x="5" y="63" width="1" height="1" fill="#F1892D" />
<rect x="6" y="63" width="1" height="1" fill="#F1892D" />
<rect x="7" y="63" width="1" height="1" fill="#F1892D" />
<rect x="8" y="63" width="1" height="1" fill="#F1892D" />
<rect x="9" y="63" width="1" height="1" fill="#F1892D" />
<rect x="10" y="63" width="1" height="1" fill="#F1892D" />
<rect x="4" y="67" width="1" height="1" fill="#FFE947" />
<rect x="5" y="67" width="1" height="1" fill="#823E2C" />
<rect x="6" y="67" width="1" height="1" fill="#823E2C" />
<rect x="7" y="67" width="1" height="1" fill="#823E2C" />
<rect x="8" y="67" width="1" height="1" fill="#823E2C" />
<rect x="9" y="67" width="1" height="1" fill="#823E2C" />
<rect x="10" y="67" width="1" height="1" fill="#823E2C" />
<rect x="11" y="67" width="1" height="1" fill="#FFE947" />
<rect x="3" y="68" width="1" height="1" fill="#823E2C" />
<rect x="4" y="68" width="1" height="1" fill="#823E2C" />
<rect x="5" y="68" width="1" height="1" fill="#823E2C" />
<rect x="6" y="68" width="1" height="1" fill="#823E2C" />
<rect x="7" y="68" width="1" height="1" fill="#823E2C" />
<rect x="8" y="68" width="1" height="1" fill="#823E2C" />
<rect x="9" y="68" width="1" height="1" fill="#823E2C" />
<rect x="10" y="68" width="1" height="1" fill="#823E2C" />
<rect x="11" y="68" width="1" height="1" fill="#823E2C" />
<rect x="12" y="68" width="1" height="1" fill="#823E2C" />
<rect x="2" y="69" width="1" height="1" fill="#823E2C" />
<rect x="3" y="69" width="1" height="1" fill="#823E2C" />
<rect x="4" y="69" width="1" height="1" fill="#823E2C" />
<rect x="5" y="69" width="1" height="1" fill="#823E2C" />
<rect x="6" y="69" width="1" height="1" fill="#823E2C" />
<rect x="7" y="69" width="1" height="1" fill="#823E2C" />
<rect x="8" y="69" width="1" height="1" fill="#823E2C" />
<rect x="9" y="69" width="1" height="1" fill="#823E2C" />
<rect x="10" y="69" width="1" height="1" fill="#823E2C" />
<rect x="11" y="69" width="1" height="1" fill="#823E2C" />
<rect x="12" y="69" width="1" height="1" fill="#823E2C" />
<rect x="13" y="69" width="1" height="1" fill="#823E2C" />
<rect x="1" y="70" width="1" height="1" fill="#823E2C" />
<rect x="2" y="70" width="1" height="1" fill="#823E2C" />
<rect x="3" y="70" width="1" height="1" fill="#823E2C" />
<rect x="4" y="70" width="1" height="1" fill="#823E2C" />
<rect x="5" y="70" width="1" height="1" fill="#823E2C" />
<rect x="6" y="70" width="1" height="1" fill="#823E2C" />
<rect x="7" y="70" width="1" height="1" fill="#823E2C" />
<rect x="8" y="70" width="1" height="1" fill="#823E2C" />
<rect x="9" y="70" width="1" height="1" fill="#823E2C" />
<rect x="10" y="70" width="1" height="1" fill="#823E2C" />
<rect x="11" y="70" width="1" height="1" fill="#823E2C" />
<rect x="12" y="70" width="1" height="1" fill="#823E2C" />
<rect x="13" y="70" width="1" height="1" fill="#823E2C" />
<rect x="14" y="70" width="1" height="1" fill="#823E2C" />
<rect x="1" y="71" width="1" height="1" fill="#823E2C" />
<rect x="2" y="71" width="1" height="1" fill="#823E2C" />
<rect x="3" y="71" width="1" height="1" fill="#823E2C" />
<rect x="4" y="71" width="1" height="1" fill="#823E2C" />
<rect x="5" y="71" width="1" height="1" fill="#823E2C" />
<rect x="6" y="71" width="1" height="1" fill="#823E2C" />
<rect x="7" y="71" width="1" height="1" fill="#823E2C" />
<rect x="8" y="71" width="1" height="1" fill="#823E2C" />
<rect x="9" y="71" width="1" height="1" fill="#823E2C" />
<rect x="10" y="71" width="1" height="1" fill="#823E2C" />
<rect x="11" y="71" width="1" height="1" fill="#823E2C" />
<rect x="12" y="71" width="1" height="1" fill="#823E2C" />
<rect x="13" y="71" width="1" height="1" fill="#823E2C" />
<rect x="14" y="71" width="1" height="1" fill="#823E2C" />
<rect x="1" y="72" width="1" height="1" fill="#FFE947" />
<rect x="2" y="72" width="1" height="1" fill="#823E2C" />
<rect x="3" y="72" width="1" height="1" fill="#823E2C" />
<rect x="4" y="72" width="1" height="1" fill="#823E2C" />
<rect x="5" y="72" width="1" height="1" fill="#823E2C" />
<rect x="6" y="72" width="1" height="1" fill="#823E2C" />
<rect x="7" y="72" width="1" height="1" fill="#FFE947" />
<rect x="8" y="72" width="1" height="1" fill="#FFE947" />
<rect x="9" y="72" width="1" height="1" fill="#823E2C" />
<rect x="10" y="72" width="1" height="1" fill="#823E2C" />
<rect x="11" y="72" width="1" height="1" fill="#823E2C" />
<rect x="12" y="72" width="1" height="1" fill="#823E2C" />
<rect x="13" y="72" width="1" height="1" fill="#823E2C" />
<rect x="14" y="72" width="1" height="1" fill="#FFE947" />
<rect x="1" y="73" width="1" height="1" fill="#823E2C" />
<rect x="2" y="73" width="1" height="1" fill="#100820" />
<rect x="3" y="73" width="1" height="1" fill="#100820" />
<rect x="4" y="73" width="1" height="1" fill="#100820" />
<rect x="5" y="73" width="1" height="1" fill="#100820" />
<rect x="6" y="73" width="1" height="1" fill="#100820" />
<rect x="7" y="73" width="1" height="1" fill="#FFE947" />
<rect x="8" y="73" width="1" height="1" fill="#FFE947" />
<rect x="9" y="73" width="1" height="1" fill="#100820" />
<rect x="10" y="73" width="1" height="1" fill="#100820" />
<rect x="11" y="73" width="1" height="1" fill="#100820" />
<rect x="12" y="73" width="1" height="1" fill="#100820" />
<rect x="13" y="73" width="1" height="1" fill="#100820" />
<rect x="14" y="73" width="1" height="1" fill="#823E2C" />
<rect x="1" y="74" width="1" height="1" fill="#FFE947" />
<rect x="2" y="74" width="1" height="1" fill="#823E2C" />
<rect x="3" y="74" width="1" height="1" fill="#823E2C" />
<rect x="4" y="74" width="1" height="1" fill="#823E2C" />
<rect x="5" y="74" width="1" height="1" fill="#823E2C" />
<rect x="6" y="74" width="1" height="1" fill="#FFE947" />
<rect x="7" y="74" width="1" height="1" fill="#511E43" />
<rect x="8" y="74" width="1" height="1" fill="#511E43" />
<rect x="9" y="74" width="1" height="1" fill="#FFE947" />
<rect x="10" y="74" width="1" height="1" fill="#823E2C" />
<rect x="11" y="74" width="1" height="1" fill="#823E2C" />
<rect x="12" y="74" width="1" height="1" fill="#823E2C" />
<rect x="13" y="74" width="1" height="1" fill="#823E2C" />
<rect x="14" y="74" width="1" height="1" fill="#FFE947" />
<rect x="1" y="75" width="1" height="1" fill="#823E2C" />
<rect x="2" y="75" width="1" height="1" fill="#823E2C" />
<rect x="3" y="75" width="1" height="1" fill="#823E2C" />
<rect x="4" y="75" width="1" height="1" fill="#823E2C" />
<rect x="5" y="75" width="1" height="1" fill="#823E2C" />
<rect x="6" y="75" width="1" height="1" fill="#FFE947" />
<rect x="7" y="75" width="1" height="1" fill="#511E43" />
<rect x="8" y="75" width="1" height="1" fill="#511E43" />
<rect x="9" y="75" width="1" height="1" fill="#FFE947" />
<rect x="10" y="75" width="1" height="1" fill="#823E2C" />
<rect x="11" y="75" width="1" height="1" fill="#823E2C" />
<rect x="12" y="75" width="1" height="1" fill="#823E2C" />
<rect x="13" y="75" width="1" height="1" fill="#823E2C" />
<rect x="14" y="75" width="1" height="1" fill="#823E2C" />
<rect x="1" y="76" width="1" height="1" fill="#823E2C" />
<rect x="2" y="76" width="1" height="1" fill="#823E2C" />
<rect x="3" y="76" width="1" height="1" fill="#823E2C" />
<rect x="4" y="76" width="1" height="1" fill="#823E2C" />
<rect x="5" y="76" width="1" height="1" fill="#823E2C" />
<rect x="6" y="76" width="1" height="1" fill="#FFE947" />
<rect x="7" y="76" width="1" height="1" fill="#FFE947" />
<rect x="8" y="76" width="1" height="1" fill="#FFE947" />
<rect x="9" y="76" width="1" height="1" fill="#FFE947" />
<rect x="10" y="76" width="1" height="1" fill="#823E2C" />
<rect x="11" y="76" width="1" height="1" fill="#823E2C" />
<rect x="12" y="76" width="1" height="1" fill="#823E2C" />
<rect x="13" y="76" width="1" height="1" fill="#823E2C" />
<rect x="14" y="76" width="1" height="1" fill="#823E2C" />
<rect x="1" y="77" width="1" height="1" fill="#823E2C" />
<rect x="2" y="77" width="1" height="1" fill="#823E2C" />
<rect x="3" y="77" width="1" height="1" fill="#823E2C" />
<rect x="4" y="77" width="1" height="1" fill="#823E2C" />
<rect x="5" y="77" width="1" height="1" fill="#823E2C" />
<rect x="6" y="77" width="1" height="1" fill="#823E2C" />
<rect x="7" y="77" width="1" height="1" fill="#823E2C" />
<rect x="8" y="77" width="1" height="1" fill="#823E2C" />
<rect x="9" y="77" width="1" height="1" fill="#823E2C" />
<rect x="10" y="77" width="1" height="1" fill="#823E2C" />
<rect x="11" y="77" width="1" height="1" fill="#823E2C" />
<rect x="12" y="77" width="1" height="1" fill="#823E2C" />
<rect x="13" y="77" width="1" height="1" fill="#823E2C" />
<rect x="14" y="77" width="1" height="1" fill="#823E2C" />
<rect x="1" y="78" width="1" height="1" fill="#FFE947" />
<rect x="2" y="78" width="1" height="1" fill="#823E2C" />
<rect x="3" y="78" width="1" height="1" fill="#823E2C" />
<rect x="4" y="78" width="1" height="1" fill="#823E2C" />
<rect x="5" y="78" width="1" height="1" fill="#823E2C" />
<rect x="6" y="78" width="1" height="1" fill="#823E2C" />
<rect x="7" y="78" width="1" height="1" fill="#823E2C" />
<rect x="8" y="78" width="1" height="1" fill="#823E2C" />
<rect x="9" y="78" width="1" height="1" fill="#823E2C" />
<rect x="10" y="78" width="1" height="1" fill="#823E2C" />
<rect x="11" y="78" width="1" height="1" fill="#823E2C" />
<rect x="12" y="78" width="1" height="1" fill="#823E2C" />
<rect x="13" y="78" width="1" height="1" fill="#823E2C" />
<rect x="14" y="78" width="1" height="1" fill="#FFE947" />
<rect x="1" y="79" width="1" height="1" fill="#FFE947" />
<rect x="2" y="79" width="1" height="1" fill="#FFE947" />
<rect x="3" y="79" width="1" height="1" fill="#823E2C" />
<rect x="4" y="79" width="1" height="1" fill="#823E2C" />
<rect x="5" y="79" width="1" height="1" fill="#823E2C" />
<rect x="6" y="79" width="1" height="1" fill="#823E2C" />
<rect x="7" y="79" width="1" height="1" fill="#823E2C" />
<rect x="8" y="79" width="1" height="1" fill="#823E2C" />
<rect x="9" y="79" width="1" height="1" fill="#823E2C" />
<rect x="10" y="79" width="1" height="1" fill="#823E2C" />
<rect x="11" y="79" width="1" height="1" fill="#823E2C" />
<rect x="12" y="79" width="1" height="1" fill="#823E2C" />
<rect x="13" y="79" width="1" height="1" fill="#FFE947" />
<rect x="14" y="79" width="1" height="1" fill="#FFE947" />
<rect x="3" y="80" width="1" height="1" fill="#FFE947" />
<rect x="4" y="80" width="1" height="1" fill="#823E2C" />
<rect x="5" y="80" width="1" height="1" fill="#823E2C" />
<rect x="6" y="80" width="1" height="1" fill="#823E2C" />
<rect x="7" y="80" width="1" height="1" fill="#823E2C" />
<rect x="8" y="80" width="1" height="1" fill="#823E2C" />
<rect x="9" y="80" width="1" height="1" fill="#823E2C" />
<rect x="10" y="80" width="1" height="1" fill="#823E2C" />
<rect x="11" y="80" width="1" height="1" fill="#823E2C" />
<rect x="12" y="80" width="1" height="1" fill="#FFE947" />
<rect x="2" y="81" width="1" height="1" fill="#823E2C" />
<rect x="3" y="81" width="1" height="1" fill="#823E2C" />
<rect x="4" y="81" width="1" height="1" fill="#823E2C" />
<rect x="5" y="81" width="1" height="1" fill="#823E2C" />
<rect x="6" y="81" width="1" height="1" fill="#823E2C" />
<rect x="7" y="81" width="1" height="1" fill="#823E2C" />
<rect x="8" y="81" width="1" height="1" fill="#823E2C" />
<rect x="9" y="81" width="1" height="1" fill="#823E2C" />
<rect x="10" y="81" width="1" height="1" fill="#823E2C" />
<rect x="11" y="81" width="1" height="1" fill="#823E2C" />
<rect x="12" y="81" width="1" height="1" fill="#823E2C" />
<rect x="13" y="81" width="1" height="1" fill="#823E2C" />
<rect x="1" y="82" width="1" height="1" fill="#823E2C" />
<rect x="2" y="82" width="1" height="1" fill="#823E2C" />
<rect x="3" y="82" width="1" height="1" fill="#823E2C" />
<rect x="4" y="82" width="1" height="1" fill="#823E2C" />
<rect x="5" y="82" width="1" height="1" fill="#823E2C" />
<rect x="6" y="82" width="1" height="1" fill="#823E2C" />
<rect x="7" y="82" width="1" height="1" fill="#823E2C" />
<rect x="8" y="82" width="1" height="1" fill="#823E2C" />
<rect x="9" y="82" width="1" height="1" fill="#823E2C" />
<rect x="10" y="82" width="1" height="1" fill="#823E2C" />
<rect x="11" y="82" width="1" height="1" fill="#823E2C" />
<rect x="12" y="82" width="1" height="1" fill="#823E2C" />
<rect x="13" y="82" width="1" height="1" fill="#823E2C" />
<rect x="14" y="82" width="1" height="1" fill="#823E2C" />
<rect x="1" y="83" width="1" height="1" fill="#FFE947" />
<rect x="2" y="83" width="1" height="1" fill="#823E2C" />
<rect x="3" y="83" width="1" height="1" fill="#823E2C" />
<rect x="4" y="83" width="1" height="1" fill="#823E2C" />
<rect x="5" y="83" width="1" height="1" fill="#823E2C" />
<rect x="6" y="83" width="1" height="1" fill="#823E2C" />
<rect x="7" y="83" width="1" height="1" fill="#FFE947" />
<rect x="8" y="83" width="1" height="1" fill="#FFE947" />
<rect x="9" y="83" width="1" height="1" fill="#823E2C" />
<rect x="10" y="83" width="1" height="1" fill="#823E2C" />
<rect x="11" y="83" width="1" height="1" fill="#823E2C" />
<rect x="12" y="83" width="1" height="1" fill="#823E2C" />
<rect x="13" y="83" width="1" height="1" fill="#823E2C" />
<rect x="14" y="83" width="1" height="1" fill="#FFE947" />
<rect x="2" y="84" width="1" height="1" fill="#100820" />
<rect x="3" y="84" width="1" height="1" fill="#100820" />
<rect x="4" y="84" width="1" height="1" fill="#100820" />
<rect x="5" y="84" width="1" height="1" fill="#100820" />
<rect x="6" y="84" width="1" height="1" fill="#100820" />
<rect x="7" y="84" width="1" height="1" fill="#100820" />
<rect x="8" y="84" width="1" height="1" fill="#100820" />
<rect x="9" y="84" width="1" height="1" fill="#100820" />
<rect x="10" y="84" width="1" height="1" fill="#100820" />
<rect x="11" y="84" width="1" height="1" fill="#100820" />
<rect x="12" y="84" width="1" height="1" fill="#100820" />
<rect x="13" y="84" width="1" height="1" fill="#100820" />
<rect x="3" y="85" width="1" height="1" fill="#100820" />
<rect x="4" y="85" width="1" height="1" fill="#100820" />
<rect x="5" y="85" width="1" height="1" fill="#100820" />
<rect x="6" y="85" width="1" height="1" fill="#100820" />
<rect x="7" y="85" width="1" height="1" fill="#100820" />
<rect x="8" y="85" width="1" height="1" fill="#100820" />
<rect x="9" y="85" width="1" height="1" fill="#100820" />
<rect x="10" y="85" width="1" height="1" fill="#100820" />
<rect x="11" y="85" width="1" height="1" fill="#100820" />
<rect x="12" y="85" width="1" height="1" fill="#100820" />
<rect x="15" y="85" width="1" height="1" fill="#F1892D" />
<rect x="0" y="86" width="1" height="1" fill="#F1892D" />
<rect x="3" y="86" width="1" height="1" fill="#823E2C" />
<rect x="4" y="86" width="1" height="1" fill="#100820" />
<rect x="5" y="86" width="1" height="1" fill="#100820" />
<rect x="6" y="86" width="1" height="1" fill="#100820" />
<rect x="7" y="86" width="1" height="1" fill="#100820" />
<rect x="8" y="86" width="1" height="1" fill="#100820" />
<rect x="9" y="86" width="1" height="1" fill="#100820" />
<rect x="10" y="86" width="1" height="1" fill="#100820" />
<rect x="11" y="86" width="1" height="1" fill="#100820" />
<rect x="12" y="86" width="1" height="1" fill="#823E2C" />
<rect x="2" y="87" width="1" height="1" fill="#823E2C" />
<rect x="3" y="87" width="1" height="1" fill="#100820" />
<rect x="4" y="87" width="1" height="1" fill="#100820" />
<rect x="5" y="87" width="1" height="1" fill="#100820" />
<rect x="6" y="87" width="1" height="1" fill="#100820" />
<rect x="7" y="87" width="1" height="1" fill="#100820" />
<rect x="8" y="87" width="1" height="1" fill="#100820" />
<rect x="9" y="87" width="1" height="1" fill="#100820" />
<rect x="10" y="87" width="1" height="1" fill="#100820" />
<rect x="11" y="87" width="1" height="1" fill="#100820" />
<rect x="12" y="87" width="1" height="1" fill="#100820" />
<rect x="13" y="87" width="1" height="1" fill="#823E2C" />
<rect x="1" y="88" width="1" height="1" fill="#823E2C" />
<rect x="2" y="88" width="1" height="1" fill="#100820" />
<rect x="3" y="88" width="1" height="1" fill="#100820" />
<rect x="4" y="88" width="1" height="1" fill="#100820" />
<rect x="5" y="88" width="1" height="1" fill="#100820" />
<rect x="6" y="88" width="1" height="1" fill="#100820" />
<rect x="7" y="88" width="1" height="1" fill="#100820" />
<rect x="8" y="88" width="1" height="1" fill="#100820" />
<rect x="9" y="88" width="1" height="1" fill="#100820" />
<rect x="10" y="88" width="1" height="1" fill="#100820" />
<rect x="11" y="88" width="1" height="1" fill="#100820" />
<rect x="12" y="88" width="1" height="1" fill="#100820" />
<rect x="13" y="88" width="1" height="1" fill="#100820" />
<rect x="14" y="88" width="1" height="1" fill="#823E2C" />
<rect x="1" y="89" width="1" height="1" fill="#823E2C" />
<rect x="2" y="89" width="1" height="1" fill="#100820" />
<rect x="3" y="89" width="1" height="1" fill="#100820" />
<rect x="4" y="89" width="1" height="1" fill="#100820" />
<rect x="5" y="89" width="1" height="1" fill="#100820" />
<rect x="6" y="89" width="1" height="1" fill="#100820" />
<rect x="7" y="89" width="1" height="1" fill="#FFE947" />
<rect x="8" y="89" width="1" height="1" fill="#FFE947" />
<rect x="9" y="89" width="1" height="1" fill="#100820" />
<rect x="10" y="89" width="1" height="1" fill="#100820" />
<rect x="11" y="89" width="1" height="1" fill="#100820" />
<rect x="12" y="89" width="1" height="1" fill="#100820" />
<rect x="13" y="89" width="1" height="1" fill="#100820" />
<rect x="14" y="89" width="1" height="1" fill="#823E2C" />
<rect x="1" y="90" width="1" height="1" fill="#FFE947" />
<rect x="2" y="90" width="1" height="1" fill="#823E2C" />
<rect x="3" y="90" width="1" height="1" fill="#823E2C" />
<rect x="4" y="90" width="1" height="1" fill="#823E2C" />
<rect x="5" y="90" width="1" height="1" fill="#823E2C" />
<rect x="6" y="90" width="1" height="1" fill="#FFE947" />
<rect x="7" y="90" width="1" height="1" fill="#511E43" />
<rect x="8" y="90" width="1" height="1" fill="#511E43" />
<rect x="9" y="90" width="1" height="1" fill="#FFE947" />
<rect x="10" y="90" width="1" height="1" fill="#823E2C" />
<rect x="11" y="90" width="1" height="1" fill="#823E2C" />
<rect x="12" y="90" width="1" height="1" fill="#823E2C" />
<rect x="13" y="90" width="1" height="1" fill="#823E2C" />
<rect x="14" y="90" width="1" height="1" fill="#FFE947" />
<rect x="1" y="91" width="1" height="1" fill="#823E2C" />
<rect x="2" y="91" width="1" height="1" fill="#823E2C" />
<rect x="3" y="91" width="1" height="1" fill="#823E2C" />
<rect x="4" y="91" width="1" height="1" fill="#823E2C" />
<rect x="5" y="91" width="1" height="1" fill="#823E2C" />
<rect x="6" y="91" width="1" height="1" fill="#FFE947" />
<rect x="7" y="91" width="1" height="1" fill="#511E43" />
<rect x="8" y="91" width="1" height="1" fill="#511E43" />
<rect x="9" y="91" width="1" height="1" fill="#FFE947" />
<rect x="10" y="91" width="1" height="1" fill="#823E2C" />
<rect x="11" y="91" width="1" height="1" fill="#823E2C" />
<rect x="12" y="91" width="1" height="1" fill="#823E2C" />
<rect x="13" y="91" width="1" height="1" fill="#823E2C" />
<rect x="14" y="91" width="1" height="1" fill="#823E2C" />
<rect x="1" y="92" width="1" height="1" fill="#823E2C" />
<rect x="2" y="92" width="1" height="1" fill="#823E2C" />
<rect x="3" y="92" width="1" height="1" fill="#823E2C" />
<rect x="4" y="92" width="1" height="1" fill="#823E2C" />
<rect x="5" y="92" width="1" height="1" fill="#823E2C" />
<rect x="6" y="92" width="1" height="1" fill="#FFE947" />
<rect x="7" y="92" width="1" height="1" fill="#FFE947" />
<rect x="8" y="92" width="1" height="1" fill="#FFE947" />
<rect x="9" y="92" width="1" height="1" fill="#FFE947" />
<rect x="10" y="92" width="1" height="1" fill="#823E2C" />
<rect x="11" y="92" width="1" height="1" fill="#823E2C" />
<rect x="12" y="92" width="1" height="1" fill="#823E2C" />
<rect x="13" y="92" width="1" height="1" fill="#823E2C" />
<rect x="14" y="92" width="1" height="1" fill="#823E2C" />
<rect x="1" y="93" width="1" height="1" fill="#823E2C" />
<rect x="2" y="93" width="1" height="1" fill="#823E2C" />
<rect x="3" y="93" width="1" height="1" fill="#823E2C" />
<rect x="4" y="93" width="1" height="1" fill="#823E2C" />
<rect x="5" y="93" width="1" height="1" fill="#823E2C" />
<rect x="6" y="93" width="1" height="1" fill="#823E2C" />
<rect x="7" y="93" width="1" height="1" fill="#823E2C" />
<rect x="8" y="93" width="1" height="1" fill="#823E2C" />
<rect x="9" y="93" width="1" height="1" fill="#823E2C" />
<rect x="10" y="93" width="1" height="1" fill="#823E2C" />
<rect x="11" y="93" width="1" height="1" fill="#823E2C" />
<rect x="12" y="93" width="1" height="1" fill="#823E2C" />
<rect x="13" y="93" width="1" height="1" fill="#823E2C" />
<rect x="14" y="93" width="1" height="1" fill="#823E2C" />
<rect x="1" y="94" width="1" height="1" fill="#FFE947" />
<rect x="2" y="94" width="1" height="1" fill="#823E2C" />
<rect x="3" y="94" width="1" height="1" fill="#823E2C" />
<rect x="4" y="94" width="1" height="1" fill="#823E2C" />
<rect x="5" y="94" width="1" height="1" fill="#823E2C" />
<rect x="6" y="94" width="1" height="1" fill="#823E2C" />
<rect x="7" y="94" width="1" height="1" fill="#823E2C" />
<rect x="8" y="94" width="1" height="1" fill="#823E2C" />
<rect x="9" y="94" width="1" height="1" fill="#823E2C" />
<rect x="10" y="94" width="1" height="1" fill="#823E2C" />
<rect x="11" y="94" width="1" height="1" fill="#823E2C" />
<rect x="12" y="94" width="1" height="1" fill="#823E2C" />
<rect x="13" y="94" width="1" height="1" fill="#823E2C" />
<rect x="14" y="94" width="1" height="1" fill="#FFE947" />
<rect x="1" y="95" width="1" height="1" fill="#FFE947" />
<rect x="2" y="95" width="1" height="1" fill="#FFE947" />
<rect x="3" y="95" width="1" height="1" fill="#823E2C" />
<rect x="4" y="95" width="1" height="1" fill="#823E2C" />
<rect x="5" y="95" width="1" height="1" fill="#823E2C" />
<rect x="6" y="95" width="1" height="1" fill="#823E2C" />
<rect x="7" y="95" width="1" height="1" fill="#823E2C" />
<rect x="8" y="95" width="1" height="1" fill="#823E2C" />
<rect x="9" y="95" width="1" height="1" fill="#823E2C" />
<rect x="10" y="95" width="1" height="1" fill="#823E2C" />
<rect x="11" y="95" width="1" height="1" fill="#823E2C" />
<rect x="12" y="95" width="1" height="1" fill="#823E2C" />
<rect x="13" y="95" width="1" height="1" fill="#FFE947" />
<rect x="14" y="95" width="1" height="1" fill="#FFE947" />
<rect x="2" y="96" width="1" height="1" fill="#AEB5BD" />
<rect x="3" y="96" width="1" height="1" fill="#AEB5BD" />
<rect x="4" y="96" width="1" height="1" fill="#AEB5BD" />
<rect x="11" y="96" width="1" height="1" fill="#AEB5BD" />
<rect x="12" y="96" width="1" height="1" fill="#AEB5BD" />
<rect x="13" y="96" width="1" height="1" fill="#AEB5BD" />
<rect x="2" y="97" width="1" height="1" fill="#AEB5BD" />
<rect x="3" y="97" width="1" height="1" fill="#AEB5BD" />
<rect x="4" y="97" width="1" height="1" fill="#AEB5BD" />
<rect x="5" y="97" width="1" height="1" fill="#AEB5BD" />
<rect x="6" y="97" width="1" height="1" fill="#AEB5BD" />
<rect x="7" y="97" width="1" height="1" fill="#AEB5BD" />
<rect x="8" y="97" width="1" height="1" fill="#AEB5BD" />
<rect x="9" y="97" width="1" height="1" fill="#AEB5BD" />
<rect x="10" y="97" width="1" height="1" fill="#AEB5BD" />
<rect x="11" y="97" width="1" height="1" fill="#AEB5BD" />
<rect x="12" y="97" width="1" height="1" fill="#AEB5BD" />
<rect x="13" y="97" width="1" height="1" fill="#AEB5BD" />
<rect x="2" y="98" width="1" height="1" fill="#AEB5BD" />
<rect x="3" y="98" width="1" height="1" fill="#AEB5BD" />
<rect x="4" y="98" width="1" height="1" fill="#AEB5BD" />
<rect x="5" y="98" width="1" height="1" fill="#AEB5BD" />
<rect x="6" y="98" width="1" height="1" fill="#AEB5BD" />
<rect x="7" y="98" width="1" height="1" fill="#AEB5BD" />
<rect x="8" y="98" width="1" height="1" fill="#AEB5BD" />
<rect x="9" y="98" width="1" height="1" fill="#AEB5BD" />
<rect x="10" y="98" width="1" height="1" fill="#AEB5BD" />
<rect x="11" y="98" width="1" height="1" fill="#AEB5BD" />
<rect x="12" y="98" width="1" height="1" fill="#AEB5BD" />
<rect x="13" y="98" width="1" height="1" fill="#AEB5BD" />
<rect x="2" y="99" width="1" height="1" fill="#AEB5BD" />
<rect x="3" y="99" width="1" height="1" fill="#AEB5BD" />
<rect x="4" y="99" width="1" height="1" fill="#AEB5BD" />
<rect x="5" y="99" width="1" height="1" fill="#AEB5BD" />
<rect x="6" y="99" width="1" height="1" fill="#AEB5BD" />
<rect x="7" y="99" width="1" height="1" fill="#AEB5BD" />
<rect x="8" y="99" width="1" height="1" fill="#AEB5BD" />
<rect x="9" y="99" width="1" height="1" fill="#AEB5BD" />
<rect x="10" y="99" width="1" height="1" fill="#AEB5BD" />
<rect x="11" y="99" width="1" height="1" fill="#AEB5BD" />
<rect x="12" y="99" width="1" height="1" fill="#AEB5BD" />
<rect x="13" y="99" width="1" height="1" fill="#AEB5BD" />
<rect x="2" y="100" width="1" height="1" fill="#AEB5BD" />
<rect x="3" y="100" width="1" height="1" fill="#AEB5BD" />
<rect x="4" y="100" width="1" height="1" fill="#AEB5BD" />
<rect x="7" y="100" width="1" height="1" fill="#823E2C" />
<rect x="8" y="100" width="1" height="1" fill="#823E2C" />
<rect x="11" y="100" width="1" height="1" fill="#AEB5BD" />
<rect x="12" y="100" width="1" height="1" fill="#AEB5BD" />
<rect x="13" y="100" width="1" height="1" fill="#AEB5BD" />
<rect x="7" y="101" width="1" height="1" fill="#823E2C" />
<rect x="8" y="101" width="1" height="1" fill="#823E2C" />
<rect x="7" y="102" width="1" height="1" fill="#823E2C" />
<rect x="8" y="102" width="1" height="1" fill="#823E2C" />
<rect x="7" y="103" width="1" height="1" fill="#823E2C" />
<rect x="8" y="103" width="1" height="1" fill="#823E2C" />
<rect x="7" y="104" width="1" height="1" fill="#823E2C" />
<rect x="8" y="104" width="1" height="1" fill="#823E2C" />
<rect x="7" y="105" width="1" height="1" fill="#823E2C" />
<rect x="8" y="105" width="1" height="1" fill="#823E2C" />
<rect x="7" y="106" width="1" height="1" fill="#823E2C" />
<rect x="8" y="106" width="1" height="1" fill="#823E2C" />
<rect x="7" y="107" width="1" height="1" fill="#823E2C" />
<rect x="8" y="107" width="1" height="1" fill="#823E2C" />
<rect x="7" y="108" width="1" height="1" fill="#823E2C" />
<rect x="8" y="108" width="1" height="1" fill="#823E2C" />
<rect x="7" y="109" width="1" height="1" fill="#823E2C" />
<rect x="8" y="109" width="1" height="1" fill="#823E2C" />
<rect x="7" y="110" width="1" height="1" fill="#823E2C" />
<rect x="8" y="110" width="1" height="1" fill="#823E2C" />
<rect x="7" y="111" width="1" height="1" fill="#F1892D" />
<rect x="8" y="111" width="1" height="1" fill="#F1892D" />
</svg>