<svg xmlns="http://www.w3.org/2000/svg" viewBox="0 0 1024 1024"><defs><style>.cls-1{fill:#f2f2f2;}.cls-2{fill:#fefefe;}.cls-3{fill:#74b9ae;}.cls-4{fill:#0b0b0b;}.cls-5{fill:#b05726;}.cls-6{fill:#fcfcfc;}.cls-7{fill:#b79e71;}.cls-8{font-size:24px;font-family:MyriadPro-Regular, Myriad Pro;}.cls-9{letter-spacing:0em;}.cls-10{letter-spacing:-0.01em;}.cls-11{letter-spacing:0em;}.cls-12{letter-spacing:0em;}.cls-13{letter-spacing:-0.01em;}.cls-14{letter-spacing:0em;}.cls-15{letter-spacing:-0.01em;}.cls-16{letter-spacing:0.02em;}.cls-17{letter-spacing:0.02em;}</style></defs><title>Artboard 2</title><g id="Layer_1" data-name="Layer 1"><rect class="cls-1" x="0.5" y="-511.5" width="1023" height="2047"/><path class="cls-2" d="M.11,1023.89Q.11,514.25,0,4.6C0,.76.76,0,4.6,0Q512,.17,1019.4,0c3.84,0,4.6.76,4.6,4.6q-.16,507.41,0,1014.8c0,3.84-.76,4.6-4.6,4.6Q510,1023.84.11,1023.89Z"/><path class="cls-3" d="M566.4,624c36.68,6.07,69,20.42,90.26,52.3,10,15,6.53,30.1-3.68,45.48-68.61,103.3-172.24,91.85-273.66,81.86-48.48-4.77-93.57-27.07-140.23-41.3-6.31-1.92-12.11-5.87-13.25-12.63-13.83-13.84-39.24-17-31.94-46.51,8.27-33.39,30.49-48.3,61.29-55.21,3.68,5.48-1.91,13.92-13.65,20.54-14.31,8.06-27.28,16.32-28.12,36-.7,16.25,5.88,25.78,19.44,33,33.35,17.66,67.69,38.52,103.94,42.3,57.28,6,113,25.25,174.31,7.17,47.88-14.12,92.12-25.67,125.56-65.13,23-27.09,23.18-35.63-5.44-56-20.64-14.67-43.52-23.43-68.21-28C562.28,632.79,563,628.07,566.4,624Z"/><path class="cls-3" d="M325.49,661.51c-20.12,7.52-39.3,18.51-51,35.63-5.78,8.44,6.17,20.45,17.44,25.22,38.37,16.23,77.15,29.59,119.91,30.17,21.75.29,43.28,6.43,65.65,6.1,18.54-.28,32.32-10.44,48.19-16.21,21.57-7.85,46.93-5.61,63.94-25.84,14.28-17,11.93-29.58-6.7-40.49-5.68-3.32-17.16-5.59-12.27-13.85,5.59-9.48,12.37,1.67,17.29,4.68,12,7.31,27,15.42,22.42,32.44-4.7,17.54-12.73,32.33-31.35,43.13C497.71,789.6,415,778.67,331.05,754c-17.89-5.26-37.43-4.21-54-14.9-8.64-5.56-15.09-11.93-16.15-22.63-8.1-3.43-16-8.32-15.16-17.74s10-12.34,17.58-15.9c23.07-10.81,40.44-32.06,66.95-36.62A21.1,21.1,0,0,1,325.49,661.51Z"/><path class="cls-4" d="M325.49,661.51q2.37-7.66,4.76-15.31,2.53-8.12,5.09-16.24c-.55-5.05-.34-9.85,4.1-13.36,5.28-39.23,18.55-74.16,53-97.47,9.91-6.7,19.47-14.46,30.3-19.13,42.86-18.49,44.38-64.66,66.33-97.06,2.4-3.55,4.05-7.6,6.21-11.72-11.38-6.5-24.56-12-20.64-28.72,2.49-10.64,8.63-18.91,20.28-20.88,5.69-1,11.68-1.23,15.39,4.85a1.6,1.6,0,0,1,.34-.73c1.23.87.46,1.78,0,2.68-2.39,2.7-5.42,1.85-8.37,1.51-6.31-.72-11.95.27-15.8,6-6.67,10-4.9,17.56,5.47,23.69,3.63,2.15,7.61,3.29,11.59,4.49a156.9,156.9,0,0,0,45,11.35c6-.89,11.88-.12,17.81.55,9.2,1,18,.43,24.7-7.13,1.8-2,3.36-4.15,2.45-7.53-2.89-3.7-7.6-4.38-12-5.62-6.21-1.75-12.58-3.1-17.59-7.61-1.26-2.88-1.08-4.93,2.81-4.8,12.9,4.46,35.15.39,35.09,18.2-.09,27-23.72,23.73-41.07,23.05-6.93,25.68-14.16,51.07-20.61,76.66-8.74,34.71,16.58,61.2,23.3,92.27,3.67,17,4.21,33.52,2.87,50.48q-1.7,6.93-3.38,13.85L543.79,673.8c.08,3.55-2.53,5.87-4,8.73-3,5.15-6.9,9.78-8.57,15.64a10.71,10.71,0,0,1-.44,1.39c-.26.71-.56,1.4-.86,2.09-1.68,3.78-2.87,7.84-5.88,10.89-2.25,2.27-4.71,4.9-8.15,2.79s-1.66-5.26-.79-8.07c.14-.47.38-.92.5-1.4,2.89-10.9,8.45-20.56,14.08-30.18,1.84-2.8,3.86-5.47,5.51-8.39,7.19-10,13.65-20.45,17.55-32.26a70.87,70.87,0,0,0,3.07-13.49c2.33-14.12,1.33-27.94-1.47-42-3.07-15.43-9.87-29.21-15.74-43.47-3.6-8.76-8.16-17.35-8.47-27-.44-13.93-.51-27.88,3.3-41.54,4.29-15.38,8.47-30.78,14-45.77a43.3,43.3,0,0,0,2.45-10.67c.24-2.41.16-4.79-3-5.42a135.76,135.76,0,0,1-37.75-8.22,35.14,35.14,0,0,0-7.16-2c-1.61.13-2.12,1.3-2.66,2.59A170.06,170.06,0,0,1,488,420.71,122.39,122.39,0,0,0,474.6,451.8c-5.66,20.82-18.34,36.23-36.33,47.65-5.06,3.21-9.75,7-15.08,9.77-21.11,10.95-37.5,27.38-52.85,45.08-3.9,4.49-6.33,9.78-8.53,15.15a127.42,127.42,0,0,0-8.62,32.19c-1.91,15.05-7,29.39-11.86,43.74-1.14,5-3.94,9.55-4.84,14.68-2.21,8.19-2.79,16.62-3.95,25-.65,4.71-1.08,9.66-5.73,12.62-3.46.67-4.69-1.48-5.4-4.28-1.33-5.31-.42-10.41,1.44-15.43Z"/><path class="cls-3" d="M322.85,677.94c2.24,6-4.9,14,3.93,18.64,4.64,1.26,8.91,3.51,13.67,4.59a114,114,0,0,0,28.22,3c8-.21,15.92,1.12,23.91,1.33,5.19.73,10,2.86,14.48,5.24,16.2,8.62,33.2,8.78,50.62,5.76,6.05-1,12.21-1.91,17.4-5.69,11.1-3.54,22.57-5.23,34.09-6.56,2.7-.31,5.69-.67,8,1.64l-2,9.34c10.1-1.22,10-9.86,13.73-15.19a15.6,15.6,0,0,0,1.13-1.17l-.17.1a19.93,19.93,0,0,1,4.1-4.79c3.91-3.22,6.15-7.19,4.82-12.48l5-7.91c7.36,6.52,14.66,13.68,14.5,24-.15,9.62-6.58,16.23-15.53,19.57-55.5,20.69-111.18,15.82-167.57,3-17.08-3.87-35.78-.56-53.74-.68-9-.06-18.6-1.11-20.92-11.41-2.37-10.53,4.69-17.08,13.52-22C317.47,684.39,320,680.78,322.85,677.94Z"/><path class="cls-5" d="M549.17,396.65c-16.36,0-31.46-5.34-46.46-11.09-1.35-2.31-1.22-4.73-.6-7.21,1.1-4.35,1.84-8.82,3.5-13,2.29-5.73,3-11.81,4.45-17.73.09-.39.18-.78.26-1.17l2.76-33.66c2.65-.49,4.43,1.25,6.19,2.68a71.27,71.27,0,0,0,22.92,12c6.08,2,12.63,1.64,18.77.16,7.91-1.91,15.77-4.26,22.8-8.66,1.49-.93,3.06-2.23,5-.89l-22,45.29L564,366.72c-1.26,4.67-4.51,8.31-6.49,12.64C554.82,385.17,551.89,390.86,549.17,396.65Z"/><path class="cls-5" d="M513.83,308.06c9.5-16.64,26.63-17.63,42.16-17.47,14.15.16,25.51,9.53,33.29,21.94-.56,2.36-2.75,2.76-4.5,3.44-8.95,3.51-18.12,7.66-27.58,7.92C541,324.35,525.85,320,513.83,308.06Z"/><path class="cls-3" d="M646.24,766c17.6-29.41,73.51-39.28,35.45-88.7,17.3,2.33,23.17,10.46,25.73,20.85C713.68,723.52,688,753.29,646.24,766Z"/><path class="cls-3" d="M509.54,832.2c-.08-1.63-.16-3-.27-5,34.36-3.3,69.5-.21,104-24-2.85,9.48-2.77,14.6-5.22,16.56C578.18,843.73,544,835.62,509.54,832.2Z"/><path class="cls-3" d="M214.32,778.1,300.61,809C289.71,820.54,226.28,799.2,214.32,778.1Z"/><path class="cls-3" d="M339.44,616.6q-2,6.69-4.1,13.36c-16,1.47-32,3-48,4.39a10.24,10.24,0,0,1-7.48-1.88C298.76,622.82,318.78,618.52,339.44,616.6Z"/><path class="cls-4" d="M513.83,308.06c24.19,17.79,49.44,17.54,75.45,4.47-.17,1.84-.33,3.69-.5,5.53-26.51,16.74-51.83,16.21-75.7-5.25Z"/><path class="cls-6" d="M340.14,644.94c10.62-59.63,28.21-114.31,89.9-142.28,44.57-20.21,44.17-70.9,67.87-105.4,1-1.46,2.25-2.77,3.38-4.16,2.39,6.95.08,13.69-1,20.45-.5,3.09-2,6-2.39,9.13-1,8.25,1.18,11.21,9.37,12.66a84,84,0,0,1,10.64,2.55c3.31,1,6.43,2.72,10,2.89,3.21-1,4.6-3.69,6-6.32,4.06-7.48,6.55-15.58,9.24-23.61.84-2.51,1.48-5.14,3.86-6.78h6.9c-5.61,19.6-10.1,38.37-16.37,56.52-11.12,32.2-4.86,61.69,9.83,91.2,11,22.1,14.38,46.12,10.19,70.81a8.05,8.05,0,0,1-4.9.17c-7.58-2.4-15.4-1.75-23.16-1.9A162.6,162.6,0,0,1,506.78,619c-4.24-4.18-.42-7.8.81-11.59,1.24-2.66,3.42-4.72,4.77-7.33s2.42-5,1.47-7.86c.16-5,1-9.9-1.07-14.77-4-9.27-11-14.79-20.46-17.6-8.22-2.45-16.78-2.26-25.2-3.16-2-.21-4,0-5.9-.81a4.29,4.29,0,0,1-1.72-1.55c-1.09-8,.8-15.77,1.46-23.64.24-2.94.76-5.85-.17-9.5-8.21,5-17.57,6.83-24.19,13.9-3.47,3.72-6.69,7.84-11.42,10.2-2.1.4-2.76,2.21-3.63,3.78-3.67,6.53-4.89,13.62-4.83,21a27.52,27.52,0,0,1-.19,5.44,204.7,204.7,0,0,0-5.92,35.28,9.2,9.2,0,0,1-1.81,5.09c-2.08,2-4.59,1.2-7,1.12-4.62-.17-9.32-1.47-14.13-.06.52,3.65,3,4,5.13,4.57,3.36.88,6.86,1.05,10.27,1.68,1.77.33,3.68.38,4.75,2.23.38,6,.92,11.95-1.68,17.64-1.44,2.55-3.75,3.52-6.55,3.82a209.84,209.84,0,0,1-42.08.24c-3.64-.34-7.28-.09-10.91-.25C344.26,646.8,341.83,647,340.14,644.94Z"/><path class="cls-6" d="M393.67,707.09c-19.79-1.43-39.92.5-59.23-5.65-2.78-.89-5.12-3.2-7.66-4.86l8.31-37.67c2.41-3,5.8-3.08,9.12-2.85,15.89,1.13,31.8.89,47.71,1,4,0,7.88-1.35,11.85-.3,2.9,1.2,2.78,3.84,2.88,6.29.35,8.8-2.82,16.64-7.64,23.65-3.95,5.72-7.85,11-5,18.46C394.26,705.75,393.88,706.46,393.67,707.09Z"/><path class="cls-5" d="M547,404.07c-1.57,4.73-3.87,9.35-4.6,14.21-4.45,29.84-23.65,24.82-41.93,16.53-9.66-4.38-2.85-14.32-1.57-21.95,1.1-6.53,1.63-13.17,2.41-19.76Z"/><path class="cls-6" d="M554,636,536.05,668.2a5.75,5.75,0,0,1-4.8.7c-13.47-3.1-27-5.94-40.91-5.35-1.8-1.22-1.89-3.09-1.52-4.89a94.59,94.59,0,0,1,10.07-27.91,5.84,5.84,0,0,1,3.29-2.88,8.89,8.89,0,0,1,5.87.47c11.33,4.6,23.09,5.78,35.21,4.92C547,633,551,632.78,554,636Z"/><path class="cls-6" d="M517.15,705.9l-42,6c-1.9-5.48-.71-10.85,1.25-15.89,2.94-7.6,6.39-15,8.46-22.92.55-2.11,1.44-4.1,3.62-5.14,6.83-1.06,13.47.63,20.13,1.55,6.38.88,12.52,3,18.83,4.32a5.13,5.13,0,0,1,3.7,2.24Z"/><path class="cls-6" d="M549.17,396.65c2-11.43,7.42-21.15,14.78-29.93l31.12,12.33C598.6,393.59,587.25,397.88,549.17,396.65Z"/><path class="cls-3" d="M405,657.94l-69.89,1q2.52-7,5.05-14c19.86.06,39.73.19,59.59,0,1.77,0,3.54-2,5.31-3A15.27,15.27,0,0,1,405,657.94Z"/><path class="cls-6" d="M510.06,347.64l-7.35,37.92c-10.48-3.85-23.77-6.17-21.37-21.37,2.17-13.74,11.49-19.5,25.67-15.27C507.82,349.17,509,348.1,510.06,347.64Z"/><path class="cls-3" d="M554,636c-17.57-.92-35.3-.62-52.15-6.9-1.42-4.84-.1-8.58,3.92-11.14,17.22,1.95,34.93-1.56,51.78,4.63Q555.75,629.31,554,636Z"/><path class="cls-3" d="M531.13,676.06l-43.05-7.51c-1.62-2.53-1.18-4.43,1.7-5.59,16-3.51,31,2.55,46.27,5.24Z"/><path class="cls-6" d="M538.8,681.71c5.44,10.1-4.31,12.36-8.92,17.26Z"/><path class="cls-6" d="M530.05,698.88l-1.12,1.17c.1-.41.2-.82.33-1.25Z"/><path class="cls-7" d="M489.78,663c-.57,1.87-1.13,3.73-1.7,5.59q-6.46,21.68-12.94,43.35c-20,10.94-40.85,10.2-61.82,3.63-6.77-2.12-13.11-5.59-19.65-8.45-1.16-3-2.32-6-3.77-9.78,8-11.63,17.05-23.47,15.08-39.36l.06-16q.78-8.38,1.58-16.76c-1.95-3.41-1.3-6.49,1.22-9.32q3.81-20.58,7.63-41.17c3.22,1.56,3.64,4.85,3.81,7.65.84,13.76,9.31,19.53,21.64,22a122.81,122.81,0,0,0,25.22,2.69c13.25-.12,26.58,1.32,39.77-1.19a4,4,0,0,1,2.88.56q-1.52,5.76-3,11.52-2,5.56-3.92,11.14Q495.8,646,489.78,663Z"/><path class="cls-4" d="M508.79,606.45c-21.55,5.1-43.15,2-64.74.39-19.92-1.48-26-15.21-28.58-32.12-.43-11.11-1.7-22.48,9.14-30.18,2.21,1.16,1.26,3.17,1.2,4.86-.14,3.83-1.47,7.48-1.92,11.28-1.24,10.26,2.72,19.6,5.37,29.14.91,3.28,4,4.67,7.8,5,.62-8,2.43-15.67,2.37-23.66s9.14-17.5,17-18.39a4.85,4.85,0,0,1,3.73,1l1.19,1c.43,2.94-2,4-3.71,5.4-2.9,2.46-6.36,4.34-8.06,7.95,1.6,5,7,7.85,14.52,7.84a2,2,0,0,0,.85-.5c2.52-2.86,3.74-7.66,8.93-6.69,6.72,1.25,13.58,2.43,17.85,8.73,2.19,3.25,1.76,6.56.25,10-1.65,3.75-4.19,7.09-5.45,11.4,8.64,1.3,16.48.35,23.72-4.23,1.49-.94,2.74-2.59,4.87-1.9C516.49,599,513.19,603,508.79,606.45Z"/><path class="cls-7" d="M460.14,553.82c-15.83,1-25.9,23.56-19.57,43.77-16.2-1.11-19.83-13.18-16-53.05,10-12.47,23.44-19.88,39.19-26.49C462.54,530.39,461.34,542.11,460.14,553.82Z"/><path class="cls-7" d="M515.1,592.81c-8.94,8.84-19.93,9.41-31.54,8,8.06-24.05,5-31.34-13.44-30.58l-4.7,8.62c-6.86-2.47-15.6-1.67-18.86-11.68l14.77-12.38c16.35,1.4,33.77-.9,46.87,12.33C515.21,574.24,517.82,582.91,515.1,592.81Z"/><path class="cls-3" d="M407.84,615.89c-.4,3.11-.81,6.21-1.21,9.32-7.29-2.21-16.61,1-24.09-10.58Z"/><path class="cls-7" d="M447.22,580.11l34,10.27c-1.87,3.36-3.83,6.91-6.24,11.24l-31.39-2C444.93,592.51,446.12,586.08,447.22,580.11Z"/><path class="cls-7" d="M471.22,581.1c1.38-2.14,2-3.14,2.88-4.49l19.34,7.84Z"/></g><g id="Layer_2" data-name="Layer 2"><text class="cls-8" transform="translate(109.33 233)">2019/09/22<tspan x="0" y="28.8">O</tspan><tspan class="cls-9" x="16.54" y="28.8">r</tspan><tspan x="24.48" y="28.8">i</tspan><tspan class="cls-10" x="30.1" y="28.8">g</tspan><tspan x="43.37" y="28.8">inal: </tspan><tspan class="cls-11" x="89.59" y="28.8">S</tspan><tspan class="cls-12" x="101.49" y="28.8">an</tspan><tspan class="cls-13" x="126.38" y="28.8">n</tspan><tspan class="cls-12" x="139.39" y="28.8">y </tspan><tspan class="cls-14" x="155.78" y="28.8">v</tspan><tspan x="167.23" y="28.8">an </tspan><tspan class="cls-15" x="197.2" y="28.8">L</tspan><tspan class="cls-12" x="208.2" y="28.8">oon</tspan><tspan class="cls-16"><tspan x="0" y="57.6">h</tspan><tspan class="cls-17" x="13.7" y="57.6">ttps://pin.it/qhmihc7idvinqe</tspan></tspan></text></g></svg>