<svg id="Layer_1" data-name="Layer 1" xmlns="http://www.w3.org/2000/svg" viewBox="0 0 512 512"><defs><style>.cls-1{fill:#c96;}.cls-2{fill:#666;}.cls-3{fill:#fff;}.cls-4{fill:#ccc;}.cls-5{fill:#333;}.cls-6{fill:#999;}</style></defs><title>Artboard 1</title><path class="cls-1" d="M167,448.25l13.78.83L301,427.17s12-3,14-4-1-15.06-3-20.07V379h-4l2-37,1.19-13.16L303.55,327l2.07-14.2-9.05.2-18.46,9.75L267.63,355,98,404l-.14,31,13.14.2,14-7,6,2,5,16.06,28-11Z"/><path class="cls-2" d="M19.55,359.35a6.89,6.89,0,0,0-3.69,7.08c.62,7.1,7,15.66,13.81,16.81,8.44,1.4,15.95,5.48,24.28,7.11,6.32,1.23,11.66,5.4,18.21,6.59,13.88,2.53,27.66,5.62,41.47,8.55,5.88,1.25,11.94.94,17.8,2,20.68,3.89,41.44,3.21,62.16,1,13.89-1.49,27.35-5.6,41.09-8,18.38-3.18,33.33-11.81,45.63-25.52,4.17-4.64,3.36-10.27-2.12-13.29a64.24,64.24,0,0,0-8.16-3.68c-8.55-3.25-17.17-6.29-25.69-9.61-1.23-.48-32.15-17.95-70.69-15.45-25.08,1.63-65-5.24-90.41-.24C32,342,20.33,361.2,19.55,359.35Z"/><path class="cls-3" d="M167,358l6.62-5.11L177,343l32-66,17-27,24-45,4.3-32.54,13.32-68.84L280,55s-20,18-26,27-12,20-12,20l-1,38v35l1,28-2,13-9,20s-16,22-16,27-40,75-40,75Z"/><polygon class="cls-4" points="164 372 174 379 186 380 187 384 199 371 182 357 221.06 305.33 242.13 272.25 253.93 250.56 284.95 209.86 331 131 351.37 92.72 361.44 75.52 367 62 280 55 268.73 98.76 254 174 250 205 246.88 213.03 226 250 209 277 189.49 319.75 177.12 344.25 172 355 167 360 164 372"/><path class="cls-2" d="M285.39,208.58l-2.23,3.78L254,250l-15.34,26.72-36.9,54.14L182,357l10.5,9.61L231,329l21-23,15-19,40-50,5.45-5.45c-9.14-7.35-18.26-15.51-26.61-23.73Z"/><path class="cls-5" d="M439,120l-19-20-14-7s-30.92-29-37-29c-3,0-39,68.66-39,68.66l-17.41,29.81-26.78,45.35C292.1,214,305.22,226,305.61,227s5.39,2,6.84,4.55L313,231l22-16,50-42,61-44Z"/><polygon class="cls-6" points="222.99 336.83 231 350 327 272 314 230 303.4 241.5 270.57 280.41 264 291.15 222.99 336.83"/><polygon class="cls-2" points="314 230 320.89 253.9 327 272 408.12 258 479 243 482 239.51 464 172 448 125 446 129 395.62 165.34 371.83 183.1 353.03 201.78 314 230"/><polygon class="cls-4" points="248.33 335.61 253 340 312 300 320 296 323 296 346 299 432 304 454 280 479 243 382.43 262.82 369.46 264.67 327 272 248.33 335.61"/><path d="M312,299.91c-2.64,3.13-6.38,4.75-9.65,7-1,.73-2.46,1.49-2.19,3.07.34,2,1.92,1.35,3.2,1.23,2.78-.25,2.86,1.59,2.75,3.58-.15,2.65-.34,5.31-.42,8s-.78,5.6,3.82,4.75c2-.37,2.44,1.51,2.09,3.11-1.94,9-2,18.1-2.14,27.64-2.26-4.29-1.89-4.24-1.28-8.31.92-6.08,1.28-12.25,1.83-18.38.13-1.4-.05-2.94-1.93-2.69-1.14.15-3.76-.55-2.46,2.38.39.87-.33,1.27-.84,1.56-8.27,4.82-8.88,13.5-10.63,21.47a157.42,157.42,0,0,0-2.56,17.18c-.37,3.47,4.07,6.95,8.49,7.1,5.5.19,7-1.18,7.29-6.21a51.9,51.9,0,0,1,1.36-9.92c0,2.79-.11,5.59,0,8.37s-1.37,6.3,3.19,7.16c.32.06.66,1.12.64,1.7a185.3,185.3,0,0,0,1.63,30.66c-2.23.11-1.88-1.18-2.08-2-.27-1.1-.17-2.47-1.84-2.46-1.25,0-2.28.38-2.56,1.83s-1.87,1.73-2.95,2.42a1.52,1.52,0,0,0-.43-2.18c-4-2.61-1.72-3.78,1.11-4.77.77-.27,1.64-.28,2.42-.53,3.25-1,5.14-8.75,2.77-11.24-1.59-1.67-4.67-1.21-5.27,1-.54,2-1.66,2-3.32,1.93-4.22-.07-8.31-1.89-12.54-1.06-2.33.46-4.59,2.08-6.93-1.49,9.28-3.42,18.63-4,28.15-3.7.42-6.32.28-6.79-5.86-6.12-9.22,1-18.39,2.52-27.55,4-2,.32-2.46,1.54-2.19,4,.75,6.85,3.27,10.84,10.87,11.59,3.88.39,7.51,3.32,11.25,5.11,2.51,1.21,4.67,3.21,7.64,3.39,4.21,3,9.23,4.42,13.69,6.71,6.09,3.12,11.81,7.3,17.45,11.44,13.4,9.84,26.68,20.61,42.68,25.41,21,6.29,42.56,11,64.89,8.45,4.85-.55,9.42-2,14.11-3.13,7.54-1.74,14.75-1.87,21.35,3.3,4.36,3.4,9.16,6.25,13.44,9.86a41,41,0,0,1-11.13-5.95c-5.17-3.7-10.64-8-17.27-6.19-8.08,2.23-16.37,3.3-24.43,5.45-.77.21-1.56.95-2.23.83-19.28-3.4-39.66.83-58.07-9.3-5.95-3.27-12.28-6.63-19.23-8-3.28-.64-5.47-3.23-7.87-5.13-13.22-10.48-28.26-17.88-42.79-26.17-4.36-2.5-8.71-5.57-13.06-7.75-6.93-3.47-14.52-7.08-23.14-4.43-2.87.89-6.32-.46-9.82.61,1.89,1.37,2.88,3.42,6.63,3.38-3.45.67-5.79-.09-7.77,1.2,2.16-2.88-.17-3.55-2.13-3.68-4.82-.31-5.68-3.09-5.15-7.15.14-1.05,1-2.28-.68-4.41-.82,4.85-1.55,8.57-.71,12.56.33,1.59-.09,5.12-.93,4.62-3.23-1.93-3.12,2.3-5.11,2.15a1,1,0,0,0-.91,1.43,1.24,1.24,0,0,0,1.5,1c4.24-1.45,9.18-.95,12.67-4.5,5.41,3.76,10.07-.52,14.72-1.91,2.79-.84,5.24-1.71,8-.92,2.33.66,4.6.32,6.92.25,1.33,0,3-.48,3.16,2,.13,2-1,2.22-2.27,2.49-8.37,1.87-16.74,3.74-25.4,3.37-3-.13-5.28,1.89-7.84,3a19.08,19.08,0,0,1-12.29,1.45c-3.93-.85-8.42.89-13.58,1.62a12.68,12.68,0,0,0,8.25,2.15c1.5-.08,3,0,4.49-.25a4.64,4.64,0,0,1,5.2,3.62c.27.94-2.19,2.82-4.34,3.41-8,2.17-16.17,1.9-24.28,2.54a41.28,41.28,0,0,0-10.76,1.91c-2,.73-4.29,1.12-4.61-1.78-.24-2.23-1.32-5.32,2.31-6.17,3.88-.92,7.8-1.64,11.72-2.37,2.43-.45,4.87-.76,8.07-1.25-2.33-2.26-4.39-1-6-.9-7.51.56-15.1-.59-22.47,2.88-3.24,1.52-8,.84-11.76,0a10.19,10.19,0,0,0-8.42,1.49c-1,.6-3,.64-2.17,2.62.66,1.53,2.2,1.2,3.52,1.1,1.87-.14,3.71-1.43,6.06,0-5.83,2.06-11.34,2.88-17.06,1.29-.46-.13-1.16-.48-1.36-.3-3.75,3.34-.87,7.76-1.78,11.63-.56,2.36,1.64,2.35,3.4,2.24,6-.35,12,.09,17.89-1.33,15.88-3.86,32.23-4.56,48.25-7.57,20.41-3.83,40.78-7.88,61.08-12.3a3.52,3.52,0,0,1,3,.71c-8.41,1.86-16.79,3.9-25.24,5.55-18.73,3.66-37.42,7.71-56.29,10.49-17.26,2.55-34.47,5.85-52,6.47-3.54.13-4.63-1.15-4.75-4.55-.32-9.21-.35-8.95-9.25-5.94-5.75,1.94-10.68,5.76-16.94,6.53-5.05.62-6.23,0-6.5-5.16a33,33,0,0,0-.25-4c-.48-2.62,2-6.51-2.11-7.49-2.11-.52-4.85.86-7.1,1.86-1.87.82-4.22.5-4.72,4.28-.41,3-5.38,3.3-8.57,3-10.18-.85-10-1-10.82-12.18-.49-6.52.36-13,0-19.52-.2-3.28-1.3-4-3.78-4.45-4.41-.82-8.84-1.6-13.24-2.46-7.65-1.51-15.2-3.14-22.27-6.81-3.77-2-8.42-1.58-12.58-2.38-7.26-1.39-10.8-2.56-14.78-4.67s-10.77-5.72-13.19-12.75c-3.7-10.72,5.37-21.92,6.49-22.58,9.14-5.41,19.24-8.12,29.11-11.61,28.63-10.15,58.18-9.54,87.86-8.11,12,.57,24,.66,35.93,1,1.59,0,2.9.08,3.58-1.8,3.7-10.22,11.13-18.41,15.12-28.59,7-17.82,17.14-34.12,26.34-50.84,6.53-11.88,15-22.68,19.55-35.69-3.82,16.86-16.07,29.41-23.62,45.61,3.34-1.08,4.18-3.39,5.57-4.91a50,50,0,0,0,3.95-5.72,7.68,7.68,0,0,1-2,5c-6.58,7.06-10.16,15.94-14.55,24.27-10.11,19.21-18.76,39.15-29.08,58.28-2.83,5.26-5.53,10.93-5.79,17.24-5,1.9-8,5.35-8.23,11.48,2.84-2.21,5.35-4.22,7.93-6.14,2.4-1.79,2.38-3.56.15-5.43,2.55.4,5.05.34,7.11-1.32.95,1.28-1.31,2.42.33,3.24,23.21-31.38,46.15-62.9,66.6-96.16-4.43,10.58-11.91,19.29-17.36,29.28-6.32,11.57-14.9,21.9-22.59,32.71-1.63,2.29-.19,4.92-1.21,7.22,3.38.95,5-1.3,6.79-4.11-1.57,3.28.43,3.37,2.33,3.93s4.58.51,5.26,3.14c.9,3.53,2.36,1.83,3.66.45,4.36-4.58,8.38-9.52,13-13.75,4.49-4.08,6.74-10.35,13.72-13.69-1.56,1.83-2.28,2.73-3,3.57q-11.45,12.52-22.89,25c-.85.95-3.12,1.94-.94,3.44,3.57,2.46,4.63,6.06,4.94,10.66L279,311.82c-2.49,5.59-8.26,7.82-12.54,11.4-2,1.64,1,4-1.49,3.89-7.21-.44-10.27,6.07-16.32,8.4,2.94,2.33,5.58,3.06,7.28.68,3.56-5,9.57-6.46,14.2-9.46,5-3.27,10.64-6.21,15.83-9.59,1.08-.7,3-1.57,2.65-2.68-1.17-3.32,1.66-3.58,3.05-3.68,4.52-.32,7.4-3.43,10.89-5.53C305.67,303.37,308.44,300.9,312,299.91ZM184.16,377.1c-1.61-.21-2.24-1.12-2.08-2.72.3-3.13.59-6.26.78-9.39.08-1.37,1-3.7-.86-3.77-2.06-.08-3.89-2.55-6-.73-3,2.6-5.92,5.3-8.81,8-1.4,1.32-1.24,2.89-.52,4.58.83,1.91,2.36,2.17,4.1,2,1.3-.12,2.58-.41,3.92-.63-.9,2.09-1,2.23,3.62,4.3,2.15,1,4.89,2.23,5.71-1.79,3.75-.1,4.73-3.37,6-5.81,2.51-4.73-3.44-5.87-4.57-9.32A24.16,24.16,0,0,0,184.16,377.1Zm-98.58,8.44c-7.41-.87-14.81-2.3-22.24-2.44-6.91-.14-13.43-2.06-20.07-3.24-4.47-.79-9.08-2.41-12.52-6.57-1.9-2.3-2.68-6.93-7.88-6,1.41,5,3.32,9.22,8.68,11.26,9.43,3.61,18.45,8.13,28.82,9,6.35.53,6.19-.24,7.8-.35,2.71-.2,5.8,2.54,8.51,1.62,2-.67,3.44-1.32,5.58-.74,1.57.42,2.67-1,3.1-2.64l1-.9c-3.72-.7-4.64-4.81-7.63-6.4,1.9.39,4.51.12,5.57,1.29,3.74,4.13,7.82,4,12.5,1.65-1.4,6.13-6.07,6.1-10.48,7.17,14.36,3.82,28.44,8.41,43.37,9-2.08-1.27-4.82-.31-7-2.74,8.58,1.72,17.24.13,24,4.61-8.14,4.07-17.3-.66-27.78-.69,4.35,2.88,8,1.93,11.32,2.54,10.88,2,22.08.75,32.88,3.55,1.73.44,3.65.17,5.48.22,13,.36,25.94-1.29,38.9-2,4.17-.23,8.88-.84,11.84-3.44,4.37-3.83,9.44-4.58,14.48-5.66,7.13-1.53,14.36-2.48,21.31-4.84,4.16-1.42,8.33-2.75,10.54-7a20.17,20.17,0,0,1,6.4-7.6c2.46-1.7,2.61-3.4.4-5.72-7.37-7.77-17.42-8.23-26.86-10.18-3-.63-6.12-.81-8.45-3-.88-.84-1-2.82-2.76-2.11-1.08.43.35,3.07-2,2.9.2,1.86,2,1.58,3,2A42.71,42.71,0,0,0,248,361a20.19,20.19,0,0,1,9.45,2.69,4.54,4.54,0,0,0-4.63.17c7.59,3.16,7.59,3.16,10.46,1.32-2.28,3.82-.39,5.32,4.69,5.5-4.25,2.08-3.5,8-8.77,6.62l.31.15c-2.41-1.6-2.41-1.6,2.2-5.87-1.31-1.6-3.8-.05-4.95-1.76-4.38-6.51-11.26-6.74-17.56-5.8-3.74.56-7.31,1.4-10.75.08-7.18-2.74-12.24,1.33-17.62,4.82-2.37,1.54-4.85,4-7.34,4-5,.16-7.72,3.49-11,6.22-1.79,1.51-3.34,3.29-5,4.89-.68.64-1.43,1.66-2.43.41-3.81-4.83-8.86-4.74-14-3.3a72.49,72.49,0,0,1-16.25,2.19c-10.24.48-20.22-1.53-30.3-2.56-8.21-.84-16.42-1.06-24.09-5.41-6.66-3.77-7.88-7.79-2.37-14.92,5.08-6.59,12.78-6.87,19.85-7.93,15.17-2.27,30.48-.75,45.72-.44,4,.09,5.86-.87,5.85-4.91-2.1-1.25-4.5.51-6.73-.54.84-1.4,3.21.23,3.07-1.87a3.22,3.22,0,0,0-2.6-2.75,11.78,11.78,0,0,0-4.41.28c-4.34,1-8.65,2.12-13.32,3.29,2-2.2,4.85-1.63,7-3.64l-28.78-2.46c3.55-1.28,6.31.08,8.8-1.23-.92-2.47-2.83-2.71-4.92-2.62-5.31.21-10.61.4-15.92.62-13.11.54-26.26-.05-39.34,1.44a45.14,45.14,0,0,0-21.58,8.62c12.7-2.14,24.31-10.42,37.88-6-2.28,1.29-3.23,1.5-9.05,1-7.32-.63-13.15,4.21-20,5.41-5,.87-10.89,1-13.8,6.78-.4.79-1.39,1.43-2.08.89-3.22-2.53-5.94.06-8.85.67.89-1.86,3.86-2.91,2.08-5.93a22.3,22.3,0,0,0-8.34,6.37l6.42-.59c-1.42,1.39-2.91,2.72-4.24,4.2-1,1.16-3.43,2.17-2.36,3.88a6,6,0,0,0,5.41,3c1.11-.07,2.68.21,1-1.74-1.21-1.44-.05-1.48,1.11-1.57.95-.07,2-.76,1.81,1.07s.48,2.89,2.81,2.9c-1.26-5,2-8.79,5.29-10.46,9-4.65,18.9-7.45,28.83-9.31,8.84-1.65,18,.7,27-1.5a19.65,19.65,0,0,1,11.46.62c-6.08,3-12.43.14-18.28,3.95h7.94c-11.47,3.27-22.92,1.33-32.62,8H85.74c-2.21,3.1-5.22,2.56-7.5,3.62A2.7,2.7,0,0,0,80.58,359c-3,.32-5.83.4-8.55,1-4.41.88-6.31,6.08-3.58,9.31-1-1.68-3.93-1.13-4-3.91,0-5-.12-5-5.66-3.49,2.24,1.94,4.61,4.06.12,5.7a1.36,1.36,0,0,0-.7,2.08,3.62,3.62,0,0,0,2.17.85c2.83.35,6-.21,6.76,4,.2,1.08,2.33,2.25,3.33,1.47,4-3.16,5.87.7,8.43,2.35-1.26-.43-2.75-1.52-3.72-1.16-4.85,1.77-8.22-.72-11.63-3.5-1.35-1.1-3.2-2.07-4.51-.68-2.19,2.33-4.49,1.7-7,1.27-1-.17-2.47-.24-2.35,1.89,2.07.89,4.47.21,6.69,1.13,1.77.73-2,2.64,1.09,2.79C67.09,380.5,76.66,381.42,85.58,385.54ZM206,336.92c2.2-5.13,8.4-1.77,11.48-5.28-4.29-1.7-12.67-.45-15.35,2.21-3.18,3.15-4.22,10.07-2.23,14.75,2.28-8.08,2.28-8.08,6.27-11.86-1.76,4.84-5.13,9.29-3.78,14.89.29,1.21.06,3,1.7,3.3s2.1-1.29,3-2.2c2-2,2.65-5.52,6.74-6.42-1.59,4.27-5.39,6.24-6.57,9.92-.58,1.8-1.36,3.83,1.69,3.89,4,.09,7.85.16,10.77-4a15.35,15.35,0,0,0,3-12.27c-.95-6.27-4.9-10.11-11.15-8.92A37.57,37.57,0,0,0,206,336.92Zm61.68,18.46c1.37.59,2.72,1.24,4.12,1.76.94.34,2.73.13,2.17-.79-1.47-2.39,1.1-3.46,1.09-5,0-5,.09-9.82,2.24-14.45a1.77,1.77,0,0,0-1.21-2.4c-1.41-.35-1.62,1-1.84,1.82-1.26,4.64-2.55,9.28-3.47,14-.45,2.27-1,4.16-3.22,5.18,2.79-8.65,4.36-17.68,8.23-26,.45-1,.63-2.12-.34-2.67-.5-.29-1.62.11-2.27.51-9.58,5.88-19.13,11.82-29.43,18.21C251.5,350.78,259.69,352.84,267.68,355.38Zm-133.24,2.08-8.4.81,0,.48,5.13.69c-3.36.78-6.69-.4-9.49,1.89,2.17,1.76,4.39-.1,6.78.69-1.54,1.18-2.59,2.38-4.49,2.82-1.67.38-4.65-1.52-4.86,1.65s3.19,3.36,5.22,4.46c1.06.58,2.62.18,3.94.33,4.52.51,9,1.07,13.56,1.61l-.18,1.28c-5.32-.79-10.66-1.46-16-2.42s-12.43,1.07-14-8.56c-2,6.59,1.66,7.68,5.23,8.82a104.48,104.48,0,0,0,44.37,4.14c3-.36,4.61-1.06,2.57-4.14-1.55-2.36-1-4.81-.33-7.09,1.75-5.88,1.39-6-4.68-7.2-3.14-.64-4,2.46-6.45,2.29-5.29-.37-10.59-1-15.9-.43-1.7.17-1.77-1.12-2.11-2.15,5.38,1.82,10.76.28,16.13.37C145.16,355.32,139.8,356.46,134.44,357.46ZM19.55,359.35a6.89,6.89,0,0,0-3.69,7.08c.62,7.1,7,15.66,13.81,16.81,8.44,1.4,15.95,5.48,24.28,7.11,6.32,1.23,11.66,5.4,18.21,6.59,13.88,2.53,27.66,5.62,41.47,8.55,5.88,1.25,11.94.94,17.8,2,20.68,3.89,41.44,3.21,62.16,1,13.89-1.49,27.35-5.6,41.09-8,18.38-3.18,33.33-11.81,45.63-25.52,4.17-4.64,3.36-10.27-2.12-13.29a64.24,64.24,0,0,0-8.16-3.68c-8.55-3.25-17.17-6.29-25.69-9.61-3.32-1.3-6.17-.23-7,2.54-.78,2.57,2.47,3.45,4.6,4.19,2.5.87,5.1,1.47,7.66,2.19,6.23,1.76,12.61,3.13,18.67,5.36,8.24,3,9.2,8.75,2.74,14.07a15.42,15.42,0,0,0-3.67,4.65,14.5,14.5,0,0,1-7.66,6.79c-9.44,3.65-19.13,6.5-28.77,9.56-18.29,5.79-37.07,7.21-56,7.88-15.67.55-31.15-2-46.73-2.85-9-.47-17.89-1-26.71-3-12.62-3-25-6.8-37.63-9.62-10.73-2.4-21.24-5-31.36-9.37A21.48,21.48,0,0,1,23.59,374C20.17,369.64,21.57,364.12,19.55,359.35Zm266.35,9.24c.49,1-.81,3,1.1,3.22,2.12.24,3.09-1.4,3.29-3.51a96.34,96.34,0,0,1,4-21.16c1.65-5,1.34-11.11,5.39-14.67,5.17-4.56,4.4-10.35,5.21-15.92.21-1.43,0-3.12-1.9-3.57-.95-.23-2.2-.39-2.76.54-.8,1.35-.72,3.66.23,4.12,2.69,1.29.27,2.22.15,3.28-.39,3.58-5,4.37-5.32,8.07,0,.2-1.53.63-1.69.43-3.4-4.3-2.53.61-2.78,1.46-2.24,7.56-1.18,15.59-3.6,23.24C285.82,358.58,287,363.71,285.9,368.59ZM177.76,426.92c-3.62-4-2-6.23,2.38-7.12,3.56-.73,7.17-1.22,10.76-1.84,3.07-.53,4.65-3.55,2.81-5.83-1.13-1.4-3.24-1.48-5-1.41-6.46.25-12.92.65-19.37,1.1-.84.06-2.95-.55-2.09,1.57,2.07,5.09-.36,10-.17,15,0,1.25-.52,2.8,1,3.53a2.21,2.21,0,0,0,1.81-.37c1.32-1,.76-2.35.48-3.65-.16-.7-1.28-1.16-.43-2.21C172,427.34,174.19,428.22,177.76,426.92ZM141.24,413.3c-2.67,1.05-4.57.09-6.29,1.16-1.52,1-2.44,2.28-1.52,3.65s2.77.13,3.22-.69c1.32-2.4,3.49-2.67,5.55-2.33a62.49,62.49,0,0,0,17.49.15c1.37-.16,2.8.18,3-1.65.25-2.25-1.59-1.74-2.75-1.74-10.68,0-21.13-2.79-31.73-3-9.25-.18-18.44-5.24-27.66-.33-1-1.91,2.73-1.71,1.32-3.44-.5-.62-1.74-1.49-2.64-.58-1.58,1.59-.47,3.78-.86,5.68s1.42,1.79,2.79,1.85c3.55.16,7.27-1.55,10.62,1,.29.21,1.29.09,1.37-.12,1.54-3.8,4.53-.92,6.65-1.57,3.89-1.18,8.07,6.2,11.62-.52.25-.48,1.33-.18,1.7.45C134.87,414.27,137.81,413,141.24,413.3ZM77.46,334.81c32.73-1.19,65.5,1.3,98.21-.86C142.93,333.37,110.14,329,77.46,334.81Zm24.85,37.69-.5,1.75c17.27,6.34,35.55,6.08,54.1,7.81a2.92,2.92,0,0,0-3-2c-11.62-1.31-23.24-2.14-34.54-5.85-9.15-3-10.85-4.93-7.79-14.29-3.22,1.28-6.15,2.82-6.55,6.2-.62,5.35,4.19,6.83,7.44,9.59Zm43.61,66.68a41.75,41.75,0,0,0,15.35-5.09c1.66-.95.93-3.06.7-4.62-.25-1.72-1.8-1.55-3.15-1.64-1.82-.12-3.62-.43-5.43-.64-5.76-.69-11.52-1.42-17.29-2-1-.1-2.64-.53-2.7,1.22-.05,1.14,1.2,1.49,2.19,1.59,1.32.15,2.68,0,4,.23s3.42.5,4.07,1.47c3.79,5.66,6.31,6.61,12.25,3.87.89-.41,1.57-1.37,2.71-.23C155.51,437.17,149.48,434.18,145.92,439.18Zm51.24-101c-6.41,5.45-7.14,12.79-11.91,17.51a1.12,1.12,0,0,0,1,2c3.66-.92,3.55.87,2.83,3.43a2.37,2.37,0,0,0,1,2.62c.64.48,1.61.31,1.72-.2.66-3.06,2.15-4.24,5.43-3.53.81.17,1.94-2.2,1.53-3.28C196.54,351.07,196.55,345.22,197.16,338.2Zm-94,22.09c3.09.62,5.38-1.57,8.07-1.88,17.2-2,34.37-5.5,51.76-1.55,1.28.3,3.44,1,3.75-.9s-1.87-2.07-3.27-2c-12.93.3-25.83-2.39-38.79-.1C117.23,355.14,109.8,356.4,103.17,360.29Zm188.37-42c-2.09,3.07-4.87,5.51-5.54,8.42a177.88,177.88,0,0,0-4.1,34c0,1.38,0,3.49,1.93,3.43,1.66-.06,1.33-2,1.36-3.29.33-12.6,1.66-25,6-37C291.71,322.41,292.61,320.78,291.54,318.3ZM74.32,390.39c13.32,4.71,26.82,8.54,41,9.43C102,395.24,88.78,390,74.32,390.39Zm33.47,30.66c-10.14-3.13-10.77-2.61-9.38,7a16,16,0,0,1,.43,3.46c-.33,3.57,1.71,3.08,4.27,3.31,2.77.25,3.59-3.76,5.93-2.41,3.45,2,4-2.41,6.45-2.43.05,0,.31-1.16.12-1.31-1.77-1.35-3.46.34-5.24.22-2.35-.16-4.07,1-5.54,2.8-.71.86-2,1.85-3,.8s.25-2.08,1.06-2.85,1.59-1.19,2.31-1.87c.55-.52,1.5-1,.9-2-.49-.82-1.38-.73-2.22-.74-1.11,0-2.11,1.42-3.25.34-1.84-1.74.88-1.85,1-2.81,0-.34-1.09-.81-1.79-1.3C102.39,420.21,104.71,422.66,107.79,421.05Zm-8.32-7.33-.26,1.6c5,1,10,1.59,14.85,3.08,4.54,1.41,9.45.1,13.79,2.36.66.35,1.33-.25,1.34-1,0-1.32.2-2.79-.31-3.91-.61-1.35-2-.32-3.11-.32-3.36,0-6.72,2.1-10,.78A33.45,33.45,0,0,0,99.47,413.72ZM276,354.88c-.49,3,.29,4.4,2.29,4.64,3,.36,1.82-2.11,2.09-3.44,1.16-5.65-2.54-11.81,1.73-17.13,1.14-1.41,1.14-3.08,1.47-4.68.24-1.11.69-2.48-1-2.83s-1.73,1.09-2.12,2.17C277.84,340.82,277.51,348.52,276,354.88Zm-89-33.71-1.55-.84L169.14,353l2,1Q179,337.59,187,321.17ZM58.7,365.57c-2.07-2-4.88-1.77-7.23-2.62-1.92-.69-3.43.81-3.72,3-.35,2.59.55,4.68,3,5.72,1.76.76,3.22.2,3.78-1.89S57.17,367,58.7,365.57Zm9.64-12.87c.28-.7.26-1.3-.58-1.55-1.2-.35-3.07,0-3.2.61-.72,3.43-3.25,2-5.21,2.44-1.34.27-2.94.76-3.06,2.71a2.36,2.36,0,0,0,1.79,2.61C60.57,360.33,68.15,355.25,68.34,352.7Zm85.8,26c1.43.28,3.31.09,4.22.94,3,2.79,6.1,1.64,9.25.84,1-.26,2.72-.07,2.56-1.68s-1.66-1.73-3-1.85C162.66,376.55,158.35,377.62,154.14,378.7Zm-42.73,42.4c1.25,3.39,3.12,4,5.73,4,3,.07,6.38-1.19,9,1.36.84.81,1.62,1.26,2.54.54a2.4,2.4,0,0,0,.53-1.76c-.05-1.31-1.14-1.41-2.14-1.57Zm163.41-37.39a31.63,31.63,0,0,1,12.08-3.29c3-.33,1.92-2.54,2.16-4.14.14-1,.31-2.24-1.07-2.3-1.7-.08-2.62,1.16-3.15,2.66a5.61,5.61,0,0,1-.23,1c-.68,1.14-1.36,2.4-3,2.23-2-.22,1.07-2.52-1.14-2.81C278.75,378.68,276.56,380,274.82,383.71ZM134.7,440.36c1.4-3.52,2.13-6.1,5.24-6.6,1.18-.19,1.7-1.27.67-2.16-1.36-1.19-3.1-2.54-4.88-1.63-1.6.81-3.45,2.08-2.69,4.58C133.5,436.09,133.93,437.64,134.7,440.36Zm70.76-23.84c8.64,0,17-1.93,25.53-2.91C222.57,415.6,213.69,413.08,205.46,416.52Zm28.41,0a84.09,84.09,0,0,0-22,2.18C219.29,419,226.76,419.63,233.87,416.54Zm-40.61-46c-2.68,3-4.75,5.28-6.81,7.59-.56.62-1.16,1.31-.58,2.17s1.53.43,2.25.16C192.3,378.89,193.7,375.71,193.26,370.53ZM84.58,350.25c-4.92,1.33-11.23-2-15.17,4.49C75.09,354.42,79.74,352,84.58,350.25Zm89.77-10.48c.38-1.68-.6-2-1.32-1.76-2.63.8-5.29,2.1-6.56,4.43-.55,1,2,1.7,3.44,1.8C173.39,344.47,173.2,341.23,174.35,339.77Zm106.35-17c-2.88,1.58-2.73,4.95-4,7.52a1.07,1.07,0,0,0,1.19,1.58c3.73-1,2.9-4.73,4-7.27C282.27,323.86,282.05,322.93,280.7,322.75Zm-136.52,114c-.11-1.68-2.07-1.53-2.55-1.44-2.36.45-2.43,3.08-3.54,4.7-.63.93,1.11,1.15,2.07,1.23C143.4,441.48,142.63,438.19,144.18,436.75Zm-99-64.12c-4.12-2.17-8.68-1.33-13-2C36.11,373.69,40.66,373.09,45.2,372.63Z"/><path d="M292,213.71c-.88-.74-1.78-1.45-2.62-2.22-2.25-2.05-4.44-3.63-6.44,1.3.51-5.16-2.18-6.55-5.71-7.3-8.14-1.74-16.5.33-24.64-1.56-1.71-.4-2,1.45-2.61,2.52-1.38,2.62-2.14,5.55-4.05,7.89l3.2-9.69c-4.67.48-4.32,5.48-7.17,7.33a1.88,1.88,0,0,1,.5-2.38c7.44-8.12,4.54-18.69,6.6-28.06,1-4.36.91-8.94,2.41-13.21,1-3-.23-5.52-1-8.2-1.26-4.31-2.66-8.58-3.7-12.94-.4-1.66-2-4.36,1-5,2.28-.47,5.06,0,6,3.11.18.6.27,1.23.57,2.59,2.75-4.25,5.64-7.25,6.47-12.17,2.41-14.41,5.9-28.61,9.38-42.82,2.77-11.35,3.55-23.17,7.52-34.43-5.13,3.12-9.14,7.32-12.92,11.58-5.28,6-10.09,12.34-14.86,18.71-6.23,8.33-8.65,17.77-8,28.16,1.14,19-1,37.9-.13,56.85.39,8.28.65,16.56.95,24.84.06,1.59,0,3.18,0,4.77l-1.29,0c0-4,.08-8,0-12-.32-13-1.26-26-.9-38.92.45-16,.86-31.93.83-47.91,0-4.07,2.09-7.32,3.95-10.6,8.2-14.5,19.53-26.43,31.37-37.93a4.46,4.46,0,0,1,4-1.23c28.58,2.94,57.46,2.4,85.86,7.55,4.15.76,7.4,3,10.53,5.35,9.49,7,19.32,13.65,27.2,22.6a20.58,20.58,0,0,1,1.59,2.45l.12-.12c-3.89-1.16-6-4.58-8.66-7.17-5.94-5.84-13.31-9.77-19.51-15.2a4.25,4.25,0,0,0-.7-.5c-1.39-.82-3-2-4.17-.24a3.1,3.1,0,0,0-.7,2.26c.7,2,2.32-.62,3.59.88-3.4.55.23,6.33-4.69,6.11-1.45-1.79,2.34-3.09.34-4.41-1.8-1.19-2.79,1.11-4.17,1.78-.59.28-1.05,1.07-1.61,1.12-8.13.74-4.52,4.88-2.41,8.44,1.17,2,0,3.54-1.34,2.74-2.31-1.34-3.41-.64-4.31,1.12-1.24,2.47,2.24,1.68,2.54,3.13-.53.94-1.4,1.43-2.11.89-4.07-3.13-5,2.19-7.63,2.76.86,2.49-2.28,3-2.33,5.07a.5.5,0,0,0,.3.49c.55.2,1.42-.39,2.35-.69-.25,2.59-2,3-4,3.38-1.44.29-2,1.67-2.37,2.95a1.27,1.27,0,0,0,.66,1c1.39.29,2-.75,2.77-1.68,3.62-4.54,4.83.59,7,1.78-2.76.26-5.52.5-8.28.8-.75.09-2.61,4-2.36,5a.92.92,0,0,1-1,1.21c-2.12-.47-4.46-.36-4.41,2.08,0,1.61,2.79,2,4.39,2.88-.63,2.51-3.25,2.54-5.1,3.61,1.38,2,3.11,1.74,4.63,1.34,1.83-.48,2.48-2.16,2.51-3.85,0-1.45-1.16-1.26-2.17-1,.72-1.75,2.54-1.93,3.89-2.8,1.19-.76,2.37-1,2.92.23.65,1.46-1.12,1.16-1.82,1.63a3.17,3.17,0,0,0-1.28,2c-1.58,6-5.38,7.74-10.76,5.46-4.21-1.79-2.58,2.77-4.18,3.79.74,1.15,1.39.88,1.84.39,1.2-1.28,1.77-1.46,3.38,0,2,1.84.54,2.34-.33,3.41-.68.82-2.08,1.63-.93,2.86,1.38,1.47,2.64.88,3.55-.74l-.06,0c-.87,4.29-2.23,8.62.81,12.64.35.47.46.81-.15.93a11.38,11.38,0,0,1-1.94,0l.14.14c-.88-2.55-.13-5.77-3.3-7.36-.95-.47-.85-1.2.34-1.62,1.68-.59,1.59-1.77.25-2.47-2-1-4.07-1.68-1.83-4.44.44-.55-.35-1.15-1.07-1.28-1-.2-2.28-.19-2.55.94-.87,3.69-3.77,6.07-5.57,9.16-.43.73-.82,1.56,0,2.22a1.6,1.6,0,0,0,2.23-.36c1.25-1.31,2.37-2.75,3.86-4.52.5,1.71.89,3.09,1.42,4.91-2.82-.46-5.73-.18-4.84,3.27,1.49,5.81-3.26,5.8-6.25,7.12-1.27.55-3.19,0-3.28,2a4,4,0,0,0,1.53,3c1.52,1.07,2.26-.76,3.2-1.51s1.86-2.64,3.16-1.18-.27,2.53-1.51,3.34-1.81,2.16-3.53,2.53c-4.1.87-5.13-1.11-4.51-4.65-2.25.13-3,2.09-2.7,2.76,1.78,4,0,7-2,10.1l.16-.15c-2-.86-3.23-.78-4.57,1.63-5,9-9.7,18.11-15.77,26.43a11.75,11.75,0,0,1,.7-1.85c11.8-21.53,23.35-43.2,36.17-64.16,7.55-12.32,12.36-26.06,20.49-38.14a177.06,177.06,0,0,0,15.56-27.8c.65-1.49,2.72-3.94.83-4.74-3.22-1.37-1.45,2.79-2.92,3.77A9.53,9.53,0,0,0,360.62,69c-.74-2.42,1.8-5.85-2.69-6.36-7.91-.9-15.76-2.42-23.68-3.13-15.73-1.4-31.57-.71-47.3-2.56-2.51-.3-8.29-2.34-5.8,4.65a.85.85,0,0,1-.36.72c-4.16.91-2.72,4.76-3.82,7.26-2.65,6.07-1.32,12.8-3.61,19.12-4.75,13.11-7.45,26.85-10.49,40.45C261,137.29,259.65,145.56,258,154H271.8c-2.78,2.56-4.39,4.51-6.87,5.23-4.4,1.29-8,3.49-8.68,8.46-1.34,10.2-2.45,20.43-3.76,30.64-.42,3.23,1.06,4.2,4,4.94,6.75,1.71,13.83-1.13,20.28,1.27,6.19,2.3,10.81,1.76,14.36-4-.42,2.17-1.93,3.79-2.88,5.69-1.32,2.62.6,1.69,1.81,1.43-.62,2.46,1.59,4.06,1.91,6.23ZM372.21,68.18c-.2-1.73-1.39-2.14-2.39-2.61-1.59-.75-2.36.1-3,1.54-.55,1.22.49,2.84-1.5,3.8-1.53.74-3,2.9-1.16,4.39s3.57-.41,4.64-1.74C370.14,71.86,369.69,69,372.21,68.18Z"/><path d="M368.76,265.55c.82-1.56,2.49-1.69,3.86-1.95q25.72-4.75,51.46-9.32c2.26-.41,4.63-.32,6-2.84.27-.49,2.09-3.32,2.52.43.13,1.14,1.79.27,2.63.1,12.68-2.69,25.38-5.29,38-8.26,6-1.4,7.86-4.51,5.92-10.35-3.62-10.91-5.25-22.29-8.64-33.28-4.14-13.44-6.17-27.59-11.34-40.73-3.72-9.45-7.5-18.84-10.31-28.61-.48-1.67-1.43-3.32-.48-5.49A788.9,788.9,0,0,1,483.3,246.18c-1.9-.17-1.54-1.65-2-2.53s-.18-2-.54-2.22c-14.91,21-27.3,43.63-46.44,61.43.12,1.94,2.82.41,3.5,3.47-31.07-4.39-62-5-92.78-7.61,3.26-.91,6.5.73,9.55.26,7.76-1.19,15.2,1.51,22.8,1.22,8.19-.32,16.28.87,24.42,1.2,8,.33,15.93,1,23.85,1.9,4.3.48,7.44-1.13,10.22-4a222.11,222.11,0,0,0,26.2-33.08c2.19-3.37,6.35-6.2,5.2-11.24,3.17-.68,4.68-3.13,6.07-5.69.53-1,1.83-2,1.2-3.08-.86-1.53-2.44-.51-3.61-.27-13.51,2.75-27,5.82-40.51,8.36-19.59,3.67-39.25,7-58.87,10.44-1,.17-1.89.55-2.85.82Z"/><path d="M385.84,169.88c2.84-1.69,5.72-3.33,8.51-5.09,3-1.91,4.22-4,.16-6.14-.52-.28-1.31-.43-1-1.89,2.51,1.72,5.48.3,8.1,1.78,1.23.69,2.08-.64,3-1.28,2.82-2,5.6-4.13,8.41-6.18,5.08-3.68,5.58-5.82,2.7-11.7l-.09.12c7.87,1.85,9.88-5.8,14.24-9.31,1.74-1.41,3-1.45,3.89-.78,1.14.89.85,2.5-.49,3.72a26,26,0,0,0-4.47,5.3c4.07-1,7.18-3.74,10.33-6.33.23-.18.22-.84.11-1.21-.25-.82-2.09-.69-1.33-2.13.11-.2.59-.19.89-.29,2.42-.8,5.17-1.82,7,.48,1.22,1.54-.94,2.32-2.15,3.07-9,5.63-17.9,11.44-26.34,17.91-1.3,1-2.71,1.46-2.83,3.93-.13,2.91-4.07,1.82-6.17,3.09-5.85,3.53-11.12,7.77-16.62,11.7a256.35,256.35,0,0,0-29.16,24.85c-8.34,8.1-17.88,14.8-27.35,21.53l.11.11c2.49-4.13,7-6.3,9.88-9.85-.89-2.58-2.93.81-3.6-1.07-.19-.53.47-1.53,1-2.12,1.53-1.78,2.44-.34,3.59.68s2.43.35,3.55-.52c7.5-5.86,15.19-11.28,20.91-19.37,2.5-3.54,7.61-5.89,11.53-8.8,1.45-1.07,2.8-2.29,4.18-3.45a.71.71,0,0,0,.12-.47c0-.49-.21-.6-.53-.31Z"/><path d="M324.56,263.07c-3.45-4.55-4.6-10-6.22-15.32C317.17,244,316,240.2,315,236.38c-.76-2.91-2.43-3.62-5.1-2.67l.14.15c.68-1.38,3.27-2.89.17-4.18C302.37,226.43,297.36,220,292,214l-.08.14a29.24,29.24,0,0,1,4.27-3.33c2.48-1.29,2.38,1.31,3.12,2.48s1,2.32-.85,2.31c-1,0-2.39-1.35-2.54.72-.09,1.23,1.16,2.1,2.26,2.32,3.11.61,6.49,1.69,8.51-2.6-2.21-.75-6,.75-5.36-4.19,1.91,1.29,3.87,1.79,5.66.09,1.23,3.33,2.54,6.6,6.24,8-1.9,1.5-3.85,2.87-6.4,2.52-.45-1.63,1.94-2.39.63-3.81-.22-.25-.95-.23-1.35-.08-1.43.52-1.85,1.72-2,3.13-.32,2.61.41,4.61,3.09,5.44.89.28,2.54.5,2.19-.84-1-3.82,1.86-2.3,3.15-2.26s2.3,0,2.62-1.44c.36-1.64-.33-2.54-2.05-2.57,1.73-2.87,5.08-.44,7.33-2.05-1.35,2.13.54,6.35-4.44,6.27-.75,0-1.52,2-.85,3,.95,1.47,2,.13,2.95-.38,6.1-3.32,10.85-8.62,17.11-11.72l-.11-.11c-4.79,5.43-10.95,9.14-16.79,13.19-2.86,2-3.94,3.58-2.45,7.25,2,4.88,2.92,10.19,4.37,15.3.8,2.8,1.69,5.61,6.34,4C320.18,256.84,323.41,260.13,324.56,263.07Z"/><path d="M405.87,93.05c5.56,2.54,11.13,5,16.66,7.64,2,.94,1.87,3.42,3.44,5,5.56,5.46,11.72,10.37,16.35,16.74.7,1,2.39,2.1.57,3.24-1.5.95-2.87.29-3.32-1.61l0,0c-1.17-6.29-6.71-9.08-10.61-13.16-.37-.38-1.51-.68-1.71-.47-5,5.28-10.95,1.9-16.5,2a2.22,2.22,0,0,0-2.2,1.61c-.73,4.41-3.49,2.53-6,1.94,3.3-1.21,4.21-5.37,7.91-6,.29,0,.77-.39.76-.58-.1-4.06,3.3-4.84,5.82-6.68,2.67-2,0-2.65-1.38-3-4.06-1.13-7.48-3.06-9.72-6.76Z"/><path d="M357.14,187.27c3.94-.53,2.32-7,7.47-6.32-.1-2-3.47-.51-2.73-2.41a4.51,4.51,0,0,1,3.61-2.88c3.5-.65,4.12-4.62,1.3-6.9-.76-.62-1.05-1.07-.75-2,.48-1.52,1.56-2.24,5.06-3,0,1.81-3.52,1.38-2.47,3.52s2.76,1,4.63-.38C368.94,175.19,368,185.19,357.14,187.27Z"/><path d="M400.89,113.09c-2.48,2.27-4.06,4.07-.28,5.27a2,2,0,0,1,1.24,3.18c-1.33,2.24-2,0-2.93-.56-.56-.37-1.28-.68-1.74,0-1.83,2.87-4.49,2.8-7.29,2.07-1.86-.49-1.91,2.36-3.81,1.8.53-3,2.94-2.45,5-2.83,1.25-.23,3.66.2,3.38-1.8-.3-2.23-2.21-1.06-3.58-.67-.39.12-.89-.13-2.47-.42C393.06,117.42,395,112.92,400.89,113.09Z"/><path d="M320.66,181.09c1.25,3.66-.56,6.82-1.68,10.07-.87,2.53-2.94,1.31-4.82,1.8,2.19-4.52,1-8.72-3.94-10.83,4.3-.46,7.21-2.28,10.55-.55C320.73,181.42,320.7,181.26,320.66,181.09Z"/><path d="M306.93,212.06c2-4.22-2.09-4.67-4-6.5.83-4.72,3.78-6.52,7.9-4.8a1.39,1.39,0,0,1,.59.69c1.43,3.07-1.05,6.05-.18,9.31C311.59,212,308.41,211.44,306.93,212.06Z"/><path d="M425.33,158.74c2.44,1.25,2.08-1.09,2.76-2.13a2.44,2.44,0,0,1,2.47-1.35c1.21.19,1.4,1.11,1.56,2.18.7,4.5-2.06,8.8-7.09,10.31.34-2.38,3-5.54-1.55-6.32l2-2.79Z"/><path d="M372.79,147.4a3.18,3.18,0,0,1,2.43-2.23c2.21-.57,5.39-3.88,6.2,1.74.27,1.84,2.2,3.14,4.84,3.68-5.95,3.25-9.18-2.23-13.51-3.17Z"/><path d="M325.44,277.07c.64-1,1.14-2.13.18-3.07s-1.76.05-2.5.6c-1.54,1.14-3.05,2.33-4.58,3.51.6-2.49,1.6-4.63,3.93-6.08A5.71,5.71,0,0,0,325,266.4c1.13,3.57,4.09,4.55,7.25,4.53,2.39,0,4.76-.89,7.14-1.38h-.07c-1.79,2.12-3.5,3.4-6.82,2.5C328.87,271.05,327.4,274.79,325.44,277.07Z"/><path d="M372.75,147.42c-2.15-.22-1.63,2.18-2.93,3-1.07-1.38-1.93-3.06-3.28-4.09-2.37-1.8-6.27-2.78-.87-5.88,1.84-1-.53-3.32.28-5.25.74,3.55,5.16,5.37,3.9,9.93-.61,2.22,1.45,2.14,2.92,2.31Z"/><path d="M388.31,86.77a6.23,6.23,0,0,1,1.57.26A2.23,2.23,0,0,1,388,89.52c-3.61.84-6.15,2.4-4.87,6.75-1.26.32-1.49,4.85-3.8.93a1.55,1.55,0,0,0-.66-.68c-3.37-1.39-3.37-1.38-1.64-5.28.91,2.45,1.72,5.28,4.18,1.07,1.65-2.81,4.85-3.74,7.24-5.65Z"/><path d="M363.24,114c3.17,1.16,4.39,2.08,2.57,4.33a10.62,10.62,0,0,0-1.36,3.15c-.32.92,1.4,2.5-.64,2.77-1.37.18-2.42-.73-2.57-2.4-.1-1.09-.89-1.64-2-1.78s-1.08,3.49-2.79.76c-1.56-2.48.91-3,2-4.19a19.68,19.68,0,0,1,1.86-1.39c-1.14,3,0,4.42,2.34,4.06C365.66,118.86,365,116.77,363.24,114Z"/><path d="M311.16,173a22.85,22.85,0,0,0,7.86-4c.78-.64,1.61-1.55,2.44-.71s.34,1.82-.57,2.53c-2.16,1.69-4,3.7-6.25,5.37-1.75,1.32-2.58.57-3.64-.14-1.71-1.13-.15-2.18.31-3.24Z"/><path d="M439.57,124c-2.25,3.39-5.71,2.21-8.82,2.32,2.46-2.38,1.29-6.09-2.7-8.26-1.1-.6-2.72-.52-2.61-2.4.07-1.2.28-2.52,1.74-2.56,2-.06.47,1.82.66,1.89,4.74,2,4.58,10.32,11.74,9.08C439.59,124.06,439.57,124,439.57,124Z"/><path d="M396.68,143.06c.59,4-1,5-2.42,6.14-1,.83-.88,1.64-.12,2.52.6.7,1.58,1.26,2.08.46,2.47-3.94,2.39,1.29,3.86,1-3,.22-5.77,2-8.77.37-1.52-.82-2.74-2.08-1-3.3A23.63,23.63,0,0,0,396.68,143.06Z"/><path d="M388.45,86.66l-.49.09c-1,.14-2.83.07-2.67-.49,1.73-6.22-9.82-3.54-6.59-10.74,1.35,1.3,2.15,3,4,4s3.85,1.19,5.91,2c-.1,1.78-2.14,3.52-.32,5.33Z"/><path d="M311.59,189.48c.3,1.26.21,2.49-1.33,2.64-1.27.13-1.58-.67-1.25-2,.42-1.68-1.09-2.1-2.11-2-1.29.16-3.28.14-2.81,2.5a1.61,1.61,0,0,1-1.48,2.12,3.82,3.82,0,0,1-1.32-.28,13.67,13.67,0,0,1,.75-2.81c1.36-2.7,5.41-1.71,6.62-4.7,1,.48.74,2.12,2.18,2.39C311.86,187.62,311.75,188.63,311.59,189.48Z"/><path d="M355.52,155.09c-2.84,3.39-5.77,1.4-8.6.66-2-.52,0-1.08.1-1.43.45-1.41-.47-3.56,1.9-4,1.15-.22,2,.24,1.9,1.54C350.69,155.09,353.47,154.4,355.52,155.09Z"/><path d="M311.9,300.07c4.5-3.32,8.32-7.19,10.13-12.66-1.1,7.82-1.1,7.82,6.83,9.41A21.27,21.27,0,0,0,311.9,300.07Z"/><path d="M320.66,181.09c0,.17.07.33.11.49a5,5,0,0,1,1.76-4.62,2.08,2.08,0,0,0,.21-.21c1.71-1.76,4.25-1.89,5.15-.1,1.19,2.38-1.51,3.2-3.34,3.76C323.32,180.78,322.29,182.88,320.66,181.09Z"/><path d="M346.21,254.88c-.12,2.33-.21,4-.3,5.63-3-1.18-6.17.09-9.19-.57-.3-.06-.67-.84-.62-1.24.14-1,.93-1.28,1.83-1C341.05,258.72,343.52,257.4,346.21,254.88Z"/><path d="M367,102.63c-3.31.36-7.69-1.56-8.67,4.34-.42-1.84-3.93-2.35-1.51-4.76,2.67-2.66,7.63-2.27,10,.62Z"/><path d="M353.42,139.72c1.39,2.51-.06,5-1.29,4.61-3.08-1-3.49,6.08-5.81,2.15-1.54-2.61,3.16-3.4,4.83-5.24A12.54,12.54,0,0,1,353.42,139.72Z"/><path d="M409.42,185.11c7.11-4.54,15.33-5.26,16.31-2A43.08,43.08,0,0,0,409.42,185.11Z"/><path d="M339.37,269.55c7.17-1.25,14.34-2.45,21.49-3.77,2.63-.49,5.22-.91,7.88-.23h0c-7,.24-13.77,1.75-20.53,3.37a25.59,25.59,0,0,1-8.88.63Z"/><path d="M346.69,168.59c2.34-3.15,1.21-5.38-1.56-7.46,1.85.58,3.2.43,4.43-.92.91-1,1.78-.17,2.46.62a1.11,1.11,0,0,1-.55,1.94C348.53,163.67,351.74,168.51,346.69,168.59Z"/><path d="M299.58,206c-2.95,2-5.6,5.38-9.67,2.06C292.4,203.93,295.76,203.86,299.58,206Z"/><path d="M330.16,202.52c.91,1.82-1.22,2.3-.67,3,1.53,2.06,3.21-1,5.27.13-2.38,1.49-5.7,1.3-6.77,4.81C326.53,206.88,325.87,204.05,330.16,202.52Z"/><path d="M383.09,134.78c5.28,1.32,6.42-6,11.65-5.31C391.35,132.59,389.44,138.35,383.09,134.78Z"/><path d="M304.05,371.67c-2.95-2.25-4.74-4.69-1.61-8.05,1.79-1.93-.46-4.05.25-7C305.07,362.11,300.67,367.23,304.05,371.67Z"/><path d="M359.13,218.22c.69-6.28,4.42-6.93,9.52-7.63C365.9,214.36,361.83,214.57,359.13,218.22Z"/><path d="M365.74,131.53c0,1-.92,1-1.6,1.39-1.2.76-4.92.2-2,3.56.65.76-.66,1.19-1.51,1.29a2.27,2.27,0,0,1-2.44-1.37c-.5-1.12,5.47-6.93,6.72-6.61C365.66,130,365.77,130.67,365.74,131.53Z"/><path d="M303.16,195.57c-3.24.38-2,8.88-8,4.6C296.59,196.61,300.12,196.51,303.16,195.57Z"/><path d="M322.74,176.75a2.08,2.08,0,0,1-.21.21c-1.56.83-3.07.65-3.72-1-.5-1.23.77-2,1.77-2.64,1.34-.82,2.28-2.36,4.63-2.46C324.32,173,323.53,174.88,322.74,176.75Z"/><path d="M388.14,247.73c-4.17,2.88-8,.12-11.41,1.66C379.89,244.28,383.77,248.06,388.14,247.73Z"/><path d="M421.32,125.47c-1.36-.28-3.48,1.56-3.14-1,.28-2.22,4.11-1.69,4.45-4.39.31,1.19,2,1.31,1.84,3.17C424.26,126,423.08,126.16,421.32,125.47Z"/><path d="M407.2,143,401,148c-.58-1.6-1.21-3-1.59-4.51a1.65,1.65,0,0,1,.82-2.11c1.24-.47,1.14.29,1.66,1.26C402.89,144.56,405.11,142.48,407.2,143Z"/><path d="M401.07,180c4.35-1.89,6.13-6.95,12.66-7.17C408.56,175,407,180.28,401.07,180Z"/><path d="M357.46,175.77c3.52,2.76.71,4.32-.39,5.64s-4.05.87-3,3.87a2.46,2.46,0,0,1-1.19.47,1.63,1.63,0,0,1-1.49-1.7,3.06,3.06,0,0,1,2.49-3.27C356.54,180.29,357.09,178.36,357.46,175.77Z"/><path d="M375.37,102.9c.72.17,1.12.42,1.05,1.34-.23,2.72,1.19,3,3.43,2.3.7-.23,1.8-.37,2,.79a2.48,2.48,0,0,1-.32,1.84c-1,1.17-1.59-.46-2.16-.51-2.79-.29-4.89-1-5-4.27C374.36,103.67,373.79,102.54,375.37,102.9Z"/><path d="M415.67,139.38c-.54-1.2-2.93-1.44-1.91-3.43a3.46,3.46,0,0,1,3.34-1.64c1.55,0,3.1,0,4.74,0-.56,4-6.24.95-6.25,5.19Z"/><path d="M333.3,192.63c3.24,3,4.2-1.45,6.36-2q.43,5.59-5,6.62c-.7.13-.71.06-1.24-4.77Z"/><path d="M170,438.4c3.69-1.71,6.81-1.17,10.52-1.52C177.26,440.82,174.14,440.23,170,438.4Z"/><path d="M321.2,200.2c.49.38,1.07.59,1.17.94.82,2.72,1.6,5.46,2.28,8.22a1,1,0,0,1-1.18,1.19,3.8,3.8,0,0,1-1.63-.77c.93-3-.63-5.59-1.37-8.31C320.39,201.18,320.88,200.72,321.2,200.2Z"/><path d="M395.45,101.08c-1.28-.25-2.51-.5-2.6-1.55a2,2,0,0,1,2.21-2.09c2.38.48,4.53-.14,6.73-.72.76-.2,1.73-.72,1.89.54.13,1.07-.61,1.31-1.6,1C399,97.24,397.77,100.84,395.45,101.08Z"/><path d="M367.77,229.34c5.32,0,8.56-2.82,12.68-3-1.47,3.21-1.45,3.07-4.89,2.64C373.45,228.73,371.45,230.31,367.77,229.34Z"/><path d="M236.08,232.9c-3.2,5.84-5.74,12.07-10.15,17.2C229,244.19,231.3,237.81,236.08,232.9Z"/><path d="M296.17,365.72c2.49-3.85,0-9.61,5.55-13.42A58.31,58.31,0,0,0,296.17,365.72Z"/><path d="M425.45,158.64c-4.57-.14-7.78,2.74-11,5.69l-.76-1.18c2.81-2.13,5.51-4.46,8.5-6.31,1.38-.85,2,1.35,3.09,1.91Z"/><path d="M379.81,111.74c2.2,2.85,3.87,3.43,5.36.73.47-.87,1.06-1.48,1.85-1,1.06.67.72,1.79.05,2.59a5.5,5.5,0,0,1-4.86,1.84C380.07,115.79,380,114.45,379.81,111.74Z"/><path d="M245,215.41c-1.88,6.49-5.72,12-9.09,17.7C237.68,226.54,242,221.32,245,215.41Z"/><path d="M338,150.91c-.31,4.38-3.93,2.61-6.22,3.23a3.28,3.28,0,0,1-1.12-2c0-1.19,1.12-.72,1.89-.74,1.86-.07,3.72-.21,5.59-.32Z"/><path d="M184.94,438c-2,4.37-6.22,5.3-10.14,6.72C177.45,441.4,182.19,441.24,184.94,438Z"/><path d="M339.3,137.34c2.77.45,4.59-1.17,6.13-3.14,1.37,1.28-.09,2.4.31,3.47.33.89,1.13,1.81,0,2.65-1.91,1.4-1.32-1.22-2.29-1.48-1.42-.38-2.78-1-4.19-1.53Z"/><path d="M374.53,79.3c2.31,1.9-.11,6.5,4.83,5.7-1.16,1.69-2.61,2.45-3.56,1.36A6.15,6.15,0,0,1,374.53,79.3Z"/><path d="M349.81,247.5c.81-1.76,3.73-.69,4.08-3.16.2-1.42,1.42-1,2.37-.84-1.87.74.24,2.56-.75,3.22C353.83,247.83,352,249.47,349.81,247.5Z"/><path d="M367,102.63l-.15.2c.7-1,.93-2.43,2.82-2.67.95,4.57-2.56,5.53-5.74,6.78Z"/><path d="M369.3,88.08c2.61.31,4.93.68,5.06,2.37.14,1.86-2.23,2.55-4.61,3.56C370.74,91.86,370.92,90.1,369.3,88.08Z"/><path d="M304.41,425.71l10.1-2.62C311.36,425.15,308.17,427,304.41,425.71Z"/><path d="M333.42,192.5c-1.24.73-2.75,2.15-3.87.55-.89-1.27.79-2.13,1.76-3a12.27,12.27,0,0,0,1.73-3c1.54,2-.4,3.85.25,5.62Z"/><path d="M325.17,214.86c2.23-1.61,3.93-2.87,5.68-4.06.87-.59,2-1.75,2.77-.05.62,1.32-.26,2.26-1.5,2.59C330.09,213.88,328,214.25,325.17,214.86Z"/><path d="M373.81,120.5c0,2.33-3.65,3.09-2.63,5.85,0,.06-1,.72-1.14.59-1.18-.76.16-3-1.93-3.43-.35-.08.08-1.66.62-1.32C371.26,123.8,371.56,119.57,373.81,120.5Z"/><path d="M385.83,169.86c-.9-.46-1.49.24-2.22.53a3.09,3.09,0,0,1-3.26-.16,1.06,1.06,0,0,1-.16-1.71c1.18-.85,2.51-1.51,3.77-2.25-.28,1.67,0,3.06,1.88,3.6Z"/><path d="M297.26,350.68c.27-3.74,1.59-5.29,5-3.61A11.82,11.82,0,0,1,297.26,350.68Z"/><path d="M358.58,169.42l4.59-4.08C365.44,170.71,362.12,170.13,358.58,169.42Z"/><path d="M226.51,389.9l3.69-2.9h-9.14c4.34-2.73,8.33-1.82,11.73-3.13,1.26-.48,4.66.37,2.33-3.1-.46-.69.78-1.32,1.5-1.64,2-.9,4.28-1.28,4.09-4.5-.07-1.22,2.34-.1,3.24-.12,4.85-.11,4.45,3.58,5.46,6.44.16.46,1.84.39,2.81.56-2.2,3.91-7.24,1.94-10,4.91a78.15,78.15,0,0,0,11.32-2.61c1.88-.59,2.5-1.76,0-2.64l5.9-4.38-.31-.15c.45,6.26-5.05,10.17-11.28,10.2-7.16,0-14.3,1.93-21.47,3Z"/><path d="M315.05,280.41c-.3,2.15-1.89,3.56-3.31,4.83-7.29,6.45-14.29,13.25-22.32,18.82C297,295.11,307,288.87,315.05,280.41Z"/><path d="M271.85,277.93c-4,9.82-10.44,17.67-18.61,24.22C260.36,294.79,267.22,287.22,271.85,277.93Z"/><path d="M249.74,276.72c-3.72,2.73-5,7.36-8.48,10.3-.58.49-.95,1.47-1.9.64-.7-.6-1.07-1.67-.15-2C243.8,283.85,244.9,278.21,249.74,276.72Z"/><path d="M309.88,233.71c-1.53,4.77-6.27,6.93-8.82,10.87,2.42-4,4.4-8.47,9-10.71Z"/><path d="M256.25,246.05c-1.64,3.53-1.85,8-3.9,11.56l-1.61-.84Z"/><path d="M198.63,393.56c1.13-1.69,3.64-1.64,4.8-4-5.05-1.7-10.19-.18-15.12-1.17,8.48.69,16.83-1.29,25.29-1.12.39,0,.77.43,1.55.89l-7.43,2.52c7.12.11,12.93-1.92,18.78-.35,0,0-.1-.06-.08,0-2.67,2.67-5.9,4-9.63,3.3-6.1-1.23-12.16-.55-18.23-.09Z"/><path d="M198.56,393.5c-15.1,2.69-30.85.14-45.47,6.62,2.73-6,30.52-9.52,45.52-6.57Z"/><path d="M95.69,341h33C122.43,343.26,99.86,342.89,95.69,341Z"/><path d="M158.49,393.89l-23-1.68c7.09-1.52,14.14.17,21.16-.91C158.24,391.06,157.63,394.24,158.49,393.89Z"/><path d="M129.66,390.16c-5.73,2.86-10-.68-14.58-1.94C120.22,385.59,124.25,390.75,129.66,390.16Z"/><path d="M164.17,400.45l15.53-.73A20.13,20.13,0,0,1,164.17,400.45Z"/><path d="M72.41,370c1.62-2.33,5.93-.82,6.56-4.58,2.94,1.22,3.75,2.37.25,4.19C76.88,370.82,74.78,371.53,72.41,370Z"/><path d="M151.59,366.3c.11,3.4-2.58,4.07-4.93,4.43-2,.29-2.28-2-2.18-3.21.21-3,3-3.29,5.12-3.77C151.34,363.37,151.78,364.77,151.59,366.3Z"/><path d="M44.88,184.84H43.83v-8.46h1.05Z"/><path d="M46.91,184.84v-6.32h1v1H48a1.87,1.87,0,0,1,.7-.82,2.25,2.25,0,0,1,1.19-.29,2.11,2.11,0,0,1,1.64.61,2.42,2.42,0,0,1,.57,1.73v4.09h-1V181a1.86,1.86,0,0,0-.37-1.26,1.44,1.44,0,0,0-1.12-.41,1.6,1.6,0,0,0-1.21.47,1.83,1.83,0,0,0-.45,1.31v3.74Z"/><path d="M54.44,178.94a2.66,2.66,0,0,1,1.68-.53,2.72,2.72,0,0,1,1.64.46,1.71,1.71,0,0,1,.74,1.23h-1a1,1,0,0,0-.45-.61,1.73,1.73,0,0,0-.93-.22,1.59,1.59,0,0,0-.95.26.78.78,0,0,0-.39.68.68.68,0,0,0,.27.54,2.18,2.18,0,0,0,.83.34l1,.24a3,3,0,0,1,1.33.62,1.42,1.42,0,0,1,.43,1.09,1.63,1.63,0,0,1-.72,1.38,3,3,0,0,1-1.81.53,3,3,0,0,1-1.73-.47,1.65,1.65,0,0,1-.75-1.25h1a1.2,1.2,0,0,0,.51.63,1.78,1.78,0,0,0,1,.24,1.83,1.83,0,0,0,1.05-.28.83.83,0,0,0,.41-.7.71.71,0,0,0-.25-.55,1.86,1.86,0,0,0-.76-.35L55.49,182a2.72,2.72,0,0,1-1.3-.62,1.44,1.44,0,0,1-.42-1.09A1.6,1.6,0,0,1,54.44,178.94Z"/><path d="M65.2,179.3a4.29,4.29,0,0,1,0,4.76,2.36,2.36,0,0,1-1.93.89,2.41,2.41,0,0,1-1.19-.28,1.83,1.83,0,0,1-.78-.78h-.1V187h-1v-8.43h1v1.06h.09a2.17,2.17,0,0,1,.84-.86,2.29,2.29,0,0,1,1.18-.31A2.36,2.36,0,0,1,65.2,179.3Zm-.81,4.11a3.3,3.3,0,0,0,0-3.46,1.61,1.61,0,0,0-1.35-.63,1.64,1.64,0,0,0-1.36.63,2.7,2.7,0,0,0-.51,1.73,2.67,2.67,0,0,0,.51,1.72,1.76,1.76,0,0,0,2.71,0Z"/><path d="M67.54,177a.67.67,0,0,1-.21-.49.66.66,0,0,1,.21-.5.67.67,0,0,1,.49-.21.72.72,0,0,1,.71.71.67.67,0,0,1-.21.49.66.66,0,0,1-.5.21A.67.67,0,0,1,67.54,177Zm0,7.81v-6.32h1v6.32Z"/><path d="M70.46,184.84v-6.32h1v.94h.09a1.38,1.38,0,0,1,.64-.76,2.2,2.2,0,0,1,1.12-.29h.26l.24,0v1a1.57,1.57,0,0,0-.27,0l-.37,0a1.67,1.67,0,0,0-1.19.43,1.42,1.42,0,0,0-.47,1.1v3.92Z"/><path d="M79.21,183.2h1a2.19,2.19,0,0,1-.92,1.28,3.09,3.09,0,0,1-1.74.47,2.61,2.61,0,0,1-2.08-.88,4.06,4.06,0,0,1,0-4.77,2.6,2.6,0,0,1,2.07-.89,2.51,2.51,0,0,1,2,.85,3.46,3.46,0,0,1,.73,2.33V182H75.76V182a2.39,2.39,0,0,0,.53,1.49,1.64,1.64,0,0,0,1.29.55,2.08,2.08,0,0,0,1-.22A1.35,1.35,0,0,0,79.21,183.2Zm-2.9-3.39a2.08,2.08,0,0,0-.55,1.35h3.48a2,2,0,0,0-.48-1.35,1.56,1.56,0,0,0-1.21-.51A1.64,1.64,0,0,0,76.31,179.81Z"/><path d="M82.29,184.06a3.69,3.69,0,0,1-.72-2.38,3.62,3.62,0,0,1,.73-2.38,2.35,2.35,0,0,1,1.92-.89,2.44,2.44,0,0,1,1.19.29,2,2,0,0,1,.79.82h.09V176h1v8.83h-1v-1h-.09a2.07,2.07,0,0,1-.84.82,2.53,2.53,0,0,1-3.12-.59ZM83.1,180a2.8,2.8,0,0,0-.49,1.73,2.76,2.76,0,0,0,.49,1.73,1.78,1.78,0,0,0,2.72,0,2.74,2.74,0,0,0,.5-1.73,2.67,2.67,0,0,0-.51-1.72,1.61,1.61,0,0,0-1.35-.64A1.63,1.63,0,0,0,83.1,180Z"/><path d="M94.59,184.65a2,2,0,0,1-.83-.82h-.1v1h-1V176h1v3.51h.09a2,2,0,0,1,.8-.81,2.51,2.51,0,0,1,3.11.59,4.29,4.29,0,0,1,0,4.76,2.37,2.37,0,0,1-1.93.89A2.42,2.42,0,0,1,94.59,184.65Zm-.4-4.7a3.24,3.24,0,0,0,0,3.46,1.64,1.64,0,0,0,1.36.63,1.6,1.6,0,0,0,1.35-.63,3.3,3.3,0,0,0,0-3.46,1.6,1.6,0,0,0-1.35-.63A1.64,1.64,0,0,0,94.19,180Z"/><path d="M100.41,187.12h-.16l-.15,0v-.86l.21,0h.21a1,1,0,0,0,.7-.24,1.79,1.79,0,0,0,.46-.8l.12-.38-2.34-6.32h1.09l1.74,5.2h.09l1.73-5.2h1.07l-2.46,6.7a3.59,3.59,0,0,1-.87,1.5,1.91,1.91,0,0,1-1.3.4Z"/><path d="M48.71,193.7a4.29,4.29,0,0,1,0,4.76,2.39,2.39,0,0,1-1.93.89,2.47,2.47,0,0,1-1.2-.28,1.83,1.83,0,0,1-.78-.78h-.09v3.06h-1v-8.43h1V194h.09a2.3,2.3,0,0,1,2-1.17A2.39,2.39,0,0,1,48.71,193.7Zm-.81,4.11a3.3,3.3,0,0,0,0-3.46,1.63,1.63,0,0,0-1.36-.63,1.66,1.66,0,0,0-1.36.63,2.76,2.76,0,0,0-.5,1.73,2.73,2.73,0,0,0,.5,1.72,1.77,1.77,0,0,0,2.72,0Z"/><path d="M51,191.43a.7.7,0,0,1-.2-.49.7.7,0,0,1,.7-.71.67.67,0,0,1,.5.21.69.69,0,0,1,.2.5.7.7,0,0,1-.2.49.67.67,0,0,1-.5.21A.69.69,0,0,1,51,191.43Zm0,7.81v-6.32h1v6.32Z"/><path d="M54,199.24v-6.32h1v1H55a1.89,1.89,0,0,1,.71-.82,2.23,2.23,0,0,1,1.19-.29,2.13,2.13,0,0,1,1.64.61,2.42,2.42,0,0,1,.57,1.73v4.09h-1v-3.85a1.81,1.81,0,0,0-.37-1.26,1.39,1.39,0,0,0-1.12-.41,1.64,1.64,0,0,0-1.21.47A1.83,1.83,0,0,0,55,195.5v3.74Z"/><path d="M61.26,199.07a.73.73,0,0,1-.22-.54.69.69,0,0,1,.22-.53.75.75,0,0,1,1.08,0,.69.69,0,0,1,.22.53.73.73,0,0,1-.22.54.75.75,0,0,1-1.08,0Z"/><path d="M64.56,191.43a.67.67,0,0,1-.21-.49.66.66,0,0,1,.21-.5.7.7,0,0,1,1.2.5.7.7,0,0,1-.2.49.7.7,0,0,1-1,0Zm0,7.81v-6.32h1v6.32Z"/><path d="M67.91,191.29h1v1.63h1.41v.85H68.91v3.57a1.21,1.21,0,0,0,.23.81.88.88,0,0,0,.71.25h.47v.85l-.29,0h-.3a2,2,0,0,1-1.4-.39,1.7,1.7,0,0,1-.42-1.29v-3.83h-1v-.85h1Z"/><path d="M71.79,201H70.9L74,190.41h.9Z"/><path d="M76.3,198.47a4.07,4.07,0,0,1,0-4.79,2.74,2.74,0,0,1,2.13-.87,2.72,2.72,0,0,1,2.13.87,4,4,0,0,1,0,4.79,2.69,2.69,0,0,1-2.13.88A2.72,2.72,0,0,1,76.3,198.47Zm3.52-.65a3.39,3.39,0,0,0,0-3.48,1.86,1.86,0,0,0-2.77,0,3.39,3.39,0,0,0,0,3.48,1.86,1.86,0,0,0,2.77,0Z"/><path d="M83,199.24v-8.83h1v3.51h.09a1.81,1.81,0,0,1,.73-.82,2.36,2.36,0,0,1,1.21-.29,2.09,2.09,0,0,1,1.59.61,2.37,2.37,0,0,1,.59,1.73v4.09h-1v-3.85a1.83,1.83,0,0,0-.38-1.25,1.36,1.36,0,0,0-1.08-.42,1.66,1.66,0,0,0-1.3.49A1.81,1.81,0,0,0,84,195.5v3.74Z"/><path d="M90.76,191.31a3,3,0,0,1,3.85,0,2.16,2.16,0,0,1,.77,1.69,2.51,2.51,0,0,1-.37,1.29A11.09,11.09,0,0,1,93.59,196l-2,2.18v.1h4v1H90.05v-.73L93,195.32A9.71,9.71,0,0,0,94.06,194a1.9,1.9,0,0,0,.27-1,1.39,1.39,0,0,0-.48-1.07,1.73,1.73,0,0,0-1.18-.43A1.58,1.58,0,0,0,91,193.16H90A2.43,2.43,0,0,1,90.76,191.31Z"/><path d="M99.25,199.05a2,2,0,0,1-.83-.82h-.1v1h-1v-8.83h1v3.51h.09a1.89,1.89,0,0,1,.8-.81,2.51,2.51,0,0,1,3.11.59,4.29,4.29,0,0,1,0,4.76,2.53,2.53,0,0,1-3.12.59Zm-.4-4.7a3.19,3.19,0,0,0,0,3.46,1.63,1.63,0,0,0,1.36.63,1.6,1.6,0,0,0,1.35-.63,3.3,3.3,0,0,0,0-3.46,1.6,1.6,0,0,0-1.35-.63A1.63,1.63,0,0,0,98.85,194.35Z"/><path d="M108.19,193.13a2.06,2.06,0,0,1,.83.85h.09v-1.06h1v8.43h-1v-3.06H109a2.09,2.09,0,0,1-.8.79,2.46,2.46,0,0,1-1.17.27,2.36,2.36,0,0,1-1.93-.89,4.32,4.32,0,0,1,0-4.76,2.46,2.46,0,0,1,3.11-.57Zm.41,4.68a2.76,2.76,0,0,0,.5-1.73,2.67,2.67,0,0,0-.51-1.72,1.62,1.62,0,0,0-1.36-.64,1.59,1.59,0,0,0-1.34.63,2.7,2.7,0,0,0-.49,1.73,2.81,2.81,0,0,0,.48,1.74,1.63,1.63,0,0,0,1.35.62A1.66,1.66,0,0,0,108.6,197.81Z"/><path d="M112,199.24v-6.32h1v1H113a1.7,1.7,0,0,1,.67-.82,2,2,0,0,1,1.09-.29,1.82,1.82,0,0,1,1.09.31,1.78,1.78,0,0,1,.66.8h.09a2,2,0,0,1,.77-.81,2.26,2.26,0,0,1,1.17-.3,2,2,0,0,1,1.49.53,2.15,2.15,0,0,1,.52,1.53v4.37h-1v-4.13a1.47,1.47,0,0,0-.33-1.05,1.33,1.33,0,0,0-1-.34,1.37,1.37,0,0,0-1.06.43,1.43,1.43,0,0,0-.41,1v4.06h-1V195a1.16,1.16,0,0,0-.36-.9,1.37,1.37,0,0,0-1-.33,1.31,1.31,0,0,0-1,.47,1.6,1.6,0,0,0-.43,1.13v3.92Z"/><path d="M126.28,199.24v-1.75h-4.12v-1c.19-.33.41-.71.67-1.14s.54-.88.86-1.37.64-1,1-1.56l1.09-1.67h1.53v5.76h1.2v1h-1.2v1.75Zm-3-2.76v.07h3.05v-4.79h-.07c-.22.32-.45.66-.69,1l-.75,1.16c-.26.4-.51.82-.77,1.24Z"/><path d="M130.55,198.46a4.27,4.27,0,0,1,0-4.76,2.37,2.37,0,0,1,1.93-.89,2.43,2.43,0,0,1,1.18.29,2,2,0,0,1,.8.82h.09v-3.51h1v8.83h-1v-1h-.09a2.11,2.11,0,0,1-.83.82,2.42,2.42,0,0,1-1.19.3A2.38,2.38,0,0,1,130.55,198.46Zm.82-4.11a2.74,2.74,0,0,0-.49,1.73,2.7,2.7,0,0,0,.49,1.73,1.6,1.6,0,0,0,1.35.63,1.63,1.63,0,0,0,1.36-.63,3.23,3.23,0,0,0,0-3.45,1.76,1.76,0,0,0-2.71,0Z"/><path d="M138.68,195.68l1-1,.82-.82,1-1h1.24l-2.72,2.71,2.9,3.61h-1.28l-2.37-3-.6.56v2.4h-1v-8.83h1v5.27Z"/><path d="M152,192.92c-.24.85-.44,1.59-.62,2.22l-.53,1.88c-.17.63-.38,1.37-.62,2.22h-1l-1.42-4.89h-.09l-1.41,4.89h-1l-1.76-6.32h1l1.25,5.05h.09l1.41-5.05h1l1.41,5.05h.1l1.24-5.05Z"/><path d="M153.79,198.47a4.07,4.07,0,0,1,0-4.79,2.74,2.74,0,0,1,2.13-.87,2.72,2.72,0,0,1,2.13.87,4,4,0,0,1,0,4.79,2.69,2.69,0,0,1-2.13.88A2.72,2.72,0,0,1,153.79,198.47Zm3.52-.65a3.39,3.39,0,0,0,0-3.48,1.86,1.86,0,0,0-2.77,0,3.39,3.39,0,0,0,0,3.48,1.86,1.86,0,0,0,2.77,0Z"/><path d="M160.48,199.24v-8.83h1v8.83Z"/><path d="M167,193.13a2.06,2.06,0,0,1,.83.85h.09v-1.06h1v8.43h-1v-3.06h-.1a2.09,2.09,0,0,1-.8.79,2.46,2.46,0,0,1-1.17.27,2.36,2.36,0,0,1-1.93-.89,4.32,4.32,0,0,1,0-4.76,2.46,2.46,0,0,1,3.11-.57Zm.41,4.68a2.76,2.76,0,0,0,.5-1.73,2.67,2.67,0,0,0-.51-1.72,1.62,1.62,0,0,0-1.36-.64,1.59,1.59,0,0,0-1.34.63,2.7,2.7,0,0,0-.49,1.73,2.81,2.81,0,0,0,.48,1.74,1.62,1.62,0,0,0,1.35.62A1.66,1.66,0,0,0,167.37,197.81Z"/><path d="M171.15,201.52H171l-.15,0v-.86l.21,0h.21a1,1,0,0,0,.7-.24,1.79,1.79,0,0,0,.46-.8l.12-.38-2.34-6.32h1.09l1.74,5.2h.09l1.73-5.2h1.07l-2.46,6.7a3.59,3.59,0,0,1-.87,1.5,1.89,1.89,0,0,1-1.3.4Z"/></svg>