<svg xmlns="http://www.w3.org/2000/svg" viewBox="0 0 1024 1024"><defs><style>.cls-1{fill:#f2f2f2;}.cls-2{fill:#fefefe;}.cls-3{fill:#decb5a;}.cls-4{fill:#d7d7d7;}.cls-5{fill:#b0e2b8;}.cls-6{fill:#d9baac;}.cls-7{fill:#9c783c;}.cls-8{fill:#d68b80;}.cls-9{fill:#fafbf8;}.cls-10{fill:#939393;}.cls-11{fill:#2a2110;}.cls-12{fill:#2c332d;}.cls-13{fill:#444;}.cls-14{fill:#94c575;}.cls-15{fill:#3d5c2a;}.cls-16{fill:#040403;}.cls-17{fill:#256930;}.cls-18{font-size:24px;font-family:MyriadPro-Regular, Myriad Pro;}.cls-19{letter-spacing:0em;}.cls-20{letter-spacing:-0.01em;}.cls-21{letter-spacing:0em;}.cls-22{letter-spacing:0em;}.cls-23{letter-spacing:-0.01em;}.cls-24{letter-spacing:0em;}.cls-25{letter-spacing:-0.01em;}.cls-26{letter-spacing:0.02em;}.cls-27{letter-spacing:0.02em;}</style></defs><title>Artboard 2</title><g id="Layer_1" data-name="Layer 1"><rect class="cls-1" x="0.5" y="-511.5" width="1023" height="2047"/><path class="cls-2" d="M0,0H1024V1024H0ZM246,274.72l3.11-.52,17.53-2.72,16.46-3.28v86.6c-7.72,1.42-19.41,4.47-19.75,3.49-5-14.12-8.51-28.79-12.78-44.89-4.28,17.78-8.15,33.91-12.37,51.46l-20.43,1.06V335.68L188.14,330v53c52.14,12.42,54.49,12.28,56,37.89,2.09,34.33.11,68.91-.12,103.38l-9-2.17c.27-31.61,1.21-63.23.36-94.8-.22-8.07,5.63-20.45-3.57-24.21-13.53-5.52-28.94-6.45-43.88-9.4-.29,4.41-.56,8.36-.83,12.31l.05,1-.06,48.11c.07.85.13,1.69.2,2.53,0,1.92.1,3.84.14,5.75l-.22,2.46-.19,41.3c0,.59,0,1.17,0,1.76l.06,7.07-.93,18.84V859H626.63L639,860.65l2.8-.09h66.43l2.8.16h18.33c0-12.76-.07-25.22,0-37.67q.43-69.6.93-139.2l11.83,4.79V859.27h85.31V566.5c-24.17-11.65-51.44-17-73.15-33.35V516.08h6.8l-.82,1.64,67.07,28.06c.35-.87.7-1.73,1.06-2.6l-66.73-27.27c.41-17.62,1.08-35.24,1.19-52.87.22-37.89.15-75.78.19-113.68l65.71,20.89c.28-.91.55-1.82.82-2.73L763,347.24l-7.81-4.05V324.83L766,328.24c13.05-26.64,35.81-35.44,63.6-35.28V241.71c-18.82-3.31-31.2-11.79-23-34.7l9-2.49,13.65,8.32,1.38-2.93-15-5.48V157H671l2.56,13.6-47.7-15.49c14.59,7.29,29.78,12.93,45,18.55,2.27.84,4.71,2,4.44-2.25,7.72,8.83,2.08,17.44,1.13,26.66-47.2-13.86-86.41-48.89-138.31-41l-44-1.08-3.6-.42c-17.72-.37-35.45-1.37-53.16-1-29.18.67-58.39-4.47-87.52.56l-60.81-2H234.56v66.79H190.29v32.52c13.47,13,41.68-11.7,45.32,21.32-3.85-1.12-8.73,5.17-11.77-1.65L227,261.08c-13.21,14.31-33-13.46-38,15.79.06,1,.12,1.94.17,2.91v40.59L218,326.46V279.17L244,275ZM772.82,511.33l54.86,20.48V380.29L772.82,363.7ZM188.94,209.22c32-1.75,40.46-15.94,33-56.2-10.77.89-31,.24-31.51,3C187.48,173.21,188.94,191.17,188.94,209.22Z"/><path class="cls-3" d="M673.55,170.56,671,157h144.7v47.47l-.07.09-9,2.49c-8.17,22.91,4.21,31.39,23,34.7V293c-27.79-.16-50.55,8.64-63.6,35.28l-10.82-3.41v18.36l7.81,4.05v2.12c0,37.9,0,75.79-.19,113.68-.11,17.63-.78,35.25-1.19,52.87-.14.27-.34.33-.58.17h-6.8v17.07c21.71,16.35,49,21.7,73.15,33.35V859.27H742.11V688.65l-11.83-4.79c-4.48-2.12-9-4.23-13.45-6.37l-87-41.67L615,627.29V838l-41.43-60.43L579.81,751c28.86-14,11.09-32.87,2.64-47.41-8.74-15-26.68-17.37-43.57-17.65q0-12.39-.1-24.77c7.07-8.24,25.28-9.22,22.06-22-1.62-6.43-13.91,6.07-22.39,6.44q.27-7.86.56-15.71c3.35-8.87,8.23-17.5,4.65-28.25l-4.78,1.72c-.25-2.81-.72-5.62-.71-8.42.23-77.32.73-154.63.73-231.95,0-68.69-.53-137.38-.83-206.07,51.9-7.86,91.11,27.17,138.31,41,1-9.22,6.59-17.83-1.13-26.66Zm13.63,318-.19-1.25,3.84-154.63c.25-.9.49-1.81.74-2.71l7.08,1V316.74l-6.76-2.84c-18.06-63.23-57.82-75.09-102-30.71l-9.58-2.55c-.58,5.77-1.07,10.64-1.55,15.35a24.86,24.86,0,0,0,2.64,1.62c1.38.59,2.8,1.05,4.21,1.56l.6,2q-.13,70.86-.28,141.71l-.12.26-.27-.09-7.17-1.28v13.36L693.4,507V491.28ZM754.1,689.18c6.76-29.44,4.35-34.33-19.37-45.38-14.29-6.66-28-14.61-42.13-21.55-26.15-12.8-52.45-25.28-80.37-38.71l-5.87,33.33Z"/><path class="cls-4" d="M573.56,777.61Q594.29,807.82,615,838l11.36,21H186.2V534.79c8.13,1.62,16.23,3.37,24.39,4.83,15.77,2.82,31.57,5.48,47.36,8.21,10.48,7.25,22.69,4.65,34.2,6l60.81-37c.68,11.2,3,22.61,1.69,33.56-3.37,27.25,2.79,47.87,32.17,55.67L373,609.89l-2.81.33V633.8l66.57,36.33,2.22.44,29-4.52,9.2,9c-8.44,22.77,6.14,48.39,27.77,48.8-2.68,11.48-2.1,21.57,11.19,26.23,0,2.49-.63,5.21.13,7.44,4.72,13.78-.9,34.56,21.41,36.94C552,796,568.75,798.32,573.56,777.61Z"/><path class="cls-5" d="M386.82,606.07c-29.38-7.8-35.54-28.42-32.17-55.67,1.35-10.95-1-22.36-1.69-33.56q-.52-75.18-1.07-150.36l8.14,1.37,18.2,5.37,6.3,2.76,2.41.66,22.74,6.78,5,1.9c23.35,14.51,42.21,1.29,60.52-9.19V303.81l-14.06,3.47V253.66c20.91-16.95,29.65-60.23,18.5-86.2l14.48-11.54,44,1.08c.3,68.69.83,137.38.83,206.07,0,77.32-.5,154.63-.73,232,0,2.8.46,5.61.71,8.41-.71,18.76-24.47,28.4-20.08,52.21L539,630q-.28,7.85-.56,15.71c-11.83,4.55-18.43,15.17-30.22,27.21,5.34-19.5,9.41-34.66,13.69-49.76.88-3.12,2.71-6.77-1.45-7.88-1.88-.5-5.82,2.08-7,4.24-5.24,10.08-9.83,20.5-15,31.5-2.94-16.68-5.57-32.53-8.7-48.28-.47-2.37-3.24-4.3-4.94-6.43-1.62,2.41-4.57,4.79-4.64,7.24-.42,16.1-.21,32.22-.21,48.49l-11.25-8.39,6.86-3.56c-2.06-8.19-4.21-16.7-6.35-25.21V471.39l-60.12-20V587.76l-20.29.76L388,591Q387.39,598.53,386.82,606.07Zm113,28.68c10.25-16.48,10.32-34.4,11.16-53.31C502.85,586.73,494.57,628,499.83,634.75Z"/><path class="cls-6" d="M292.15,553.82c-11.51-1.34-23.72,1.26-34.2-6,.83-6.43,1.66-12.86,2.5-19.43l-16.39-4.17c.23-34.47,2.21-69.05.12-103.38-1.55-25.61-3.9-25.47-56-37.89V330l29.58,5.68v30.24l20.43-1.06c4.22-17.55,8.09-33.68,12.37-51.46,4.27,16.1,7.76,30.77,12.78,44.89.34,1,12-2.07,19.75-3.49V268.2l8.94-2.28C287.46,361.89,292.57,457.85,292.15,553.82Z"/><path class="cls-7" d="M629.88,635.82l87,41.67c4.48,2.14,9,4.25,13.45,6.37q-.46,69.6-.93,139.2c-.08,12.45,0,24.91,0,37.67H711q0-32.28,0-64.61c-23-10.78-46-21.54-72-33.74v98.27L626.63,859c.45-48.67.76-97.33,1.39-146C628.35,687.28,629.24,661.55,629.88,635.82Zm9.87,105.5,71.85,34.32V694L639.75,661.5Zm79.18,58.31c.45-9.91.85-19,1.27-28.3h-5V799.1Z"/><path class="cls-4" d="M772.82,511.33V363.7l54.86,16.59V531.81Z"/><path class="cls-6" d="M235.61,273.68c-3.64-33-31.85-8.3-45.32-21.32V219.84h44.27V153.05H289q1,54.48,2,109l-8.59,3.21-3.36-4.85c-1.16,2.53-1.93,4.2-2.55,5.57l-8.43,2.54L248,272.22Z"/><path class="cls-8" d="M291.06,262q-1-54.46-2-108.95l60.81,2q.14,40.54.28,81.1c-.69,2-1.37,3.9-2.13,6.07L326.05,251l-3.5-4.38-3.2,6.72Z"/><path class="cls-5" d="M350.12,236.2q-.14-40.55-.28-81.1c29.13-5,58.34.11,87.52-.56,17.71-.41,35.44.59,53.16,1l-14.27,10.62-4.52-3.05c-.28,2.56-.47,4.27-.71,6q-12,8.46-24,16.92l-4.5-6.8v9.41l-10.29,5.76-3.73,2.08L423,199.23l-1.12.59L419,201.13l-4.51,2.34-47.18-14.38v41l-15,7.21Z"/><path class="cls-7" d="M708.21,860.57H641.78v-93.7L708.21,798Z"/><path class="cls-9" d="M629.88,635.82c-.64,25.73-1.53,51.46-1.86,77.2-.63,48.67-.94,97.33-1.39,146h-.27L615,838V627.29Z"/><path class="cls-7" d="M187.17,406c.27-3.95.54-7.9.83-12.31,14.94,3,30.35,3.88,43.88,9.4,9.2,3.76,3.35,16.14,3.57,24.21.85,31.57-.09,63.19-.36,94.8l-48-6.11-.06-7.07,13.52,3.87V466.09l-13.09-2.73c0-1.91-.09-3.83-.14-5.75l14,3V408Zm36.75,63.37V412.79l-17.13-4.57v54.84Zm-2.41,45.91c.66-13.42,1.3-26.28,2-40.17l-17.11-7.31v45.09ZM230,463.6l-2.22-.21v11l1.52.09Z"/><path class="cls-4" d="M188.94,209.22c0-18.05-1.46-36,1.49-53.23.47-2.73,20.74-2.08,31.51-3C229.4,193.28,221,207.47,188.94,209.22Z"/><path class="cls-10" d="M187.13,516l48,6.11,9,2.17,16.39,4.17c-.84,6.57-1.67,13-2.5,19.43-15.79-2.73-31.59-5.39-47.36-8.21-8.16-1.46-16.26-3.21-24.39-4.83Z"/><path class="cls-4" d="M218,279.17v47.29l-28.92-6.09V279.78l3.9-.72,10,0Z"/><path class="cls-11" d="M708.21,860.57V798l-66.43-31.14v93.7l-2.8.09V762.38c26.06,12.2,49,23,72,33.74q0,32.34,0,64.61Z"/><path class="cls-7" d="M187.16,455.08l.06-48.11,11,4v46.13Z"/><path class="cls-7" d="M187.09,507.12q.09-20.65.19-41.3l10,2.54v40.33Z"/><path class="cls-4" d="M189,276.87c5-29.25,24.79-1.48,38-15.79-2.32,8.16-2.72,9.56-3.11,10.95l-3.47-1.3c-.6,2.1-1,3.51-1.44,5.08L203,277.06,193,277Z"/><path class="cls-11" d="M350.12,236.2l2.22,1.12c.25,1.31.5,2.62.76,3.93l-7.52,5.48L329,253.35l-12.19,3.51L292,265.92l-8.94,2.28-16.46,3.28c.51-1,1-2,1.54-3l8.43-2.54c.62-1.37,1.39-3,2.55-5.57l3.36,4.85,8.59-3.21,28.29-8.7,3.2-6.72,3.5,4.38L348,242.27C348.75,240.1,349.43,238.15,350.12,236.2Z"/><path class="cls-12" d="M432.27,194.33l10.29-5.76v-9.41l4.5,6.8Q459,177.52,471,169c.24-1.7.43-3.41.71-6l4.52,3.05,14.27-10.62,3.6.42-14.48,11.54L439,194.1l-5.14,1.76Z"/><path class="cls-13" d="M761.07,516.08c.24.16.44.1.58-.17l66.73,27.27c-.36.87-.71,1.73-1.06,2.6l-67.07-28.06Z"/><path class="cls-13" d="M763,349.36v-2.12l66.53,20.28c-.27.91-.54,1.82-.82,2.73Z"/><path class="cls-11" d="M187.16,455.08l11.06,2V411l-11-4c0-.33,0-.67-.05-1l14.17,2v52.58l-14-3C187.29,456.77,187.23,455.93,187.16,455.08Z"/><path class="cls-11" d="M187.09,507.12l10.2,1.57V468.36l-10-2.54c.08-.82.15-1.64.22-2.46l13.09,2.73v46.66l-13.52-3.87C187.07,508.29,187.08,507.71,187.09,507.12Z"/><path class="cls-12" d="M673.55,170.56l1.7.81c.27,4.22-2.17,3.09-4.44,2.25-15.18-5.62-30.37-11.26-45-18.55Z"/><path class="cls-11" d="M203,277.06l15.9-1.25c.45-1.57.84-3,1.44-5.08l3.47,1.3c3,6.82,7.92.53,11.77,1.65L248,272.22c.35.66.7,1.32,1,2l-3.11.52-2,.32L218,279.17,203,279Z"/><path class="cls-13" d="M249.06,274.2c-.34-.66-.69-1.32-1-2l20.11-3.75c-.51,1-1,2-1.54,3Z"/><path class="cls-13" d="M815.62,204.52l.07-.09,15,5.48-1.38,2.93Z"/><path class="cls-11" d="M189,276.87l4,.13c0,.69,0,1.38,0,2.06l-3.9.72C189.07,278.81,189,277.84,189,276.87Z"/><path class="cls-13" d="M244,275l2-.32Z"/><path class="cls-2" d="M754.1,689.18,606.36,616.87l5.87-33.33c27.92,13.43,54.22,25.91,80.37,38.71,14.16,6.94,27.84,14.89,42.13,21.55C758.45,654.85,760.86,659.74,754.1,689.18Z"/><path class="cls-2" d="M585.61,299.17c-1.4-.51-2.82-1-4.2-1.56a24.86,24.86,0,0,1-2.64-1.62c.48-4.71,1-9.58,1.55-15.35l9.58,2.55c44.17-44.38,83.93-32.52,102,30.71l6.76,2.84V331l-7.08-1c-2.9-.71-5.83-1.31-8.7-2.15Q634.24,313.54,585.61,299.17Z"/><path class="cls-14" d="M516.1,750.08c-13.29-4.66-13.87-14.75-11.19-26.23-.13-6,3.4-9.2,8.06-10.68l4-7.19,1-1.11-.43.18-.31-.33c4.34-9.57,10.64-16.88,21.65-18.76,16.89.28,34.83,2.61,43.57,17.65,8.45,14.54,26.22,33.41-2.64,47.41C558.39,763.25,537.21,758.6,516.1,750.08Z"/><path class="cls-9" d="M690.83,332.69,687,487.32l-101-44.41q.13-70.86.28-141.71ZM630.88,456l4,2.62,42.26,17.41V335.89L640.28,325l-3.5-1.32L599,310c0,38.33,2.24,75.32-.74,111.87C596,449.07,614.16,450.35,630.88,456Z"/><path class="cls-15" d="M469.31,614.85c2.14,8.51,4.29,17,6.35,25.21l-6.86,3.56L480.05,652c0-16.27-.21-32.39.21-48.49.07-2.45,3-4.83,4.64-7.24,1.7,2.13,4.47,4.06,4.94,6.43,3.13,15.75,5.76,31.6,8.7,48.28,5.15-11,9.74-21.42,15-31.5,1.13-2.16,5.07-4.74,7-4.24,4.16,1.11,2.33,4.76,1.45,7.88-4.28,15.1-8.35,30.26-13.69,49.76,11.79-12,18.39-22.66,30.22-27.21,8.48-.37,20.77-12.87,22.39-6.44,3.22,12.73-15,13.71-22.06,22l-20.23,17.94c-13.78,2-27.54,4-40-4.77-1.1-6.42-3.1-12.3-9.48-15.5L456,649.56c-.9-1.17-1.8-2.33-2.69-3.5L450,644.64l-1.11-2.89c5.29-11.45,12.56,2.38,17.73-.87L461,627.69l-1.29-3c-.23-1.95-.47-3.89-.7-5.84.59-7.65-4.1-15.54,1-23C467.94,599.85,466.47,608.4,469.31,614.85Z"/><path class="cls-16" d="M516.1,750.08c21.11,8.52,42.29,13.17,63.71.94l-6.24,26.59C568.75,798.32,552,796,537.64,794.46c-22.31-2.38-16.69-23.16-21.41-36.94C515.47,755.29,516.11,752.57,516.1,750.08Z"/><path class="cls-9" d="M687.18,488.57l6.22,2.71V507l-115-51.85V441.8l7.17,1.28c15.86,7.81,31.5,16.1,47.63,23.29C651,474.29,669.16,481.21,687.18,488.57Z"/><path class="cls-15" d="M539,630,518.8,655.64c-4.39-23.81,19.37-33.45,20.08-52.21l4.78-1.71C547.24,612.47,542.36,621.1,539,630Z"/><path class="cls-5" d="M518.55,679.13l20.23-17.94q0,12.39.1,24.77c-11,1.88-17.31,9.19-21.65,18.76Z"/><path class="cls-13" d="M690.83,332.69,586.22,301.2l-.6-2q48.61,14.34,97.25,28.66c2.87.84,5.8,1.44,8.7,2.15C691.32,330.88,691.08,331.79,690.83,332.69Z"/><path class="cls-13" d="M687.18,488.57c-18-7.36-36.23-14.28-54-22.2-16.13-7.19-31.77-15.48-47.63-23.29l.27.09.12-.26,101,44.41C687.05,487.74,687.11,488.16,687.18,488.57Z"/><path class="cls-8" d="M292,265.92l24.84-9.06v57.33l15.25-6.58v51.56l19.81,7.31q.54,75.18,1.07,150.36l-60.81,37C292.57,457.85,287.46,361.89,292,265.92Z"/><path class="cls-10" d="M450,644.64l3.32,1.42c-6.08,2.09-12.31,3.36-18.21,0-20.76-11.94-41.4-24.08-62.1-36.14l13.83-3.82q.57-7.55,1.15-15.09c26.27,8.41,41.69,38.42,73,36.71l5.58,13.19c-5.17,3.25-12.44-10.58-17.73.87L387.77,608l-1.43,2.68Z"/><path class="cls-16" d="M518.55,679.13l-1.32,25.59.31.33.43-.18c-.24,0-.48-.07-.74-.09-.1.41-.17.8-.24,1.2l-4,7.19c-4.66,1.48-8.19,4.64-8.06,10.68-21.63-.41-36.21-26-27.77-48.8l1.38-.69C491,683.08,504.77,681.16,518.55,679.13Z"/><path class="cls-10" d="M436.75,670.13,370.18,633.8v-21l66.57,37.67Z"/><path class="cls-10" d="M456,649.56l13.05,9.3q-.56,3.58-1.1,7.19l-29,4.52c.43-6.32.87-12.64,1.32-19.31Z"/><path class="cls-12" d="M456,649.56l-15.7,1.7c-.45,6.67-.89,13-1.32,19.31l-2.22-.44V650.5l-66.57-37.67v-2.61l2.81-.33c20.7,12.06,41.34,24.2,62.1,36.14,5.9,3.39,12.13,2.12,18.21,0C454.19,647.23,455.09,648.39,456,649.56Z"/><path class="cls-5" d="M467.94,666.05q.54-3.6,1.1-7.19c6.38,3.2,8.38,9.08,9.48,15.5l-1.38.69Z"/><path class="cls-9" d="M439,194.1l40.64-26.64c11.15,26,2.41,69.25-18.5,86.2v53.62l-7.95,2.64V256.17l-6,3.88-6.25.8V218.18l-26.19-5.77v40.36l-1.57.4-3.92,1-5.28-.29L399,244.62c.14,12-7.44,12.86-14.34,14.57-8.47-9.25-1.85-21.29-5.8-31.37l39.68-23.19,22.54,5.21C440.35,204.15,439.67,199.12,439,194.1Z"/><path class="cls-9" d="M469.31,614.85c-2.84-6.45-1.37-15-9.24-19V483.08l-43.34-17.86V592l-7.54-4.19V451.41l60.12,20Z"/><path class="cls-12" d="M453.19,309.92l7.95-2.64,14.06-3.47v72.32c-18.31,10.48-37.17,23.7-60.52,9.19.46-.5.93-1,1.4-1.49l6.23,1V363.91q-.09-7-.17-14.06l-.27-29.77,1.89-.14q.71,16.38,1.42,32.77L425,372.87v13.26l5.17,1.06v-8.08q.38-13.64.74-27.25-.45-19.67-.91-39.32c.08-.58.15-1.17.22-1.75l1.84.62,2.08.49L451.7,315l-8.76,1-2.38.12-6.78-1.7v37.5q-.43,14.11-.88,28.24v8.4l7.09,1.89v-9.35q.09-13,.17-26l2.06.08q.43,12.51.86,25v10l7.71-5.52-.69-12.6q-.72-11.43-1.43-22.86l1-38Zm6.63,12V311.76c-3.06.54-7.13-1.34-6.73,4.1q.2,13.2.38,26.41l0,25.6v16.26l7.79-3.74c-.44-3.9-.86-7.64-1.28-11.39l.6-33.87Q460.19,328.52,459.82,321.9Zm13.09,50.38V306.9l-10.11,3.4v56.89Zm-9.65,0c.13,3,.22,4.94.35,7.8l8.56-4.77Z"/><path class="cls-16" d="M384.53,376l-6.3-2.77-.24-2.13,4.89,1V327.82l-6.1-.6a1.1,1.1,0,0,1-.77-.4l-3.8-.89-3.1-1.68-4-1-2.24-1.14L355,319.73c.68,9.36,1.31,18,1.93,26.67.08.61.15,1.22.22,1.82l-2,6.83-1.67-.12v-4.12l-2.42.11L351,349l1-1.05q.56-14.22,1.1-28.44l-.95-.6-7.34-2.64V329l-1.93.11L342.12,309q1-3.58,2-7.17l1.59-1.2L371.46,309c8.1-4.82,13.06,15.39,22.49,2.59l4.31,5.48,4.61-.26c4.65,12.19,1.44,24.71,1.61,37.09l-2.34.09a1.27,1.27,0,0,1-.32-.73c.45-8.85.91-17.69,1.43-27.77l-9.37,5.47V350.6l-.21,11.34H391.5q-.25-6.4-.53-12.82V331.55L385.44,329v19.37q0,13.13-.08,26.26Z"/><path class="cls-10" d="M409.19,587.76l7.54,4.19L459,618.84c.23,1.95.47,3.89.7,5.84-8.23,2.05-15.22,0-22.3-4.82-15.9-10.85-32.32-20.94-48.53-31.34Z"/><path class="cls-16" d="M423.76,319.94l-1.89.14c-.24-2.75-.49-5.5-.73-8.25l-5.94-4.76v6.15c.37,4.41.73,8.82.91,10.93-3.16,8.65-3.87,15,.18,21.47l-1.41,11c-1.16,9.13-3.5,18.31,1.2,27.19-.47.49-.94,1-1.4,1.49l-5-1.9,2-2.77q-.43-12.66-.88-25.3.36-8.84.71-17.67l-.39-10q-.15-9.47-.28-18.91a1.48,1.48,0,0,1,.28-.56l.45-1.46c.2-.85.41-1.7.62-2.55q.46-25.5.95-51l1.56-.4c.39,11.16.94,22.32,1.11,33.49.17,10.72-3.17,23.28,14.09,23.79.09.24.17.49.25.74-.07.58-.14,1.17-.22,1.75l-6.2,2.35Z"/><path class="cls-15" d="M499.83,634.75c-5.26-6.78,3-48,11.16-53.31C510.15,600.35,510.08,618.27,499.83,634.75Z"/><path class="cls-12" d="M351,349l.06,1.92a2.29,2.29,0,0,1,0,.64l-5.35,2.16v7.14l5.41,1.11q1.2-3.53,2.38-7l1.67.12v7.34l5.07,3.3c-.05.72-.11,1.44-.16,2.16l-8.14-1.37-19.81-7.31V307.62L335,306v48.73l7.95-3.26V329.09l1.93-.11c.46,6.88.91,13.75,1.39,20.87Zm-8.35,5.67-7.08,2.73,7.08,3.25Z"/><path class="cls-12" d="M388.9,588.52c16.21,10.4,32.63,20.49,48.53,31.34,7.08,4.83,14.07,6.87,22.3,4.82l1.29,3c-31.36,1.71-46.78-28.3-73-36.71Z"/><path class="cls-13" d="M360,367.85c.05-.72.11-1.44.16-2.16l12.3,3.07V343.9l-.28-18,3.8.89c-.21,14.8-2.74,29.69,2,44.27l.24,2.13Z"/><path class="cls-12" d="M411.71,380.65l-2,2.77-22.74-6.78c0-.58.06-1.15.1-1.73h4.46v-13h2.17c.36,4.75.71,9.5,1.09,14.49l5.17,1.71c.77-8.41,1.49-16.29,2.21-24.17l2.34-.09a5.27,5.27,0,0,1,.48.58c-.81,8.06-1.61,16.12-2.51,25.11Z"/><path class="cls-16" d="M387,374.91c0,.58-.07,1.15-.1,1.73l-2.41-.66.83-1.35Z"/><path class="cls-11" d="M639.75,741.32V661.5L711.6,694v81.62Zm2.87-75.15v73.36l66.54,31.84V696Z"/><path class="cls-11" d="M718.93,799.63l-3.68-.53V771.33h5C719.78,780.59,719.38,789.72,718.93,799.63Z"/><path class="cls-9" d="M367.31,230.11v-41l47.18,14.38-7.87,4.63-3.33-4.88-1.4,5.53-26.15-6.56v23l-2.77,2.6Z"/><path class="cls-11" d="M373,227.82l2.77-2.6,7.47-3.55,3.32-1.76V214l6.93,2.63,8.43-7.84,1.4-5.53,3.33,4.88,7.87-4.63,4.51-2.34c0,.7.09,1.39.13,2.09l-.56,1.41-39.68,23.19-3.05,1.44-1.84.21C373.66,228.92,373.32,228.37,373,227.82Z"/><path class="cls-12" d="M373,227.82c.35.55.69,1.1,1,1.65l-6.9,4.64L358,239.9l-4.92,1.35c-.26-1.31-.51-2.62-.76-3.93l15-7.21Z"/><path class="cls-13" d="M419.13,203.22c0-.7-.09-1.39-.13-2.09l2.89-1.31c.57.54,1.15,1.07,1.73,1.6Z"/><path class="cls-12" d="M423,199.23l5.53-2.82,1.35,1.66q-2.62,1.34-5.23,2.69Z"/><path class="cls-12" d="M428.54,196.41l3.73-2.08,1.59,1.53-4,2.21Z"/><path class="cls-12" d="M423.62,201.42c-.58-.53-1.16-1.06-1.73-1.6l1.12-.59,1.65,1.53Z"/><path class="cls-11" d="M223.92,469.33l-17.13-6.27V408.22l17.13,4.57Zm-3.11-54.6-11.31-3.1V461l11.31,4.44Z"/><path class="cls-11" d="M221.51,515.24l-15.12-2.39V467.76l17.11,7.31C222.81,489,222.17,501.82,221.51,515.24Zm-12.39-43.7v38.91l9.64,1.43c.61-11.91,1.2-23.32,1.82-35.13Z"/><path class="cls-11" d="M230,463.6l-.7,10.85-1.52-.09v-11Z"/><path class="cls-12" d="M193,279.06c0-.68,0-1.37,0-2.06l10.05.06,0,2Z"/><path class="cls-9" d="M353.1,241.25,358,239.9q-1,18.1-2,36.21l-.52,2.74c1.4,9.35,0,17.43-9.78,21.78l-1.59,1.2-3.38,1.71L335,306l-2.87,1.58-15.25,6.57V256.86L329,253.35c.41,5-.45,12.14,6.88,11.19,9.89-1.29,9.81-10,9.68-17.81Z"/><path class="cls-8" d="M345.58,246.73c.13,7.82.21,16.52-9.68,17.81-7.33.95-6.47-6.21-6.88-11.19Z"/><path class="cls-5" d="M423.62,201.42l1-.66q2.61-1.35,5.23-2.69l4-2.21L439,194.1c.67,5,1.35,10.05,2.11,15.74l-22.54-5.21.56-1.41Z"/><path class="cls-5" d="M517,706c.07-.4.14-.79.24-1.2.26,0,.5.06.74.09Z"/><path class="cls-4" d="M640.28,325l36.88,10.94V476.06L634.9,458.65Q637.59,391.79,640.28,325Z"/><path class="cls-4" d="M630.88,456c-16.72-5.68-34.85-7-32.64-34.16,3-36.55.74-73.54.74-111.87l37.8,13.63Q633.84,389.84,630.88,456Z"/><path class="cls-13" d="M630.88,456q3-66.19,5.9-132.4l3.5,1.32q-2.68,66.84-5.38,133.7Z"/><path class="cls-7" d="M459,618.84,416.73,592V465.22l43.34,17.86V595.85C454.93,603.3,459.62,611.19,459,618.84ZM423,534.24v54.32l21.69,12C458,575.05,444.38,534.06,423,534.24Zm3.61-40.19c-12,26,3.83,34.58,23.66,41.34V502.9l-4.17-3.39c-.42-7,.83-16-8.91-17.31-6.49-.88-7,6.24-8.73,11Zm28.57,40.84c-4.28,4.36-4.95,8.48-1.57,13.46C457.28,544.24,457.35,540.07,455.14,534.89Z"/><path class="cls-12" d="M450,644.64l-63.64-33.92,1.43-2.68,61.1,33.71Z"/><path class="cls-4" d="M440.92,226.85v34l6.25-.8C450,303.21,446.94,307.61,420,298V222.9Z"/><path class="cls-17" d="M440.92,226.85,420,222.9V298c26.91,9.63,29.92,5.23,27.14-37.93l6-3.88v53.75l-3.53,1.24-3.34.25c-4.45-3.32-7.06-6.41-10.22-7.13-1.53-.35-4.08,3.71-6.17,5.77-17.26-.51-13.92-13.07-14.09-23.79-.17-11.17-.72-22.33-1.11-33.49V212.41l26.19,5.77Z"/><path class="cls-4" d="M384.69,259.19c6.9-1.71,14.48-2.6,14.34-14.57l4.93,9.22,5.28.29-.18,40.95-24.8-10.16Q384.49,272,384.69,259.19Z"/><path class="cls-17" d="M384.69,259.19q-.21,12.87-.43,25.73l-8.34-.95-.08-54.71,3.05-1.44C382.84,237.9,376.22,249.94,384.69,259.19Z"/><path class="cls-17" d="M409.06,295.08l.18-40.95,3.92-1q-.46,25.5-.94,51Q410.63,299.63,409.06,295.08Z"/><path class="cls-5" d="M472.91,372.28l-10.11-5.09V310.3l10.11-3.4Z"/><path class="cls-14" d="M429.93,310.05c2.09-2.06,4.64-6.12,6.17-5.77,3.16.72,5.77,3.81,10.22,7.13l3.34-.25-1,38-5.49,2L442.94,316l8.76-1-17.6-3.11-2.08-.49-1.84-.62C430.1,310.54,430,310.29,429.93,310.05Z"/><path class="cls-14" d="M421.14,311.83c.24,2.75.49,5.5.73,8.25q.13,14.88.28,29.77a8,8,0,0,0-.85.19l-5-4.42c-4.05-6.43-3.34-12.82-.18-21.47-.18-2.11-.54-6.52-.91-10.93Z"/><path class="cls-14" d="M433.78,351.91v-37.5l6.78,1.7q-.24,18-.47,35.92Z"/><path class="cls-3" d="M443.18,351.16l5.49-2q.7,11.43,1.43,22.86c-.77,4.06-2.43,7.35-7,8.1q-.43-12.52-.86-25Z"/><path class="cls-9" d="M453.44,367.87l0-25.6,7.08-7.14L460,369Z"/><path class="cls-14" d="M423.76,319.94v-5.05l6.2-2.35q.46,19.66.91,39.32l-5.69.85Q424.48,336.33,423.76,319.94Z"/><path class="cls-5" d="M416.08,383.83c-4.7-8.88-2.36-18.06-1.2-27.19l5.25,1.39q1.08,2.94,2.18,5.88v20.93Z"/><path class="cls-7" d="M433.78,351.91l6.31.12c0,1,.05,2,.07,3q-.09,13-.17,26l-7.09-.94Q433.35,366,433.78,351.91Z"/><path class="cls-7" d="M425.18,352.71l5.69-.85q-.37,13.62-.74,27.24L425,372.87Z"/><path class="cls-14" d="M460.55,335.13l-7.08,7.14q-.2-13.2-.38-26.41.72,2.52,1.47,5l5.26,1Z"/><path class="cls-11" d="M440.16,355c0-1,0-2-.07-3q.24-18,.47-35.92l2.38-.12.24,35.17-1,4Z"/><path class="cls-5" d="M453.44,367.87,460,369c.42,3.75.84,7.49,1.28,11.39l-7.79,3.74Z"/><path class="cls-5" d="M443.08,380.15c4.59-.75,6.25-4,7-8.1l.69,12.6-7.71,5.52Z"/><path class="cls-5" d="M432.9,380.15l7.09.94v9.35l-7.09-1.89Z"/><path class="cls-9" d="M459.82,321.9l-5.26-1q-.75-2.5-1.47-5c-.4-5.44,3.67-3.56,6.73-4.1Z"/><path class="cls-5" d="M425,372.87l5.17,6.23v8.09L425,386.13Z"/><path class="cls-14" d="M463.26,372.23l8.91,3L463.61,380C463.48,377.17,463.39,375.19,463.26,372.23Z"/><path class="cls-7" d="M422.31,363.91q-1.1-2.94-2.18-5.88l1.17-8a8,8,0,0,1,.85-.19Q422.23,356.89,422.31,363.91Z"/><path class="cls-16" d="M432,311.41l2.08.49Z"/><path class="cls-14" d="M409.06,295.08q1.57,4.55,3.16,9.08c-.21.85-.42,1.7-.62,2.55l-.45,1.46a1.48,1.48,0,0,0-.28.56l-8,8.06-4.61.26L394,311.57c-9.43,12.8-14.39-7.41-22.49-2.59l-25.76-8.35c9.74-4.35,11.18-12.43,9.78-21.78l1.54.24,11.3,2.51,7.6,2.37,8.34.95Z"/><path class="cls-5" d="M372.49,343.9v24.86l-12.3-3.07-5.07-3.3v-7.34l2-6.83,5.08-1.2c1,6.19,1.85,12.09,2.75,18l.65,1.14L366,365l-.87-41.76,4,1C370.83,330.7,364.61,338.51,372.49,343.9Z"/><path class="cls-8" d="M335,306l5.78-2.5c.46,1.83.92,3.64,1.39,5.46l.78,20.09v22.42L335,354.77Z"/><path class="cls-17" d="M402.87,316.79l8-8.06q.13,9.45.28,18.91c-5.09,3.55-2.63,6.81.39,10q-.36,8.83-.71,17.67l-5.87-.89a5.27,5.27,0,0,0-.48-.58C404.31,341.5,407.52,329,402.87,316.79Z"/><path class="cls-8" d="M351,349l-4.75.85c-.48-7.12-.93-14-1.39-20.87V316.27l7.34,2.64a1.3,1.3,0,0,0-.11.51q0,14.26,0,28.53Z"/><path class="cls-17" d="M393.88,350.6V330.94l9.37-5.47c-.52,10.08-1,18.92-1.43,27.77Z"/><path class="cls-5" d="M378,371.09c-4.72-14.58-2.19-29.47-2-44.27a1.1,1.1,0,0,0,.77.4v18.35l6.1,1.59v24.95Z"/><path class="cls-5" d="M356.91,346.4c-.62-8.65-1.25-17.31-1.93-26.67l7.86,2.36v21.59Z"/><path class="cls-5" d="M393.88,350.6l7.94,2.64a1.27,1.27,0,0,0,.32.73c-.72,7.88-1.44,15.76-2.21,24.17l-5.17-1.71c-.38-5-.73-9.74-1.09-14.49Z"/><path class="cls-5" d="M387,374.91l-1.68-.28q0-13.12.08-26.26l5.53.75q.27,6.4.53,12.82v13Z"/><path class="cls-17" d="M391,349.12l-5.53-.75V329l5.53,2.55Z"/><path class="cls-12" d="M356.91,346.4l5.93-2.72V322.09l2.24,1.14q.44,20.88.88,41.76c-.34,0-.67,0-1,0-.9-5.91-1.8-11.81-2.75-18l-5.08,1.2C357.06,347.62,357,347,356.91,346.4Z"/><path class="cls-17" d="M382.88,347.16l-6.1-1.59V327.22l6.1.6Z"/><path class="cls-9" d="M372.49,343.9c-7.88-5.39-1.66-13.2-3.38-19.65l3.1,1.68Z"/><path class="cls-5" d="M352,348q0-14.26,0-28.53l1.06.09Q352.58,333.73,352,348Z"/><path class="cls-10" d="M353.45,354.93q-1.18,3.51-2.38,7L351,351.56a2.29,2.29,0,0,0,0-.64l2.42-.11Z"/><path class="cls-12" d="M342.12,309c-.47-1.82-.93-3.63-1.39-5.46l3.38-1.71Q343.11,305.42,342.12,309Z"/><path class="cls-12" d="M353.12,319.51l-1.06-.09a1.3,1.3,0,0,1,.11-.51Z"/><path class="cls-5" d="M405,354.46l5.87.89q.45,12.64.88,25.3l-9.26-1.08C403.35,370.58,404.15,362.52,405,354.46Z"/><path class="cls-17" d="M421.3,350l-1.17,8-5.25-1.39,1.41-11Z"/><path class="cls-14" d="M411.54,337.68c-3-3.23-5.48-6.49-.39-10Z"/><path class="cls-17" d="M421.14,311.83l-5.94,1.39v-6.15Z"/><path class="cls-17" d="M411.15,308.17l.45-1.46Z"/><path class="cls-8" d="M351,351.56l.06,10.41-5.41-1.11v-7.14Z"/><path class="cls-7" d="M342.62,354.67v6l-7.08-3.25Z"/><path class="cls-7" d="M642.62,666.17,709.16,696v75.41l-66.54-31.84Z"/><path class="cls-17" d="M401.89,208.75l-8.43,7.84L386.53,214c-5.25.79-3.81,4.45-3.32,7.71l-7.47,3.55v-23Z"/><path class="cls-9" d="M375.92,284l-7.6-2.37-.6-6-.3-1.9q-.15-19.78-.32-39.57l6.9-4.64,1.84-.21Q375.87,256.62,375.92,284Z"/><path class="cls-5" d="M383.21,221.67c-.49-3.26-1.93-6.92,3.32-7.71v5.95Z"/><path class="cls-5" d="M367.1,234.11q.16,19.78.32,39.57L356,276.11q1-18.11,2-36.21Z"/><path class="cls-7" d="M220.81,414.73v50.71L209.5,461V411.63Z"/><path class="cls-7" d="M209.12,471.54l11.46,5.21c-.62,11.81-1.21,23.22-1.82,35.13l-9.64-1.43Z"/><path class="cls-13" d="M356,276.11l11.42-2.43.3,1.9L357,279.09l-1.54-.24C355.65,277.94,355.82,277,356,276.11Z"/><path class="cls-11" d="M423,534.24c21.42-.18,35,40.81,21.69,66.33l-21.69-12Zm20.66,9.47-17.89-6.61v49.59l17.89,10.19Z"/><path class="cls-11" d="M426.57,494.05c-.49.22.68-.31,1.83-.89,1.72-4.72,2.26-11.84,8.75-11,9.74,1.33,8.49,10.27,8.91,17.31l4.17,3.39v32.49C430.4,528.63,414.6,520.05,426.57,494.05Zm.66,4.08c-.58,7.44-1.12,14.51-1.69,21.88L447,531.31c.46-9.47.88-17.9,1.31-26.68-10.28-2.86,0-17.75-13.35-19.92-1.36,3.45-2.8,7.11-4.61,11.68Z"/><path class="cls-11" d="M455.14,534.89c2.21,5.18,2.14,9.35-1.57,13.46C450.19,543.37,450.86,539.25,455.14,534.89Z"/><path class="cls-5" d="M357,279.09l10.7-3.51.6,6Z"/><path class="cls-13" d="M365,365c.33,0,.66,0,1,0-.09.28-.17.57-.35,1.17Z"/><path class="cls-7" d="M443.62,543.71v53.17l-17.89-10.19V537.1Z"/><path class="cls-7" d="M427.23,498.13l3.09-1.74c1.81-4.57,3.25-8.23,4.61-11.68,13.34,2.17,3.07,17.06,13.35,19.92-.43,8.78-.85,17.21-1.31,26.68L425.54,520C426.11,512.64,426.65,505.57,427.23,498.13Z"/></g><g id="Layer_2" data-name="Layer 2"><text class="cls-18" transform="translate(73.33 758)">2019/10/06<tspan x="0" y="28.8">O</tspan><tspan class="cls-19" x="16.54" y="28.8">r</tspan><tspan x="24.48" y="28.8">i</tspan><tspan class="cls-20" x="30.1" y="28.8">g</tspan><tspan x="43.37" y="28.8">inal: </tspan><tspan class="cls-21" x="89.59" y="28.8">S</tspan><tspan class="cls-22" x="101.49" y="28.8">an</tspan><tspan class="cls-23" x="126.38" y="28.8">n</tspan><tspan class="cls-22" x="139.39" y="28.8">y </tspan><tspan class="cls-24" x="155.78" y="28.8">v</tspan><tspan x="167.23" y="28.8">an </tspan><tspan class="cls-25" x="197.2" y="28.8">L</tspan><tspan class="cls-22" x="208.2" y="28.8">oon</tspan><tspan class="cls-26"><tspan x="0" y="57.6">h</tspan><tspan class="cls-27" x="13.7" y="57.6">ttps://pin.it/xzfuuam5m7u57p</tspan></tspan></text></g></svg>