<svg xmlns="http://www.w3.org/2000/svg" viewBox="0 0 1024 1024"><defs><style>.cls-1{fill:#f2f2f2;}.cls-2{fill:#fefefe;}.cls-3{fill:#de651c;}.cls-4{fill:#f3d62d;}.cls-5{fill:#c3e6d5;}.cls-6{fill:#ecb99a;}.cls-7{fill:#2f7b77;}.cls-8{fill:#dd651c;}.cls-9{fill:#2d7a77;}.cls-10{fill:#ebb99a;}.cls-11{fill:#f2d52d;}.cls-12{fill:#15100c;}.cls-13{fill:#040c0c;}.cls-14{fill:#1b1705;}.cls-15{fill:#191310;}.cls-16{fill:#685b13;}.cls-17{font-size:24px;font-family:MyriadPro-Regular, Myriad Pro;}.cls-18{letter-spacing:0em;}.cls-19{letter-spacing:-0.01em;}.cls-20{letter-spacing:0em;}.cls-21{letter-spacing:0em;}.cls-22{letter-spacing:-0.01em;}.cls-23{letter-spacing:0em;}.cls-24{letter-spacing:-0.01em;}.cls-25{letter-spacing:0.02em;}.cls-26{letter-spacing:0.02em;}.cls-27{letter-spacing:0.01em;}</style></defs><title>Artboard 2</title><g id="Layer_1" data-name="Layer 1"><rect class="cls-1" x="0.5" y="-511.5" width="1023" height="2047"/><ellipse class="cls-2" cx="511.5" cy="512" rx="723.37" ry="724.08"/><path class="cls-3" d="M421,263.12l6.56,3.44c1.15.89,2,2.14,3.31,2.81l11.72,11c1.59,1.75,3.32,3.37,5,5.05l6.14,7.47c.52,1.52,1.86,2.38,2.85,3.51l12.9,14.29c1.16,1.16,1.73,2.87,3.38,3.57l1.78,1.9c2.39,3,5.3,5.44,7.92,8.18l3,3a7.92,7.92,0,0,0,2.34,1.89l11.73,12.84a10.54,10.54,0,0,0,1.92,2.24l2,2c1.77,1.62,3.22,3.58,5.27,4.9l8.73,8c3.24,3.42,6.68,6.63,9.92,10l5.14,5.7a12.08,12.08,0,0,0,1.87,2.29l7.12,7.7c1,1.68,2.61,2.84,3.91,4.26l3.89,4.38a33.93,33.93,0,0,0,4.13,4.59q7.07,7.23,14.11,14.47a2.23,2.23,0,0,1-.13,2.58l-10,2a10.48,10.48,0,0,1-7.66,4.8c-20.79,3.5-42,3.45-62.7,7.64a9.86,9.86,0,0,1-3.47,0,13.43,13.43,0,0,0-7.25.87c-12.7,1.14-25.34,2.89-38.08,3.51a12.49,12.49,0,0,1-5.87-.68l-72.3,6.23c-1.09,2.54-3.48,2.25-5.54,2.33-13.76.58-27.46,1.84-41.17,3.09-6.12.55-12,2.53-18.11,3.21-2,.22-3.94.64-5.92.18-3.44-1.26-2.44-3.44-1-5.48a93.49,93.49,0,0,1,8.43-10.47,69.55,69.55,0,0,0,12.7-17.77c6.79-14,16-26.38,25.17-38.79,15-20.24,30.23-40.32,43.24-62,9.07-15.13,20.92-28.25,33.34-40.78C414.59,269.83,417.61,266.29,421,263.12Z"/><path class="cls-4" d="M634.28,598.11q-.67-39.24-1.34-78.47c0-1.49.54-3.09.17-4.46-12-43.89,16.56-62.69,50-73.18,18.9-5.93,41.11-1.65,61.83-1.34,18.18.27,36.36,1.41,54.54,2.17-1.53,5.05-6.17,7.29-9.91,9.94a187,187,0,0,0-24.13,19.69c-1.67,1.67-3.58,3-6.18,2.41-5.39-.35-10.79-1-16.13.5-4.34.89-8.51-.32-12.73-1a15.61,15.61,0,0,0-10.88.14c-4.68,1-9.28-.31-13.88-.63-11.43-.79-22.89,1-34.29-.78-3.75-.6-7.58,1.16-11.38,0-1.87-.11-3.72-.85-5.62-.18a27.48,27.48,0,0,1-3.74,0c-3-.76-6-.18-9.45.35,3.25.47,6-.64,8.9-.37,13.57.17,27.13.45,40.65,1.63,3.21,1.43,6.43,1,9.65,0,18.23,1.39,36.48,2.35,54.78,2.59,5.38.06,7.29,2.24,6.74,7.6-1.33,13.12-.46,26.25-.65,39.37-.19,13.63.14,27.25-1,40.86-.9,11.29.68,22.57,1.06,33.86.06,1.68.28,3.32-.61,4.86-5.43,4.08-11.69,3-17.74,2.67-11.1-.65-22.16-1.71-33.29-1.7-22.25,0-44.44-1.28-66.61-3.08C639.88,601.42,636.36,601.43,634.28,598.11Z"/><path class="cls-5" d="M287.05,447l73.11-7.43c1.46,21.31,3.5,42.6,4.26,63.93,1.47,41.46,2.15,82.94,3.33,124.41.14,5-1.44,7.73-6.34,9.06-26.07,7-52.1,14.26-78.15,21.41a5.21,5.21,0,0,1-.64-2.87c.09-38.7-.56-77.4-1.21-116.09-.46-27.25,2.58-54.36,1.45-81.58C282.7,454,282.26,449.33,287.05,447Z"/><path class="cls-6" d="M482.44,428.13l75-10.91q-.5,54.48-1,109c-.28,24.33,1,48.85-1.68,72.91-2.28,20.33-24.06,12.25-36.07,19-6.81,3.84-15.48,4.39-23.31,6.43a5.44,5.44,0,0,1-1.84.14l-1.75.21c-1.22,1.05-2.93.68-4.25,1.47l-7.13,2.22a7.16,7.16,0,0,0-1.88.77l-3,.33a3.77,3.77,0,0,1-1.17-1.51c-1.64-8.73-1.2-17.6-.51-26.28a373.22,373.22,0,0,0,.83-37.69c-.37-18.23,1.23-36.41,2.62-54.6,1.14-15,2.23-30.1,2.16-45.17,0-10.48,1.28-20.86,1.21-31.31C480.65,431.3,480.86,429.44,482.44,428.13Z"/><path class="cls-7" d="M634.28,598.11l126.87,5.66c1-1.53,2.83-2,4.18-3.09,6.15-3.93,11.61-8.89,18.2-12.15,1.56-.78,3.08-2.24,5-.68l17.76,3.89c-1.11,2.12-3.25,2.88-5.24,3.55-18.8,6.32-36.4,15.54-54.95,22.43-9.2,3.41-18.59,6.27-27.94,9.26-5.41,1.73-10.69,1.44-16.22.35-24.32-4.82-48.57-9.9-72.14-17.77a16.55,16.55,0,0,0-5.72-1.07c24.72,9.85,50.49,16.19,76.73,20.79,6.12,1.07,7.27,2.66,7.27,9.72,0,31.9.05,63.8,0,95.7a90.3,90.3,0,0,0,.69,14.42c.34,2.12.48,4.34-1.15,6.16l-90.46-21.17V605Z"/><path class="cls-8" d="M212,426.81c20.08-32.11,43.63-61.6,68.37-90.16,18.9-21.82,38.32-43.18,57-65.19,5.74-6.77,13.14-4.14,19.4-4.84,20.36-2.28,40.91-2.76,61.4-3.93-.23,1.67-1.51,2.53-2.67,3.46-13.8,11-24.21,25.12-34.73,39-5.91,7.8-10.88,16.31-16.08,24.64C353.94,347.05,341.39,363,328.9,379c-8.86,11.34-15.95,23.74-23,36.19-6.27,11.11-15.23,20.13-22.89,30.16a7.71,7.71,0,0,1-4,2.82c-2.4.54-4.6-.31-6.82-1-18.08-5.55-36.38-10.4-54.41-16.14C215.3,430.27,213,429.43,212,426.81Z"/><path class="cls-5" d="M212,426.81l67.81,20.46c2.17,2.17,1.85,4.9,1.51,7.51-.94,7.29-.44,14.53-.07,21.84a165.9,165.9,0,0,1-1.2,27.28c-.92,8-1.65,15.8-.27,23.75a79.51,79.51,0,0,1,.14,23.31,66.06,66.06,0,0,0,.14,14.4,178,178,0,0,1,.09,32.32,94,94,0,0,0,0,15.38c1.07,13.42.42,26.88.38,40.32a5.71,5.71,0,0,1-1.45,4.13c-20.8-10.5-41.62-21-62.36-31.6-1-.53-1.84-2.47-1.86-3.77Q213.36,524.47,212,426.81Z"/><path class="cls-9" d="M757.24,740l-9,3.49a4.62,4.62,0,0,0-3,.9l-1.6.33a7.51,7.51,0,0,0-3.39,1.81l-10,4c-3.83-.41-6.37,3-10,3.32l-4.06,1.59c-1.71.06-3.53.54-4.75-1.26-1.27-2.49-.91-5.19-1-7.83-.68-19.76-1.35-39.49-.16-59.29.84-14.08-1.5-28.21-.85-42.35.09-2.16,0-4.33.21-6.48.67-5.91,2-6.93,7.68-8.89,17.88-6.19,36.45-10.4,53.21-19.79,10.31-5.78,22-8.53,32.93-13.07a4.33,4.33,0,0,1,3.86,0q.78,23.72,1.55,47.43a4.93,4.93,0,0,1,0,2.77q0,14.57.1,29.12c.25,1.3.13,2.61.28,3.91,0,1,.05,2,.08,3a9.67,9.67,0,0,0-.07,3l0,4a7.86,7.86,0,0,0,0,3l.42,7.15c.53,5.2.85,10.39-.34,15.56l-.35,1.25c-9,2.83-16.92,7.72-24.91,12.52l-3,1.33c-3.17.69-6.35,1.32-9,3.45l-9,3.61C760.53,736.61,759,738.52,757.24,740Z"/><path class="cls-10" d="M475.27,628.26l.25,1.42c-13.66.88-15.57-13.49-24.53-18.9-15.17-9.17-21.74-21.91-20.68-40.89,2.42-43.51,2.39-87.15,3.28-130.75,0-1.91-.74-3.84-1.14-5.76l45.13-4.29a4.05,4.05,0,0,1,1.14,3.18c-.22,13.27-.21,26.55-1.62,39.76-.34,3.15-.58,6.27-.62,9.43-.24,20.06-2,40.05-2.88,60.09-.1,2.49-.11,5-.11,7.47q0,29.63,0,59.27a75.4,75.4,0,0,1-.66,12.91C472.34,624,472.67,626.52,475.27,628.26Z"/><path class="cls-11" d="M788.51,587.85l-23.87,14.79c-2-4-2.19-8.35-2.14-12.62.16-14.6,0-29.2.54-43.82.52-15.05-.88-30.18-.63-45.29a31.83,31.83,0,0,0,0-5c-2.07-14.53,5.2-24.58,16.07-32.57,7.37-5.42,14.79-10.73,21.48-17a5.47,5.47,0,0,1,2.64-1.32c-.21,43.63-.07,87.27-1.22,130.87C801.25,580,793,583.88,788.51,587.85Z"/><path class="cls-12" d="M279.11,657.51l.72-210.24c39.79-55.7,79.43-111.5,119.55-167,4.94-6.82,12.45-11.79,18.77-17.62l2.85.43c-14.22,17.42-29.42,34.14-42.46,52.4C347.5,359,317.48,403.16,287.05,447c-1,5.73-2.72,11.45-2.75,17.18C284,527,284,589.76,283.91,652.53a51,51,0,0,1-.65,5.89Z"/><path class="cls-13" d="M807.37,596.43c-31.65,11.49-61.28,28.3-95.37,35.7V754.51c-.43,1.72-1,1.88-3.8,1h-.33l-.25-.19V632.33c-31.24-5.64-61-12.29-88.48-27.07,10,2.84,20.61,4.46,30,8.72,55.11,25,103.29.91,152-20.43,1.66-.73,3.43-1.21,5.15-1.81C806.63,593.3,807,594.87,807.37,596.43Z"/><path class="cls-14" d="M802.58,445.05l-37.94,33.38V602.64l-3.49,1.13q-.72-56.46-1.39-112.92c0-3.77.46-7.55.71-11.33L699.31,476a75.66,75.66,0,0,1-8-.09l-43-1.76c-.42-1.76.76-1.87,2-1.93h4a22,22,0,0,1,4-.15l61.95,1a94.72,94.72,0,0,1,10,.1l13,.85c5.65,0,11.31-.07,17,0l39.25-31.3Z"/><path class="cls-7" d="M784.23,729.12c1-4.66,4.46-5.73,8.32-5.63,5.14-3.74,9.57-8.43,16.59-6.89Z"/><path class="cls-7" d="M809.49,715.35q.18-7.79.34-15.56Q809.67,707.56,809.49,715.35Z"/><path class="cls-8" d="M527.43,369.29l-9.92-10Z"/><path class="cls-7" d="M720.3,753.79c3.19-1.48,5.33-6.12,10-3.32Z"/><path class="cls-8" d="M482.53,324.36l-7.92-8.18Z"/><path class="cls-7" d="M772.23,733.9l9-3.45Z"/><path class="cls-7" d="M757.24,740c1-3.28,2.21-6,6-2.45Z"/><path class="cls-8" d="M508.78,351.22q-2.62-2.46-5.27-4.9Q506.15,348.77,508.78,351.22Z"/><path class="cls-8" d="M447.56,285.44l-5-5.05Z"/><path class="cls-7" d="M708.2,755.47l3.8-1,4.24.87Z"/><path class="cls-8" d="M553.49,398.21l-4.13-4.59Z"/><path class="cls-8" d="M545.47,389.24,541.56,385Z"/><path class="cls-8" d="M472.83,314.28l-3.38-3.57Z"/><path class="cls-10" d="M487.56,626.36l4.25-1.47Z"/><path class="cls-7" d="M809.31,679.66l-.28-3.91Z"/><path class="cls-8" d="M456.55,296.42l-2.85-3.51Z"/><path class="cls-8" d="M430.87,269.37l-3.31-2.81Z"/><path class="cls-7" d="M808.93,646.63c0-.92,0-1.85,0-2.77C808.93,644.78,808.93,645.71,808.93,646.63Z"/><path class="cls-7" d="M809.32,685.66c0-1,0-2,.07-3C809.37,683.67,809.34,684.66,809.32,685.66Z"/><path class="cls-7" d="M809.41,692.64c0-1,0-2,0-3C809.38,690.65,809.39,691.65,809.41,692.64Z"/><path class="cls-7" d="M745.27,744.35l3-.9Z"/><path class="cls-7" d="M740.28,746.49l3.39-1.81Z"/><path class="cls-8" d="M487.87,329.24l-2.34-1.89Z"/><path class="cls-10" d="M478.55,629.35l.63-1.37,1.25.6Z"/><path class="cls-8" d="M567.47,415.26c0-.86.09-1.72.13-2.58l2.21,1.51Z"/><path class="cls-8" d="M501.52,344.32l-1.92-2.24Z"/><path class="cls-8" d="M534.44,377.28c-.62-.77-1.24-1.53-1.87-2.29C533.2,375.75,533.82,376.51,534.44,377.28Z"/><path class="cls-10" d="M493.56,624.68l1.84-.14Z"/><path class="cls-15" d="M475.27,628.26l-3.94,1.37c-1.93-67.57,3.27-134,6.25-200.54l4.86-1Z"/><path class="cls-16" d="M650.35,472.24l-2,1.93h-12l0-1.93Z"/><path class="cls-16" d="M760.25,474.13l-17,0Z"/><path class="cls-16" d="M730.27,473.24l-10-.1Z"/><path class="cls-16" d="M691.34,475.93l8,.09Z"/><path class="cls-16" d="M658.35,472.1l-4,.15Z"/></g><g id="Layer_2" data-name="Layer 2"><text class="cls-17" transform="translate(73.33 758)">2019/10/08<tspan x="0" y="28.8">O</tspan><tspan class="cls-18" x="16.54" y="28.8">r</tspan><tspan x="24.48" y="28.8">i</tspan><tspan class="cls-19" x="30.1" y="28.8">g</tspan><tspan x="43.37" y="28.8">inal: </tspan><tspan class="cls-20" x="89.59" y="28.8">S</tspan><tspan class="cls-21" x="101.49" y="28.8">an</tspan><tspan class="cls-22" x="126.38" y="28.8">n</tspan><tspan class="cls-21" x="139.39" y="28.8">y </tspan><tspan class="cls-23" x="155.78" y="28.8">v</tspan><tspan x="167.23" y="28.8">an </tspan><tspan class="cls-24" x="197.2" y="28.8">L</tspan><tspan class="cls-21" x="208.2" y="28.8">oon</tspan><tspan class="cls-25"><tspan x="0" y="57.6">h</tspan><tspan class="cls-26" x="13.7" y="57.6">ttps://pin.it/jgcx5ss5i</tspan><tspan class="cls-27" x="234.93" y="57.6">z</tspan><tspan class="cls-26" x="245.52" y="57.6">ca3m</tspan></tspan></text></g></svg>