<svg xmlns="http://www.w3.org/2000/svg" viewBox="0 0 1024 1024"><defs><style>.cls-1{fill:#f2f2f2;}.cls-2{fill:#fefefe;}.cls-3{fill:#010101;}.cls-4{fill:#020202;}.cls-5{fill:#dcdcdc;}.cls-6{fill:#dc683b;}.cls-7{fill:#0d0d0d;}.cls-8{font-size:24px;font-family:MyriadPro-Regular, Myriad Pro;}.cls-9{letter-spacing:0em;}.cls-10{letter-spacing:-0.01em;}.cls-11{letter-spacing:0em;}.cls-12{letter-spacing:0em;}.cls-13{letter-spacing:-0.01em;}.cls-14{letter-spacing:0em;}.cls-15{letter-spacing:-0.01em;}.cls-16{letter-spacing:0.02em;}.cls-17{letter-spacing:0.02em;}.cls-18{letter-spacing:0.03em;}.cls-19{letter-spacing:0.01em;}</style></defs><title>Artboard 2</title><g id="Layer_1" data-name="Layer 1"><rect class="cls-1" x="0.5" y="-511.5" width="1023" height="2047"/><path class="cls-2" d="M.11,1023.89Q.11,514.25,0,4.6C0,.75.75,0,4.6,0Q511.49.17,1018.4,0c3.85,0,4.6.75,4.6,4.6q-.16,507.41,0,1014.8c0,3.85-.75,4.6-4.6,4.6Q509.5,1023.84.11,1023.89Z"/><path class="cls-3" d="M697.2,511.17c.08,33.49.09,67,.27,100.46.18,33.22-1.7,66.66,1.43,99.61,3.05,32.09-18.62,36.14-39.89,40.89-28.44,6.35-56.68,3.1-83.62-8.15-23.88-10-17-31.86-17.32-49.87-1.15-61.1-10.13-121.93-5.88-183.18,2.45-.89,4.22.72,5.84,1.95,16.66,12.61,36.5,15.36,56.16,15.69a183.68,183.68,0,0,0,61.27-9.29c5.71-1.91,10.91-4.85,16.29-7.44C693.43,511,695.15,509.42,697.2,511.17Z"/><path class="cls-4" d="M476.57,699.6c-13.87,5.39-27.63,11.07-41.63,16.1-30.79,11.08-62.19,19.85-94.88,24.46,6.62-70.66-1-98.76-32.53-119,42.32-11.16,84.2-22.23,126.09-33.23,4.24-1.11,8.58-1.87,12.88-2.79,6.15,1.35,9.77,6.13,13.37,10.53,9.93,12.13,16,26,19.83,41.33s4.09,30.48,2.36,45.87C481.4,688.75,480.72,694.79,476.57,699.6Z"/><path class="cls-5" d="M575.31,470.61c.06-24.84.08-49.67.23-74.5,0-2,.89-4,1.36-6,2-.35,3.51.76,5.1,1.62,14.1,7.59,29.15,12.08,45.13,12.58,10.2.32,20-2.56,29.66-5.78A133.3,133.3,0,0,0,673,392.12c1.62-.79,3.25-1.74,5.2-1.11l-1.85,78.91a5.8,5.8,0,0,1-2.85,5.47c-4.81,3.31-9.88,6.54-15.75,7.05-15.34,1.34-30.54,4.52-46.08,3.43a74.5,74.5,0,0,1-30.86-8.73C578.2,475.74,575.48,474.16,575.31,470.61Z"/><path class="cls-6" d="M584.24,373.37l2.3-60.4c3.45.91,5.35,4.19,8.84,5.31,12.22,3.9,22.39-.25,31.21-8.1,12.87-11.45,22.93-25.22,31.35-40.24,4.51-8,8.07-16.33,9-25.6a5.25,5.25,0,0,1,2.24-4.25c5.09,41.9-1.06,83.78-.33,125.68,0,1.81.09,3.62.14,5.43,1.5,3.86-.93,6-3.66,7.74-14.09,9.17-29.32,13.7-46.32,11.75-10.25-1.18-20-3.61-28.58-9.42C587.57,379.34,584.49,377.41,584.24,373.37Z"/><path class="cls-4" d="M340.53,704.14c-4.39,11.76,5.26,33-17.3,38.74-22.8,5.82-37.13-6.36-45.45-26.57-8.64-21-9.62-42.91-6.07-65.13,1.64-10.3,7.3-17.55,16.24-23.1,10.38-6.46,19.29-2.91,26,4.36C331.71,651.77,342.33,674.38,340.53,704.14Z"/><path class="cls-5" d="M697.2,511.17c-37.88,19.1-77.51,24.36-118.58,13.32-9.35-2.52-17.65-8.94-26.43-13.56l18.24-34.84c2.3-.72,3.74,1,5.36,2,11.52,7.39,24.31,10.34,37.79,11.28,14.93,1,29.47-2.42,44.21-3.48,5.66-.41,10.8-3.23,15.77-6,1.42-.8,2.66-2.08,4.5-1.86,5.11,10.56,9.34,21.72,20.44,27.56Z"/><path class="cls-6" d="M586.84,302.43c2.83-32.07,43.17-68.29,75.44-67.62,1.78,0,3.53,1.16,5.3,1.78,1,2.16.3,4.18-.39,6.25a222.41,222.41,0,0,1-12,28.43c-3.52,7.12-9.9,12-14.65,18.17-5.16,6.7-10.44,13.35-17.14,18.67-6.15,4.88-12.82,8.18-20.95,7.92C593.61,315.74,588.51,311.39,586.84,302.43Z"/><path class="cls-5" d="M476.57,699.6c10.84-43.63,5.27-83-30.07-114.47,14.84-14.16,36.23-4.6,47,21.47,10.07,24.34,11.83,50,8.53,75.71C500.29,696,487.85,697.87,476.57,699.6Z"/><path class="cls-5" d="M584.24,373.37c18.47,20.42,62.57,21.91,82.59,2.67,1.18-1.13,1.46-3.21,2.16-4.84,4.72,3.36,14.28,2.87,10.42,13.06-9.29,6.76-20.1,10-30.86,13.38-21.69,6.81-42,2-61.74-7.23-4.37-2.05-9.09-4.38-10.32-10Z"/><path class="cls-7" d="M678.06,478c-15.63,17.87-82.22,16.67-107.63-1.93l-6-7.81,10.88,2.33c15.84,19.48,85.81,19,101-.69Z"/><path class="cls-7" d="M586.84,302.43c11.44,21.23,25.86,13.45,38,2.21,20.17-18.65,36.32-40.47,42.72-68,.53,1.17,1.07,2.34,1.6,3.5-6.81,34-24.19,61.14-54.45,78.57-9.48,5.46-20.41,4.27-28.18-5.68Q586.68,307.7,586.84,302.43Z"/><path class="cls-7" d="M576.49,380.44C595,402,639.37,404.53,674,386.09a34.09,34.09,0,0,1,5.44-1.83q-.63,3.38-1.24,6.75c-33.92,18.19-67.69,20.36-101.27-.86Z"/></g><g id="Layer_2" data-name="Layer 2"><text class="cls-8" transform="translate(150.33 396)">2019/10/10<tspan x="0" y="28.8">O</tspan><tspan class="cls-9" x="16.54" y="28.8">r</tspan><tspan x="24.48" y="28.8">i</tspan><tspan class="cls-10" x="30.1" y="28.8">g</tspan><tspan x="43.37" y="28.8">inal: </tspan><tspan class="cls-11" x="89.59" y="28.8">S</tspan><tspan class="cls-12" x="101.49" y="28.8">an</tspan><tspan class="cls-13" x="126.38" y="28.8">n</tspan><tspan class="cls-12" x="139.39" y="28.8">y </tspan><tspan class="cls-14" x="155.78" y="28.8">v</tspan><tspan x="167.23" y="28.8">an </tspan><tspan class="cls-15" x="197.2" y="28.8">L</tspan><tspan class="cls-12" x="208.2" y="28.8">oon</tspan><tspan class="cls-16"><tspan x="0" y="57.6">h</tspan><tspan class="cls-17" x="13.7" y="57.6">ttps://pin.it/an</tspan><tspan class="cls-18" x="166.1" y="57.6">x</tspan><tspan class="cls-17" x="178" y="57.6">t3qx</tspan><tspan class="cls-19" x="224.8" y="57.6">x</tspan><tspan class="cls-17" x="236.03" y="57.6">qm46r2</tspan></tspan></text></g></svg>