<svg xmlns="http://www.w3.org/2000/svg" xmlns:xlink="http://www.w3.org/1999/xlink" viewBox="0 0 512 512"><defs><style>.cls-1{fill:#6b614c;}.cls-2{fill:#666;}.cls-3{fill:#333;}.cls-4{fill:url(#Leg_Light);}.cls-5{fill:url(#Leg_Light-2);}.cls-6{fill:#efefe4;}</style><linearGradient id="Leg_Light" x1="165.07" y1="279.41" x2="165.07" y2="456.05" gradientUnits="userSpaceOnUse"><stop offset="0" stop-color="#efefe4"/><stop offset="0.36" stop-color="#eeede1"/><stop offset="0.58" stop-color="#e9e8d9"/><stop offset="0.76" stop-color="#e0decb"/><stop offset="0.92" stop-color="#d4d1b7"/><stop offset="1" stop-color="#cdc8aa"/></linearGradient><linearGradient id="Leg_Light-2" x1="295.5" y1="259.85" x2="295.5" y2="493.09" xlink:href="#Leg_Light"/></defs><title>Artboard 1</title><g id="Protractor"><g id="Layer_2" data-name="Layer 2"><path class="cls-1" d="M266,174,225,97l-15.87,10.12L270,219l60,170,41,102,8-20-2-10c22,5,11-35-10-21L289,224Z"/><polygon class="cls-1" points="190 202.92 186 297 190 442 177 442 177 203 190 202.92"/><polygon class="cls-1" points="190 213 212 244 226 236 237 212 209.41 204.53 190 213"/><path class="cls-2" d="M179,202l36,3L206,92l-58-7,16,69Z"/><polygon class="cls-3" points="234.96 92.4 228 72 195 76 223 104 234.96 92.4"/><path class="cls-4" d="M167,169c.59-2.23,7,5,12,29-7,57-5,223,5,260-16-11-27-6-26-94,0,0-26,5-1-25-.55-15.16-1.08-37.57-.62-64.75C156.85,245.77,158,203,167,169Z"/><polygon class="cls-5" points="253 225 220 158 220 126 270 219 330 389 371 491 362 497 351 494 310 389 305 377 253 225"/><polygon class="cls-6" points="161 13 181 11 186 76 167 79 161 13"/><polygon class="cls-6" points="214 216 218 204 250.55 220.02 249 223 214 216"/><polygon class="cls-6" points="208 242 184 216 188 241 208 242"/></g><path d="M266.18,174.3c1.45,2.75,2.95,5.48,4.36,8.25,3.53,7,5.55,14.4,12.38,19.9,4.45,3.58,5.94,10.78,8.95,16.26a5.15,5.15,0,0,0,3.13,2.08c5.18,1.17,10.7,1.4,15.49,3.4,2.42,1,4.9,5.06,5,7.8.13,4.16-3.44,5.65-7.55,4.61-3.66-.93-7.31-1.93-12.88-3.4,8.12,16.61,15.68,31.67,22.84,46.91A78.19,78.19,0,0,1,323,295.45c1,4.53-1.18,6.36-7.26,3.63,18.21,48.76,35.94,96.2,53,141.81l16.26,2.28c-1.8-4.31-6.18-6.06-15.17-5.1,3.45-3.05,8-2.92,13.28.37,4.75,2.93,7.73,10.35,6.61,15.61-1.32,6.2-4.86,9.23-12.19,8.39,5.24,12.88-4.76,21.74-7.21,32.53-.39,1.7.69,3.71.95,5.59.36,2.71.59,5.43.88,8.14l-1.84,1a77.6,77.6,0,0,0-5.29-6.86c-1.95-2.05-4.12-4.92-6.53-5.3-5.95-.94-8.47-4-10.51-9.52-4.75-12.93-10.67-25.43-15.84-38.21-6.36-15.74-12.83-31.45-18.56-47.42-8.17-22.76-15.78-45.73-23.51-68.65-10.42-30.89-20.69-61.83-31.13-92.72-1.59-4.71-3.63-9.29-5.66-13.84-.55-1.21-1.7-2.72-2.83-3-5.3-1.25-10.68-2.12-16-3.12-8.67,22.15-13.56,26.73-40.31,22.41.8,10.18,1.94,20.2,2.27,30.25.22,6.45-.75,13-1.29,21-3.64-2.63-5.35-3.86-7.81-5.65-.16,2.94-.47,5.31-.4,7.67q1.47,49.42,3.14,98.84c.08,2.1,1.27,4.32,2.41,6.19,2.75,4.5,4.8,8.73.68,13.68-1.08,1.31-1.18,3.73-1.14,5.63.19,8,.62,15.95.91,23.93.05,1.32.35,3.14-.36,3.9-4.92,5.25-1.92,11.68-2.94,17.47a35.06,35.06,0,0,1-2,5.83c-1.25-2.2-3.07-4.07-3.37-6.15-1.54-10.85-12.62-13.39-18-21-5.74-8.08-6-16.8-6.75-25.56-1.11-13.43-1.29-26.94-1.78-40.42-.09-2.62.28-5.25.38-7.88.15-3.9-.67-6.41-5.66-5.4-3.49.71-7.64-5.33-6.09-10.29,1.66-5.32,5.18-10.05,7.83-15.07,1-1.86,2.61-3.8,2.61-5.71-.08-26.11-.71-52.23-.51-78.34.12-15.26,1.26-30.53,2.42-45.75.32-4.11-.86-5.06-4.53-5.69-7.54-1.3-15-3.15-22.43-4.89-1.6-.37-3.6-.81-4.51-1.94-1.42-1.76-2.08-4.15-3-6.27,1.67-.71,3.43-2.2,5-2,8.91,1.07,17.81,2.3,26.62,4,4.24.81,6-.12,6.69-4.48,1-6.22,2.92-12.3,4.08-18.5a17.6,17.6,0,0,0-.33-7.29c-6.35-25-12.88-50-19.18-75a10.33,10.33,0,0,1,.69-6.11,61.11,61.11,0,0,1,5-9.1c2-3.12,3.82-6.68,6.62-8.92,4.33-3.46,5.48-7.6,4.95-12.63-1.26-11.92-2.29-23.88-4-35.73-1-6.72.31-11.07,7.66-12.22A27.81,27.81,0,0,0,173,2h3c4,1.54,5.29,4.21,5.51,8.71.68,13.92,2.08,27.81,3.47,41.68a5.92,5.92,0,0,0,3.24,4.14Q204.53,61.9,221,66.59c2.33.66,5,.1,7.11.1,1.48,4.62,3.61,9.75,4.71,15.09,2.93,14.28,5.37,28.65,8.15,43a24.78,24.78,0,0,0,2.5,6.72c7.54,14.36,15.2,28.67,22.81,43-5.33-8.2-10.66-16.38-15.46-23.75-.27-2.31.07-4.3-.74-5.48-4.81-6.94-9.71-13.84-15-20.41-1.39-1.74-4.26-2.3-7.79-4.07-1.5-1.94-4.15-5.33-6-7.68-.58-3.38-1-6-1.7-10-4.87,5.07-2.81,8.45-1.31,12,1.8,4.17,7.13,7.47,3.38,13.19-.3.45.91,2,1.51,2.93,1.44,2.32,3.1,4.51,4.38,6.91q14.12,26.34,28.12,52.75c3,5.67,6.05,11.33,8.72,16.33,2.24-2.26,4.21-5.81,6.09-5.76,2.18,0,4.74,2.94,6.33,5.17,2.43,3.42,4.16,7.32,6.19,11a3.22,3.22,0,0,0,.09-3c-2.66-5.32-5.6-10.5-8-15.92-1.89-4.28-3.09-8.87-4.7-13.29C269.11,181.64,267.61,178,266.18,174.3Zm71,276.85c.59,3.1,1.17,6.2,1.76,9.3l1.61-1.06c.93.94,2.16,1.73,2.71,2.85,1.16,2.39,2,5,2.92,7.45-1.65,5.24.24,10.85,3.84,11.4,1,3.29,1.17,7.17,3.12,9.7s5.42,4.14,8.54,4.88c1.37.32,4.95-2.48,5-4,.19-4.69-.81-9.42-1.2-12.84-4-.17-6.35-.1-8.61-.54-.45-.08-1-3-.65-3.19a40.42,40.42,0,0,1,6.06-2.53c-.75-2-1.73-4.78-2.83-7.51q-6-14.8-12-29.57c-5.05-12.37-9.9-24.84-15.35-37-2.71-6.07-14.44-10.78-22.24-9.48,2,3.74,4.32,7.14,5.81,10.85,2.35,5.85,3.68,12.14,6.34,17.82,3.89,8.27,8.57,16.15,12.91,24.2l-4.05-3.74a22.37,22.37,0,0,0,2.4,10.05C334,449.49,335.87,450.18,337.19,451.15Zm-168.91-9.6c2.43,5.57,5.92,10.05,11.53,12.36l1.73-1.3-5.27-8.06c.85-1.34,2.51-2.71,2.45-4-.9-17.89-2-35.77-3.16-53.64-.09-1.49-.68-3.86-1.63-4.22-4.29-1.59-8.79-2.6-13.79-4v11.78c1.45-2.43,2.74-4.59,4-6.65.64,7.12.57,14.14,2,20.84,2.89,13.36,6.62,26.55,10,39.81l-7.89-2.87c-.65-2.91-1.29-5.82-2.08-9.4l4.52,2.76c.17-8.13-5.82-23.33-9-22.79.3-4.8.59-9.54.87-14.27a167,167,0,0,0-.94,24.88c0,.59,2.18.93,2.69,1.77.9,1.5,2.31,4.13,1.73,4.84C162.17,434.18,162.69,437.92,168.28,441.55ZM170.4,76.47l-.09-.11c4.15.64,8.52,2.25,7.67-5.19-2.07-18-3.72-35.95-5.67-55.28l2.5,5.58V16l5.35-3.28-.71-.76-17.31,2a39.13,39.13,0,0,0,0,4c1.57,18.29,3.11,36.58,4.91,54.84C167.2,74.09,169.25,75.23,170.4,76.47Zm5,135.1c5.2-14.47-3.29-26.49-6.18-39.51l-1.71,0-7.07,34.71c10.15-5.15,11.81-4.47,15,4.79-1.18,2.61-1.82,6.88-3.66,7.5-3.6,1.19-7.88.35-12.9.35v97.89l2.18-2.62c-.61,6.93-1.31,14.77-2,22.89,5.59-.71,5.7-4.07,4.79-6.75l9.14,2.56c.69-15.26,1.47-29,1.89-42.71q1.06-34.93,1.7-69.89C176.62,217.72,175.78,214.66,175.4,211.57Zm36.51-8.44c0-3.82.18-7.63,0-11.43-.4-6.69-1.76-13.4-1.44-20,1.21-25.37-4.58-49.88-8.63-74.6a6,6,0,0,0-3.88-4c-12.64-2-25.37-3.38-38-5.4-5.92-1-7.67,1.93-7.24,6.76a51,51,0,0,0,2.7,12.58c2.29,6.39,7.52,12.1,2.77,20.23l4.68-1c-.74,5-2.17,9.59-1.84,14,.34,4.64,2.39,9.16,3.69,13.74l1.92-.52c-.73-2.52-1.64-5-2.13-7.57a59.39,59.39,0,0,1-.58-7l2.45-.23c2.39,11.73,4.79,23.47,7.13,34.92l4.31,1.72c.42,4.63,1.87,8.91.88,12.52-1.75,6.45,4.75,6.41,6.15,10.49l-3.35,2.37.66,1,5.86-.37c-2.22-8.74-4.27-16.84-6.35-25h12c1.67,7.25,3.55,14.81,5.12,22.42,1.1,5.39,4.79,5.62,9,5.12C209,203.77,210.12,203.48,211.91,203.13ZM330.27,389.47l-59.42-165.8-2-.09c-.29,9.12-6.57,7.82-11.67,7.44,5.95,18,11.85,35.78,17.7,53.57,9.67,29.38,19.53,58.7,28.82,88.19,2.51,8,3.92,15.81,14.7,15.46.88,0,1.78,1.11,2.7,1.17C323.91,389.57,326.68,389.47,330.27,389.47Zm-51-146.16c6.87,18.32,13.71,35.82,20,53.52,6.11,17.24,11.21,34.85,17.6,52,4.75,12.71,8.22,26.28,19.79,37.42,1.95-3.86,5.94-8,5.11-10.73-4.3-14.15-9.77-28-15-41.84-2.1-5.61-4.72-11-6.76-16.64-9.78-27-19.44-54.15-29.18-81.22a38.56,38.56,0,0,0-2.32-4.16C289.65,244.65,288.4,246.16,279.25,243.31ZM267.72,216,222.4,131.71A31,31,0,0,0,221.11,144c.7,6.73.45,14,3,20,7.53,17.51,16.23,34.53,24.55,51.7,1.23,2.53,2.85,4.86,4.6,7.79C256.59,215.58,262.11,213.14,267.72,216ZM366,466.64l1.85-.81q-9.76-23.22-19.54-46.45l1.09-.52L364,447.61c.11-.6.26-1.35.26-1.34l9.3,31.52c6.28-3.93,2.79-7.23,1.39-10.62a4.1,4.1,0,0,0,.75-3.39c-3.72-13.13-11.06-24.79-15-37.91-3.81-12.63-9.29-24.74-13.93-37.11-1-2.65-1.56-5.44-2.56-9-4.48,4.12-8.18,7.41-11.69,10.88a3.28,3.28,0,0,0-.57,3c2.15,4.21,4.56,8.29,6.87,12.41l1.23-.39.56-8.07a8.39,8.39,0,0,1,.82,4.37c0,3.58-.87,7.48.25,10.68,5.85,16.76,12.16,33.36,18.43,50,3,7.86,6.19,15.62,9.79,24.67l3.41-5.39c-4.81-1-8.81-9.23-9.76-19.43ZM180.57,329.12l3.15,1.36c.71-2.81,2-5.61,2.05-8.42.22-20.11.22-40.21.21-60.32,0-8.34,1-16.92-.65-25-1.47-7.36-6-14-4.45-22.17.59-3.18-.72-6.94,4.6-7.07.76,0,1.46-2.3,2.32-3.77-9.15-1.26-9.6-.85-9.58,7.45,0,3.83-.13,7.66-.13,11.48q0,35.71,0,71.43l-1.38,0,.4-5.16c1.18,2.79,3.17,5.81,3.7,9.07,1.39,8.58,2.17,17.27,3.08,25.93a4.6,4.6,0,0,1-.94,2.72A17.89,17.89,0,0,1,180.57,329.12ZM165,349.44l1.73-.45a13.36,13.36,0,0,1,1.1,3.44c.22,6.29.23,12.58.4,18.87.2,7,.24,7,5.81,8.15V337.23c-16.23,1.52-18.39,3.58-14.23,12.57l2.73-3.59v23.33L160,360c-1.16,14.67-.31,17.22,5,16.14Zm81.43-137-21.88-45.15-2.38.67c0,6.08-.25,12.19.14,18.25.13,2.1,1.71,4.18,2.89,6.11,2.46,4,6.56,7.73,7.35,12C234,212.07,238.83,211.91,246.44,212.46Zm-33.6,3.76.74-.68,34.89,6.58.88-2c-4.38-1.88-8.62-4.3-13.19-5.48s-9.57-.74-14.21-1.77c-2.35-.52-4.32-2.73-7.57-4.93-4.33,1.16-5.11,1.81-5.24,7.77,0,1.75,1,4.53,2.34,5.08,2.05.86,4.73.22,7.15.22l.09-1.75ZM179.67,346.93c-4.1,6-3.06,12.93,2.83,17.16.28-3.08.52-5.72.86-9.53,3.22,13.68,2.91,14.9-3.76,17v5.15c4.66-.95,7.34-3.45,7.3-7.9-.11-11.82-.49-23.63-.83-35.44a7.91,7.91,0,0,0-.8-2.27l-1.1.15v16.55h-.65L182.1,339l-1.85.35,1.8,12.52-.94.15ZM372,450.73l1.72-1.43c1.86,1.13,5.23,2.22,5.25,3.38,0,2.38-1.71,4.79-2.86,7.5,5.48,1.31,9.64,1.15,11-4.81,1.2-5.3-3.45-11.83-9-12.22-2.11-.15-4.88.47-6.3,1.83C370.88,445.88,371.85,448.74,372,450.73Zm-183-223-2.76,1.56,4.74,2-4.17,1.28c3.22,7.21,6.87,8.9,18.38,7.4l-12.67-5.83,3.7-.36c-1.33-2.58-2.42-5.08-3.85-7.34a13.44,13.44,0,0,0-3.59-3.62c-.39-.28-1.62.62-2.47,1Zm33.7-124.61,4.76-16.8-3.49,5.07c.23-3,.39-5.24.59-7.9l-2.38,2.49c.23-3.13.43-5.82.74-10.18-3.59,4.14-6.2,7.16-8.82,10.17l2,1.91,3.27-5.94,1.88.84C216.14,90.32,216.07,97.43,222.65,103.07ZM159.24,213.93c3.91,2.64,6.14,5.24,7.54,4.85,2.29-.63,5.58-3.16,5.64-5,.09-2.34-2.6-4.78-4.09-7.19Zm120.07.24c-2.05-3.24-3.84-6.39-6-9.26-.71-.95-2.8-1.94-3.5-1.55A4.3,4.3,0,0,0,268,207c.66,3.45,1.89,6.79,2.86,10.06Zm-17.57,17.68c2.35-3.25,4.85-5.22,4.61-6.74-.35-2.16-2.72-4-4.23-6-2,1.84-4.94,3.36-5.76,5.64C255.92,226,259.08,228.51,261.74,231.85Zm12.59-3.58c3.34,5,5.87,8.89,8.56,13C287.61,234.35,284.93,229.62,274.33,228.27Zm-117.78,114c-5.93,2.77-9.76,10.3-8,15.65.8,2.33,2.58,4.33,3.92,6.48l1.68-1C146.5,355.63,154.11,349.37,156.55,342.31Zm24.71,69.78-2.47.17,2,27.64.52-.09Zm12.79-193.82L205.38,221,200,212.88l-4.86-1.78C194.86,213.15,194.51,215.37,194.05,218.27Zm34-146-2.9.29c.18,2-.13,4.12.63,5.81,1.82,4.06,4.15,7.91,6.29,11.83.45.82,1,1.58,1.49,2.37l1.05-.44Q231.35,82.24,228.06,72.31ZM209.4,224.53c-1.64-13.33-1.64-13.33,1.19-18.85-2.3.81-5.16,1.89-5.78,3.73C203,214.88,205.81,222.91,209.4,224.53Zm14.4,7.86-9.72,2,1.23,5.85C223.7,236.46,223.7,236.46,223.8,232.39Zm-17-153.27L206,74.8l-6.31,3.46c13.48,3.87,14.4,3.71,17.51-3.56l-5.8,4.49-1.34-2.67ZM220.9,219.78l8.8,7.16c.52-1.45,1.29-3.65,2.26-6.39Z"/><path d="M306.27,302a15.7,15.7,0,0,1,2.37,2.89c3.9,8.18,8,16.3,11.34,24.7.85,2.12-.67,5.19-1.1,7.83l-2.83,0-11.34-34.74Z"/><path d="M347.39,472.86c0-.65,0-1.29.05-1.93.55,1.05,1.1,2.1,1.64,3.15L347.5,473Z"/><path d="M351,476c-.69-.71-1.38-1.41-2.08-2.11C349.63,474.62,350.32,475.32,351,476Z"/><path d="M170.4,76.47Q167,46.82,163.55,17.16l1.37-.18c.73,6.09,1.54,12.16,2.18,18.26q1.91,18.1,3.61,36.25a27.81,27.81,0,0,1-.41,4.86Z"/><path d="M169.35,17.72l5.91,55-1.25.13-6.14-55.07Z"/><path d="M347.5,473l-.28-.2a.65.65,0,0,0,.16.09Z"/></g><g id="Text"><path d="M302,99.52h-1.06V91.07H302Z"/><path d="M304,99.52V93.21h1v1H305a1.92,1.92,0,0,1,.71-.81,2.56,2.56,0,0,1,2.83.31,2.47,2.47,0,0,1,.57,1.74v4.08h-1V95.68a1.81,1.81,0,0,0-.37-1.26,1.39,1.39,0,0,0-1.12-.41,1.6,1.6,0,0,0-1.21.47,1.83,1.83,0,0,0-.45,1.31v3.73Z"/><path d="M311.5,93.62a2.66,2.66,0,0,1,1.69-.52,2.75,2.75,0,0,1,1.63.45,1.76,1.76,0,0,1,.75,1.24h-1a1,1,0,0,0-.46-.61,1.73,1.73,0,0,0-.93-.23,1.71,1.71,0,0,0-.95.26.8.8,0,0,0-.39.69.65.65,0,0,0,.27.53,2.24,2.24,0,0,0,.83.35l1,.24a2.89,2.89,0,0,1,1.33.62,1.42,1.42,0,0,1,.44,1.09,1.67,1.67,0,0,1-.73,1.38,3.37,3.37,0,0,1-3.53.06,1.71,1.71,0,0,1-.76-1.26h1a1.13,1.13,0,0,0,.5.64,1.8,1.8,0,0,0,1,.24,1.86,1.86,0,0,0,1.05-.28.83.83,0,0,0,.41-.71.7.7,0,0,0-.25-.55,1.87,1.87,0,0,0-.75-.34l-1.09-.26a2.87,2.87,0,0,1-1.3-.62,1.45,1.45,0,0,1-.42-1.09A1.64,1.64,0,0,1,311.5,93.62Z"/><path d="M322.27,94a4.28,4.28,0,0,1,0,4.75,2.37,2.37,0,0,1-1.94.9,2.47,2.47,0,0,1-1.19-.29,1.76,1.76,0,0,1-.78-.77h-.09v3h-1V93.21h1v1.05h.09a2.28,2.28,0,0,1,.84-.85,2.31,2.31,0,0,1,1.18-.31A2.36,2.36,0,0,1,322.27,94Zm-.81,4.11a3.32,3.32,0,0,0,0-3.47A1.62,1.62,0,0,0,320.1,94a1.66,1.66,0,0,0-1.36.63,3.23,3.23,0,0,0,0,3.45,1.77,1.77,0,0,0,2.72,0Z"/><path d="M324.6,91.72a.72.72,0,0,1,0-1,.71.71,0,0,1,1,1,.7.7,0,0,1-1,0Zm0,7.8V93.21h1v6.31Z"/><path d="M327.52,99.52V93.21h1v.94h.09a1.32,1.32,0,0,1,.63-.76,2.1,2.1,0,0,1,1.12-.29h.27l.23,0v1l-.27,0a2.56,2.56,0,0,0-.37,0,1.67,1.67,0,0,0-1.19.43,1.45,1.45,0,0,0-.47,1.1v3.91Z"/><path d="M336.28,97.89h1a2.23,2.23,0,0,1-.93,1.28,3,3,0,0,1-1.73.47,2.61,2.61,0,0,1-2.08-.89,3.44,3.44,0,0,1-.77-2.38,3.55,3.55,0,0,1,.77-2.38,2.63,2.63,0,0,1,2.08-.89,2.51,2.51,0,0,1,2,.85,3.48,3.48,0,0,1,.73,2.32v.39h-4.54v0a2.23,2.23,0,0,0,.53,1.48,1.62,1.62,0,0,0,1.29.56,2.2,2.2,0,0,0,1-.22A1.4,1.4,0,0,0,336.28,97.89Zm-2.91-3.39a2.12,2.12,0,0,0-.54,1.35h3.48a2,2,0,0,0-.48-1.35,1.58,1.58,0,0,0-1.22-.51A1.65,1.65,0,0,0,333.37,94.5Z"/><path d="M339.35,98.75a4.27,4.27,0,0,1,0-4.76,2.34,2.34,0,0,1,1.93-.89,2.32,2.32,0,0,1,1.18.29,2,2,0,0,1,.8.81h.09V90.7h1v8.82h-1v-1h-.09a2.18,2.18,0,0,1-.83.82,2.54,2.54,0,0,1-3.13-.59Zm.82-4.11a3.3,3.3,0,0,0,0,3.46,1.6,1.6,0,0,0,1.35.63,1.63,1.63,0,0,0,1.36-.63,3.24,3.24,0,0,0,0-3.46,1.66,1.66,0,0,0-1.36-.63A1.62,1.62,0,0,0,340.17,94.64Z"/><path d="M351.66,99.34a2.14,2.14,0,0,1-.84-.82h-.09v1h-1V90.7h1v3.5h.1a1.85,1.85,0,0,1,.79-.8,2.42,2.42,0,0,1,1.19-.3,2.34,2.34,0,0,1,1.93.89,3.65,3.65,0,0,1,.72,2.38,3.61,3.61,0,0,1-.73,2.37,2.33,2.33,0,0,1-1.92.9A2.36,2.36,0,0,1,351.66,99.34Zm-.41-4.7a3.24,3.24,0,0,0,0,3.46,1.66,1.66,0,0,0,1.36.63A1.63,1.63,0,0,0,354,98.1a3.38,3.38,0,0,0,0-3.47,1.62,1.62,0,0,0-1.36-.62A1.66,1.66,0,0,0,351.25,94.64Z"/><path d="M357.47,101.81h-.15l-.15,0v-.86a1.2,1.2,0,0,0,.2,0h.22a1,1,0,0,0,.7-.23,1.89,1.89,0,0,0,.46-.8l.12-.38-2.34-6.32h1.09l1.73,5.2h.1l1.72-5.2h1.08l-2.47,6.7a3.7,3.7,0,0,1-.86,1.5,1.91,1.91,0,0,1-1.3.4Z"/><path d="M305.77,108.39a4.23,4.23,0,0,1,0,4.75,2.34,2.34,0,0,1-1.93.9,2.41,2.41,0,0,1-1.19-.29,1.76,1.76,0,0,1-.78-.77h-.1v3h-1v-8.42h1v1h.09a2.15,2.15,0,0,1,.84-.85,2.29,2.29,0,0,1,1.18-.31A2.33,2.33,0,0,1,305.77,108.39ZM305,112.5a3.32,3.32,0,0,0,0-3.47,1.6,1.6,0,0,0-1.35-.62,1.64,1.64,0,0,0-1.36.63,3.17,3.17,0,0,0,0,3.45,1.76,1.76,0,0,0,2.71,0Z"/><path d="M308.11,106.12a.7.7,0,0,1,0-1,.7.7,0,0,1,.49-.2.7.7,0,0,1,.5,1.2.66.66,0,0,1-.5.21A.67.67,0,0,1,308.11,106.12Zm0,7.8v-6.31h1v6.31Z"/><path d="M311,113.92v-6.31h1v1h.09a2,2,0,0,1,.71-.81,2.56,2.56,0,0,1,2.83.31,2.44,2.44,0,0,1,.57,1.73v4.09h-1v-3.84a1.86,1.86,0,0,0-.36-1.26,1.42,1.42,0,0,0-1.12-.41,1.57,1.57,0,0,0-1.21.47,1.83,1.83,0,0,0-.45,1.31v3.73Z"/><path d="M318.33,113.76a.75.75,0,0,1,0-1.08.73.73,0,0,1,.53-.22.72.72,0,0,1,.54.22.75.75,0,0,1,0,1.08.72.72,0,0,1-.54.22A.73.73,0,0,1,318.33,113.76Z"/><path d="M321.63,106.12a.7.7,0,0,1,0-1,.71.71,0,0,1,1,0,.7.7,0,0,1,0,1,.69.69,0,0,1-1,0Zm0,7.8v-6.31h1v6.31Z"/><path d="M325,106h1v1.64h1.4v.84H326V112a1.16,1.16,0,0,0,.22.8.92.92,0,0,0,.72.26h.23l.23,0v.85l-.29,0h-.3a2.05,2.05,0,0,1-1.4-.39,1.71,1.71,0,0,1-.42-1.3v-3.83h-1v-.84h1Z"/><path d="M328.85,115.72H328l3.11-10.62H332Z"/><path d="M333.37,113.16a4.07,4.07,0,0,1,0-4.79,3,3,0,0,1,4.26,0,4.07,4.07,0,0,1,0,4.79,3,3,0,0,1-4.26,0Zm3.51-.65a3.35,3.35,0,0,0,0-3.49,1.87,1.87,0,0,0-2.76,0,3.35,3.35,0,0,0,0,3.49,1.85,1.85,0,0,0,2.76,0Z"/><path d="M340.42,106h1v1.64h1.41v.84h-1.41V112a1.16,1.16,0,0,0,.23.8.88.88,0,0,0,.71.26h.23l.24,0v.85l-.29,0h-.3a2,2,0,0,1-1.4-.39,1.71,1.71,0,0,1-.42-1.3v-3.83h-1v-.84h1Z"/><path d="M346.59,111.54h-.09l-1.5,2.38h-1.15l2.17-3.15-2.19-3.16H345l1.5,2.35h.1l1.48-2.35h1.14l-2.14,3.12,2.17,3.19h-1.2Z"/><path d="M352.61,113.74a2.14,2.14,0,0,1-.84-.82h-.09v1h-1V105.1h1v3.5h.1a1.85,1.85,0,0,1,.79-.8,2.39,2.39,0,0,1,1.19-.3,2.34,2.34,0,0,1,1.93.89,3.65,3.65,0,0,1,.72,2.38,3.61,3.61,0,0,1-.73,2.37,2.33,2.33,0,0,1-1.92.9A2.36,2.36,0,0,1,352.61,113.74Zm-.41-4.7a3.24,3.24,0,0,0,0,3.46,1.66,1.66,0,0,0,1.36.63,1.63,1.63,0,0,0,1.36-.63,3.38,3.38,0,0,0,0-3.47,1.62,1.62,0,0,0-1.36-.62A1.66,1.66,0,0,0,352.2,109Z"/><path d="M358.37,113.92l1-1.91c.28-.57.59-1.17.91-1.8s.63-1.23.92-1.8.61-1.2,1-1.91v-.09h-4.52v-.94h5.59v1l-3.76,7.47Z"/><path d="M365.21,113.92c.37-.71.7-1.35,1-1.91l.92-1.8.92-1.8c.28-.56.61-1.2,1-1.91v-.09h-4.52v-.94h5.59v1l-3.76,7.47Z"/><path d="M375.89,112.29h1a2.28,2.28,0,0,1-.93,1.28,3.06,3.06,0,0,1-1.73.47,2.61,2.61,0,0,1-2.08-.89,3.44,3.44,0,0,1-.77-2.38,3.55,3.55,0,0,1,.77-2.38,2.6,2.6,0,0,1,2.08-.89,2.51,2.51,0,0,1,2,.85,3.48,3.48,0,0,1,.73,2.32v.39h-4.54v0a2.23,2.23,0,0,0,.53,1.48,1.62,1.62,0,0,0,1.29.56,2.23,2.23,0,0,0,1-.22A1.45,1.45,0,0,0,375.89,112.29ZM373,108.9a2.12,2.12,0,0,0-.54,1.35h3.48a2,2,0,0,0-.48-1.35,1.58,1.58,0,0,0-1.22-.51A1.65,1.65,0,0,0,373,108.9Z"/><path d="M378.91,113.92l1-1.91c.28-.57.59-1.17.91-1.8s.63-1.23.92-1.8.61-1.2,1-1.91v-.09h-4.52v-.94h5.59v1L380,113.92Z"/><path d="M385.79,116.21h-.16l-.14,0v-.86a1.2,1.2,0,0,0,.2,0h.22a1,1,0,0,0,.69-.23,1.89,1.89,0,0,0,.47-.8l.11-.38-2.33-6.32h1.09l1.73,5.2h.09l1.73-5.2h1.08l-2.47,6.7a3.59,3.59,0,0,1-.87,1.5,1.86,1.86,0,0,1-1.29.4Z"/><path d="M392.62,106a2.69,2.69,0,0,1,1.94-.73,2.79,2.79,0,0,1,1.91.68,2.19,2.19,0,0,1,.77,1.69,2.55,2.55,0,0,1-.37,1.3,11.57,11.57,0,0,1-1.42,1.76l-2,2.18v.1h4v.94h-5.47v-.72l2.92-3.2a8.64,8.64,0,0,0,1.09-1.35,1.86,1.86,0,0,0,.26-1,1.36,1.36,0,0,0-.47-1.06,1.68,1.68,0,0,0-1.18-.43,1.56,1.56,0,0,0-1.66,1.66h-1A2.44,2.44,0,0,1,392.62,106Z"/><path d="M399.93,115.88a1.79,1.79,0,0,1-.82-1.26h1.07a.94.94,0,0,0,.49.62,2.29,2.29,0,0,0,1.09.23,2,2,0,0,0,1.33-.39,1.35,1.35,0,0,0,.48-1.1v-1.24h-.1a2.1,2.1,0,0,1-.81.81,2.58,2.58,0,0,1-3.1-.59,4,4,0,0,1,0-4.58,2.35,2.35,0,0,1,1.93-.88,2.47,2.47,0,0,1,1.21.3,1.94,1.94,0,0,1,.82.81h.09v-1h1V114a2.08,2.08,0,0,1-.76,1.68,3.13,3.13,0,0,1-2.06.63A3.22,3.22,0,0,1,399.93,115.88Zm3.16-3.56a2.56,2.56,0,0,0,.5-1.65,2.6,2.6,0,0,0-.5-1.65,1.66,1.66,0,0,0-1.37-.61,1.62,1.62,0,0,0-1.36.61,2.71,2.71,0,0,0-.47,1.65,2.67,2.67,0,0,0,.47,1.65,1.62,1.62,0,0,0,1.36.62A1.67,1.67,0,0,0,403.09,112.32Z"/><path d="M410,107.81a2.12,2.12,0,0,1,.83.85h.1v-1h1V116h-1v-3h-.1a2.07,2.07,0,0,1-.8.78,2.54,2.54,0,0,1-3.09-.61,4.29,4.29,0,0,1,0-4.76,2.49,2.49,0,0,1,3.11-.58Zm.41,4.68a2.73,2.73,0,0,0,.5-1.72,2.7,2.7,0,0,0-.51-1.73,1.64,1.64,0,0,0-1.36-.63,1.59,1.59,0,0,0-1.34.62,3.35,3.35,0,0,0,0,3.47,1.61,1.61,0,0,0,1.35.63A1.64,1.64,0,0,0,410.4,112.49Z"/><path d="M414.18,116.21H414l-.15,0v-.86l.21,0h.22a1,1,0,0,0,.69-.23,1.89,1.89,0,0,0,.47-.8l.11-.38-2.33-6.32h1.09l1.73,5.2h.09l1.73-5.2H419l-2.46,6.7a3.59,3.59,0,0,1-.87,1.5,1.88,1.88,0,0,1-1.29.4Z"/><path d="M420.72,113.92v-5.47h-1.05v-.84h1.05v-.7a1.64,1.64,0,0,1,1.84-1.87l.35,0,.33,0v.82l-.22,0h-.26a1.07,1.07,0,0,0-.79.26,1.14,1.14,0,0,0-.24.78v.68h1.45v.84h-1.45v5.47Z"/></g></svg>