<svg xmlns="http://www.w3.org/2000/svg" viewBox="0 0 1024 1024"><defs><style>.cls-1{fill:#f2f2f2;}.cls-2{fill:#fefefe;}.cls-3{fill:#091411;}.cls-4{fill:#4abfa9;}.cls-5{font-size:24px;font-family:MyriadPro-Regular, Myriad Pro;}.cls-6{letter-spacing:0em;}.cls-7{letter-spacing:-0.01em;}.cls-8{letter-spacing:0em;}.cls-9{letter-spacing:0em;}.cls-10{letter-spacing:-0.01em;}.cls-11{letter-spacing:0em;}.cls-12{letter-spacing:-0.01em;}.cls-13{letter-spacing:0.02em;}.cls-14{letter-spacing:0.02em;}.cls-15{letter-spacing:0.01em;}</style></defs><title>Artboard 2</title><g id="Layer_1" data-name="Layer 1"><rect class="cls-1" x="0.5" y="-511.5" width="1023" height="2047"/><path class="cls-2" d="M0,690V0Q512,0,1024,0q0,512,0,1024H0V693c5.62-1.91,11.23,0,16.77.4a307.18,307.18,0,0,0,33.38,0c13-.56,25.88-1.85,38.78-3.28,19.18-2.14,38.3-4.86,57.54-6.49,12.43-1,24.87-1.83,37.32-2.62,20-1.28,39.94-.76,59.9-.92a43.28,43.28,0,0,1,11.41,1.12c5.22,1.37,6.49,5.06,3.1,9.36-3.11,4-7.23,6.89-11.09,10a42,42,0,0,0-10.33,12.68c-3.92,7.2-1.83,12.65,6.14,14.93,7.77,2.22,15.77,1.92,23.79,1.63,14.13-.52,28.14-2.66,42.29-2.79,14.67-.12,29.16-2.71,43.77-3.38,20.79-1,41.21-5.82,62.09-5.57,2.64,0,5.36-.29,7.8,1.14,2.34,2.76,0,4.57-1.42,6.47-1.86,2.47-4.27,4.64-4.18,8.73,30.87,5.41,61.78,9.77,92.95,9.48a477.75,477.75,0,0,0,93.27-10.24c.75-6.52-1.23-10.8-5.19-14.36-6.79-6.1-14.92-9.93-23.12-13.64-1.36-.62-2.91-.82-4.23-1.5-18.23-9.4-38.3-10.15-57.94-10.62a140.39,140.39,0,0,0-62.08,13c-5.73,2.63-11,6.35-17.28,7.72-18.7-1.44-37.17.92-55.73,2.8-23.49,2.37-46.94,5.22-70.6,6-13.47.47-26.95.36-40.41,1a111.94,111.94,0,0,1-17.45-.59c-6.8-.75-8.91-4.51-6.23-10.84s7.69-11.22,12.59-16a55.15,55.15,0,0,0,5.68-6.27c4.41-5.82,3.14-9.81-4-11.73C252,677.35,246.43,677.14,241,677c-23.63-.52-47.23.81-70.84,1.66-33.33,1.2-66.23,6.47-99.33,9.82A368.11,368.11,0,0,1,31,690.86c-8-.06-15.91,1.57-23.93,1C4.55,691.72,2,692,0,690Z"/><path class="cls-3" d="M423.34,719.94c-53.78,3.73-107.54,7.72-161.35,11-10.06.61-24.16,4.16-28-8.81-3.53-12.05,8.66-19.13,16.64-26.65,3.42-3.22,6.8-6.47,12.39-11.8-7.23-.87-11.62-1.67-16-1.9-64.91-3.39-128.87,7.8-193.26,12.49C36,695.54,17.93,693.5,0,693v-3c43.65,1.34,86.72-4.9,129.93-9.56a825.88,825.88,0,0,1,123.73-3.84c4.69.2,9.68.78,11.65,6s-1.94,8.48-5.07,11.6c-7.3,7.26-15.33,13.91-18.68,26.24,64.76,9.06,128.13-9.15,192.07-7.11A11.43,11.43,0,0,1,423.34,719.94Z"/><path class="cls-3" d="M526.31,592.49c-3.4,35,10.3,65.5,18.42,97.66-16.16-4.27-25.12-36.65-27.82-96.06H490.83c.57,32.76,3.1,66.23-18.32,94.93-.6.82-2,1.05-4.33,2.21,11.09-32.66,17.53-64.53,15-97.22-35.08-4.3-67.48-18.39-100.88-30.35-9.71,5.24-17.4,23.4-31,12.07-9.73-8.1,4.87-18.14,6.19-28.26-47.26-37-54.28-88.72-52.23-144.61C307.39,345.47,329.65,299,375,264.76c-3.83-12-8.77-24.85,1.3-31.9,9.75-6.82,18.29,5.39,29.1,10.07,67.93-56.88,132.86-27.26,198.44,10.45,9.19-9.21,20.2-19.78,34.84-9,12,8.85.67,20.09.21,30.41,65,53.55,86.55,189.48,31.13,257.8,3.78,9,11.56,18.83,3.19,27.67-9.71,10.25-20.61,3-31.42-3.06C610.14,590.06,567.91,590.66,526.31,592.49Z"/><path class="cls-4" d="M423.34,719.94l10.29-6.58c55.23-29,109.93-31,163.78,3.47,6.38,4.08,7.9,8,8.49,17.87-63.8,14-127.71,13.53-193.89.9Z"/><path class="cls-4" d="M412.68,740.05c33.09,3.14,65.13,8.66,97.14,8.5s64.06-6,96.81-9.39c-3.93,12.4-4,29.17-23.73,30.12-49.7,2.39-99.47,3.82-149.15-.28C415.77,767.52,417.65,751.08,412.68,740.05Z"/><path class="cls-4" d="M508.27,376.79c-10.62-.17-20.86.66-27.84,11.74l-22.65-25.59c31.65-40.13,18.77-83.5,12.45-126.24,4.88-3.54,10.65-3.8,16.12-3.1a129.27,129.27,0,0,1,29.79,7.26c3,1.12,6.51,2.17,6.22,6.58C519,269,514.14,290.6,523.1,312a9,9,0,0,1-2.16,5.45c-.91,1.2-1.86,2.35-2.87,3.46-12.3,13.49-15.3,29-10.09,46.31C508.9,370.31,510.62,373.54,508.27,376.79Z"/><path class="cls-4" d="M331.79,382.06c27.41,9,54.81,2.33,82.22,0a11.93,11.93,0,0,1,3.8,4.54c8.56,16.95,35.66,25.84,52,19.66,2-.74,4-1.81,6.2-.46-.74,10.73,5,18,13.78,24.19-1.74,2.06-3.18,3.77-4.63,5.47a48.09,48.09,0,0,1-20.22,13.65c-34.72-13.8-68.73-31.47-108.1-20.23-5.25,1.5-10.33,3.54-15.49,5.33-2.23-.95-3-3-3.73-5.05-4.69-13.59-7.46-27.53-7.32-42C330.28,385.34,330.33,383.48,331.79,382.06Z"/><path class="cls-4" d="M669.65,406.5c-29.57.95-59.34.6-87,13.71a7.52,7.52,0,0,1-4.75-2.44c-10.54-10.63-23.6-12.39-37.64-10.76-2.26.26-4.59,1-6.68-.63.91-12.17-5.06-20.56-16-27l12.45-14.82a3.17,3.17,0,0,1,1.05-1.63L531,363a80.62,80.62,0,0,1,12.64-11.5c1.51-1.17,3-2.67,5.26-1.83C582.11,377.32,620.36,381,661,373c2.66,1.75,3.87,4.47,4.7,7.36,2.12,7.32,2.85,14.93,4.58,22.33A4.64,4.64,0,0,1,669.65,406.5Z"/><path class="cls-4" d="M486.93,570l-2.59-.12a5.57,5.57,0,0,1-2.95,0c-11-5-23.17-7.2-33.54-13.73-4.54-2.86-9.81-4-14.44-6.65-7.82-4.46-12.81-10.85-14.22-19.89-.31-2-.41-4,.85-5.72l40.95-46c5.37-3.58,11.38-4.32,17.64-3.94,19.73,29.82,17.65,63.27,16.08,96.64C492,572.39,489.42,571.52,486.93,570Z"/><path class="cls-2" d="M424.28,469.05l-58.42,69.74c-24.18-14.84-44.67-51-48.86-85.68L344.62,441c2.25.69,2.62,2.86,3.54,4.56,8.64,16.09,21.61,26.06,40.14,27.43,9.54.71,18.8-1.88,28-4.26C418.9,468.06,421.72,466.56,424.28,469.05Z"/><path class="cls-2" d="M439.45,366.19,412,374.42c-3.76-2.37-3.74-6.55-4.48-10.13-2.71-13.12-10.41-22.75-20.56-30.84-7.83-6.24-15.91-6.6-25.16-2.73-16.16,6.75-22.39,20.3-26.53,35.7-.71,2.66-.49,5.77-3.32,7.49l-12.53-5.15c8.62-40.12,27.8-72.84,61.32-96.58l37.47,47.69c.11.48.5.78.74,1.18l0-.06a63.06,63.06,0,0,1,6.58,17c2.05,8.19,7.1,14.88,11.41,21.94C438.12,361.87,440,363.57,439.45,366.19Z"/><path class="cls-4" d="M587.47,426.2c26.31-14.52,55.18-12.56,83.68-13,4.05,6.06,2.73,12.9,2.33,19.4-.82,13.45-4.8,26.21-10.22,38.45a30.61,30.61,0,0,1-34.3,18.1,15.1,15.1,0,0,1-6.94-3.49c-13.51-11-18.38-27.39-26.67-41.62-2.34-4-4-8.39-6.68-12.26C587.54,430.14,586.48,428.35,587.47,426.2Z"/><path class="cls-4" d="M501.57,571.2c1.09-34.62,2.51-69.28-15.6-100.93,1.77-3.82,5.95-5.48,7.92-9.34,3.45-6.76,5.06-13.95,6.42-21.27.41-2.26.45-4.67,2.5-6.27,10.71.14,20.18-2.48,26.57-11.95a6.21,6.21,0,0,1,3.73,2.23c3.67,4.85,7.73,9.41,10.93,14.61.78,1.27,1.57,2.55,1.18,4.15-32.49,38.51-22.19,80.11-8.82,121.93-3,4.52-6.68,5.68-12.06,3.83L519.88,570C514,573.35,507.88,574,501.57,571.2Z"/><path class="cls-4" d="M422.18,271l2.76-6.07a7.51,7.51,0,0,1,1.4-5.66c7.24-10.12,15.9-18.35,28.56-21.13,2.26-.5,4.56-1.19,6.76.27,7.18,39.53,19.67,79.43-7.52,117.68-13.34-16.88-25.72-32.56-38.11-48.23-1.76-3.54-1.75-7.18-1.21-11.05.88-6.35,1.13-12.81,3-19C418.61,275.19,419.2,272.31,422.18,271Z"/><path class="cls-2" d="M528,255c2.08-7.65,4.17-15.31,6.31-23.16,21.37,9.31,43.81,15.76,62.41,31.64q-25.54,34.58-51.72,70c-10.91-7.7-12.92-19.7-17-30.51,1.53-11.18,1.42-22.39,1.11-33.63C528.89,264.53,528.24,259.8,528,255Z"/><path class="cls-2" d="M587.47,426.2c10.21,18.14,18.66,37.61,31.15,54,11,14.46,34.69,8.7,42.5-8.34,8.54-18.61,13.11-38,10-58.67l21-1.82c4.56,42.48-8,79.13-28,114.28L563.85,435Z"/><path class="cls-2" d="M567.1,493.89c23.23,18,47.32,35.1,66,58.88-23.36,19.08-49.91,29.6-81.16,27.19l-8.51-19c1-2.09,3-3.1,4.84-4.17,8.86-5.09,14.75-12.83,19.33-21.71a25.43,25.43,0,0,0,2.26-17c-1.19-6-2.05-12.15-3.47-18.16C565.9,497.91,565.12,495.71,567.1,493.89Z"/><path class="cls-2" d="M549,448.77c2.92-3.93,5.83-7.86,8.81-11.89,34.66,32.48,67,62.79,97.93,91.8-5.64,7-10.85,13.49-16.77,20.87-19.09-22.55-40-40.38-62.5-56.47-3.71-2.66-8.29-4.11-12.46-6.12-2.09-.49-2.81-2.23-3.43-3.93-3.87-10.58-6.73-21.52-11.45-31.8A5.8,5.8,0,0,1,549,448.77Z"/><path class="cls-4" d="M424.28,469.05c-24.52,5.58-49.41,12.65-69.21-10.8-4.28-5.07-7-11.46-10.45-17.24,40-19.51,75.93-3.68,111.81,12.71a3.71,3.71,0,0,1-1.81,2.82c-5.47,3.37-10.9,6.81-17,9a5.5,5.5,0,0,1-4.32.2Z"/><path class="cls-4" d="M332,373.91c.83-3.56,1.57-7.14,2.51-10.67,5.36-20.15,16.64-37.1,38.54-36.34,20.93.73,30.92,18.25,36.13,37.44.91,3.37,1.91,6.72,2.87,10.08C385.34,377.08,358.61,384.76,332,373.91Z"/><path class="cls-4" d="M549,448.77q7.51,19.1,15,38.19c.67,1.87,1.34,3.73,2,5.6a3,3,0,0,0,1.07,1.45l0-.12c7.83,27.92,7.79,53.06-23.67,67.12-12.78-34.17-19.24-68.49-1.91-103.14C543.23,454.44,546.5,451.78,549,448.77Z"/><path class="cls-4" d="M588.73,331.84l4.74-.87c14.82-4.7,29.63-4.43,43.85,1.67,12,5.15,17.11,16.16,20.69,27.94a5.48,5.48,0,0,1-.64,3.85c-35.68,6.8-69.83,6.19-98.66-20.29a2.51,2.51,0,0,1,1.66-2.75c8-4,15.92-8,24.63-10.15C586.29,330.92,587.62,330.79,588.73,331.84Z"/><path class="cls-2" d="M657.37,364.43c-4.83-28.2-21.13-36.74-63.9-33.46,7-7.22,14.34-14.14,20.89-21.74s12.39-16,19-24.53c24,20.92,39.53,46.56,45.41,77.91Z"/><path class="cls-2" d="M588.73,331.84l-30,12.3-10.77-5.7,53.82-72.84c9.06,5.27,17.78,10.36,28.51,16.62Z"/><path class="cls-2" d="M433.3,465.73l23.13-12,9.87,4.93c-4.91,7-9.36,13.27-13.8,19.58-1.26.39-2.34,1.23-3.72,1.36-11.6,1.11-17.63,8.86-22.28,18.45-2.47,5.1-2.68,11-5.67,15.86L385,552.25,368.61,542C389.73,515.63,417.16,495.41,433.3,465.73Z"/><path class="cls-2" d="M420,523.86C419.92,548.7,442,550.51,457.18,559c8.46,4.7,18.07,7.33,27.16,10.9-.31,4.2-.61,8.4-1,14-32.32-3.19-61.48-18.11-98.19-30.29Z"/><path class="cls-2" d="M476,405.77c-29,8-53.74-1.51-62-23.74l30-9.61a4.42,4.42,0,0,1,4.31,1.82c7.88,9,16.56,17,28.17,21,.29.1.46.45.63.74Z"/><path class="cls-2" d="M508.27,376.79C500,352.16,503.93,330.35,523.1,312c4.31,10,7.46,20.6,16.22,28.29L513.9,378Z"/><path class="cls-2" d="M331.79,382.06a127,127,0,0,0,9.52,52.12c-8,3.55-16,7.09-24.49,10.85V374.57Z"/><path class="cls-2" d="M422.18,271c-5.49,11.72-5.68,24.31-6.15,36.86l-32.54-41.55,22.4-15.2C411.5,258,416.84,264.5,422.18,271Z"/><path class="cls-2" d="M522.36,247.44c-15.77-11.37-33.4-13.72-52.13-10.73-1.54-4.85-3.09-9.69-4.87-15.29a149.49,149.49,0,0,1,64.69,8.37C527.41,235.83,524.89,241.64,522.36,247.44Z"/><path class="cls-2" d="M461.66,238.42c-17.28,1.87-29,11.46-36.72,26.52l-14.46-16.87c14.89-8.78,29.62-17.47,46.18-27.22C458.69,228,460.17,233.2,461.66,238.42Z"/><path class="cls-2" d="M533.6,406.38c18.75-3.88,35.72-1.44,49.07,13.83l-23.78,11.12C552.67,421.54,534.77,423,533.6,406.38Z"/><path class="cls-2" d="M669.65,406.5Q665.33,389.75,661,373l19.25-4.84c3.49,13,7,26.07,10.51,39.27Z"/><path class="cls-2" d="M502.81,433.39c-3,13.49-2,28.8-16.84,36.88l-9.69-13L493.63,432Z"/><path class="cls-2" d="M634.51,271.79l-26.06-15.21c7.66-7.65,15.2-16.94,26.46-8.82C644.49,254.67,634.16,263,634.51,271.79Z"/><path class="cls-2" d="M494.12,411.79c-.1-13.37,5.68-16.83,14.28-17,7.47-.14,8.43,5.41,8.44,10.9,0,8.4-4.73,13.07-13,13.06C497.33,418.75,494.21,414.51,494.12,411.79Z"/><path class="cls-4" d="M439.45,366.19c-10.78-13.28-16.8-28.71-20.5-45.2l30.33,38.66Z"/><path class="cls-4" d="M420.83,513.9c3.55-18.11,7.79-35.61,31.67-35.67Z"/><path class="cls-4" d="M477.14,396C462.2,393.62,454,381.82,444,372.42l8.59-6.16,25.16,27.39C477.84,393.4,477.49,394.7,477.14,396Z"/><path class="cls-2" d="M377.49,560.75c-8.3,4.27-11.74,16.26-25,11.81l9.55-21.62Z"/><path class="cls-2" d="M379.2,233.92l19.9,11.46-20,13.24C375.74,250.56,375.9,242.9,379.2,233.92Z"/><path class="cls-2" d="M649.45,553.2,663.79,537c3.93,6.35,8.54,13.32,4.08,18.31C662,561.89,654.91,555.82,649.45,553.2Z"/><path class="cls-2" d="M524.34,568.19l12.06-3.83,8.7,16.39-19.41,2.83C525.21,578,524.77,573.12,524.34,568.19Z"/><path class="cls-2" d="M501.57,571.2l18.31-1.2c-.71,4.55-1.41,9.1-2.14,13.75h-17.6C500.63,579.39,501.1,575.29,501.57,571.2Z"/><path class="cls-4" d="M528,255c4,16,4.94,32,0,47.94C521.86,287,526.76,271,528,255Z"/><path class="cls-2" d="M545.22,442.43l-15.84-21c.49-1.16,1-2.32,1.6-3.76l23.26,17.22Z"/><path class="cls-2" d="M478.63,473.93,461,477.87c3-5,6-10,9.7-16.25Z"/><path class="cls-2" d="M464.9,449.08l20.22-13.65c-4.33,6-8.67,12-13.26,18.37Z"/><path class="cls-2" d="M548.87,349.65,531,363l11.75-18.6Z"/><path class="cls-2" d="M486.93,570l7.78.57c-.23,4.34-.45,8.68-1.06,20.3C490,579.47,488.45,574.73,486.93,570Z"/><path class="cls-2" d="M567.14,494l-1.07-1.45Z"/><path class="cls-2" d="M531.11,362.91l-1.05,1.63Z"/><path class="cls-4" d="M419,321.05l-.74-1.18Z"/><path class="cls-2" d="M552.84,727.13c.69-7.08-1.53-15.19,8.59-18.08,6,5.26,7.79,11.64,6.73,19.42C562.87,730.45,558,730.79,552.84,727.13Z"/><path class="cls-2" d="M530.4,729.26c3.53-6.82,5.83-11.65,8.58-16.2.46-.75,4-.81,4.31-.28,2.16,4.42,3.87,9.05,6.35,15.19Z"/><path class="cls-2" d="M584.51,729.09c-5.85-1.47-9.4-1.57-11.65-3.34-.89-.7.61-5.39,2-7.67.73-1.19,5.06-1.81,5.23-1.47C581.58,719.71,582.51,723.08,584.51,729.09Z"/></g><g id="Layer_2" data-name="Layer 2"><text class="cls-5" transform="translate(622.33 869)">2019/09/25<tspan x="0" y="28.8">O</tspan><tspan class="cls-6" x="16.54" y="28.8">r</tspan><tspan x="24.48" y="28.8">i</tspan><tspan class="cls-7" x="30.1" y="28.8">g</tspan><tspan x="43.37" y="28.8">inal: </tspan><tspan class="cls-8" x="89.59" y="28.8">S</tspan><tspan class="cls-9" x="101.49" y="28.8">an</tspan><tspan class="cls-10" x="126.38" y="28.8">n</tspan><tspan class="cls-9" x="139.39" y="28.8">y </tspan><tspan class="cls-11" x="155.78" y="28.8">v</tspan><tspan x="167.23" y="28.8">an </tspan><tspan class="cls-12" x="197.2" y="28.8">L</tspan><tspan class="cls-9" x="208.2" y="28.8">oon</tspan><tspan class="cls-13"><tspan x="0" y="57.6">h</tspan><tspan class="cls-14" x="13.7" y="57.6">ttps://pin.it/</tspan><tspan class="cls-15" x="140.25" y="57.6">w</tspan><tspan class="cls-14" x="158.16" y="57.6">qt2ff3jsy7y53</tspan></tspan></text></g></svg>