<svg xmlns="http://www.w3.org/2000/svg" viewBox="0 0 1024 1024"><defs><style>.cls-1{fill:#f2f2f2;}.cls-2{fill:#fefefe;}.cls-3{fill:#fbe130;}.cls-4{fill:#b5d7e5;}.cls-5{fill:#387994;}.cls-6{fill:#0d1214;}.cls-7{fill:#fefefc;}.cls-8{font-size:24px;font-family:MyriadPro-Regular, Myriad Pro;}.cls-9{letter-spacing:0em;}.cls-10{letter-spacing:-0.01em;}.cls-11{letter-spacing:0em;}.cls-12{letter-spacing:0em;}.cls-13{letter-spacing:-0.01em;}.cls-14{letter-spacing:0em;}.cls-15{letter-spacing:-0.01em;}.cls-16{letter-spacing:0.02em;}.cls-17{letter-spacing:0.02em;}.cls-18{letter-spacing:0.03em;}.cls-19{letter-spacing:0.01em;}</style></defs><title>Artboard 2</title><g id="Layer_1" data-name="Layer 1"><rect class="cls-1" x="0.5" y="-511.5" width="1023" height="2047"/><path class="cls-2" d="M.11,1023.89Q.11,514.25,0,4.6C0,.75.75,0,4.6,0Q511.49.17,1018.4,0c3.85,0,4.6.75,4.6,4.6q-.16,507.41,0,1014.8c0,3.85-.75,4.6-4.6,4.6Q509.5,1023.84.11,1023.89Z"/><path class="cls-3" d="M452.08,657.48C443.92,644.2,434.31,631.9,419,627c-56.11-18-71.24-62.66-79.72-114.58-9.32-57-9.08-112,21.68-162.56,13.81-22.71,35-40.08,59.69-50.48,39.27-16.54,82.76-26.25,122.48-13.05,67.21,22.33,122.52,61.14,116.43,153.15-5.42,81.93-45.15,141.43-94.29,199.53-5.89,7-11.13,14.5-16.67,21.77a7,7,0,0,1-6.36-5.57A8.93,8.93,0,0,1,543.5,650c5.5-9.86,10.61-19.92,16.85-29.38,18.39-27.87,34.46-56.86,42.06-89.8,3-12.84,3.49-26,5.26-39,2.77-20.28,2.39-40.79,4.38-61.06,2.64-27.08-3.85-52.07-12.58-77a76.84,76.84,0,0,0-25.59-35.48A143.34,143.34,0,0,1,563,308.05c-5.06-4.94-11.47-8.26-18.65-12.42a110.75,110.75,0,0,0,5.71,9.93c12,18.16,17.62,38.22,18,59.8.24,13.66,2.08,27.17,3.49,40.7a139.68,139.68,0,0,1-1.15,34.76c-3.93,26.8-9.9,53.25-14.57,79.94-2.11,12.11-6.81,23.65-11.13,35.12a104.83,104.83,0,0,0-6.46,31.56,80.26,80.26,0,0,1-2.74,17.69c-2.86,10-2.73,20.4-4.51,30.53-.81,4.65-.32,9.73-3.69,13.72-6.53,1.1-12.71-.79-18.95-2.22-1.5-1.59-1.59-3.61-1.61-5.61a273.22,273.22,0,0,1,1.17-33.35c4.58-41.27,9.44-82.52,12.9-123.9,1.25-15.08,3.37-30.06,5.08-45.08,1.52-13.27.56-26.58.74-39.87.28-20.82-1.21-41.47-6-61.84-2.61-11.15-3.1-22.73-6.45-33.77a30.3,30.3,0,0,0-9.16-13.9c-6.71,7.66-13.95,14.84-17.79,24.68-6.48,16.61-11,33.83-15.75,51a205.07,205.07,0,0,0-8,59.56c.3,14.28,2.38,28.48,4.22,42.64,1.31,10.07,1.19,20.23,2.57,30.28.72,5.29,1.57,10.58,3.56,15.53,5.81,14.48,8.29,29.82,10.67,45,2.26,14.44,4.7,28.86,6.86,43.32,1.65,11,3.6,21.95,5.41,32.92.67,4.07,1.24,8.26-.68,12.25-5.53,3.81-11.69,3.5-17.92,2.75-3.11-1.76-3.21-4.83-3.31-7.83a94.1,94.1,0,0,0-7.38-34.42c-.6-1.37-.87-3-1.94-4-4.74-4.36-7.11-10.4-11-15.26a80.19,80.19,0,0,1-12-21.71c-2.35-6.06-6.41-11.29-8.27-17.57-5.27-17.86-10.4-35.76-12.92-54.27a83.38,83.38,0,0,1,0-20.4,50.48,50.48,0,0,0,.52-7.95c-.78-16.68,1.52-33.13,3.21-49.67,1.17-11.53,2.42-23.11,2.84-34.72a56.92,56.92,0,0,1,5.7-23.57c5.33-10.74,11.1-21,19.4-30a188,188,0,0,0,20.48-26.32,54.9,54.9,0,0,1,7.31-8.63c-8.61,5.76-19.29,4.86-28.35,9.21a138.11,138.11,0,0,0-35.41,24.46c-15.6,14.69-23,32.29-26.85,52.6-2.66,14.12-3.8,28.31-4.78,42.55-.84,12.27-2.33,24.49-3.74,36.68a150.43,150.43,0,0,0,9.8,74.24,29.7,29.7,0,0,1,1.82,5.17c2.33,12,9.21,22,15,32.41a37.2,37.2,0,0,0,11.76,12.72,14.75,14.75,0,0,1,3.49,2.81c9,11.58,20.5,20.9,29.61,32.37a63.74,63.74,0,0,1,13.22,27.64c.44,2.29,1,4.58-.45,6.75C461.76,655.84,457,656.89,452.08,657.48Z"/><path class="cls-4" d="M653.43,670.44c8.1-19.8,23.35-26.13,43.4-24.46,23.61-32,54.91-29.52,71.34,5.84,29.31,1.5,42.52,14.9,35.14,36.48,12.88,7.18,15.85,20.4,8,30.22-18.51,23.16-40.68,11.68-61.84,1.55-19.84,21.11-35.66,14.62-48.73-7.3-25.34,12.62-39.42,7.8-45.32-15.53-9.12-2.13-19-4.86-18.48-16.73C637.38,671.08,646.05,671.08,653.43,670.44Z"/><path class="cls-4" d="M242.92,364.53c-17.16,18.12-36.57,20.64-55.61,7.25-24.34,4.75-34.07.65-36.88-15.72-15.34-3.28-36.11-4.78-35.37-24.44.83-22.45,22.2-19.43,38.13-19.21,25.18-34.63,42.08-35.67,65.2-4.21,11.82-4.33,20.79.14,27.34,9.58,21.84-.59,45.36.84,42,29.1C284.74,372,261.94,367.6,242.92,364.53Z"/><path class="cls-4" d="M393.36,246.73C376,266.27,357.69,272.84,335,259.64c-14.54,3.91-27.8,2-39.84-9-11.85.1-27.13,4.08-32.48-11.83-3.41-10.13,7.08-15.55,14.31-20.79,3-28.32,23.45-19,39.82-18.77,22.78-27.92,51.94-27,74,1.75,2.35,3.06,9.16,2.42,13.6,4.23,12.67,5.14,21.08,14.11,17.85,28.41C418.43,250.66,404.18,247.3,393.36,246.73Z"/><path class="cls-3" d="M532,722.53c2.94,17.08,8.24,36.06-3.45,50.05-11.38,13.63-30.24,12.29-45.47,5.35-26.3-12-12.77-35.87-13.92-55.27a9.67,9.67,0,0,1,3.84-4.82c6.95-3.87,14.52-4.07,22.17-3.81a36.81,36.81,0,0,0,5.53-.78c9.59-2.37,18.84-2.28,27.23,3.83A9.1,9.1,0,0,1,532,722.53Z"/><path class="cls-5" d="M542.36,655.81q3.14,2.48,6.25,5-3,12.93-6.11,25.86a2.29,2.29,0,0,0-.94,2.2l-8.78,6.66c-3-4.36-2.57-7.79,1.72-11.9a87.55,87.55,0,0,0-24.89-5.12c-15.33-.79-30.52,0-44.86,6.39a5,5,0,0,1-3.85,0l-8.82-27.44,13.28-4.83c3.43-3.5,7.35-5.11,12.2-3.22l17.59-2.38c4.37-3.43,8.84-3.1,13.39-.37l18.62,2.66C533.43,648.68,538.1,651.77,542.36,655.81Z"/><path class="cls-6" d="M460.9,684.92c31.37-11.12,70.86-10.5,78.91,2.06l-7-1.06v9.58c.15,3.81.31,7.63.47,11.44a55.82,55.82,0,0,1,0,10.26L532,722.53l-3.56-3.7a9.55,9.55,0,0,1-1.72-7.56c.67-4.93.69-9.91,1.24-14.84-.54-3.24.21-6.63-1.21-10.44-7.21-1.64-14.55-4-22.62-3.16-1.52,5.63-.37,11-1,16.22,0,5.27,1.78,10.78-2.24,15.46l-4.56.73c-2.47-.36-1.77-2.33-1.74-3.76a82.31,82.31,0,0,1,.8-9.13,15.94,15.94,0,0,0-.1-3.16,16.88,16.88,0,0,1-.09-2.36c.43-4.43,1.2-8.88-.12-13.84-6.86-.86-13.28,1-19.71,2.58-1.61,4.24-.87,8.26-1.11,12.19-.12,7.34,1.92,14.84-1.68,21.9l-3.4,3q-.27-15.07-.53-30.14c-1.45-1-1.37-2.9-2.31-4-1.65-.87-3.44-.39-4.86-1.31Z"/><path class="cls-5" d="M461.44,687.22l7.17-1.63v6.93Z"/><path class="cls-5" d="M533.3,717.2c0-3.42,0-6.84,0-10.26C533.27,710.36,533.28,713.78,533.3,717.2Z"/><path class="cls-6" d="M541.56,688.84l-1.44-1.78,2.38-.42Z"/><path class="cls-7" d="M508.54,646.68l-13.39.37c-4.63-51.44-16.52-101.55-26.51-152.1-11.58-58.61-9.06-117.22,13.8-173.9,5.3-13.16,14.05-23.47,22.57-35.49,18.88,20.7,17.75,48.08,20.8,72.76,9.63,77.7-7.75,154.19-14.07,231.19C510.18,608.53,509.58,627.62,508.54,646.68Z"/><path class="cls-7" d="M542.36,655.81l-15.2-6.47c5.48-71.38,35.12-138.24,40.92-209.16,4.14-50.59,5.33-102.77-27.88-147.17,13.68.39,52.65,35.09,58.94,56,29,96.69,17.51,188.13-37.78,273.43C554.41,633.2,548.66,644.68,542.36,655.81Z"/><path class="cls-7" d="M477.56,649.43l-12.2,3.22C464,622.71,441,606,422.38,588.52c-26.29-24.65-37.13-55.91-41-88.3-5.78-48.24.64-96.81,13.38-143.82,8.31-30.67,50.17-59.27,90.87-65.54-12.24,15-24.41,30.31-37.06,45.23-20,23.54-18.53,52.36-21.82,80.51-5.3,45.39-7.14,90.26,10.09,133.59A213.76,213.76,0,0,0,466.32,602C476.52,615.25,476.05,633,477.56,649.43Z"/><path class="cls-6" d="M525.85,726c-5.27,9.11-43.16,12.55-49.08,4.74-.86-1.13-1.43-4-.86-4.48,11.12-8.5,24.45-6.26,37.08-7C518.14,719,523.52,720.37,525.85,726Z"/><path class="cls-7" d="M529.32,695.8l-.9,23c-8.5-5.83-17.92-5.77-27.57-4.32q.34-7.93.7-15.88a6.4,6.4,0,0,1,3.43-1.87c7.18-1.25,14.46-1.48,21.71-2.08A3,3,0,0,1,529.32,695.8Z"/><path class="cls-7" d="M497.07,701.66l-.78,13.58-23.75,4.42q.21-11.5.41-23c4.32-2.54,19.82-1.58,23.44,1.45.11.44.22.88.32,1.32A6.12,6.12,0,0,1,497.07,701.66Z"/><path class="cls-5" d="M529.32,695.8l-27.77,2.83V679.9l27.77,3.9Z"/><path class="cls-5" d="M496.39,698.1,473,696.66c-.19-4.11-.38-8.2-.6-13l25.48-3.81Z"/><path class="cls-5" d="M497.07,701.66c-.12-.75-.24-1.49-.35-2.24C496.83,700.17,497,700.91,497.07,701.66Z"/></g><g id="Layer_2" data-name="Layer 2"><text class="cls-8" transform="translate(73.33 758)">2019/09/28<tspan x="0" y="28.8">O</tspan><tspan class="cls-9" x="16.54" y="28.8">r</tspan><tspan x="24.48" y="28.8">i</tspan><tspan class="cls-10" x="30.1" y="28.8">g</tspan><tspan x="43.37" y="28.8">inal: </tspan><tspan class="cls-11" x="89.59" y="28.8">S</tspan><tspan class="cls-12" x="101.49" y="28.8">an</tspan><tspan class="cls-13" x="126.38" y="28.8">n</tspan><tspan class="cls-12" x="139.39" y="28.8">y </tspan><tspan class="cls-14" x="155.78" y="28.8">v</tspan><tspan x="167.23" y="28.8">an </tspan><tspan class="cls-15" x="197.2" y="28.8">L</tspan><tspan class="cls-12" x="208.2" y="28.8">oon</tspan><tspan class="cls-16"><tspan x="0" y="57.6">h</tspan><tspan class="cls-17" x="13.7" y="57.6">ttps://pin.it/xlqx</tspan><tspan class="cls-18" x="183.57" y="57.6">k</tspan><tspan class="cls-17" x="195.62" y="57.6">wn3s4</tspan><tspan class="cls-19" x="263.13" y="57.6">t</tspan><tspan class="cls-17" x="271.41" y="57.6">ego</tspan></tspan></text></g></svg>