<svg xmlns="http://www.w3.org/2000/svg" viewBox="0 0 1024 1024"><defs><style>.cls-1{fill:#f2f2f2;}.cls-2{fill:#fefefe;}.cls-3{fill:#ae812f;}.cls-4{fill:#e2ada3;}.cls-5{fill:#e0ca2e;}.cls-6{fill:#0a6d76;}.cls-7{fill:#181818;}.cls-8{font-size:24px;font-family:MyriadPro-Regular, Myriad Pro;}.cls-9{letter-spacing:0em;}.cls-10{letter-spacing:-0.01em;}.cls-11{letter-spacing:0em;}.cls-12{letter-spacing:0em;}.cls-13{letter-spacing:-0.01em;}.cls-14{letter-spacing:0em;}.cls-15{letter-spacing:-0.01em;}.cls-16{letter-spacing:0.02em;}.cls-17{letter-spacing:0.02em;}.cls-18{letter-spacing:0.01em;}.cls-19{letter-spacing:0.04em;}.cls-20{letter-spacing:0.03em;}.cls-21{letter-spacing:0.02em;}</style></defs><title>Artboard 2</title><g id="Layer_1" data-name="Layer 1"><rect class="cls-1" x="0.5" y="-511.5" width="1023" height="2047"/><path class="cls-2" d="M0,1023.89V.11Q509.7.11,1019.39,0c3.85,0,4.61.76,4.61,4.6q-.16,507.41,0,1014.8c0,3.84-.76,4.6-4.61,4.6Q509.95,1023.84,0,1023.89Z"/><path class="cls-3" d="M557.91,672.09q-1.89,7.23-3.79,14.44c1.37,1.56,1,3.06-.15,4.54q-.32,8.82-.62,17.66a3.81,3.81,0,0,1,.76,4.3q2.53,7.5,5.08,15a3,3,0,0,1,2.6,2.82c10.07,10.95,21.1,5.86,30.35,0,60.93-38.25,123.93-72.77,188-105.32,5.45-2.77,9-1.5,10.86,5.62-12.77,13.94-29.67,22.14-46.84,30.25-43.42,20.49-85.61,43.64-124.63,71.37s-77.7,13.53-117.41,6C439,726.87,377.47,708.41,315,693.62c-29.27-6.94-33.89-29.1-37.94-51.27-5-27.45.42-54.22,15.06-78.57,2.72-1.48,5.19.05,7.68.73,27.14,7.36,54.22,14.9,81.57,21.46,20.23,4.85,40.44,9.75,59.81,17.53,8.41,3.37,17.29,4.85,26,6.8,9.91,2.21,19.78,4.4,29.5,7.44,24,7.51,48.13,14.44,72.74,19.62,1.8.38,3.63.75,4.58,2.62-7.47,7.64-12.18,16.81-15,27C560,669,558.46,670.44,557.91,672.09Z"/><path class="cls-4" d="M280.81,318.68c16-6.83,32-13.89,48.16-20.43,27.75-11.23,57.83-18.56,82.92-34,36.81-22.69,72.78-12.25,108.56-4.33,75,16.6,149.67,34.34,226.1,43.25,2.3.27,4.42,2.05,10.51,5l-199.82,82c-11-2-21.8-4.66-32.6-7.42-14.2-3.64-28.4-7.2-42.82-9.92a183.23,183.23,0,0,1-25.6-6.7c-14.84-5.09-30.27-8-45.36-12.16-18.63-5.12-37.25-10.28-55.95-15.13-9.36-2.43-19-3.75-28.33-6.09-13.9-3.47-27.42-8.31-41.5-11.11C283.3,321.29,281.46,320.77,280.81,318.68Z"/><path class="cls-5" d="M299.37,553c-6.58-1.61-13.11-3.45-19.74-4.8-26.11-5.31-38.27-34.64-24-58.17,8.35-.74,16.66.44,24.74,1.93,21.45,3.95,43.07,6.87,64.51,10.74,24.23,4.38,48.64,7.63,72.83,12.33,23,4.47,46.29,7.62,69.63,10.09,6.76.71,13.22,3.36,20.11,3.35,8.43,1.62,17.17,2.57,24.87,6.42C545,541.26,557.71,543,571.16,538a9,9,0,0,1,4.41-.53c6.87-.58,13.45.82,20.13,2.36,9,2.09,18.53,1.44,27.63,3.29,13.91,2.82,28.24.63,42.1,3.84a15.17,15.17,0,0,1,3.81,1c2.58,2,1,4.21.29,6.31-1.62,4.87-4,9.5-4.3,14.76a22.27,22.27,0,0,1-2.14,7.87q1.47,5.21,2.92,10.42a4.1,4.1,0,0,1,3.13,2.75c14.1,9.19,16.07-5.33,21.1-11.61,24.7-30.83,48.71-62.22,73.19-93.23,1.19-1.51,4.55-1.32,7.79-2.15-3.08,18.25-19,27-25.35,41.52-1.21,3.47-4.42,5.3-6.61,8C726,548.86,714.49,566.42,701,582.47a38.12,38.12,0,0,1-6.2,6.43C684.4,601.31,671.16,607,655,605.71c-4.35,1.16-8.55,0-12.79-.8-24-4.67-48.29-7.45-72.59-10.37-19.43-2.33-38.9-5.08-58.31-7.83-20.11-2.86-39.7-8.47-60-10.22-14.46-1.25-28.52-5.2-42.92-6.51-20.72-1.89-41.36-4.46-61.95-7.23-14.17-1.9-28.28-4.43-42.29-7.37C302.4,555,300.55,554.67,299.37,553Z"/><path class="cls-6" d="M551.77,495.46,228.87,400.9l.38-7.5,43.9-20.24c2.42-.11,3,1.92,3.63,3.5C279.72,383.49,285,387,292,389.12c11.79,3.58,23.94,4,36,5a71.16,71.16,0,0,1,15.09,3.28C361.72,403.24,380,410,399,414.53c21.83,5.22,43.61,10.45,65.88,14,23.46,3.68,46.66,9.37,69.73,15.26,4.2,1.07,8.1,3,12.16,4.55a19.38,19.38,0,0,0,16.24-.82c37.72-18,76.11-34.54,115.3-49.15a321.32,321.32,0,0,0,34.58-15.64c3.1-1.6,6.15-3.42,9.53-4.36a141.62,141.62,0,0,0,28.13-11.5c1.31-.69,2.65-1.45,4.25-1,15.44,3.83,31.34,6.6,43.23,18.65-.75,3-3.42,4.06-5.78,5-20.88,8.7-41,19-62.36,26.75A179.75,179.75,0,0,0,698.25,431c-5.16,3.1-10.83,5.1-16.22,7.73-16.75,8.15-33.5,16.24-51,22.73-14.37,5.31-27.51,13.41-41.34,20-10.37,4.92-20.62,10.13-31.65,13.5C556,495.55,554,496.65,551.77,495.46Z"/><path class="cls-4" d="M754.81,365.85q-49.29,21.48-98.59,43c-32.16,14-64.14,28.56-96.57,42-12,5-22.41-5.11-33.72-7.55C450,426.84,374.27,409.39,298.42,392.59c-11.8-2.62-21.5-6.89-25.27-19.43-5-17.55-5.75-34.62,5.73-50.29a6.64,6.64,0,0,1,4.4-.11c9.09,2.06,18.28,3.78,27.1,6.81,10.91,3.74,22.17,5.82,33.42,8.12,13.86,2.83,27.41,7,41.05,10.69,30,8.2,60,16.64,90.18,24.06q36.81,9,73.81,17.48c2.23.5,4.68.65,6.12,2.88l-2,11.85a5.21,5.21,0,0,1-.91,3.71q1.07,8,2.14,15.9a3.56,3.56,0,0,1,1.45,3.37c1.28,11,5.92,12.36,16,7.78,56.23-25.45,112.74-50.24,169.23-75.1C746.9,357.66,753.58,355.47,754.81,365.85Z"/><path class="cls-6" d="M574.71,538.86c-24.27,11.13-44.66-5.53-66.84-9.33-7.13-1.6-14.35-2.92-20.87-6.47a188.5,188.5,0,0,0-22.26-7.29c-18.67-5-36.86-11.54-55.53-16.48a20.29,20.29,0,0,1-3.78-1.29c-12.95-6.54-27.34-8.28-41-12.42-18.49-5.62-37.32-10-55.73-15.79-7.32-2.31-14.79-4-22.14-6.11-1.91-.55-3.94-.86-5.34-2.49-55.72-18.06-63.53-22.55-57.6-30.25,87.48,25.81,174.1,51.32,260.69,76.92C505.8,514.2,527.14,521,548.71,527c2.19.6,5.59-3.16,8.43-4.89.09-1.56.41-3,1.88-3.9l.84-9c-1.16-.75-1.41-2-1.83-3.19a4.26,4.26,0,0,1-.18-1.23c0-.21.06-.42.1-.62l-2.5-5.92c.65-1.82,2.31-2.33,3.86-2.85,20.16-6.72,38.58-17.28,57.62-26.4,12.65-6.07,26.07-10.19,38.59-16.41,15.64-7.77,31.93-14.21,47-23.07a133.5,133.5,0,0,1,23.21-10.45c24.38-8.59,47.36-20.42,71.14-30.39,1.36-.56,2.64-1.54,4.23-.71,12.41,18.55,1.87,41.65-24.46,54.26-7.45,3.57-14.5,8-21.73,12l-.34.63c-2.84,2.73-6.46,4-10,5.42a69.12,69.12,0,0,0-19,7.33c-13.26,7.66-26.7,14.91-40.64,21.3-10.42,4.78-19.76,11.78-30.26,16.34C637,513,619.78,521.72,601.84,528.81c-5.11,2-10.18,4.1-15.21,6.29C583,537.36,578.71,537.68,574.71,538.86Z"/><path class="cls-3" d="M299.37,553C365.57,563.18,431.74,573.6,498,583.4,549.31,591,600.74,597.8,652.12,605a24,24,0,0,1,2.86.73l-75.83,31.71c-11.52-.92-22.55-4.16-33.69-6.91-30.22-7.47-59.45-18.66-90.24-24-6.28-1.09-12.14-3.56-18.05-5.81-22-8.41-45.12-13-67.86-18.81-22.9-5.9-45.78-11.87-68.54-18.34-2.11-.6-4.77-.75-5.42-3.68Z"/><path class="cls-5" d="M281.23,461.19q86.68,25.1,173.35,50.22c11.17,3.25,22.19,7,33.27,10.52-1.74,2.13-4.17,1.7-6.47,1.7-10.05,0-19.79-2.49-29.66-3.93-26.18-3.83-52.13-9.12-78.27-13.24-28.92-4.57-57.87-8.94-86.71-14-8-1.42-16.27-1.18-24.2-3.3-1.75-.47-3.68-.49-4.85-2.21Z"/><path class="cls-3" d="M694.79,588.9l51.08-64.23c12.35,8.6,32.6,3.77,41.84,20.68Z"/><path class="cls-7" d="M559,505.13c.29,1.36.58,2.72.88,4.08q-50-14.31-100.07-28.61c-49.87-14.23-99.86-28.08-149.59-42.79-27.39-8.11-54.37-17.62-81.5-26.63-.91-.3-1.32-2.09-3.17-5.24,35.27,11.22,68.3,22.28,101.66,32.21,74.1,22,148.36,43.54,222.58,65.17,2.59.75,5.44.59,8.18.85l-.1-.12A5.79,5.79,0,0,1,559,505.13Z"/><path class="cls-7" d="M559,518.19l-1.88,3.9-332-98.59,1.17-3.81Z"/><path class="cls-7" d="M555,392.8,278.88,322.87c.64-1.4,1.28-2.79,1.93-4.19,56.47,14.72,112.9,29.62,169.43,44.1,33.83,8.67,67.83,16.67,101.74,25.05a31.42,31.42,0,0,1,5.26,2.34Z"/><path class="cls-7" d="M295.35,559.86,478.18,609.8l101,27.61L574.09,640l-281.93-76.2Z"/><path class="cls-7" d="M554.11,713c-.26-1.43-.51-2.87-.77-4.3,72.79-40.1,145.26-80.83,223.12-111.05C700.21,632.1,627.15,672.55,554.11,713Z"/><path class="cls-7" d="M561.79,730.84l-2.6-2.82L777.58,607.18c.71,1.26,1.42,2.53,2.14,3.79Z"/><path class="cls-7" d="M554,691.07l.15-4.54L776.23,578.61l1.87,3.75Z"/><path class="cls-7" d="M557.91,672.09l1.2-5.07c68.62-43.32,147.44-64.6,219-101.56C707.65,607.09,627.27,628.19,557.91,672.09Z"/><path class="cls-7" d="M801.14,388q-94.36,42.48-188.73,84.94c-18.95,8.52-38,16.9-57,25.34l-3.68-2.79L798,384.5l3.92-.27Z"/><path class="cls-7" d="M257.69,486.9c59.75,9.58,119.49,19.28,179.28,28.64,16.88,2.64,33.92,4.29,50.89,6.39l20,7.59L255.61,490.06C256.3,489,257,488,257.69,486.9Z"/><path class="cls-7" d="M552,408.36c.3-1.23.61-2.47.91-3.71l191.63-78.47c-.83,1.57-1.18,3.49-2.17,3.91C679.18,356.76,617.38,386.9,552,408.36Z"/><path class="cls-7" d="M555.61,427.63l-1.45-3.37,187.73-83.49,1.71,3.9Z"/><path class="cls-7" d="M669.14,590.14c-1-.92-2.08-1.84-3.13-2.75L759.18,469.6C734.29,513.61,699.13,549.94,669.14,590.14Z"/><path class="cls-7" d="M663.09,577l.39-7.8c1.51-4.15,4.76-7.06,7.46-10.35,9.69-11.84,18.56-24.31,28.27-36.13,6.77-8.23,15.2-14.88,21.78-23.29,6-7.74,11.51-15.85,17.12-23.89,5.21-7.47,11-14.52,16.93-21.45l-.09.19c4.06,1,3.92,3.74,1.92,6.23Q710.06,518.79,663.09,577Z"/><path class="cls-2" d="M397.8,305.2c33.06-31,94.43-34.73,105.05-6.63C472.08,331.49,408.79,335.66,397.8,305.2Z"/><path class="cls-2" d="M755,454.06c-11.59,16.41-22.38,33.47-35,49.08-18.18,22.56-37.67,44.07-56.6,66q3.46-10.11,6.92-20.21a3.19,3.19,0,0,1,.22-3.47c10.52-12,21-24,31.06-36.4,12.52-15.31,25.91-29.87,38.06-45.48a35.09,35.09,0,0,1,5.44-5Z"/><path class="cls-7" d="M671.23,546.55c-.28.81-.56,1.61-.83,2.41l-95.69-10.1,11-4.94a30.07,30.07,0,0,1,9.78,1.22c11,3,22.41,1.76,33.5,3.87,9.3,1.77,18.84.82,28.22,2.07a55.24,55.24,0,0,1,9.74,1.84C668.87,543.53,670.86,544.13,671.23,546.55Z"/><path class="cls-5" d="M671.23,546.55c-21.66-2.58-43.35-5-65-7.85-6.93-.93-13.69-3.15-20.52-4.78,53.57-20.47,102.84-49.9,154.65-74.07a27.76,27.76,0,0,1,4.78-1.27Z"/><path class="cls-2" d="M559,505.13l-1.22-.35c0-.25.06-.49.09-.73l.76-.19C558.75,504.29,558.86,504.71,559,505.13Z"/></g><g id="Layer_2" data-name="Layer 2"><text class="cls-8" transform="translate(73.33 758)">2019/09/29<tspan x="0" y="28.8">O</tspan><tspan class="cls-9" x="16.54" y="28.8">r</tspan><tspan x="24.48" y="28.8">i</tspan><tspan class="cls-10" x="30.1" y="28.8">g</tspan><tspan x="43.37" y="28.8">inal: </tspan><tspan class="cls-11" x="89.59" y="28.8">S</tspan><tspan class="cls-12" x="101.49" y="28.8">an</tspan><tspan class="cls-13" x="126.38" y="28.8">n</tspan><tspan class="cls-12" x="139.39" y="28.8">y </tspan><tspan class="cls-14" x="155.78" y="28.8">v</tspan><tspan x="167.23" y="28.8">an </tspan><tspan class="cls-15" x="197.2" y="28.8">L</tspan><tspan class="cls-12" x="208.2" y="28.8">oon</tspan><tspan class="cls-16"><tspan x="0" y="57.6">h</tspan><tspan class="cls-17" x="13.7" y="57.6">ttps://pin.it/3jbtj</tspan><tspan class="cls-18" x="188.23" y="57.6">c</tspan><tspan class="cls-17" x="199.32" y="57.6">q2</tspan><tspan class="cls-19" x="226.1" y="57.6">c</tspan><tspan class="cls-20" x="237.76" y="57.6">v</tspan><tspan class="cls-21" x="250.07" y="57.6">wb7d</tspan></tspan></text></g></svg>