<svg xmlns="http://www.w3.org/2000/svg" viewBox="0 0 1024 1024"><defs><style>.cls-1{fill:#f2f2f2;}.cls-2{fill:#fefefe;}.cls-3{fill:#f15240;}.cls-4{fill:#a1d9e3;}.cls-5{fill:#2a8777;}.cls-6{fill:#191918;}.cls-7{fill:#edecec;}.cls-8{font-size:24px;font-family:MyriadPro-Regular, Myriad Pro;}.cls-9{letter-spacing:0em;}.cls-10{letter-spacing:-0.01em;}.cls-11{letter-spacing:0em;}.cls-12{letter-spacing:0em;}.cls-13{letter-spacing:-0.01em;}.cls-14{letter-spacing:0em;}.cls-15{letter-spacing:-0.01em;}.cls-16{letter-spacing:0.02em;}.cls-17{letter-spacing:0.02em;}.cls-18{letter-spacing:0.01em;}.cls-19{letter-spacing:0.02em;}.cls-20{letter-spacing:0.04em;}.cls-21{letter-spacing:0.01em;}</style></defs><title>Artboard 2</title><g id="Layer_1" data-name="Layer 1"><rect class="cls-1" x="0.5" y="-511.5" width="1023" height="2047"/><path class="cls-2" d="M1022.91,512q0,254,.09,507.92c0,3.41-.67,4.08-4.08,4.08Q512,1023.85,5.08,1024c-3.41,0-4.08-.67-4.08-4.08Q1.15,512,1,4.08C1,.67,1.67,0,5.08,0Q512,.15,1018.92,0c3.41,0,4.08.67,4.08,4.08Q1022.84,258,1022.91,512Z"/><path class="cls-3" d="M377,603.11c44.56,4.36,89,9.86,133.69,12.81,61,4,118.6,19.55,172.79,47.53,10.74,5.55,22.4,14.4,16.39,28-7.2,16.32-23,10-34.72,6-53.62-18.08-104.15-45.5-161-53.84-37.22-5.47-74.89-8.21-111.88-14.88-30-5.4-60.89-7.31-89.5-19.11a12.74,12.74,0,0,1-6.68-7.91c-.95-4.7,1.92-8.56,7-10,3.17-1.57,6.31-1,9.44.14,1,.2,1.92.74,2.95.87a20.62,20.62,0,0,1,6.67,1,18.16,18.16,0,0,1,2.95.24c1.67.27,3.32.71,5,.86a12.14,12.14,0,0,1,2.88.29c1.63.38,3.28.68,4.93,1a17.92,17.92,0,0,0,3.49.66,16.05,16.05,0,0,1,4.32.3,24.93,24.93,0,0,0,3.54.71,17.9,17.9,0,0,1,5,.73c1,.07,1.91.27,2.87.36,1.93.22,3.79.8,5.68,1.19a12.08,12.08,0,0,0,3.52.69,21.21,21.21,0,0,1,8,1A3.62,3.62,0,0,1,377,603.11Z"/><path class="cls-4" d="M494.38,487.43l20.71,19.48c3.15,1.76,6.52,3.29,7.77,7.13-27.55,22.45-59.58,35.34-93.9,42.64-3.41.73-8.32-5.57-12.54-8.61-5.52-6.38-10-13.52-14.48-20.61a93.16,93.16,0,0,0-5.72-7.45c-7.43-31.05,12.7-49.33,31.93-67.63,9.05-8.62,19.41-15.87,29.18-23.75,2.12.55,2.46,2.52,3.18,4.13A221.87,221.87,0,0,0,491.27,483C492.43,484.37,493.18,486.06,494.38,487.43Z"/><path class="cls-4" d="M665.46,359.93l-23.78-33.21c-5.25-1.89-7.42-7.22-11.59-10.43-4.66-3.59-8.63-8.1-13.48-11.56-1.44-1-2.94-2.23-2.66-4.4l51.1-47.12c2.73,1.41,4.67,3.79,6.39,6.14,8.25,11.22,17.59,21.53,26.83,31.88,6.26,7,11.83,14.67,18.9,21,3.35,3,5.09,7.31,8.07,10.67,4.51,5.08,9,10.2,13.88,14.9,1.3,1.25,2.74,2.47,2.86,4.49C725.09,361.5,708.41,381,685.76,393.9c-3.27,0-3.93-2.76-4.87-4.86A213.16,213.16,0,0,0,665.46,359.93Z"/><path class="cls-3" d="M614,300.33l27.73,26.39c-10.32,34-28.87,61.74-58,83C552,432.87,532.91,464,532.43,504.4c-.08,7.06-3.89,8.91-9.57,9.63l-7.77-7.12c-3.26-45.17,1.85-87,41.78-117.2,20.94-15.86,27.74-40.29,32-64.9C591.49,309.94,605.4,308.23,614,300.33Z"/><path class="cls-5" d="M494.38,487.43c-17-16.67-27.6-37.37-37.05-58.8,17.23-21.42,41.82-34.22,61.66-52.6,4.25-3.94,9-7.39,13.54-10.95,3.2-2.49,6.54-4.8,9.81-7.18-1.32,4.52-1.57,9.81-4.15,13.44-17.49,24.57-42.14,45.12-43,78.75C494.86,462.53,494.64,475,494.38,487.43Z"/><path class="cls-5" d="M665.46,359.93l20.3,34c-18.53,14.76-36.79,29.89-55.67,44.2-20.47,15.51-41.54,30.24-62.35,45.31-.64.47-1.35.84-2,1.26A19.41,19.41,0,0,1,566,481c8.16-30.54,31.33-46.94,56.79-62,16.86-10,36-18.73,42.46-39.73C667,373.36,665.47,366.41,665.46,359.93Z"/><path class="cls-6" d="M356.55,600.15l-3.46-.39c-1.41-5.77.81-11.09,2.08-16.52.26-1.13.71-2.21.93-3.35.13-.65.35-1.57-.24-1.84-1.07-.47-1.32.66-1.54,1.33a111.73,111.73,0,0,0-3.16,13.51c-.43,2.14,0,4.78-2.53,6.08l-2.23-.47c-2.82-2.54-.93-5.62-.87-8.43.08-3.84,1.57-7.44,2.56-11.13.21-.78.54-2-.18-2.27-1.34-.5-1.47,1-1.78,1.8-1.49,3.76-1.18,7.87-2.16,11.72-.7,2.75-.12,6.14-3.38,7.81l-2.64-.59c-2.09-3-.3-6.1,0-9.14s.91-6.24,1.4-9.35c.13-.88.62-2.3-.65-2.5-1.09-.16-1.33,1.28-1.59,2.18-1.18,4.17-1.36,8.51-2.23,12.73-.37,1.78.15,4.11-2.4,4.85l-2.95-.1c-2.42-4.81,0-9.4.62-14.08.25-2,1.9-3.86.6-6-1.63,1.68-1.36,4-1.82,6-.7,3.07-1.38,6.15-2.07,9.23-.35,1.56-.34,3.42-2.4,4l-2.33-.26c-2.25-2-1.39-4.54-.92-6.92.77-3.87,2.05-7.63,2.46-11.58.1-1,.26-2.2-.89-2.55-1.6-.48-1.9,1-2.17,2-1,4.15-2.22,8.27-2.82,12.51-.3,2.14-.55,4.3-2.72,5.51l-2.15-.78c-2.71-4.39-.05-8.64.35-12.94.21-2.17,2.5-5.72.49-6.15-2.84-.62-2.7,3.37-3.34,5.6-.82,2.86-1.39,5.78-2.26,8.63-.79,2.58-2.32,3.94-5.14,3.35,2.13-11.57,3.47-22.82,2.52-35-1-13.5,11.07-15,21.91-12.9,18,3.57,35.62,13.15,54.48,3.42,2.65.37,3.26,1.75,2,4.06q-8.17,10.37-16.32,20.75a1.75,1.75,0,0,0,0,1.23c22.8,3.84,9.76,18.83,9.31,29.89l-2.4-.1c-2.37-4.27-.06-8.37.5-12.52.28-2.11,1.23-4.16.72-6.34-.26-1.12-.67-2.36-2-2.54-1.53-.21-1.9,1.14-2.22,2.2-1.21,4-2.78,7.8-3.05,12-.14,2.33-.45,4.66-2.63,6.15l-2.62-.69c-2.56-3-.66-6.24-.45-9.34.19-2.61,1.54-5,2.16-7.57.4-1.63,1.92-4.16-.25-4.77-2.54-.72-2.53,2.36-3,4a104.74,104.74,0,0,0-2.3,11.11C359,596.79,358.89,599.08,356.55,600.15Z"/><path class="cls-6" d="M742,342.27q-38.47-44.52-76.93-89.06l2.81-2.85c4.65,4,8.92,2.61,13.14-.82a4.4,4.4,0,0,1,4.17-.95l1.81,2.64c-.44,3.33-3.05,5-5.37,6.77-1.82,1.42-2.56,2.95-1.14,5.07s3.16,1.64,5.17.77c3-1.31,5.36-4.91,9.37-2.71l.56.95c.72,3.31-2.16,4-4,5.55s-4.64,2.71-2.45,5.87,4.55,2.19,7.2.45c2.34-1.54,4.11-4.69,7.72-3.3l1.64,2.41c-.37,3.32-3.39,4.26-5.48,6s-3.71,3-1.69,5.65c1.89,2.54,3.93,1.74,6.06.41a40.75,40.75,0,0,0,3.92-3c1.31-1,2.63-2.12,4.47-1.16.61,1,1.23,2.07,1.85,3.11-1.05,2.78-3.62,4.23-5.54,6.24-1.59,1.66-2.35,3.14-.53,5.09,1.66,1.79,3.34,2.66,5.57.89a31.67,31.67,0,0,1,5.06-3.14c1.82-.95,3.67-1.63,5.51,0a3,3,0,0,0,.34.82c.29,3.33-2.48,4.33-4.48,5.93-1.81,1.44-5.1,2.58-2.8,5.6,2.18,2.86,5,1.68,7.37-.31,2-1.64,3.35-4.25,6.49-4l2.24,3c-.64,3.46-3.5,5.12-5.94,7s-3,3.55-1.07,6.14,3.92,2,6.28.45c2.62-1.76,4.67-4.92,8.55-4L744,317c-.51,3-3.26,3.92-5.23,5.57-1.4,1.17-4.16,1.89-2.63,4.44s3.68.65,5.62,0c2.88-1,4.5-4.51,8.1-3.94l1.32.93c1,2.81-1,4.45-2.69,5.83-3.11,2.54-4.4,5.48-3.44,9.38C744,340.23,743,341.25,742,342.27Z"/><path class="cls-4" d="M413.15,548.13l-7.69,5.76a2.51,2.51,0,0,1-2.73-.72c-5.75-6.6-11.61-13.12-15.27-21.22a2.29,2.29,0,0,1,.2-2.35l9.34-5.33c6.7,6.6,12.5,13.87,16.49,22.47C413.68,547.15,413.39,547.69,413.15,548.13Z"/><path class="cls-4" d="M384,551.24l-2-4.06c-4.63-6.72-2.44-12.12,3.25-16.85.51,0,1.1.15,1.28.58,3.41,8.16,9.82,14.39,14.12,22a3.21,3.21,0,0,1,.47,2.35C391.35,571.1,390,551.3,384,551.24Z"/><path class="cls-4" d="M741.9,313.64c-5.78-.22-8.3,12.05-14.94,5.24-9.22-9.43,5.95-9.14,7.12-14.76Z"/><path class="cls-4" d="M724.92,293.12c-4.81,2.08-9.49,4.76-14.52,5.85-1.44.31-3.88-4-5.87-6.16L714.85,284Z"/><path class="cls-4" d="M704.08,270.65c-5.43.12-7.64,10.64-14,5.56-11.44-9.17,5.22-8.73,5.47-14.13Q699.83,266.36,704.08,270.65Z"/><path class="cls-4" d="M713,280.92c-5.23,1-7.93,11.24-13.82,6.15-11.47-9.92,5.46-8.68,6.54-14Z"/><path class="cls-4" d="M695,261.13c-4.83,1.68-12.23,6.2-14.06,4.55-9.56-8.63,3.93-9.45,6-14.45Z"/><path class="cls-4" d="M685.17,248.59c-5.75.71-10.25,13.79-17.31,1.77,3.73-3,7.28-6.23,11.38-8.5C679.81,241.55,683.13,246.22,685.17,248.59Z"/><path class="cls-4" d="M731.84,301.16c-5.29,1.32-8,14-14.94,5.28-6.56-8.29,8.29-6.3,8.36-12.5Z"/><path class="cls-7" d="M303.05,591.66c6.83-1,3.13-7.17,5.1-10.62,2.16-3.8.4-10.18,7.52-10.41-.34,3.77-.6,7.54-1.05,11.29s-1.11,7.5-1.67,11.25l-9.88-1.47Z"/><path class="cls-4" d="M749.83,323.06c-5.36.9-9.27,13-15.15,3.95-3.47-5.34,7-5.62,9.29-10Z"/><path class="cls-6" d="M413.15,548.13,397,524.27l-.78-4.26q10.09,14,20.2,28.06Z"/><path class="cls-6" d="M401.08,555.24l-15.87-24.91,0-.38a.79.79,0,0,1,.76-.9l1.72.55,17.8,24.29C405.67,559.75,402.58,554.91,401.08,555.24Z"/><path class="cls-4" d="M745,339.2c-7.89-9.07,7.25-8.87,6.13-15.21C759.41,333.2,748.15,334.56,745,339.2Z"/><path class="cls-4" d="M385.94,529.05l-.76.9Z"/><path class="cls-7" d="M365.88,602a5.36,5.36,0,0,1,.11-1q3.45-11.19,6.92-22.38c11.36,7.41-.25,16.38,1.67,24.43Z"/><path class="cls-7" d="M356.55,600.15c4.22-7.31-2.32-19.28,10-23.07l-3.3,24.18Z"/><path class="cls-7" d="M315.1,594a1.57,1.57,0,0,1,.07-.49c3.31-7.14.52-22.6,7.37-20.77,8.89,2.36-2.29,14.3-.38,22.25Z"/><path class="cls-7" d="M332.51,596.18c3.2-7.38-2.51-17.77,7.71-22.76q-1.12,12-2.27,24Z"/><path class="cls-7" d="M340.59,598c4.07-7.71-1.13-18.43,7.94-24.53q-1.06,12.53-2.14,25Z"/><path class="cls-7" d="M348.63,599c2.68-8-.38-17.78,7.72-24,3.82,8.91-3.53,16.35-3.26,24.79Z"/><path class="cls-7" d="M324.49,595.2c2.74-7.41.26-16.42,6.92-22.63,4.83,8.27-3.1,15.53-1.85,23.51Z"/><path class="cls-2" d="M307.63,558.08c3.5-16.59,15.71-11.72,26.42-9.05,13.55,3.37,26.7,9.31,41.1,4.45.3,1,1.14,2.2.82,2.87-11.46,23.66-31.94,13-49.22,11.91C320.51,567.88,308.76,573,307.63,558.08Z"/></g><g id="Layer_2" data-name="Layer 2"><text class="cls-8" transform="translate(73.33 758)">2019/10/15<tspan x="0" y="28.8">O</tspan><tspan class="cls-9" x="16.54" y="28.8">r</tspan><tspan x="24.48" y="28.8">i</tspan><tspan class="cls-10" x="30.1" y="28.8">g</tspan><tspan x="43.37" y="28.8">inal: </tspan><tspan class="cls-11" x="89.59" y="28.8">S</tspan><tspan class="cls-12" x="101.49" y="28.8">an</tspan><tspan class="cls-13" x="126.38" y="28.8">n</tspan><tspan class="cls-12" x="139.39" y="28.8">y </tspan><tspan class="cls-14" x="155.78" y="28.8">v</tspan><tspan x="167.23" y="28.8">an </tspan><tspan class="cls-15" x="197.2" y="28.8">L</tspan><tspan class="cls-12" x="208.2" y="28.8">oon</tspan><tspan class="cls-16"><tspan x="0" y="57.6">h</tspan><tspan class="cls-17" x="13.7" y="57.6">ttps://pin.it/y2ous</tspan><tspan class="cls-18" x="202.17" y="57.6">g</tspan><tspan class="cls-19" x="215.92" y="57.6">i5m56</tspan><tspan class="cls-20" x="280.89" y="57.6">c</tspan><tspan class="cls-21" x="292.55" y="57.6">y</tspan><tspan class="cls-17" x="304.19" y="57.6">s</tspan></tspan></text></g></svg>