<svg xmlns="http://www.w3.org/2000/svg" viewBox="0 0 1024 1024"><defs><style>.cls-1{fill:#f2f2f2;}.cls-2{fill:#fefefe;}.cls-3{fill:#dab401;}.cls-4{fill:#0f0d00;}.cls-5{fill:#f6f4ee;}.cls-6{fill:#027e6b;}.cls-7{fill:#d9b200;}.cls-8{font-size:24px;font-family:MyriadPro-Regular, Myriad Pro;}.cls-9{letter-spacing:0em;}.cls-10{letter-spacing:-0.01em;}.cls-11{letter-spacing:0em;}.cls-12{letter-spacing:0em;}.cls-13{letter-spacing:-0.01em;}.cls-14{letter-spacing:0em;}.cls-15{letter-spacing:-0.01em;}.cls-16{letter-spacing:0.02em;}.cls-17{letter-spacing:0.02em;}.cls-18{letter-spacing:0.01em;}.cls-19{letter-spacing:0.04em;}.cls-20{letter-spacing:0.02em;}</style></defs><title>Artboard 2</title><g id="Layer_1" data-name="Layer 1"><rect class="cls-1" x="0.5" y="-511.5" width="1023" height="2047"/><path class="cls-2" d="M.11,1023.89Q.11,514.25,0,4.6C0,.75.75,0,4.6,0Q511.49.17,1018.4,0c3.85,0,4.6.75,4.6,4.6q-.16,507.41,0,1014.8c0,3.85-.75,4.6-4.6,4.6Q509.5,1023.84.11,1023.89Z"/><path class="cls-3" d="M284.21,392l.45-3.81a13.46,13.46,0,0,1,.39-2c.2-1,.41-2,.61-3a6.91,6.91,0,0,1,.62-2c.27-1.09.53-2.18.8-3.27a39.7,39.7,0,0,1,3.3-7.7c19.47-41.85,59.28-39,94.58-39.17,104.79-.58,209.59,2.27,314.39,2.86,26.95.16,53.92-2,80.48,4,37.72,8.43,61.94,32.77,62.16,71.25.31,57.07,5.32,114.91-18.19,170-10.11,23.71-30.47,35.64-47.69,51.55-6.26,5.74-13.4,9.49-22.1,9.69l-39,7.39c-6.45,3.35-13.24,1.53-19.9,1.19-2.42-.13-5-.43-6.88-2.38-46.64-6.42-93.72-2.85-140.45-6.05-68.93-4.71-137.72-11.55-206.57-17.49a56,56,0,0,1-19.9-3.39l-51.25-2.65c-5.79,1.61-11.06-1.41-16.62-1.9-2.56-.22-5.4-.25-7.32-2.56-24.1-3.34-41.85-15.27-54.59-36.46-19-31.53-33.63-64.75-33.25-101.69C158.61,441,198.47,429,237.7,449c3.76,1.92,8.06,2.78,12.12,4.12a5,5,0,0,1,2,.53l3,.5a5.24,5.24,0,0,1,2,.43l4,.51a3.51,3.51,0,0,1,2.76,1c1.62,2.1,2,4.65,2.63,7.12,1.7,5.75,3.31,11.52,5.29,17.18,1.43,2.64,2.75,5.32,4,8,2.06,4.35,1.46,6.08-2.79,8.53-2.46,1.42-5.13,2.38-7.71,3.55-4.09,1.85-8.2,3.71-11.75,6.52-5.55,4.39-7.69,11.24-5.23,17.82,3,8.09,6.71,15.92,9.91,24a24.63,24.63,0,0,0,11.78,12.49,65.17,65.17,0,0,0,28.56,7.88c17.27.57,34.48,2.49,51.68,4.28,8.78.91,17.6.87,26.39,1.31,10.64.53,21.2,1,31.73,2.88,11.65,2.09,23.55,1.68,35.32,2.1,13.95.49,28,.47,41.86,1.55,34.09,2.67,68.19.74,102.25,1.92,16.92.59,33.82,2.33,50.73,3.53,15.09,1.07,29.5,0,43.56-7.37,17.23-9,25.21-23.47,27.37-41.35,2.82-23.4,3.87-47,7.28-70.37,1.36-9.25,3.31-18.31,7.31-26.85,2.54-5.44,4.47-11.46,11.72-12.24,9.15-1,17.7.07,23.79,8.13,3.42,4.54,6.66,9.31,8,14.84,3.44,14.06,13.4,19.34,26.62,20.64,7.27.71,14.55,2.17,21.71-.64,1.8-.71,4-.93,4.56-3.37-1-2.55-3-1.76-4.58-1.2-9.08,3.16-18.16,1.3-27.12-.24a19.39,19.39,0,0,1-15.68-13.11c-2.3-6.23-4.68-12.44-8.74-17.86-9.48-12.64-18.34-12.7-31.83-11.27-4.16.44-6.64,4.18-8.82,7.59-4.63,7.24-7.3,15.31-9.22,23.58A150.31,150.31,0,0,0,711,474.34c-.7,6.81-2.38,8.24-9.15,8.52-14.52.62-28.91-.86-43.3-2.39a226.76,226.76,0,0,0-23.88-1.64c-15.82,0-31.45-2.75-47.24-3.48-6.13-.29-12.29-1.21-18.39-1.24-20.18-.09-40.17-2.36-60.18-4.36-16-1.58-31.93-.43-47.88-.86-2.81-.07-5.69.38-8.29-1.16-2.1-2-1.58-4.54-1.31-7a75,75,0,0,0-.06-18.33c-2-14.18-13.61-26.43-27.46-29.74-8.48-2-16.84-3.49-25.55-1.86a8.92,8.92,0,0,1-6.73-1.06c-2.3-2.92-1.92-6.65-3-9.93-1-6.76-1.95-13.54-8.71-17.42-1.73-2.43-4.26-3.64-7-4.46a55,55,0,0,0-26.46-1.8,353.85,353.85,0,0,0-55,15.12C289.07,392.08,286.76,393.34,284.21,392Z"/><path class="cls-4" d="M381.06,381.39c7,3.7,7.77,10.51,8.55,17.29-.83,2.61-3.32,2.46-5.25,3-18.71,5.2-37.7,9.28-56.53,14q-30.91,7.71-61.57,16.35c-2.46.69-5,2.29-7.53.2-.61-7.79,0-15.24,6-21.12,1.64-2.09,4-2.86,6.44-3.51,28.28-7.52,56.56-15.08,85.11-21.55,5.85-1.32,11.55-3.16,17.38-4.55C376.17,380.88,378.6,380.51,381.06,381.39Z"/><path class="cls-4" d="M688.22,646.69,715,647.88q3.16,39.69,6.37,79.39c.4,5-1.27,8.73-6.41,9.64-5.65,1-9-2.39-10-7.47C699.25,701.88,693.77,674.28,688.22,646.69Z"/><path class="cls-4" d="M265,463.63c-.76-2.5-1.53-5-2.29-7.49a2.39,2.39,0,0,1-.71-2.07l-.48-1.92a4.11,4.11,0,0,1-.75-2c0-.62.09-1.24.13-1.86,1.21-2,3.15-2.85,5.23-3.57,25-8.7,50.29-16.46,76.18-22.12,7.48-1.63,14.93-3.39,22.52-4.49,2.14-.31,4.28-.77,6.36.3a2.13,2.13,0,0,1,.64,3.06c-4.49,6.66-7.72,14.07-12.48,20.57-8.36,2.19-16.91,3.53-25.29,5.63-20.63,5.15-41.21,10.51-61.84,15.67C269.81,463.94,267.43,465.12,265,463.63Z"/><path class="cls-5" d="M371.87,418.46c-37.93,6.51-74.82,16.89-111,29.84l-2.13-16.1,130.88-33.52q1.31,5.2,2.63,10.41c-.05,1.63-1.28,2.3-2.53,2.59-5,1.15-9.42,3.57-13.7,6.33C374.79,418.8,373.37,419.37,371.87,418.46Z"/><path class="cls-4" d="M246.11,612.65l23.94,4.46c1,24.66-9.14,45.41-22.61,65-2.84,4.13-6.27,6.76-11.26,4.26s-4.55-6.93-3.5-11.67C237.26,654.07,241.65,633.35,246.11,612.65Z"/><path class="cls-5" d="M381.06,381.39,264.78,411.08c1-11.93,12-13.71,19.43-19,29-8.41,56.87-23.37,88.65-15.69C375.83,377.07,378.34,379.67,381.06,381.39Z"/><path class="cls-4" d="M754,640.49l22.1-9.69c.51,15.93,1.11,31.85,1.49,47.77.13,5.42-.87,10.85-7.55,11.57-6.5.71-8.43-4.19-9.33-9.44C758.43,667.31,756.24,653.89,754,640.49Z"/><path class="cls-4" d="M321.3,619.76l19.9,3.39c-1.06,7.36-1.83,14.77-3.27,22.05-1.09,5.52-1.61,12.72-9.72,11.92S319.89,649.25,320,643C320.19,635.27,320.85,627.52,321.3,619.76Z"/><path class="cls-5" d="M290.38,370.29l-3.3,7.7Z"/><path class="cls-5" d="M286.28,381.26l-.62,2L284.9,382Z"/><path class="cls-5" d="M285.05,386.24l-.39,2Z"/><path class="cls-5" d="M260.73,450.16l.75,2Z"/><path class="cls-5" d="M251.83,453.65l-2-.53Z"/><path class="cls-5" d="M256.83,454.58l-2-.43,1.2-.91Z"/><path class="cls-5" d="M262,454.07l.71,2.07-1.86-1.05Z"/><path class="cls-4" d="M452.41,467.68c85.41-.74,170.14,11.09,255.13,14.35,2.78-12.64,4.62-25,8.34-36.72,3-9.65,5.63-21,18.6-22.87,16.14-2.28,29.71,3.66,34.43,19.08,8.62,28.18,27.9,28.27,51.67,22.77.53,1,2.19,2.68,1.86,3.78-.47,1.6-2.23,3.76-3.71,4-22.35,3.59-44.39,6.75-53.72-22.16-4.26-13.2-12.67-22.5-28.44-20.11-12.1,1.83-13.33,13.09-14.67,21.23-4.51,27.32-7.56,54.9-10.4,82.45-3.51,34.22-26.72,56.21-61.09,54.88-119.61-4.61-239.34-6.73-358.62-18-23.81-2.24-46.93-26.2-46.44-50.23.39-19.06,20-18.65,30.92-27.1q-3.22-6.44-6.44-12.82c1.34-2.63,3.93-3.42,6.43-4.28,8.15-2.81,16.44-5.26,24.78-7.38,16.38-4.16,32.77-8.3,49.06-12.82,2.37-.65,4.81-1.45,7.27-.21,3.27,4.55,2.57,9.71,2.33,14.81-1.57,3-4.71,3.38-7.5,4.29-21.9,7.14-43.86,14.06-66.11,20.06a4.57,4.57,0,0,0-2.31,1.27c-.91,1.21-.08,3.2-1.42,4.46-4.36,3.47-9.77,4.94-14.52,7.67-2.71,1.56-5.79,2.52-8.14,4.72.43,1.8,1.86,1.16,2.84,1.18,9,.2,18,.17,26.86-1.39a57.22,57.22,0,0,1,10-.55q25.47,0,50.93,0c13.16,0,26.17,2,39.28,2.7,3.83.2,7.65.29,11.47.29,26.8,0,53.43,2.83,80.12,4.59a586.57,586.57,0,0,0,69.29.83c18.58-1,37.22-.69,55.86.2,12.46.6,24.86,2,37.32,2.41a343.17,343.17,0,0,1,45.12,4.47,31.49,31.49,0,0,0,13.06-.3c1.28-11.65,3.33-23.28,3.2-34.55a6.48,6.48,0,0,0-5.46-1.67c-16,.73-31.84-1.95-47.74-3.24-13.91-1.13-27.88-1.35-41.78-2.7-34.74-3.39-69.71-3.5-104.42-7.66-14.65-1.76-29.59-.28-44.4-.44-3.31,0-6.68.45-9.87-.91C448.52,472.88,449.15,470.11,452.41,467.68Z"/><path class="cls-6" d="M358.74,471l-2.13-15.22a17.42,17.42,0,0,1,3-15.1l12.28-22.19,20.37-9.37c22.46-1.61,44.37-1.44,57.36,21.63,6.6,11.72,3.42,24.51,2.81,37-.51,2.43-1,4.86-1.54,7.29a5,5,0,0,1-.63,4.3c-3.94,6.63-8.65,13-15.35,16.6-14.22,7.58-29.47,11.12-45.71,7.57-9.73-2.12-18-6.62-24.14-14.67a106.77,106.77,0,0,1-5.62-12.55C358.83,474.5,358.19,472.82,358.74,471Z"/><path class="cls-5" d="M359.59,440.65q-1.5,7.56-3,15.1l-86.78,24.49q-2.44-8.31-4.87-16.61Z"/><path class="cls-4" d="M751.47,379.75c-4.27,3.05-6.7,6.14-8.8,5.93s-4.15-3.57-6.21-5.56c2-2,3.75-5.37,6-5.69S747.09,377,751.47,379.75Z"/><path class="cls-4" d="M491.49,412.21c-4.09,2.7-6.67,5.69-8.53,5.3-2.26-.48-5.11-3.67-5.4-6-.2-1.57,3.56-5.08,5.56-5.09C485.37,406.44,487.63,409.38,491.49,412.21Z"/><path class="cls-4" d="M588.21,386.15c-1.24-2.13-3.44-4.26-3-5.52.85-2.54,2.9-6.23,4.85-6.49,2.74-.37,5.84,1.95,11.44,4.16Z"/><path class="cls-4" d="M620.84,400.81c2.78,3.52,5.79,5.73,5.52,7.4-.37,2.19-3.33,4-5.17,5.89-1.84-1.79-4.87-3.41-5.18-5.43C615.73,406.83,618.4,404.53,620.84,400.81Z"/><path class="cls-4" d="M671.88,373.22c-1.78,4.85-2.76,7.51-3.74,10.16-2.49-1.18-5.39-1.93-7.3-3.73-1-.95-.64-5.36-.3-5.43C663.52,373.57,666.64,373.56,671.88,373.22Z"/><path class="cls-4" d="M548.42,401.16c2.59,3.38,5.39,5.48,5.13,7.08-.34,2-3.14,3.67-4.88,5.48-1.71-1.68-4.54-3.22-4.8-5.1S546.11,404.72,548.42,401.16Z"/><path class="cls-4" d="M701.94,415.39c-3.15,2.54-5.34,5.48-6.74,5.15a8.24,8.24,0,0,1-5.11-5.22c-.3-1.21,2.85-4.52,4.64-4.67S698.6,413.05,701.94,415.39Z"/><path class="cls-4" d="M449.7,375.1c2.58,3.61,5.18,5.67,5,7.39s-2.87,4.3-4.85,4.75c-1.18.26-4.26-2.72-4.41-4.43C445.24,380.94,447.46,378.86,449.7,375.1Z"/><path class="cls-4" d="M525.84,378.34c-3.73,2.36-5.75,4.65-7.61,4.52-1.7-.12-4.71-3.09-4.49-4.35.33-2,2.74-4.66,4.59-4.93C520,373.32,522.15,375.85,525.84,378.34Z"/><path class="cls-4" d="M402.65,387.5c-2.06-3.58-4.11-5.55-3.94-7.33.13-1.47,2.9-3.79,4.44-3.74s4.06,2.64,4.06,4.11C407.21,382.33,405,384.12,402.65,387.5Z"/><path class="cls-7" d="M253.87,520l448.6,15.18c2,22-22.85,46.54-44.79,45.79-122.16-4.18-244.41-6.48-366.2-18C268.12,560.69,259.65,544.22,253.87,520Z"/><path class="cls-7" d="M366,487.79c26,24.92,67.58,18.64,84.85-12.82,85.76-.56,170.82,10.83,256.89,14.52-1.25,13.81-2.45,27.14-3.45,38.29l-449.52-15L283,498.7c2.21-1.1,4.27,0,6.23.68,13.79,5.05,27.19,4,40.7-1.52a178.5,178.5,0,0,1,30.29-9.73C362.12,487.72,364,487,366,487.79Z"/><path class="cls-5" d="M366,487.79c-27.45,5.47-52.91,26-83.06,10.91-1.09-1.17-2.17-2.35-3.27-3.55L358.74,471Q362.39,479.37,366,487.79Z"/></g><g id="Layer_2" data-name="Layer 2"><text class="cls-8" transform="translate(73.33 758)">2020/01/11<tspan x="0" y="28.8">O</tspan><tspan class="cls-9" x="16.54" y="28.8">r</tspan><tspan x="24.48" y="28.8">i</tspan><tspan class="cls-10" x="30.1" y="28.8">g</tspan><tspan x="43.37" y="28.8">inal: </tspan><tspan class="cls-11" x="89.59" y="28.8">S</tspan><tspan class="cls-12" x="101.49" y="28.8">an</tspan><tspan class="cls-13" x="126.38" y="28.8">n</tspan><tspan class="cls-12" x="139.39" y="28.8">y </tspan><tspan class="cls-14" x="155.78" y="28.8">v</tspan><tspan x="167.23" y="28.8">an </tspan><tspan class="cls-15" x="197.2" y="28.8">L</tspan><tspan class="cls-12" x="208.2" y="28.8">oon</tspan><tspan class="cls-16"><tspan x="0" y="57.6">h</tspan><tspan class="cls-17" x="13.7" y="57.6">ttps://pin.it/</tspan><tspan class="cls-18" x="140.25" y="57.6">c</tspan><tspan class="cls-17" x="151.34" y="57.6">cjj</tspan><tspan class="cls-19" x="175.2" y="57.6">k</tspan><tspan class="cls-20" x="187.34" y="57.6">paj7njv4u</tspan></tspan></text></g></svg>