<svg xmlns="http://www.w3.org/2000/svg" viewBox="0 0 1024 1024"><defs><style>.cls-1{fill:#f2f2f2;}.cls-2{fill:#fefefe;}.cls-3{fill:#f2d63c;}.cls-4{fill:#b98742;}.cls-5{fill:#1f633d;}.cls-6{fill:#191606;}.cls-7{fill:#6fbab2;}.cls-8{font-size:24px;font-family:MyriadPro-Regular, Myriad Pro;}.cls-9{letter-spacing:0em;}.cls-10{letter-spacing:-0.01em;}.cls-11{letter-spacing:0em;}.cls-12{letter-spacing:0em;}.cls-13{letter-spacing:-0.01em;}.cls-14{letter-spacing:0em;}.cls-15{letter-spacing:-0.01em;}.cls-16{letter-spacing:0.02em;}.cls-17{letter-spacing:0.02em;}.cls-18{letter-spacing:0.01em;}</style></defs><title>Artboard 2</title><g id="Layer_1" data-name="Layer 1"><rect class="cls-1" x="0.5" y="-511.5" width="1023" height="2047"/><path class="cls-2" d="M.11,1023.89Q.11,514.25,0,4.6C0,.76.76,0,4.6,0Q512,.17,1019.4,0c3.84,0,4.6.76,4.6,4.6q-.16,507.41,0,1014.8c0,3.84-.76,4.6-4.6,4.6Q510,1023.84.11,1023.89ZM382.55,403l-8.69-1.67v12.5c-7.54,7.78-10.12,17.43-11.92,27.87-9.34,54.14.93,107.79,3.37,161.63l-13,34.18c-3.43-6.74-6.43-12.61-9.42-18.49.42-23.08-27.3-62.68-50.27-70.54-14.43-4.93-24.82-1.74-26.3,16.14-2.45,29.65,36.39,62.3,73.88,61.69,9.43,17.75,16.47,36.12,14.73,56.77L278.6,690c-5,17.81-2.77,34.81-.63,51.77.5,4,3.37,5.83,7.54,5.62q57.62-2.86,115.22-5.64l60.12-2.9c0-13.12-.76-25,.17-36.66,1.5-18.81-6.34-24.62-24.72-22.69-20.62,2.16-41.53,1.68-62.31,2.35q.4-40.44.8-80.88l1.15-1c21.7-.63,87.43-52.39,91.91-73.54,3-14,7.51-35.19-17.49-26.71-35.85,12.17-63.93,35.85-75.24,74.58-1.24-5.55-3.1-11-3.63-16.64-4.29-45.44-9.07-90.94,6.62-135.42l2.5-.37c49.86,10.57,99.61,21.72,149.63,31.49,31.12,6.08,61.92,15.11,94.16,13.84l1.9.4.18.3.12-.31,2.38-.43c15.79,1.64,30.22-3,45.07-7.91,66.41-21.78,96.43-78.39,70.37-134.34l-3.29-2.1-9-9-3.34-3.92L704,288.32c8.95-43.39-3.58-79.42-34.36-107-37.7-33.78-82.43-29.67-127.53-16.62-45.58,13.19-81.71,63.76-78.75,111.18,2.37,38.05,24.89,56.13,80.19,64.42l14.27,21,2,3.8,7.08,11.22,2.12,3.82,15.93,27.07c.34,1.38.67,2.77,1,4.15-14.56-.74-29.11-1.62-43.68-2.19q-79.38-3.12-158.78-6.07A1.15,1.15,0,0,1,382.55,403Zm-69.34,443.7c26.5,1.51,54.41,3.38,82.34,4.57,12.33.52,30.32-.94,32.64-11,7-30.36,8.62-61.94,12.48-94.15l-148.62,8.07Z"/><path class="cls-3" d="M557.76,361.32q-7.12-10.51-14.24-21c-55.32-8.28-77.84-26.36-80.21-64.41-3-47.42,33.17-98,78.75-111.18,45.1-13.05,89.83-17.16,127.53,16.62,30.78,27.59,43.31,63.62,34.36,107l24.85,21.5c-16.11,58.84-77.82,123.23-120.35,125l-23.6-27.54-15.93-27.07c4.92-1.43,10.13-2.24,14.71-4.39,46.64-22,76.84-59.26,97.55-105.31l7,4.54c8-26.29-17.28-78.06-44.07-91.24-65.65-32.31-136.51-3.55-161.08,65.37-13,36.53,16,76.33,51.23,70.45-.82-38.18,29.41-54,54.4-71.8,15.15-10.8,34-22.61,54-6.35-24.35,41.69-54.28,76.92-101.38,92.44,49.07-12.31,79.63-47.51,104.75-89.45l17.42,12.68C643.57,307.41,611.08,344.93,557.76,361.32Zm36-72.95c10.32-11.35,28.42-18.23,25.78-37.2-.89-6.42-10.73-2.52-16.61-.19C582.79,259,585.19,272.73,593.76,288.37Z"/><path class="cls-4" d="M313.21,846.73l-21.16-92.52,148.62-8.07c-3.86,32.21-5.51,63.79-12.48,94.15-2.32,10.07-20.31,11.53-32.64,11C367.62,850.11,339.71,848.24,313.21,846.73Z"/><path class="cls-4" d="M374,681.81c20.78-.67,41.69-.19,62.31-2.35,18.38-1.93,26.22,3.88,24.72,22.69-.93,11.7-.17,23.54-.17,36.66l-60.12,2.9q-57.6,2.81-115.22,5.64c-4.17.21-7-1.64-7.54-5.62-2.14-17-4.38-34,.63-51.77l76.31-6.85,5,0,4.77-.63Z"/><path class="cls-3" d="M383.39,403.12q79.39,3,158.79,6.07c14.57.57,29.12,1.45,43.68,2.19l38.54,55.73c-32.24,1.27-63-7.76-94.16-13.84-50-9.77-99.77-20.92-149.63-31.49C384.66,416,388.27,410.21,383.39,403.12Z"/><path class="cls-3" d="M744.42,324.82c26.06,55.95-4,112.56-70.37,134.34-14.85,4.87-29.28,9.55-45.07,7.91l-10.84-18C680.92,428.19,721.91,386,744.42,324.82Z"/><path class="cls-5" d="M375.12,574.21c11.31-38.73,39.39-62.41,75.24-74.58,25-8.48,20.45,12.73,17.49,26.71-4.48,21.15-70.21,72.91-91.91,73.54,27.05-32,45.88-71.27,84-93.49a130.49,130.49,0,0,0-48.94,38c-13.11,16.45-26,33.07-39,49.62Q373.57,584.12,375.12,574.21Z"/><path class="cls-5" d="M340.18,626.34c-37.49.61-76.33-32-73.88-61.69,1.48-17.88,11.87-21.07,26.3-16.14,23,7.86,50.69,47.46,50.27,70.54-19.47-20.35-34.77-45.74-70.46-55.86C305.46,579.1,321.66,603.9,340.18,626.34Z"/><path class="cls-3" d="M566.8,376.34l-7.08-11.22c53.8-16.87,86.81-54.88,107.35-105.57l10.71,8.21C654.45,317.92,622.87,359.65,566.8,376.34Z"/><path class="cls-6" d="M744.42,324.82C721.91,386,680.92,428.19,618.14,449.07l10.84,18-2.38.43h-.3l-1.9-.4-38.54-55.73c-.34-1.38-.67-2.77-1-4.15l23.6,27.54C651,433.05,712.69,368.66,728.8,309.82l3.34,3.92c-19.47,61.32-58.79,103.64-119.82,125.93l3.34,4.87c13.16-4.87,26.62-6.53,38.73-14.57,40.33-26.79,70.78-61,86.74-107.25Z"/><path class="cls-7" d="M375.12,574.21q-1.56,9.9-3.1,19.81l-6.71,9.34c-2.44-53.84-12.71-107.49-3.37-161.63,1.8-10.44,4.38-20.09,11.92-27.87,2.87-2.36,3-8.06,8.61-7.12l-4.36,15.41c-15.69,44.48-10.91,90-6.62,135.42C372,563.18,373.88,568.66,375.12,574.21Z"/><path class="cls-6" d="M365.31,603.36,372,594c13-16.54,25.88-33.16,39-49.61a130.49,130.49,0,0,1,48.94-38c-38.13,22.22-57,61.47-84,93.49l-1.15,1L365,619.6c-15.46,20.07-3.7,42.33-5.09,63.53l-5,0c1.74-20.65-5.3-39-14.73-56.77-18.52-22.44-34.72-47.24-67.77-63.15,35.69,10.12,51,35.51,70.46,55.86,3,5.88,6,11.75,9.42,18.49Z"/><path class="cls-3" d="M741.13,322.72c-16,46.23-46.41,80.46-86.74,107.25-12.11,8-25.57,9.7-38.73,14.57l-3.34-4.87c61-22.29,100.35-64.61,119.82-125.93Z"/><path class="cls-6" d="M566.8,376.34c56.07-16.69,87.65-58.42,111-108.58l3.41,2.7c-20.71,46.05-50.91,83.34-97.55,105.31-4.58,2.15-9.79,3-14.71,4.39Z"/><path class="cls-7" d="M365,619.6l9.79-18.67q-.41,40.44-.8,80.88l-9.31.7Q364.85,651.05,365,619.6Z"/><path class="cls-6" d="M667.07,259.55c-20.54,50.69-53.55,88.7-107.35,105.57l-2-3.8c53.31-16.39,85.8-53.91,105.66-104.22Z"/><path class="cls-6" d="M378.11,422.15q2.19-7.69,4.36-15.41c0-1.24.06-2.48.08-3.71a1.15,1.15,0,0,0,.85.09c4.87,7.09,1.26,12.9-2.79,18.66Z"/><path class="cls-3" d="M382.55,403c0,1.23-.05,2.47-.08,3.71-5.61-.94-5.74,4.76-8.61,7.12v-12.5Z"/><polygon class="cls-3" points="626.3 467.51 626.6 467.5 626.49 467.81 626.3 467.51"/><path class="cls-2" d="M667.07,259.55l-3.64-2.45L646,244.43l-3.37-3c-20.07-16.26-38.89-4.45-54,6.35-25,17.82-55.22,33.62-54.4,71.8C499,325.46,470,285.66,483,249.13c24.57-68.92,95.43-97.68,161.08-65.37,26.79,13.18,52.11,65,44.07,91.24l-7-4.54-3.41-2.7Z"/><path class="cls-6" d="M593.76,288.37c-8.57-15.64-11-29.4,9.17-37.39,5.88-2.33,15.72-6.23,16.61.19C622.18,270.14,604.08,277,593.76,288.37Z"/><path class="cls-6" d="M642.65,241.43l3.37,3c-25.12,41.93-55.68,77.13-104.75,89.44C588.37,318.35,618.3,283.12,642.65,241.43Z"/><path class="cls-2" d="M365,619.6q-.17,31.46-.32,62.91l-4.77.62C361.3,661.93,349.54,639.67,365,619.6Z"/></g><g id="Layer_2" data-name="Layer 2"><text class="cls-8" transform="translate(555.33 604)">2020/01/17<tspan x="0" y="28.8">O</tspan><tspan class="cls-9" x="16.54" y="28.8">r</tspan><tspan x="24.48" y="28.8">i</tspan><tspan class="cls-10" x="30.1" y="28.8">g</tspan><tspan x="43.37" y="28.8">inal: </tspan><tspan class="cls-11" x="89.59" y="28.8">S</tspan><tspan class="cls-12" x="101.49" y="28.8">an</tspan><tspan class="cls-13" x="126.38" y="28.8">n</tspan><tspan class="cls-12" x="139.39" y="28.8">y </tspan><tspan class="cls-14" x="155.78" y="28.8">v</tspan><tspan x="167.23" y="28.8">an </tspan><tspan class="cls-15" x="197.2" y="28.8">L</tspan><tspan class="cls-12" x="208.2" y="28.8">oon</tspan><tspan class="cls-16"><tspan x="0" y="57.6">h</tspan><tspan class="cls-17" x="13.7" y="57.6">ttps://pin.it/2ep3</tspan><tspan class="cls-18" x="192.48" y="57.6">o</tspan><tspan class="cls-17" x="205.96" y="57.6">z5qofkj4r</tspan></tspan></text></g></svg>