<svg xmlns="http://www.w3.org/2000/svg" viewBox="0 0 1024 1024"><defs><style>.cls-1{fill:#f2f2f2;}.cls-2{fill:#fefefe;}.cls-3{fill:#145a74;}.cls-4{fill:#badce9;}.cls-5{fill:#e4cd4b;}.cls-6{fill:#010203;}.cls-7{fill:#122c35;}.cls-8{font-size:24px;font-family:MyriadPro-Regular, Myriad Pro;}.cls-9{letter-spacing:0em;}.cls-10{letter-spacing:-0.01em;}.cls-11{letter-spacing:0em;}.cls-12{letter-spacing:0em;}.cls-13{letter-spacing:-0.01em;}.cls-14{letter-spacing:0em;}.cls-15{letter-spacing:-0.01em;}</style></defs><g id="Layer_1" data-name="Layer 1"><rect class="cls-1" x="0.5" y="-511.5" width="1023" height="2047"/><path class="cls-2" d="M0,0H1024V1024H0ZM503.08,340.94l-1.92-.82-9.11-.92c-8.28.5-17.05,0-23.58,6.18-38.61,36.46-44.27,84.36-44.57,133.4-.16,25.6,6.74,48.46,38.25,51.89l6.7.31c26,6,51.83,12.39,77.91,17.81,14.55,3,31.26,10.54,38.77-11.45l6.35-1.1L636,547.06c-.91,6.23-.84,12.79-2.88,18.62-26.93,77.23-53.17,154.75-90.19,228-7.52,4.76-10.68,12-9.83,20.41.5,5,5.25,7.43,9.76,6,8.88-2.89,9.71-11.3,11.18-19q12.53-25.62,25-51.25c18.76-4.51,26.9-22.1,40.59-33.37,2.91,9.58,5.76,18.73,8.47,27.93,2.37,8.07,0,18.4,10.77,22.42l-7.85,92.38c-5.54,7.58-5.35,15.59-.24,22.91,3,4.38,8.78,4.82,12.24.76,5.75-6.77,7-14.75,2-22.86q4.07-46.65,8.12-93.3c16.8-12.6,24.36-31.46,33.69-49.85l33.06,22.09,18.25,61.3c-1.24,7.14,1.16,13.15,6.93,17.09a7,7,0,0,0,10.38-2.75c3.29-6.61,1.55-12.83-3.77-18-8.74-33.24-17.59-66.45-26.21-99.73Q707.59,627.92,690,558.93l23,1.11,5,.94c19.54,3.5,39,7.81,58.66,10.16,11.22,1.34,18.26-6.32,21.72-16.84l3.47-1.2c15.55,2.58,31,5.84,46.67,7.52,13.34,1.43,28.83,11,38.62-7.32,8.64,1,19.27,8.52,22.93-7.24,8.74,1,9-6,10.26-11.63,1.42-6.34-1.3-10.22-8.54-10.92C917.93,508.37,906,510,898,507.9c3.86-18.33-2.59-29.73-21.73-33.21-18.13-3.29-36.18-7.06-54.26-10.62a.72.72,0,0,0-.59-.46c1.36-24.36-2.55-44.64-33.19-46.55-13.56-.84-27-3.26-40.53-5l-4.55-1-128-29.3-5.94-5.41c-1.21-7.23-.67-16-10.25-17.82C567,352.41,535,346.75,503,340.91ZM210.28,459.78c-6.83-3.15-14.09-14.43-17.24-9.15C186.87,461,206,461.56,206,472.57c-9.29.45-19,.68-28.75,1.56-2.2.2-4.2,2.61-6.29,4,2.08,1.61,4.1,4.5,6.26,4.62,9.46.51,19,.22,28,.22-1.79,10-21.26,12.61-15.14,22.34,4.18,6.64,11.35-8.68,19.89-11.65V536c12.67-13.39,6.12-30.3,9.63-45.33,4.52,4.25,6.75,11.72,17.58,9.46l-12.37-19.31c10.22,0,19.47.06,28.73,0,3.63,0,8.81,1.35,9.13-4.13s-5.1-5-8.63-5.11c-9.72-.32-19.46-.11-29.62-.11l14.77-24.54-5.8-2.81L219.75,464c0-13.12,0-23.68,0-34.24,0-3.32.28-7.48-4.39-7.54s-5,4.14-5,7.7C210.22,439.7,210.28,449.48,210.28,459.78Zm159.4,224.36c.17,9-18.3,9.81-11.44,18.56,4.67,5.95,10.74-7.38,16.82-9.6,0,13.52-.22,27.16.2,40.77.07,2.42,2.81,4.76,4.32,7.14,1.49-2.42,4.19-4.8,4.27-7.26.41-13.88.2-27.78.2-43.16l24.55,15c-.79-14.18-13-14.21-17.61-22,10.17.86,19.58,1.77,29,2.37,3.52.22,8.38.88,8.55-4.3s-4.69-4.37-8.24-4.7c-10.3-1-20.59-2-31.67-3.15L405,652.47c-11.84-1.29-13,9.56-19,12.34,0-11,.19-21.92-.17-32.8-.07-2.07-2.31-4.07-3.55-6.11-1.76,1.77-5,3.48-5,5.32-.46,11.37-.23,22.78-.23,35.86-6.86-5.49-7.79-15.6-19.23-14.36,4.84,8,8.59,14.24,12.16,20.14-10.07,4.65-28.86-3.7-28.16,5.08C342.72,690.09,360.44,678.87,369.68,684.14ZM597,184.2c0-13.28.16-25.56-.15-37.83-.06-2.25-2-4.45-3.13-6.67-1.86,1.91-5.11,3.67-5.33,5.76-1.24,11.92-1.76,23.92-2.56,36.36L572.62,162l-4.37,2.57,10.91,22.79c-9.44,3.57-26.24-5.68-26.29,3.57,0,10.84,18.11,2.38,26.7,8.07-4.62,5.6-9.34,11.32-15.48,18.74,12,.28,15.55-8,21.92-12.74,0,12.22-.2,23.38.18,34.52.07,2,2.52,4,3.87,6,1.65-1.91,4.62-3.75,4.72-5.74.5-9.54.23-19.13.23-29,6.74,1.49,10.72,11.29,20.54,5.27l-19.12-17.29c12.72,0,22.89.32,33-.24,2.3-.13,6-3.09,6.3-5.17.63-4.06-3.32-4.05-6.39-4.05H603.46l13.43-25.36-4.27-2.12ZM172.72,337.29,153,324.07l26.72-2.28c-9.41-10.68-19.83-3.9-28.42-7.25l8.35-13.39c-8.28-4.27-9.05,4.5-12.82,6-1.53-10-3.05-20-4.57-29.93l-4,.3v31c-5.32-1.67-6.68-9.39-15-5.92l9.65,13.6-25.57,1.42c6.48,9.89,15.41,5.26,22.08,7.53-.82,4.84-9.14,6.65-4.2,14.72l13-10.86c0,9.29-.09,17.76,0,26.22.05,3.48-1,8.45,4.4,8.39,5-.05,4.07-4.81,4.11-8.16.11-8.69,0-17.37,0-26.29C153.84,332.34,157.64,340.63,172.72,337.29Zm-3.21,383.1c-9.26,4.16-22.5-1.73-22.27,5.32.33,10.16,13.67,2,20.33,6.1-2.79,4.23-10.32,5.82-7.42,14.73l11.37-7.12c2.67,7.05-1.83,15.59,5.84,21.9,8.42-8,1.53-17.91,4.35-26,6.85.33,9.48,10.82,19.24,7.18l-5.45-8.79c6.21-2.39,16.05,2.82,19.09-9.47H187.37L196,713.57c-7.93-4.22-9.76,4.72-14.17,5.25-3.29-7.44,2.9-16.58-7-25.29-1.31,8.54-2.26,14.72-3.23,20.89-4.21-.46-6.89-8-14.51-1.38ZM723.36,259.33c-1.12-3.41-2.17-6.62-4.71-14.33-2.26,7.82-3.16,10.93-4.09,14.17l-4.39-1.09c-4.8,4.22,1.3,7,1.23,10.4-6.07,2.76-14.88-3-20.68,6.92l16.56,2c-1,4.74-8.56,6.84-4.47,14.58l10.77-10.15c2.31,7.86-2.89,16.77,3.64,24.64,7.71-6,2.57-14.29,5-20.23l16.1,7.45-11.26-15.3c8-.39,16.07,3.36,25.54-4.67-6.31-1.38-10.26-2.42-14.28-3.06-4.3-.67-8.66-.95-13.17-1.43,1.56-4.73,8.08-6.72,4.34-13.41Z"/><path class="cls-3" d="M636,547.06l-44.12-10.82C621.32,488,621.61,435.4,615.09,381.77l128,29.3c-2.09,51.27,1.77,103.75-30.19,149l-23-1.1-16.09-3.54-5.76-.76-14.21-3.36-2.89-.42Zm80.9-52.16c4.28-5.82,6.36-8.16,7.71-10.87.31-.62-2.15-3.73-2.91-3.58-2.15.44-5.06,1.52-5.85,3.2C715,485.5,716.14,488.3,716.9,494.9Zm13.72-73.36c-3.58-2-5.57-3.87-7.72-4.08-1.16-.12-4,3.29-3.66,3.87,1.06,2,2.91,4.25,4.93,4.87C725.34,426.56,727.41,424,730.62,421.54Zm-7.51,23.65c-2.26,3.17-4.27,4.88-4.57,6.86-.17,1.11,2.8,3.95,3.8,3.71a6.74,6.74,0,0,0,4.26-4.15C726.93,450.27,724.94,448.36,723.11,445.19Zm-17.52,78c4.8-1.73,7.35-2,8.61-3.34.84-.93.41-3.91-.52-5.23-.65-.91-4.07-1.29-4.56-.64C707.8,515.76,707.37,518.21,705.59,523.19Zm-1.24,20.25c-1.84-4.35-4.1-5.29-8.53-2.89.49,2.26,1,4.72,2,9Z"/><path class="cls-3" d="M503,340.91c32,5.84,64,11.5,95.87,17.63,9.58,1.84,9,10.59,10.25,17.82.69,6.24,1.51,12.46,2.05,18.7,4.33,49.75.91,98.11-25.67,142.28-7.51,22-24.22,14.48-38.77,11.45C520.68,543.37,494.81,537,468.85,531c24.27-16.33,40-39.14,46.25-67.26C524.47,421.75,543.6,378.2,503,340.91Z"/><path class="cls-3" d="M798.31,554.3c-3.47,10.52-10.51,18.18-21.73,16.84-19.67-2.35-39.12-6.66-58.66-10.16,5.82-10.24,13.2-19.91,17.16-30.82C749,492,748.55,452,747.68,412.1c13.51,1.7,27,4.12,40.53,5,30.64,1.91,34.55,22.19,33.19,46.55l-4.14,1.75c-4.47,22.76-4,46.27-13.19,68C801.28,540,800.18,547.29,798.31,554.3Z"/><path class="cls-3" d="M887.06,553.3c-9.79,18.36-25.28,8.75-38.62,7.32-15.64-1.68-31.12-4.94-46.67-7.52,15.57-27.67,21-57.64,20.22-89,18.08,3.56,36.13,7.33,54.26,10.62,19.14,3.48,25.59,14.88,21.73,33.21L892.59,509C895.92,524.69,882.14,537.63,887.06,553.3Z"/><path class="cls-3" d="M462.15,530.67c-31.51-3.43-38.41-26.29-38.25-51.89.3-49,6-96.94,44.57-133.4,6.53-6.16,15.3-5.68,23.58-6.18,40.31,28,27.61,67.16,21.47,104.55C507.7,479.18,490.18,508.14,462.15,530.67Zm28-173.58c-13.21-.17-20.79,2.73-24.64,10.34-16.72,33.06-28.2,68-27.81,105.25.14,14.09-.1,33.8,18.88,36.92,16.82,2.76,22.4-14.31,29.9-26.33,17.23-27.62,21.9-58.1,18.93-89.53C504.08,379.83,507.35,361.07,490.14,357.09Z"/><path class="cls-4" d="M653.93,551.27l14.21,3.36-12,128.61c0,2.71,0,5.41,0,8.12q-1,32.14-2,64.3l-.93,11Q649.07,813.32,645,860l-14-.81Q635,813,638.91,766.78c.33-3,.67-6.09,1-9.13q1-30.36,2.06-60.71c0-2.86,0-5.72-.05-8.58Q647.92,619.82,653.93,551.27Z"/><path class="cls-4" d="M636,547.06l15,3.79c-2.09,9.52-3.31,19.35-6.45,28.51-9.8,28.61-20.33,57-30.58,85.43l-3.3,8.29L585,738.78l-5.95,11q-12.52,25.62-25,51.25l-11.11-7.38c37-73.24,63.26-150.76,90.19-228C635.16,559.85,635.09,553.29,636,547.06Z"/><path class="cls-4" d="M673.9,555.39,690,558.93q17.73,69,35.48,137.9c8.62,33.28,17.47,66.49,26.21,99.73l-13.54,3.65q-9.12-30.65-18.25-61.3L717,727.62q-6.53-25.62-13-51.24l-2-7Q687.93,612.38,673.9,555.39Z"/><path class="cls-5" d="M210.28,459.78c0-10.3-.06-20.08,0-29.86,0-3.56.24-7.75,5-7.7s4.37,4.22,4.39,7.54c.05,10.56,0,21.12,0,34.24l13.58-19.9,5.8,2.81-14.77,24.54c10.16,0,19.9-.21,29.62.11,3.53.12,9-.41,8.63,5.11s-5.5,4.09-9.13,4.13c-9.26.09-18.51,0-28.73,0l12.37,19.31c-10.83,2.26-13.06-5.21-17.58-9.46-3.51,15,3,31.94-9.63,45.33V493.67c-8.54,3-15.71,18.29-19.89,11.65C183.9,495.59,203.37,493,205.16,483c-9,0-18.5.29-28-.22-2.16-.12-4.18-3-6.26-4.62,2.09-1.4,4.09-3.81,6.29-4,9.7-.88,19.46-1.11,28.75-1.56.05-11-19.11-11.58-12.94-21.94C196.19,445.35,203.45,456.63,210.28,459.78Z"/><path class="cls-5" d="M369.68,684.14c-9.24-5.27-27,6-27.92-6.2-.7-8.78,18.09-.43,28.16-5.08-3.57-5.9-7.32-12.12-12.16-20.14,11.44-1.24,12.37,8.87,19.23,14.36,0-13.08-.23-24.49.23-35.86.08-1.84,3.28-3.55,5-5.32,1.24,2,3.48,4,3.55,6.11.36,10.88.17,21.78.17,32.8,6-2.78,7.18-13.63,19-12.34l-16.36,21.34C399.72,674.92,410,676,420.31,677c3.55.33,8.41-.6,8.24,4.7s-5,4.52-8.55,4.3c-9.43-.6-18.84-1.51-29-2.37,4.57,7.77,16.82,7.8,17.61,22l-24.55-15c0,15.38.21,29.28-.2,43.16-.08,2.46-2.78,4.84-4.27,7.26-1.51-2.38-4.25-4.72-4.32-7.14-.42-13.61-.2-27.25-.2-40.77-6.08,2.22-12.15,15.55-16.82,9.6C351.38,694,369.85,693.17,369.68,684.14Z"/><path class="cls-5" d="M597,184.2l15.58-22.45,4.27,2.12-13.43,25.36h25.89c3.07,0,7,0,6.39,4.05-.32,2.08-4,5-6.3,5.17-10.12.56-20.29.24-33,.24L615.55,216c-9.82,6-13.8-3.78-20.54-5.27,0,9.87.27,19.46-.23,29-.1,2-3.07,3.83-4.72,5.74-1.35-2-3.8-3.94-3.87-6-.38-11.14-.18-22.3-.18-34.52-6.37,4.78-9.93,13-21.92,12.74,6.14-7.42,10.86-13.14,15.48-18.74-8.59-5.69-26.75,2.77-26.7-8.07,0-9.25,16.85,0,26.29-3.57l-10.91-22.79,4.37-2.57,13.25,19.87c.8-12.44,1.32-24.44,2.56-36.36.22-2.09,3.47-3.85,5.33-5.76,1.09,2.22,3.07,4.42,3.13,6.67C597.2,158.64,597,170.92,597,184.2Z"/><path class="cls-5" d="M172.72,337.29c-15.08,3.34-18.88-5-26-8.07,0,8.92.07,17.6,0,26.29,0,3.35.87,8.11-4.11,8.16-5.37.06-4.35-4.91-4.4-8.39-.13-8.46,0-16.93,0-26.22l-13,10.86c-4.94-8.07,3.38-9.88,4.2-14.72-6.67-2.27-15.6,2.36-22.08-7.53l25.57-1.42-9.65-13.6c8.37-3.47,9.73,4.25,15,5.92v-31l4-.3c1.52,9.94,3,19.89,4.57,29.93,3.77-1.52,4.54-10.29,12.82-6l-8.35,13.39c8.59,3.35,19-3.43,28.42,7.25L153,324.07Zm-42-12.65c-.08-.09-.16-.25-.26-.26s-.2.13-.31.2A2.21,2.21,0,0,0,130.71,324.64Z"/><path class="cls-5" d="M169.51,720.39,157.12,713c7.62-6.62,10.3.92,14.52,1.39,1-6.18,1.91-12.36,3.22-20.9,9.88,8.71,3.69,17.85,7,25.29,4.41-.53,6.24-9.47,14.17-5.25l-8.64,10.64h27.22c-3,12.29-12.88,7.08-19.08,9.49l5.44,8.77c-9.76,3.64-12.39-6.85-19.24-7.18-2.82,8.12,4.07,18-4.35,26-7.67-6.31-3.17-14.85-5.84-21.9l-11.37,7.12c-2.9-8.91,4.63-10.5,7.42-14.73-6.66-4-20,4.06-20.33-6.1C147,718.66,160.25,724.55,169.51,720.39Z"/><path class="cls-6" d="M462.15,530.67c28-22.53,45.55-51.49,51.37-86.92,6.14-37.39,18.84-76.53-21.47-104.55l9.11.92,1.92.82-.05,0c40.57,37.29,21.44,80.84,12.07,122.81-6.27,28.12-22,50.93-46.25,67.26Z"/><path class="cls-7" d="M717,727.62l2.94,11.29-33.06-22.09c-9.33,18.39-16.89,37.25-33.69,49.85l.93-11c11.85-12.87,19.62-28.07,25.82-43.65l-23.82-20.65c0-2.71,0-5.41,0-8.12l26.16,19.67c9.8-9.7,7.1-25.89,19.67-33.53l2,7-14.56,32.7Z"/><path class="cls-7" d="M579.08,749.8l5.95-11,32.76-31.06c-2.51-12.3-4.8-23.47-7.08-34.64l3.3-8.29c9.38,10.33,4.49,25.1,11.31,36.23q8.26-6.32,16.6-12.66c0,2.86,0,5.72.05,8.58L626.4,711.15c4.44,15.3,9,30.9,13.51,46.5-.33,3-.67,6.09-1,9.13-10.79-4-8.4-14.35-10.77-22.42-2.71-9.2-5.56-18.35-8.47-27.93C606,727.7,597.84,745.29,579.08,749.8Z"/><path class="cls-6" d="M887.06,553.3c-4.92-15.67,8.86-28.61,5.53-44.35L898,507.9c8,2.12,19.95.47,13.73,15.61,7.24.7,10,4.58,8.54,10.92C919,540.1,918.73,547,910,546.06,906.33,561.82,895.7,554.29,887.06,553.3Z"/><path class="cls-5" d="M723.36,259.33l6.15-3.53c3.74,6.69-2.78,8.68-4.34,13.41,4.51.48,8.87.76,13.17,1.43,4,.64,8,1.68,14.28,3.06-9.47,8-17.55,4.28-25.54,4.67l11.26,15.3-16.1-7.45c-2.45,5.94,2.69,14.22-5,20.23-6.53-7.87-1.33-16.78-3.64-24.64L702.81,292c-4.09-7.74,3.44-9.84,4.47-14.58l-16.56-2c5.8-9.89,14.61-4.16,20.68-6.92.07-3.37-6-6.18-1.23-10.4l4.39,1.09c.93-3.24,1.83-6.35,4.09-14.17C721.19,252.71,722.24,255.92,723.36,259.33Z"/><path class="cls-6" d="M585.53,537.34c26.58-44.17,30-92.53,25.67-142.28-.54-6.24-1.36-12.46-2.05-18.7l5.94,5.41c6.52,53.63,6.23,106.24-23.21,154.47Z"/><path class="cls-6" d="M747.68,412.1C748.55,452,749,492,735.08,530.16c-4,10.91-11.34,20.58-17.16,30.82l-5-.94c32-45.22,28.1-97.7,30.19-149Z"/><path class="cls-6" d="M822,464.07c.82,31.39-4.65,61.36-20.22,89l-3.47,1.2c1.88-7,3-14.34,5.77-20.95,9.16-21.72,8.72-45.23,13.19-68l4.14-1.75A.72.72,0,0,1,822,464.07Z"/><path class="cls-7" d="M631.06,859.16l14,.81c5,8.11,3.79,16.09-2,22.86-3.46,4.06-9.19,3.62-12.24-.76C625.71,874.75,625.52,866.74,631.06,859.16Z"/><path class="cls-7" d="M542.93,793.67,554,801.05c-1.47,7.69-2.3,16.1-11.18,19-4.51,1.47-9.26-.92-9.76-6C532.25,805.64,535.41,798.43,542.93,793.67Z"/><path class="cls-7" d="M738.14,800.21l13.54-3.65c5.32,5.16,7.06,11.38,3.77,18a7,7,0,0,1-10.38,2.75C739.3,813.36,736.9,807.35,738.14,800.21Z"/><path class="cls-3" d="M503.08,340.94l-1.92-.82Z"/><path class="cls-2" d="M701.94,669.38c-12.57,7.64-9.87,23.83-19.67,33.53l-26.16-19.67,12-128.61,5.76.76Q687.93,612.39,701.94,669.38Z"/><path class="cls-2" d="M641.92,688.36q-8.32,6.33-16.6,12.66c-6.82-11.13-1.93-25.9-11.31-36.23,10.25-28.46,20.78-56.82,30.58-85.43,3.14-9.16,4.36-19,6.45-28.51l2.89.42Q647.93,619.82,641.92,688.36Z"/><path class="cls-6" d="M716.9,494.9c-.76-6.6-1.92-9.4-1-11.25.79-1.68,3.7-2.76,5.85-3.2.76-.15,3.22,3,2.91,3.58C723.26,486.74,721.18,489.08,716.9,494.9Z"/><path class="cls-6" d="M730.62,421.54c-3.21,2.43-5.28,5-6.45,4.66-2-.62-3.87-2.86-4.93-4.87-.3-.58,2.5-4,3.66-3.87C725.05,417.67,727,419.51,730.62,421.54Z"/><path class="cls-6" d="M723.11,445.19c1.83,3.17,3.82,5.08,3.49,6.42a6.74,6.74,0,0,1-4.26,4.15c-1,.24-4-2.6-3.8-3.71C718.84,450.07,720.85,448.36,723.11,445.19Z"/><path class="cls-6" d="M705.59,523.19c1.78-5,2.21-7.43,3.53-9.21.49-.65,3.91-.27,4.56.64.93,1.32,1.36,4.3.52,5.23C712.94,521.24,710.39,521.46,705.59,523.19Z"/><path class="cls-6" d="M704.35,543.44l-6.56,6.12c-.94-4.29-1.48-6.75-2-9C700.25,538.15,702.51,539.09,704.35,543.44Z"/><path class="cls-6" d="M490.14,357.09c17.21,4,13.94,22.74,15.26,36.65,3,31.43-1.7,61.91-18.93,89.53-7.5,12-13.08,29.09-29.9,26.33-19-3.12-18.74-22.83-18.88-36.92-.39-37.28,11.09-72.19,27.81-105.25C469.35,359.82,476.93,356.92,490.14,357.09ZM465,477c3.5-1.45,7-1.85,7.7-3.45.84-2-.67-5-1.29-8.24L465,467.83Zm8.69-71.92c-2.07,6.1-3.3,8.58-3.55,11.16-.08.81,2.71,2.83,3.81,2.58,1.54-.34,3.87-2.33,3.81-3.52C477.69,413,476.14,410.81,473.72,405.09Zm2.52-26.91h-5.73c-2.41,4.19-2.35,7.29,2.82,8.85C477.53,385.17,478.23,382.33,476.24,378.18Zm9.65,55.19c-6.34,1.65-6.63,4.54-5.24,9.59,2.36-.65,6.07-.72,6.58-2C488,439,486.49,436.13,485.89,433.37Zm-25.18,16.48c-1.91-4.79-2.56-7.14-3.81-9.13-.43-.68-2.95-1-3.46-.5-1.53,1.57-2.54,3.64-4.6,6.85Zm23.62-60.35q-2.11,2.85-4.25,5.68a46.76,46.76,0,0,0,7.57,1.58c1.39.07,3.69-.78,4.06-1.78.5-1.34,0-4.23-.9-4.68C489,389.4,486.53,389.7,484.33,389.5Z"/><path class="cls-2" d="M656.07,691.36,679.89,712c-6.2,15.58-14,30.78-25.82,43.65Q655.08,723.52,656.07,691.36Z"/><path class="cls-2" d="M639.91,757.65c-4.53-15.6-9.07-31.2-13.51-46.5L642,696.94Q640.93,727.3,639.91,757.65Z"/><path class="cls-2" d="M610.71,673.08c2.28,11.17,4.57,22.34,7.08,34.64L585,738.78Z"/><path class="cls-2" d="M717,727.62l-27.59-18.54,14.56-32.7Q710.43,702,717,727.62Z"/><path class="cls-2" d="M130.71,324.66a3.72,3.72,0,0,1-.57-.08c.11-.07.22-.21.31-.2S130.63,324.55,130.71,324.66Z"/><path class="cls-2" d="M465,477v-9.18l6.41-2.51c.62,3.25,2.13,6.23,1.29,8.24C472.06,475.16,468.53,475.56,465,477Z"/><path class="cls-2" d="M473.72,405.09c2.42,5.72,4,7.94,4.07,10.22.06,1.19-2.27,3.18-3.81,3.52-1.1.25-3.89-1.77-3.81-2.58C470.42,413.67,471.65,411.19,473.72,405.09Z"/><path class="cls-2" d="M476.24,378.18c2,4.15,1.29,7-2.91,8.85-5.17-1.56-5.23-4.66-2.82-8.85Z"/><path class="cls-2" d="M485.89,433.37c.6,2.76,2.1,5.6,1.34,7.55-.51,1.32-4.22,1.39-6.58,2C479.26,437.91,479.55,435,485.89,433.37Z"/><path class="cls-4" d="M460.71,449.85l-11.87-2.78c2.06-3.21,3.07-5.28,4.6-6.85.51-.53,3-.18,3.46.5C458.15,442.71,458.8,445.06,460.71,449.85Z"/><path class="cls-4" d="M484.33,389.5c2.2.2,4.63-.1,6.48.8.92.45,1.4,3.34.9,4.68-.37,1-2.67,1.85-4.06,1.78a46.76,46.76,0,0,1-7.57-1.58Q482.21,392.35,484.33,389.5Z"/></g><g id="Layer_2" data-name="Layer 2"><text class="cls-8" transform="translate(210.33 863)">2020/11/29<tspan x="0" y="28.8">O</tspan><tspan class="cls-9" x="16.54" y="28.8">r</tspan><tspan x="24.48" y="28.8">i</tspan><tspan class="cls-10" x="30.1" y="28.8">g</tspan><tspan x="43.37" y="28.8">inal: </tspan><tspan class="cls-11" x="89.59" y="28.8">S</tspan><tspan class="cls-12" x="101.49" y="28.8">an</tspan><tspan class="cls-13" x="126.38" y="28.8">n</tspan><tspan class="cls-12" x="139.39" y="28.8">y </tspan><tspan class="cls-14" x="155.78" y="28.8">v</tspan><tspan x="167.23" y="28.8">an </tspan><tspan class="cls-15" x="197.2" y="28.8">L</tspan><tspan class="cls-12" x="208.2" y="28.8">oon</tspan></text></g></svg>