<svg xmlns="http://www.w3.org/2000/svg" viewBox="0 0 1024 1024"><defs><style>.cls-1{fill:#f2f2f2;}.cls-2{fill:#fefefe;}.cls-3{fill:#d97c6d;}.cls-4{fill:#0f0908;}.cls-5{fill:#d87b6c;}.cls-6{fill:#835422;}.cls-7{fill:#f6f6f6;}.cls-8{font-size:24px;font-family:MyriadPro-Regular, Myriad Pro;}.cls-9{letter-spacing:0em;}.cls-10{letter-spacing:-0.01em;}.cls-11{letter-spacing:0em;}.cls-12{letter-spacing:0em;}.cls-13{letter-spacing:-0.01em;}.cls-14{letter-spacing:0em;}.cls-15{letter-spacing:-0.01em;}</style></defs><g id="Layer_1" data-name="Layer 1"><rect class="cls-1" x="1" y="-596" width="1023" height="2216"/><path class="cls-2" d="M0,0H1024V1024H0ZM760.24,543.86c2.2-31.53,4.37-63.06-10.09-92.78-.87-2.39-1.73-4.79-2.6-7.18,1.22-5.12,1-11.27,3.88-15.2,16.81-23.16,25.75-48.48,29.83-77.09,8-56.23,12.31-111.26-31.43-156-47.13-48.2-107-55.81-170.23-47.84-45.47,5.72-91.78,14.84-121.72,52.41-51.23,64.29-72,140.3-72.93,222l-6.81,5.56c-12.45,7.76-24.75,15.78-37.39,23.22-16,9.41-31.27,19.45-41.05,35.87l-5.79,9.08c-15.35,40.87,5.37,76.47,16.58,113.46q-2.34,6.4-4.69,12.8c-9.55,32.62-18.5,65.16,11.57,92.84a90.2,90.2,0,0,0-10,54.06c2.67,22.79,13.28,45.19-.1,68.62-5,8.77-12.63,26.92,9.18,23.54,20.34-3.16,32.85-22.8,33.5-41.42,1-28.94,2.65-57,14.39-83.69,20,5,40.34,9.08,60.07,15.07,61.74,18.74,125,19,188.53,16.78,12.17,13.85,12,29.3,7.94,46.39-5.27,21.92-3.89,43.73,9.22,63.19,5.44,8.07,14.09,11,23.26,8.15,6.79-2.11,8.56-8.28,6.85-15.18a72.94,72.94,0,0,1,.29-35.83c6.57-26.76,20.87-52.61,11.07-81.62,37-21.39,33-56,29.17-90.56l4.05-5.52c18.44-35.5,51.32-63.73,53.95-107.19Z"/><path class="cls-3" d="M385,422.19c.93-81.69,21.7-157.7,72.93-222,29.94-37.57,76.25-46.69,121.72-52.41,63.26-8,123.1-.36,170.23,47.84,43.74,44.72,39.43,99.75,31.43,156-4.08,28.61-13,53.93-29.83,77.09-2.85,3.93-2.66,10.08-3.88,15.19-23.36-11.6-40.11-1.46-54.29,17.27l-48.21-19.3-5-3L620.9,428.21l-1.91-.45L600.27,419c-14.25-3.16-9.55,10.6-14.25,16l-8,15.84L563.9,476l-6,12.15-8.12,15c-36.37-3.41-70.73,9.09-106.34,13.45C435.85,477.71,441.59,430.55,385,422.19Z"/><path class="cls-3" d="M700.77,662.52c3.86,34.57,7.84,69.17-29.17,90.56L613,768c-63.54,2.27-126.79,2-188.53-16.78-19.73-6-40-10.1-60.07-15.07l-47-21.11c-30.07-27.68-21.12-60.22-11.57-92.84.28,20.85,10.45,34.54,29.8,42,18.32,7.07,36,16,54.78,21.63C474.79,711,560.73,708.94,646.76,697c19.45-2.69,42.28-5.49,43.19-34.51Z"/><path class="cls-4" d="M700.77,662.52H690c-.91,29-23.74,31.82-43.19,34.51-86,11.91-172,14-256.38-11.22-18.74-5.6-36.46-14.56-54.78-21.63-19.35-7.46-29.52-21.15-29.8-42q2.34-6.39,4.69-12.8c3.6-.53,7.17-1.22,10.78-1.57,17.92-1.72,39.76,1.7,32.86-29-2.3-10.24-1.51-21.17-2.27-31.78-3-41.69-27.17-63-57.95-51.15l5.79-9.08c33.13-1,47.91,10.15,54.91,45.66,4.3,21.81,4.82,44.35,7.13,67.54,17.9-9.22,35-19.2,46.81-36.18,17.77-25.64,34.08-49.88,23.94-85.5-9.95-35-20.43-49.27-54.35-50.61l6.81-5.56c56.64,8.36,50.9,55.52,58.45,94.38,35.61-4.36,70-16.86,106.34-13.45q-1.74,3-3.5,5.94c-27.39-2.87-53.32,6.76-80,9.11-17.79,1.57-29.79,8.21-37.69,24.06-18.67,37.44-48.24,60.74-89.58,69.69-9,1.94-23.73-5.27-26.39,8.32-3.08,15.74,4.72,28.93,20.16,36.27,54.35,25.82,111.53,40.41,171.69,42.23,54.78,1.65,109.58,1.41,163-13.28,16.48-4.53,24-15.42,11.16-31.18-6-7.38-8.07-15.6-10.57-24.28-4.48-15.59-5.36-31,1.26-55.29l-15.14,31v-27c-15.6,3-16.6,13.45-15.41,25.2l-13.91-6.85c12.59-7.56,10.55-18.42,7.43-30.32-9.93,7.17-22.51,11.62-17.08,27.16l-14.21-5,11.61-9.11c-18.88-24.57,29.8-32.28,14.09-58.63-6.53,4.22-14.8,6.26-15.45,17-.49,7.94,4.34,18.26-7,22.47-12.27,4.54-17.84,12.11-14.07,25.25l-17.68-6.24c13.34-7.41,14.62-19.26,12.15-31.75C572,552.8,563.42,561,564.79,576l-15.74-7c7.91-7.67,23.06-12.54,10.61-28.58-8.27,6.71-20.81,9.76-17.91,24.5-6.5-1-10.57-5.14-13.62-10.58,19.64-4.23,8.42-18.22,9-28.47l3.69-5.9c17.74-4.18,21-16.11,17-31.87l6-12.15L578,467.54v-16.7L586,435l11.85-3.5c.86-4.44,1.63-8.45,2.4-12.46L619,427.76c-15.21,7.48-21.1,19.73-14.07,29.25,16.37-10.24,16.37-10.24,16-28.8L640,438.88c-14.15,4-17,14.36-15,27.21.26,1.68,1.58,3.19,2.38,4.72l17.62-11V441.86l48.21,19.3c14.18-18.73,30.93-28.87,54.29-17.27.87,2.4,1.73,4.8,2.6,7.19C728.78,438.39,711.93,444,699,463.29l13.13,10.42c-17.93,3.16-19.78,14.93-16.61,30.85l15.16-7.19c-4.32,8.94-8,18.31-13.11,26.74-15.08,24.68-29.14,49.54-27,77.77,7.7-17.18,15.82-36.42,24.88-55.2,8.29-17.18,22.27-24.17,41.15-19.39,9.85,2.5,20.64,4.11,23.64,16.57l-1.47,5.95c-21.14-28.1-46.32-25.31-61.78,7.11-6.15,12.9-11.89,26-17.11,39.36-14,35.66-3.46,60.84,24.94,60.72Zm-12.09-200.4c-15.91,3.94-22.5,14.29-16.46,31.13-20.11,4.48-21.28,18-18.63,34,9.75-3.74,19.33-6.93,18.38-20.72-.4-5.91-2.6-13.71,4.81-16.73C690.57,484.16,695.85,475.69,688.68,462.12Zm-126.86,76c7.67-2.09,16-6.68,18.49-14.31,2.28-6.93,3.66-23.15-.51-22.27C562.26,505.26,554.61,518.32,561.82,538.14Zm40.3-77.69c-21.61,3.52-20.7,19.25-19.47,35.32C596.6,496.64,608.51,474.23,602.12,460.45ZM632.64,566c15-8.24,27.37-17.72,19.1-37.22C637.77,537.23,625.27,546.6,632.64,566Zm-3.75-45.6c7.28-6.46,15-11.08,19.34-17.89,3.39-5.37,2.5-13.44,3.64-21.2C635.1,486,625.13,502.63,628.89,520.42Zm-23.31-11.23c-22.41,17-22.6,17.31-19.07,35.39C602,538,613.88,528.92,605.58,509.19Zm87.47-2.12c-14.63,3.61-22.47,12.57-19.29,28.76.2,1,3.18,2.66,4.08,2.26C691.36,532,697.93,522.18,693.05,507.07ZM625.37,471c-6.41,4.82-13.8,8-17.21,13.64-3.23,5.33-2.3,13.2-3.52,22.4C617,496.77,631.25,491.33,625.37,471Zm46.9,93.07v-22.9c-18.6,5-17.95,18.33-14.41,33.42ZM663,454.35c-13.81,3.8-18.43,12-12.45,25.68L665,471C664.33,465.35,663.62,459.69,663,454.35Z"/><path class="cls-5" d="M378.14,427.75c33.92,1.34,44.4,15.62,54.35,50.61,10.14,35.62-6.17,59.86-23.94,85.5-11.77,17-28.91,27-46.81,36.18-2.31-23.19-2.83-45.73-7.13-67.54-7-35.51-21.78-46.63-54.91-45.66,9.78-16.42,25.08-26.46,41.05-35.87C353.39,443.53,365.69,435.51,378.14,427.75Z"/><path class="cls-5" d="M704.82,657c-28.4.12-38.9-25.06-24.94-60.72,5.22-13.32,11-26.46,17.11-39.36,15.46-32.42,40.64-35.21,61.78-7.11C756.14,593.27,723.26,621.5,704.82,657Z"/><path class="cls-5" d="M293.91,495.92c30.78-11.88,55,9.46,57.95,51.15.76,10.61,0,21.54,2.27,31.78,6.9,30.66-14.94,27.24-32.86,29-3.61.35-7.18,1-10.78,1.57C299.28,572.39,278.56,536.79,293.91,495.92Z"/><path class="cls-6" d="M317.37,715l47,21.11C352.63,762.87,351,790.88,350,819.82c-.65,18.62-13.16,38.26-33.5,41.42-21.81,3.38-14.2-14.77-9.18-23.54,13.38-23.43,2.77-45.83.1-68.62A90.2,90.2,0,0,1,317.37,715Z"/><path class="cls-6" d="M613,768l58.63-14.9c9.8,29-4.5,54.86-11.07,81.62a72.94,72.94,0,0,0-.29,35.83c1.71,6.9-.06,13.07-6.85,15.18-9.17,2.86-17.82-.08-23.26-8.15-13.11-19.46-14.49-41.27-9.22-63.19C625,797.28,625.14,781.83,613,768Z"/><path class="cls-5" d="M712.09,473.71,699,463.29c13-19.26,29.82-24.9,51.19-12.21,14.46,29.72,12.29,61.25,10.09,92.78-3-12.46-13.79-14.07-23.64-16.57-18.88-4.78-32.86,2.21-41.15,19.39-9.06,18.78-17.18,38-24.88,55.2-2.18-28.23,11.88-53.09,27-77.77,5.15-8.43,8.79-17.8,13.11-26.74C713.36,489.62,724.28,482.37,712.09,473.71Z"/><path class="cls-7" d="M645.05,441.86v17.91l-17.62,11c-.8-1.53-2.12-3-2.38-4.72-2-12.85.81-23.19,15-27.21Z"/><path class="cls-7" d="M620.9,428.21c.39,18.56.39,18.56-16,28.8-7-9.52-1.14-21.77,14.07-29.25Z"/><path class="cls-7" d="M546.24,509.06q1.75-3,3.5-5.94l8.12-15c3.94,15.76.7,27.69-17,31.87Z"/><path class="cls-7" d="M578,450.84v16.7L563.9,476Z"/><path class="cls-7" d="M600.27,419c-.77,4-1.54,8-2.4,12.46L586,435C590.72,429.64,586,415.88,600.27,419Z"/><path class="cls-5" d="M546.24,509.06,540.82,520l-3.69,5.9c-2.61,9.61-11.53,17.23-9,28.47,3,5.44,7.12,9.57,13.62,10.58l7.3,4.08,15.74,7,7.59,3.67,17.68,6.24,10.84,3,14.21,5,9.65,3.16,13.91,6.85c5,1.67,9.69,6.14,15.41,1.82l15.14-31C662.6,599,663.48,614.41,668,630c2.5,8.68,4.58,16.9,10.57,24.28,12.81,15.76,5.32,26.65-11.16,31.18-53.39,14.69-108.19,14.93-163,13.28-60.16-1.82-117.34-16.41-171.69-42.23-15.44-7.34-23.24-20.53-20.16-36.27,2.66-13.59,17.41-6.38,26.39-8.32,41.34-8.95,70.91-32.25,89.58-69.69,7.9-15.85,19.9-22.49,37.69-24.06C492.92,515.82,518.85,506.19,546.24,509.06Z"/><path class="cls-7" d="M600.9,589l-10.84-3c-3.77-13.14,1.8-20.71,14.07-25.25,11.36-4.21,6.53-14.53,7-22.47.65-10.72,8.92-12.76,15.45-17,15.71,26.35-33,34.06-14.09,58.63Z"/><path class="cls-7" d="M688.68,462.12c7.17,13.57,1.89,22-11.9,27.65-7.41,3-5.21,10.82-4.81,16.73.95,13.79-8.63,17-18.38,20.72-2.65-16-1.48-29.49,18.63-34C666.18,476.41,672.77,466.06,688.68,462.12Z"/><path class="cls-7" d="M561.82,538.14c-7.21-19.82.44-32.88,18-36.58,4.17-.88,2.79,15.34.51,22.27C577.8,531.46,569.49,536.05,561.82,538.14Z"/><path class="cls-7" d="M602.12,460.45c6.39,13.78-5.52,36.19-19.47,35.32C581.42,479.7,580.51,464,602.12,460.45Z"/><path class="cls-7" d="M632.63,566c-7.36-19.43,5.14-28.8,19.11-37.23C660,548.3,647.59,557.78,632.63,566Z"/><path class="cls-7" d="M628.89,520.42c-3.76-17.79,6.21-34.46,23-39.09-1.14,7.76-.25,15.83-3.64,21.2C643.93,509.34,636.17,514,628.89,520.42Z"/><path class="cls-7" d="M605.58,509.19c8.3,19.73-3.61,28.8-19.07,35.39C583,526.5,583.17,526.15,605.58,509.19Z"/><path class="cls-7" d="M712.09,473.71c12.19,8.66,1.27,15.91-1.45,23.66l-15.16,7.19C692.31,488.64,694.16,476.87,712.09,473.71Z"/><path class="cls-7" d="M693.05,507.07c4.88,15.11-1.69,24.94-15.21,31-.9.4-3.88-1.23-4.08-2.26C670.58,519.64,678.42,510.68,693.05,507.07Z"/><path class="cls-7" d="M572.38,579.67,564.79,576c-1.37-15,7.24-23.2,19.74-28.08C587,560.41,585.72,572.26,572.38,579.67Z"/><path class="cls-7" d="M624.76,597.07l-9.65-3.16c-5.43-15.54,7.15-20,17.08-27.16C635.31,578.65,637.35,589.51,624.76,597.07Z"/><path class="cls-7" d="M625.37,471c5.88,20.35-8.36,25.79-20.73,36,1.22-9.2.29-17.07,3.52-22.4C611.57,479,619,475.8,625.37,471Z"/><path class="cls-7" d="M549.05,569l-7.3-4.08c-2.9-14.74,9.64-17.79,17.91-24.5C572.11,556.5,557,561.37,549.05,569Z"/><path class="cls-7" d="M672.27,564.05l-14.41,10.52c-3.54-15.09-4.19-28.4,14.41-33.42Z"/><path class="cls-7" d="M654.08,605.74c-5.72,4.32-10.4-.15-15.41-1.82-1.19-11.75-.19-22.22,15.41-25.2Z"/><path class="cls-7" d="M663,454.35c.67,5.34,1.38,11,2.09,16.6L650.5,480C644.52,466.36,649.14,458.15,663,454.35Z"/><path class="cls-7" d="M528.13,554.38c-2.53-11.24,6.39-18.86,9-28.47C536.55,536.16,547.77,550.15,528.13,554.38Z"/></g><g id="Layer_2" data-name="Layer 2"><text class="cls-8" transform="translate(104.33 172)">2020/12/05<tspan x="0" y="28.8">O</tspan><tspan class="cls-9" x="16.54" y="28.8">r</tspan><tspan x="24.48" y="28.8">i</tspan><tspan class="cls-10" x="30.1" y="28.8">g</tspan><tspan x="43.37" y="28.8">inal: </tspan><tspan class="cls-11" x="89.59" y="28.8">S</tspan><tspan class="cls-12" x="101.49" y="28.8">an</tspan><tspan class="cls-13" x="126.38" y="28.8">n</tspan><tspan class="cls-12" x="139.39" y="28.8">y </tspan><tspan class="cls-14" x="155.78" y="28.8">v</tspan><tspan x="167.23" y="28.8">an </tspan><tspan class="cls-15" x="197.2" y="28.8">L</tspan><tspan class="cls-12" x="208.2" y="28.8">oon</tspan></text></g></svg>