<svg xmlns="http://www.w3.org/2000/svg" viewBox="0 0 1024 1024"><defs><style>.cls-1{fill:#f2f2f2;}.cls-2{fill:#fefefe;}.cls-3{fill:#e9dc33;}.cls-4{fill:#25afa0;}.cls-5{fill:#d99e1a;}.cls-6{fill:#d99f1c;}.cls-7{fill:#02201f;}.cls-8{font-size:24px;font-family:MyriadPro-Regular, Myriad Pro;}.cls-9{letter-spacing:0em;}.cls-10{letter-spacing:-0.01em;}.cls-11{letter-spacing:0em;}.cls-12{letter-spacing:0em;}.cls-13{letter-spacing:-0.01em;}.cls-14{letter-spacing:0em;}.cls-15{letter-spacing:-0.01em;}.cls-16{letter-spacing:0.02em;}.cls-17{letter-spacing:0.02em;}.cls-18{letter-spacing:0.02em;}</style></defs><title>Artboard 2</title><g id="Layer_1" data-name="Layer 1"><rect class="cls-1" x="0.5" y="-511.5" width="1023" height="2047"/><circle class="cls-2" cx="512" cy="512" r="724.08" transform="translate(-212.08 512) rotate(-45)"/><path class="cls-3" d="M600.32,606.9c-73.31,0-146.7-2-219.91.73-46.42,1.74-16.8-31.52-15.06-37.82C384,502.35,475,460.86,541.28,484.74c48.33,17.42,82.32,46.69,92.76,98.38C638.2,603.72,636.93,604,600.32,606.9Z"/><path class="cls-4" d="M591.09,696.9c13.68,15.76,9.31,27.22-11.1,35.14-32.12,12.45-64.77,9.63-97.45,3.9-21.15-3.71-28-14.13-13.33-32.92a104.94,104.94,0,0,0,5.74-9c-20.84-6.8-48.3,2.58-61.11-25.89-7,0-16.86,1.88-25.56-.44-13.13-3.49-12.21-12.52-3.56-22-5.05-.58-9.34-.67-13.43-1.63-6.89-1.61-14.4-3.43-13.66-12.81s6.47-11.64,15.53-11.64q109.32,0,218.63-1.08c9.49-.1,19-3.08,28.4-5,5.59-1.16,11.71-3.78,14.57,3.58s-3.53,9.37-8.33,11.88c-4.19,2.19-8.51,4.14-14.64,7.09,20.22,3.31,34.87,8.39,16.81,30.33,7.72,9.9,16.57,22.74-1.88,29.81C615.84,700.3,602.07,696.9,591.09,696.9Z"/><path class="cls-5" d="M623,512l-5.09.33c-10.64-16.13-24.5-29.21-42.12-37.44,67.08-71.94,138.16-138.7,202.78-212.69-2,4.66-3.74,9.48-6.14,13.94-42.74,79.44-92.84,154.14-146.07,226.82-1.84,2.51-2.3,6-3.4,9.08Z"/><path class="cls-5" d="M354.93,545.31c-6.47,19.62-10.92,39-11.41,58.74-6.52,3.11-251.36-3.33-254.12-7.42C175,564.54,266,562.48,354.93,545.31Z"/><path class="cls-5" d="M524.32,456.15l-49.87,2.49c7.37-99.47,1-198.66,3-297.88C503.29,257.54,511.23,356.84,524.32,456.15Z"/><path class="cls-6" d="M928.75,579.56c-10.4,7.74-273.41,25.9-278.81,22.1,5.23-16.24-2.66-31.81-3.28-47.54Z"/><path class="cls-5" d="M362.44,425.86a.44.44,0,0,1,.56.33,22.07,22.07,0,0,0,2.26,1.72l60.68,46.22c.75,1.54.19,2.76-.95,3.83L420.06,481c-1,.71-2.18,1-3.06,1.81L389,501c-2.44,1.36-3.68-.11-4.76-2-24.44-25-48.73-50.17-73.36-75-26.83-27.06-54-53.82-81-80.71A10.4,10.4,0,0,0,228,341l-1-1.15a17.9,17.9,0,0,0-5.36-5.73l-22.83-23.67a2.9,2.9,0,0,1,0-2.84l3.14.75c.86.66,2,.85,2.73,1.73l5.23,5c.78.56,1.4,1.29,2.2,1.82l9.84,7.2a7.38,7.38,0,0,0,2.56,1.71l.3,0,.14.26a10.68,10.68,0,0,0,2.33,1.8l2.65,2.19a9.22,9.22,0,0,0,2.41,1.79L234,333a8.41,8.41,0,0,0,2.4,1.83.48.48,0,0,1,.62.33,7.77,7.77,0,0,0,2.58,1.64L243,339c.82,1,2.09,1.22,3.07,2l1.89,1.2a24.69,24.69,0,0,0,2.34,1.72L253,346c1.49,1.31,2.58,3.1,4.53,3.86.27-.07.42,0,.47.3,1.15.86,2,2.1,3.32,2.74a.62.62,0,0,1,.69.46,26.29,26.29,0,0,0,2.35,1.53L266,356a6.6,6.6,0,0,0,2.57,1.82l.29,0,.15.24c.79.94,2.09,1.11,2.93,2l0,0a7.24,7.24,0,0,0,2.59,1.78L291,373.21a14.31,14.31,0,0,0,2.35,1.67L299,379a6.25,6.25,0,0,0,2.58,1.82l3.44,2.48c.77.5,1.44,1.13,2.25,1.59l1.7,1.24a20,20,0,0,0,2.33,1.75l4.72,3.39c.79.49,1.44,1.19,2.29,1.61l1.66,1.23a27.88,27.88,0,0,0,2.27,1.79l2.75,2.15a12.47,12.47,0,0,0,2.32,1.83.58.58,0,0,1,.7.38,19.36,19.36,0,0,0,2.34,1.6L339,408c.84.95,2.09,1.24,3.1,1.93L360,424.06A8.22,8.22,0,0,0,362.44,425.86Z"/><path class="cls-6" d="M472.33,457.56,432,473.35c-20.8-66.9-41.79-134.4-62.78-201.89C411.57,330,437.71,396.59,472.33,457.56Z"/><path class="cls-6" d="M609.34,295.27c-13.33,57.72-20.89,116.6-42.91,172l-40.55-10.47Z"/><path class="cls-6" d="M384.24,499l4.76,2c-12.21,12.61-28.7,21.68-32.76,40-46.33-24.48-93.87-46.24-138.14-79.09,16.38-2.36,27.5,5,39.53,7.93,40.12,9.83,78.67,25.92,120.18,30.23C379.89,500.25,382.1,499.37,384.24,499Z"/><path class="cls-6" d="M623,512c45.15-13,90.43-25.49,135.71-39.39l-113,77.67c-7-9.79-15.42-21.52-23.83-33.24.4-1.68.81-3.38,1.21-5.08Z"/><path class="cls-6" d="M221.69,334.11l5.36,5.73Z"/><path class="cls-6" d="M257.53,349.85,253,346Z"/><path class="cls-6" d="M425,478l.95-3.83,2.24,2Z"/><path class="cls-6" d="M261.32,352.89q-1.65-1.38-3.32-2.74Q259.67,351.52,261.32,352.89Z"/><path class="cls-6" d="M204.73,310.08,202,308.35Z"/><path class="cls-6" d="M271.93,360l-2.93-2Z"/><path class="cls-6" d="M246.06,341,243,339Z"/><path class="cls-6" d="M417,482.83l3.06-1.81Z"/><path class="cls-6" d="M342.09,410,339,408Z"/><path class="cls-6" d="M318.3,392.9,316,391.29Z"/><path class="cls-6" d="M322.23,395.92,320,394.13Z"/><path class="cls-6" d="M327.3,399.9,325,398.07Z"/><path class="cls-6" d="M330.34,401.88l-2.34-1.6Z"/><path class="cls-6" d="M311.29,387.9,309,386.15Z"/><path class="cls-6" d="M362.44,425.86l-2.46-1.8Z"/><path class="cls-6" d="M365.26,427.91,363,426.19Z"/><path class="cls-6" d="M250.29,343.9,248,342.18Z"/><path class="cls-6" d="M307.26,384.91,305,383.32Z"/><path class="cls-6" d="M228,341c.63.77,1.25,1.54,1.88,2.3C229.27,342.53,228.65,341.76,228,341Z"/><path class="cls-6" d="M293.35,374.88c-.78-.56-1.56-1.12-2.35-1.67C291.79,373.76,292.57,374.32,293.35,374.88Z"/><path class="cls-6" d="M239.59,336.84,237,335.2Z"/><path class="cls-6" d="M236.39,334.87,234,333Z"/><path class="cls-6" d="M232.39,331.87,230,330.08Z"/><path class="cls-6" d="M227.33,327.89l-2.33-1.8Z"/><path class="cls-6" d="M224.56,325.85,222,324.14Z"/><path class="cls-6" d="M212.16,316.94l-2.2-1.82Z"/><path class="cls-6" d="M274.56,361.85,272,360.07Z"/><path class="cls-6" d="M268.56,357.85,266,356Z"/><path class="cls-6" d="M264.36,354.88,262,353.35Z"/><path class="cls-6" d="M198.86,307.6v2.84L197,309C197.79,308.41,198.33,308,198.86,307.6Z"/><path class="cls-6" d="M301.57,380.84,299,379Z"/><path class="cls-7" d="M416.32,640.45c11,4,20.05,4.85,29.78,1.28-.91,8.77-6.26,9.61-11.13,10.45C427.45,653.46,421.32,651.37,416.32,640.45Z"/><path class="cls-7" d="M518.74,644.89c-6.3,10.23-14.32,9.54-22.15,8.9-2.94-.24-6.15-1.1-4.8-6Z"/><path class="cls-7" d="M586.39,635.7c-1.89,7.57-7.25,8.22-12.54,8.27-5.06,0-10.66.38-13.53-7.1Z"/><path class="cls-7" d="M551.93,697.57h22.53c-3.29,7.32-9.08,7.64-14.81,7.42C555.73,704.85,552.3,703.36,551.93,697.57Z"/><path class="cls-7" d="M604.22,654.6c-1.47,7-6,8-10.33,8.65-4,.57-8.32,1-11.71-5.43Z"/><path class="cls-7" d="M505.36,699.89h22.33c-5.24,3.36-8.2,6.6-11.53,7s-7.26-1.71-10.72-3.19C504.88,703.48,505.36,700.8,505.36,699.89Z"/><path class="cls-7" d="M477.6,655.83c-1.59,7.72-6.29,8.76-10.45,9.43-3.08.5-6.45-.77-18.64-2.56Z"/><path class="cls-7" d="M538.87,683c-5.94,5.17-9.92,5.06-15,2C528.48,679.23,532.7,682.47,538.87,683Z"/></g><g id="Layer_2" data-name="Layer 2"><text class="cls-8" transform="translate(168.33 818)">2019/09/24<tspan x="0" y="28.8">O</tspan><tspan class="cls-9" x="16.54" y="28.8">r</tspan><tspan x="24.48" y="28.8">i</tspan><tspan class="cls-10" x="30.1" y="28.8">g</tspan><tspan x="43.37" y="28.8">inal: </tspan><tspan class="cls-11" x="89.59" y="28.8">S</tspan><tspan class="cls-12" x="101.49" y="28.8">an</tspan><tspan class="cls-13" x="126.38" y="28.8">n</tspan><tspan class="cls-12" x="139.39" y="28.8">y </tspan><tspan class="cls-14" x="155.78" y="28.8">v</tspan><tspan x="167.23" y="28.8">an </tspan><tspan class="cls-15" x="197.2" y="28.8">L</tspan><tspan class="cls-12" x="208.2" y="28.8">oon</tspan><tspan class="cls-16"><tspan x="0" y="57.6">h</tspan><tspan class="cls-17" x="13.7" y="57.6">ttps://pin.it/sy7l2gb</tspan><tspan class="cls-18" x="221.78" y="57.6">e</tspan><tspan class="cls-17" x="234.21" y="57.6">xi3aey</tspan></tspan></text></g></svg>