<svg xmlns="http://www.w3.org/2000/svg" viewBox="0 0 1024 1024"><defs><style>.cls-1{fill:#f2f2f2;}.cls-2{fill:#fefefe;}.cls-3{fill:#0b0b0a;}.cls-4{fill:#cd5003;}.cls-5{fill:#cc560b;}.cls-6{fill:#eca65c;}.cls-7{fill:#f9f8f6;}.cls-8{font-size:24px;font-family:MyriadPro-Regular, Myriad Pro;}.cls-9{letter-spacing:0em;}.cls-10{letter-spacing:-0.01em;}.cls-11{letter-spacing:0em;}.cls-12{letter-spacing:0em;}.cls-13{letter-spacing:-0.01em;}.cls-14{letter-spacing:0em;}.cls-15{letter-spacing:-0.01em;}.cls-16{letter-spacing:0.02em;}.cls-17{letter-spacing:0.02em;}.cls-18{letter-spacing:0.01em;}.cls-19{letter-spacing:0.03em;}.cls-20{letter-spacing:0.01em;}</style></defs><title>Artboard 2</title><g id="Layer_1" data-name="Layer 1"><rect class="cls-1" x="0.5" y="-511.5" width="1023" height="2047"/><path class="cls-2" d="M.11,1023.89Q.11,514.25,0,4.6C0,.75.75,0,4.6,0Q511.49.17,1018.4,0c3.85,0,4.6.75,4.6,4.6q-.16,507.41,0,1014.8c0,3.85-.75,4.6-4.6,4.6Q509.5,1023.84.11,1023.89Z"/><path class="cls-3" d="M560.1,734.12c-1.28,21.37-1.91,42.81-4,64.1-3.94,40.6-50.72,52.67-85.91,49.49-50.5-4.56-60.62-17.81-61-82.19-.39-62,.42-123.94,1.18-185.91.31-25.7,6.53-50.26,20.65-71.92,28.13-43.13,19-91.29,19.95-138.15.05-2.47,0-4.94,0-7.85-10.41-7.22-6.28-17.07-4.17-25.18-12.34-20.56-2.38-31,14.69-38.88q-13.08-63.46-26.27-127.25c-1.7-8.16-4.68-16.13-5.59-24.34-.76-6.81,5.27-9.91,10.89-10.89,6.84-1.2,9.5,4,10.72,9.75C461.83,195,472.4,245,483.05,295.49l5.84-.95c13.49-28.8,11.18-60.19,18-89.78,6.61-4.91,13.5-5.85,22.93.18l-15.9,93.31c22.24,5,22.06,19.18,14.49,36.95,6.81,8.15,4.24,16.72-.47,24.91.69,14.4,1.36,28.46,2,42.53-2.76,1.86-5.57,1.6-8.41.21-1.91-1.79-1.74-4.2-1.77-6.49-.09-7,0-13.92-.06-20.87,0-2.1.34-4.35-1.65-6.61-5.44,1.51-10.89,3.69-16.92,5.42.2,6.29,2.3,11.94,3.06,17.78.4,3.1,1.48,6.16.3,9.31a4.78,4.78,0,0,1-5.57,2.44c-3.27-2.49-1.59-6.92-4.21-10.15a6.44,6.44,0,0,0-6.24-1c-1.1,5.08,2.22,9.85,1.28,14.92a3.68,3.68,0,0,1-3.89,3c-2.41-1.29-2.45-3.74-2.82-6-.43-2.6-.7-5.23-2.33-7.6-.25,7.41-5.66,14.89.69,22.19a39.46,39.46,0,0,0,3.89,18.18c4,8.28,10.47,12.05,19.14,13,3,.33,6,.27,8.09,3,2.12,3.43,1.42,7.43,2.24,11.12,4.45,19.89,7,40.15,11.47,60,1.56,7,1.32,14.18,2.52,21.2a29.59,29.59,0,0,1,.48,6.9c-.08,7.63-2.42,10.92-8.75,12.34-6.14,1.38-13.14-1.93-15.8-7.5a17.34,17.34,0,0,1-1.36-4.22,58.35,58.35,0,0,1-1.34-7.54c-2.19-9.36-3-18.91-3.92-28.43-1.81-17.78-3.46-35.58-8.13-53-3.56,17.15-5.1,34.6-7.95,51.84-2.23,9.82-2.5,20-4.79,29.77.22,2.59-.52,5-1.11,7.51-2.47,14.23-5,28.45-8.1,42.55-1,4.64-2.93,9.19-8.35,10.12-6.2,1.06-12.32,1-17-4.41a12.94,12.94,0,0,1-3.24-9.61,99,99,0,0,1,2.81-19.67c1.88-7.24,2.61-14.71,4-22.05.45-2.17.67-4.37,1.16-6.53,1.54-5.75,3.57-11.4,3.66-17.46.4-7.48,2-14.79,3.13-22.17,2.42-15.78,7.18-31.14,8.94-47,2.84-25.79,8.18-51.18,11.71-76.86.31-2.26,1.22-4.55-.25-7.36-4.29-1.38-9.17-2.28-13-4.69a2.89,2.89,0,0,0-1.89,3.29c1.11,9.79,0,19.6.29,29.35.45,14.13,0,28.26.46,42.37.65,20.43-6,38.89-15.09,56.69-3.08,6.07-6.66,11.9-10,17.84a90.18,90.18,0,0,0-7.47,18.45c-6.12,20.38-9.52,41.12-8.36,62.43,1.21,22.22.46,44.46.81,66.69.16,10.1-.11,20.22.05,30.34.32,20.27-.74,40.54-1.25,60.79-.35,13.65.48,27.21.55,40.81.1,18,10.74,28.91,26.6,35.61,8.32,3.52,17.18,3.68,25.94,4.38,16.95,1.37,33.09-2.43,48.74-8.53,6.57-2.56,12.17-6.82,17.34-11.58,3.48-3.19,4.84-7.49,5.76-11.93,3.9-18.75,6.48-37.66,6.62-56.85,0-3.48-.4-7,.71-10.4C553.41,734.86,556,732.89,560.1,734.12Z"/><path class="cls-4" d="M559.35,712.61c-14.79,5.59-30,22.29-47.51,3.59-9-9.64-11.46-23.08-11.8-35.66a314.8,314.8,0,0,1,3.07-49.62c3.49-26.32,24.91-32.54,56.24-16.15Z"/><path class="cls-5" d="M560.1,734.12l-7.44,3.42c-3,3.51-7.42,4.09-11.5,5.34-20.83,6.93-38.47-.51-49.91-16-9.49-12.85-13.35-28.1-14.4-43.94-.83-12.49,1.33-24.84,2.4-37.24.79-9.25,1.1-18.51,3.29-27.65,3.22-13.41,10.88-23.24,22.32-30.53,10.58-6.74,21.78-6,33.21-3.06,3.33.79,6.7,1.4,10.06,2,3.43,1.2,7.11,2,9,5.68l1.4,8c-27.15-9.3-51.47-14.25-66.44,19.39C475.68,656.37,489.91,724,518.6,735.64c15.62,6.32,27.88-4.85,42.6-8.62Z"/><path class="cls-3" d="M557.09,592.17,548.86,588c-2.21-1.35-2.11-3.61-2.16-5.75-.51-23.14-6.47-45.21-13.36-67.06A459.13,459.13,0,0,1,521.22,466c-.85-4.31-1.51-8.89.95-13.11,2.54-1.67,5.09-1.87,7.66-.07C534.71,500.06,558.8,543.59,557.09,592.17Z"/><path class="cls-5" d="M529.83,452.77l-7.65.47c-3.7,2.65-7.35,2.4-11-.18-20.94-1.52-32.23-11.79-30.64-33.73-.49-4.29.95-7.47,5.16-9.08l3.18-2.51c2.31-3.57,5.73-4.75,9.8-4.52l5.54-1.78c5.88-3.62,11.62-2.57,17.3.51l8.4.68,1.71,5.42c-16.07,2.12-40.85-6.21-42.71,15.47-2.16,25.07,23.59,21.47,41.54,23.35C530.26,449,530,450.88,529.83,452.77Z"/><path class="cls-4" d="M530.78,416v23.57c-11.95-.27-23.62,0-31.75-9.86-1.58-1.92-1.78-7.63-.27-9C508.18,412.23,519.76,417.16,530.78,416Z"/><path class="cls-6" d="M538.32,586c-36.51-3.74-55.33,14.16-56.93,51.35-1.45,33.61-9.87,68.11,18.26,95.75,11.91,11.71,26.51,12.47,41.84,8.44,2,1.76,1.79,4.19,1.84,6.48.27,12.94-.08,25.88.86,38.83,1,13.79-8.2,26-21.43,30.85-17.58,6.41-35.53,7.71-53.94,5-7.56-1.1-15.15-1.91-22.66-3.47-16.91-3.49-22.69-19.12-20.41-32.58.55-3.21.05-6.27,0-9.4-.14-17.28-.9-34.61.15-51.83,1.95-32.19,1.85-64.39,1.72-96.59-.07-17.76-2.65-35.43-2-53.23a173.07,173.07,0,0,1,2.5-23.75c1.41-8,4-9.32,11.35-6.33,3,1.21,6.6,1.51,8.4,4.84-2.15,13.23-4.36,26.45-6.44,39.69-1.27,8.09,2.28,13.15,10.28,14.77,9.44,1.93,13.57-2.68,15.07-11.7,2.24-13.54,5.23-27,7.91-40.41,2.23-1.93,4.93-1.82,7.54-1.45a59.22,59.22,0,0,0,17.28.16,7.3,7.3,0,0,1,5.21,1.13c1.78,8.07,6.84,12.14,15,10.76,10.76-1.8,7.13-10.46,7.44-17.13a5.72,5.72,0,0,1,6.61-3.21c2.95.52,3.75,3.06,4.2,5.53a62.56,62.56,0,0,1,1.3,9.83c.14,6.11.18,12.21.89,18.32C540.58,579.78,541.21,583.31,538.32,586Z"/><path class="cls-7" d="M447.91,550.35l-16-5.66c-5.63,20.37-4,40.87-3.76,61.49.51,50.16,1.11,100.38-.79,150.49-2.6,68.69,4.15,64.81,75.66,63.75,24.93-.37,43.71-12.57,38.87-43.57-1.8-11.53-.36-23.56-.4-35.36l11.17-4c-1.87,21.15-2.12,42.6-6,63.38-6.1,32.81-34.85,36.14-59.92,37.63-57.72,3.43-74.05-17.9-70.59-75.73,3.22-53.81,1.55-108,1.16-161.93-.23-30.91,2.07-61.71,19.18-87.75C464.14,471.07,458,424.78,458.09,379c0-4.56,0-9.12,0-14.05l20.49,7.66C469.86,423.42,461,475.22,452.11,527c-1.51,2.88-4.71,3.44-7.11,5.11-2,1.4-4.31,2.42-6.23,4a3.16,3.16,0,0,0-1.21,1.93c2.85,3.76,8.62,2.42,11.69,6C448.8,546.15,448.36,548.25,447.91,550.35Z"/><path class="cls-7" d="M538.32,586V541.86l-11.11,4.31q-8-46.56-16-93.11l11,.18c1.55,33.62,16.12,64.24,22.3,96.77,2.38,12.49,3,25.31,4.38,38Z"/><path class="cls-7" d="M454.08,338c22.3,11.82,44.75,14.94,68.22,1.69,4.37,2.8,5.23,8,2.19,11.6-18.69,22.34-41.21,13.58-63.08,6.58C452,354.84,448.93,348,454.08,338Z"/><path class="cls-7" d="M463.26,306.6c1.68,7.08-10.71,9.49-4.45,17.77,17.39,6.86,35.66,13.95,53.58-.55,4.81-3.9,1.9-8.79-1.6-12.69.42-2.19.81-4.25,1.72-9,4.69,4.25,9.82,6.78,11.35,10.71,3.21,8.26.71,16.09-6.68,21.67C503.32,345,461.51,340,450.1,326.67c-3.77-4.37-1.27-8.24.74-11.88C453.3,310.33,456.21,305.86,463.26,306.6Z"/><path class="cls-6" d="M499.39,516.8q2,14.43,4,28.86c-3.3,3.49-7.84,2.23-11.76,2.62-5.32.53-10.88.63-15.85-2.26l4.8-29.76C485.45,512.92,494.83,513.18,499.39,516.8Z"/><path class="cls-7" d="M499.39,516.8l-18.81-.54q3.89-28.93,7.76-57.89l3.61-.27Z"/><path class="cls-7" d="M521.55,402c-5.76-.17-11.53-.35-17.3-.51-1.76-8.92-3.51-17.84-5.48-27.85l22.78-8.32Z"/><path class="cls-7" d="M466.15,565.31c-1.15,5.35-2.59,12-4.27,19.82-14.11-6.54-12.38-17.37-8.84-29.47Z"/><path class="cls-7" d="M520,537.86l-12.29-2.81c-1.11-7.8-2.14-15-3.24-22.7l12.05,2.43C517.56,521.82,518.7,529.39,520,537.86Z"/><path class="cls-2" d="M507.08,462.17c1.46,8.63,2.79,16.45,4.32,25.5l-10-2.87c-1.61-8.08-3.09-15.56-4.78-24Z"/><path class="cls-7" d="M459.9,264.48l11.1,1.1c1.68,6.44,3.45,13.27,5.38,20.69C459.66,286.15,462.32,274.07,459.9,264.48Z"/><path class="cls-7" d="M446.72,202.09c-1.16-6.11-2.28-12-3.43-18.05,15.6-2.39,13.52,9.25,16,18.64Z"/><path class="cls-7" d="M460.74,513.25l12.7,8c-.58,4-1.34,9.25-2.2,15.2C458.39,532.3,457.47,523.71,460.74,513.25Z"/><path class="cls-7" d="M483,458.94c-16.53-1.4-10.63-12.76-11.15-23.13C486.13,448.6,486.13,448.6,483,458.94Z"/><path class="cls-7" d="M477.51,494.21c-12.38-3.07-13.47-10.67-9.59-21.33l11.62,4.58C478.91,482.71,478.26,488.07,477.51,494.21Z"/><path class="cls-7" d="M475.78,546l27.61-.36c.46,2.29.91,4.59,1.36,6.88l-30,.16Z"/><path class="cls-7" d="M504.78,250.48l10.6,7.3c-1.18,6.47-2.4,13.07-3.76,20.49C496.45,271.75,508.3,260.59,504.78,250.48Z"/><path class="cls-7" d="M450.76,223.22l11.65,2.56,3.9,17.83-12-2.34C453.2,235.75,452.08,230,450.76,223.22Z"/><path class="cls-7" d="M511.31,213.62l12.1,5.56c-1.19,4.95-2.49,10.33-4,16.54C509.76,230.37,507.46,223.35,511.31,213.62Z"/><path class="cls-7" d="M506.43,303.6c-1.25,3.71-2.59,7.65-4.19,12.37l-10.35-6.12,3.54-15.61Z"/><path class="cls-7" d="M470.23,318.34c-1.18-5.64-2.11-10.11-3.08-14.78h12.6c.76,4,1.5,8,2.46,13.05Z"/><path class="cls-6" d="M449.25,544.05l-17.79-5.25L452.11,527Q450.69,535.54,449.25,544.05Z"/><path class="cls-7" d="M498.71,403.22l-9.8,4.52c-1.15-5.75-2.29-11.51-3.61-18.14L497,391.55C497.59,395.47,498.15,399.34,498.71,403.22Z"/><path class="cls-7" d="M485.73,410.25l-5.16,9.08-4.66-3.55c1.18-7.74,2.39-15.72,4.63-30.5C483.2,398.09,484.47,404.17,485.73,410.25Z"/><path class="cls-7" d="M449.16,163.71c-11.1.82-12.39-5.84-12.76-13.82l9.46-1.55C447,153.66,448.05,158.52,449.16,163.71Z"/><path class="cls-7" d="M523.18,215.14,512,208.79c4.19-4.92,7.82-3.13,11.85-1.77C523.67,209.34,523.51,211.22,523.18,215.14Z"/><path class="cls-7" d="M444.89,140.19c-.16,2-.27,3.37-.41,5.12l-10.28,1.62C435.7,140.2,439.15,139.2,444.89,140.19Z"/></g><g id="Layer_2" data-name="Layer 2"><text class="cls-8" transform="translate(73.33 758)">2019/09/28 (2)<tspan x="0" y="28.8">O</tspan><tspan class="cls-9" x="16.54" y="28.8">r</tspan><tspan x="24.48" y="28.8">i</tspan><tspan class="cls-10" x="30.1" y="28.8">g</tspan><tspan x="43.37" y="28.8">inal: </tspan><tspan class="cls-11" x="89.59" y="28.8">S</tspan><tspan class="cls-12" x="101.49" y="28.8">an</tspan><tspan class="cls-13" x="126.38" y="28.8">n</tspan><tspan class="cls-12" x="139.39" y="28.8">y </tspan><tspan class="cls-14" x="155.78" y="28.8">v</tspan><tspan x="167.23" y="28.8">an </tspan><tspan class="cls-15" x="197.2" y="28.8">L</tspan><tspan class="cls-12" x="208.2" y="28.8">oon</tspan><tspan class="cls-16"><tspan x="0" y="57.6">h</tspan><tspan class="cls-17" x="13.7" y="57.6">ttps://pin.it/</tspan><tspan class="cls-18" x="140.25" y="57.6">p</tspan><tspan class="cls-19" x="154.22" y="57.6">v</tspan><tspan class="cls-17" x="166.53" y="57.6">vu6faf</tspan><tspan class="cls-20" x="232.07" y="57.6">y</tspan><tspan class="cls-17" x="243.62" y="57.6">qo4aj</tspan></tspan></text></g></svg>