<svg xmlns="http://www.w3.org/2000/svg" viewBox="0 0 1024 1024"><defs><style>.cls-1{fill:#f2f2f2;}.cls-2{fill:#fefefe;}.cls-3{fill:#e4ce51;}.cls-4{fill:#cbcbcb;}.cls-5{fill:#0f0e0d;}.cls-6{fill:#060606;}.cls-7{fill:#9b9b99;}.cls-8{fill:#b3b3b2;}.cls-9{fill:#c64a26;}.cls-10{fill:#fcfbfb;}.cls-11{fill:#f9f9f6;}.cls-12{fill:#f6f6f6;}.cls-13{fill:#fafafa;}.cls-14{fill:#f9f9f9;}.cls-15{fill:#e3ce51;}.cls-16{fill:#639583;}.cls-17{fill:#0b0c0b;}.cls-18{font-size:24px;font-family:MyriadPro-Regular, Myriad Pro;}.cls-19{letter-spacing:0em;}.cls-20{letter-spacing:-0.01em;}.cls-21{letter-spacing:0em;}.cls-22{letter-spacing:0em;}.cls-23{letter-spacing:-0.01em;}.cls-24{letter-spacing:0em;}.cls-25{letter-spacing:-0.01em;}.cls-26{letter-spacing:0.02em;}.cls-27{letter-spacing:0.02em;}.cls-28{letter-spacing:0.01em;}.cls-29{letter-spacing:0.01em;}</style></defs><title>Artboard 2</title><g id="Layer_1" data-name="Layer 1"><rect class="cls-1" x="0.5" y="-511.5" width="1023" height="2047"/><path class="cls-2" d="M.11,1023.89Q.11,514.25,0,4.6C0,.75.75,0,4.6,0Q511.49.17,1018.4,0c3.85,0,4.6.75,4.6,4.6q-.16,507.41,0,1014.8c0,3.85-.75,4.6-4.6,4.6Q509.5,1023.84.11,1023.89Z"/><path class="cls-3" d="M677.3,627.38c-34.83,9.78-69.74,19.5-106.51,15.47-10.92-1.2-20.29-4.06-22-18.63-2.54-21.64-25.93-28.92-57.74-19-5.06,1.59-9.64,4.7-14.44,7.1a3.24,3.24,0,0,1-.16,1.45c-3.8,5.22-7.75,10.31-13.2,14-7.17,6.05-16.06,5.89-24.61,6.67a64.65,64.65,0,0,1-16.43-.52c-6-1-12,.44-17.9.85a428,428,0,0,1-46.83.79c-8.85-.36-17.59,1-26.41,1.14-10.67.17-21.24-1.47-31.91-1.14-10.45.33-20.88,1.16-31.38.21-6.28-.57-12.6-.57-18.82-1.93a38.44,38.44,0,0,0-10.89-.56c-15.28,1-30.32.25-44.06-7.69-5.23-3.87-11-7.14-14.75-12.73-.73-1.07-1.74-2-1.87-3.36-5.45-7.21-7.56-15.2-5.71-24.14.23-1.08,1.14-1.52,2-2.07a20.18,20.18,0,0,0,7.85-22.92c-1.22-3.68-3.43-6.34-7.47-7a6.41,6.41,0,0,1-1.34-.52,2.59,2.59,0,0,1-.94-1.08l2.2-11.31c3.15-4.25,1.62-8.78.78-13.27q.83-21.87,1.64-43.74a3.1,3.1,0,0,1,2.18.2c7.44,5.84,12.17,14,18,21.23a155.54,155.54,0,0,0,14,15.46c12.7,12,25.42,24,34.71,39,.7,1.13,1.47,2.21,2.28,3.27,5.19,6.85,7.44,6.61,14.82,2,19.56-12.23,38.54-25.47,59.07-36.11,9.72-5,20.46-7.93,30-13.45,2.07-1.19,4.77-2.3,6.32,1.14.57,4.66-.05,9.31-.51,13.9-2.35,23.59.73,47.14.34,70.7a5.68,5.68,0,0,0,1.48,4.3c5.77,2.09,12.47,2.57,19,2.67,17.68.27,35.15-2.28,52.44-5.77,6.74-1.36,11.89-5.75,16.26-11,1.7-2,3.29-4.17,4.94-6.26,6.79-8.61,15.62-13,26.59-13.73,18.73-1.24,37.32-4.1,56.08-5.21,6.44-.38,12.8-2,19.16-3.27,6.91-1.36,10.16-6.11,10.72-12.65,2-23.48,6.31-46.79,5.33-70.5-.13-3.08-.58-6.39,1.86-9a11.63,11.63,0,0,1,6.59-2c5.65-.19,11.3-1.08,16.9-1,17.14.17,34.21-1.71,51.35-1.19,21.79.67,43.53-1.28,65.33-1.16,10.45.06,20.76-2.55,31.15-3.82,11.55-1.43,23.18-2.08,34.78-2.54,11.89-.47,23.36-3.19,35-4.83a203.8,203.8,0,0,1,35.27-1.65,3,3,0,0,1,1.37,1.27q6.47,49.77,13,99.55c-.52,3.22-3.41,3.49-5.62,3.92-6.46,1.29-9.12,5.27-10.42,11.47-2.18,10.33-4.06,20.6-2.81,31.2l-65.06,9.89c-5.57-15.33-3.95-34.78-19.56-35.5-17.53-.82-37.09.71-52.74,12.73-3,9.64-5.61,19.41-10.36,28.44C691.7,622.58,684.84,625.42,677.3,627.38Z"/><path class="cls-4" d="M226.07,348.72c-9.64-23,2.72-37.15,38.66-43.17,56.82-9.5,114.24-12.15,171.67-15.29,127.17-7,252.87,8.87,378.77,22.26,25.85,2.75,39.06,20.57,27.91,36.85a8.1,8.1,0,0,1-1.85.52,309.88,309.88,0,0,1-39.85,0c-8.44-.56-16.91-.74-25.35-1.36-7.13-.52-14.24-.79-21.26-2.29a137.82,137.82,0,0,0-30.7-2.82c-41.06.5-82.1-1.68-123.16-1.1q-17.2.24-34.42,0c-8.34-.12-16.51,1.73-24.82,1.76-2.14-.34-4.13.71-6.23.73-18,1.52-35.89,4.28-54.06,4.61-13.57.25-27.18,1.34-40.72,2.84a34.93,34.93,0,0,0-16.06,6.23c-6.89,4.69-14,8.44-22.77,5.35a17.58,17.58,0,0,0-6.26-.37c-4.17-.34-8.35-.41-12.52-.84-3.2-.64-6.47-.37-9.69-.77-17.25.9-34.44-1.11-51.66-1a19.43,19.43,0,0,0-10.56.23,68.49,68.49,0,0,1-13.45-1.56,25.67,25.67,0,0,0-9.67-.85c-10.59-1.58-21.14-3.5-31.87-4a67.74,67.74,0,0,0-9.87,0,27.75,27.75,0,0,0-9.36.09c-2.64.33-5.23.32-7.59-1.15C227.59,352.37,227,350.46,226.07,348.72Z"/><path class="cls-5" d="M310.92,360.58l9.26-1.18c2.33,1.09,1.18,2.89.61,4.23-3.92,9.24-5.78,19.06-8.34,28.69a172.48,172.48,0,0,1-6.87,21.86c-2.92,7.06-5.12,14.41-3.49,22.4,5.75,4.3,12.21,4.5,19.37,4.53-.09-7-1.61-13.14-2-19.39-.13-2.48-.62-5-.29-7.45.3-2.24,1-4.41,3.6-4.74,2.86-.37,4.38,1.64,4.93,4,1.32,5.66,2,11.45,2.83,17.2.55,3.7.18,7.68,2.5,10.86,10.27,2.33,14.05.27,18-9,7.24-16.87,13.14-34.11,16-52.32.82-5.26,2.77-10.27,3.94-15.46.44-2,1.11-3.88,3.54-4.27l8.77.86c1.69.81,1.18,2.29.82,3.46-4.94,16.21-6.4,33.27-12.12,49.3-3.18,8.92-7,17.6-10.44,26.4-3.69,9.33-10.15,14.54-20.51,14.26a6.47,6.47,0,0,0-4.45,1c-1.62,6.58,5.69,9.29,6.27,14.82a27.73,27.73,0,0,0,15.48,1.08c3.13-7.23,6.38-14.51,8.54-22.13,1.73-6.09,3.92-12,5.88-18,7.13-21.77,15.48-43.15,21.08-65.41.39-1.51.4-3.44,2.63-3.7l4.48-.14c2.18,3,1.15,6.06.3,9.08-3.43,12.15-7.55,24.09-11.72,36-6.86,19.6-12.57,39.59-19.92,59-.7,1.84-1.43,3.74-1,5.84,1.41,2.23,3.74,1.79,5.82,1.91,7.49.4,14.95-.3,22.4-1,17.53-1.56,35.19-1.46,52.6-4.51,20.79-3.64,41.58-7.41,62.55-9.83,12.21-1.41,24.34-3.67,36.69-3.74a12.77,12.77,0,0,0,7.53-2,59.84,59.84,0,0,0,.36-15.56c-1.25-15.89-3-31.65-7.4-47.13-3.94-13.92-7.23-28-13.54-41.1-.92-1.9-1.89-4,0-6l4.11-.91c1.71.32,2.44,1.68,3,3.06,3.69,9.25,8.31,18.13,10.53,28,2.27,10.05,5.09,19.95,8.26,29.78,2.78,8.61,2.73,17.69,2.76,26.65a199.68,199.68,0,0,0,1.61,24.22c3.64,1.67,7.15,1.24,10.53.64a170.91,170.91,0,0,1,35.77-2.55c15.71.55,31.19-1.46,46.61-4.18a197.75,197.75,0,0,1,26.78-2.63c29-1.1,57.63-4.78,86.4-7.74,13.54-1.4,27-3.41,40.78-2,4,.43,8.3-.27,12.41-.84a61.56,61.56,0,0,1,15.93-.14c1.8.22,3.63.74,5.45-.78,1.22-3.7.87-7.72.51-11.63-1.3-13.89-.61-27.89-2.81-41.73-1.43-9-3.25-18-3.09-27.2,0-1.66-1.17-4.08,1.94-4.52l-.16.24.16.24c7.14,8.09,6.18,18.57,7.29,28,2.75,23.41,5.56,47,1.58,70.58-.33,1.9-1.77,3.62-2.69,5.43l-.83-.39c-4.1-1.34-2.13-5.53-4-8.41-5.73-2.58-12.14-1.83-18.31-1.3a204,204,0,0,1-21.4.7c-18-.33-35.73,2.83-53.59,4.37s-35.62,4.11-53.56,4.75c-20.78.75-41.34,3.59-61.79,7.15a73.77,73.77,0,0,1-15.42.68c-14-.47-27.85,1.3-41.7,3-2,.24-4,.42-5.5,1.82-1.14,1.58-.3,3.74-1.73,5.15-1.34,21.5-4.43,43.08-3.57,64.49,1.11,27.33-15.28,31.36-36.34,32.64-18.56,1.12-37.06,3.25-55.58,4.92-8.32.75-15.06,4.3-20.86,10.39-21.24,22.28-68.38,33.24-98.82,22.91v-92c-2.55-4.88-1.42-10.08-1-15.12.33-4.12.52-8.28,1.22-12.38a4.79,4.79,0,0,0-1-4.29c-7.48-.61-15.17-3-23.1-3.33-48.15-2.27-95.14-14.51-143.08-17.27-3.57,4.88-4.74,9.86-6,14.82-.82,3.14-1.28,6.75-5.69,7.08l-1.22-.31c2-12.56,4.57-25.07,5.68-37.71.61-7-5.39-11-10.88-14.42-11.38-7.08-9.16-16.25-4.07-25.89,2.26-1.4,3.94-1.24,4.61,1.69-12.14,19.39,14.25,21.39,15.4,36.28,13.4-32.55,26.18-63.6,39-94.65l2.15.94.19,2.44c1,2.25-.17,4.2-.83,6.23-3.74,11.37-9,22.17-13.1,33.37-6.9,18.68-14.58,37.07-20.89,56-.52,1.56-1.44,3-1.29,4.75a19.08,19.08,0,0,0,27.63-7,2.09,2.09,0,0,0-.79-1.76c-6.85-5.35-7.13-12.54-4.95-19.89,6.53-21.94,12.3-44.13,20-65.73.66-1.86,1.08-3.9,3.3-4.65l8.28-.05c1.92,2,.64,4.07.06,6.07-6.28,21.88-12.52,43.77-19,65.58-.76,2.56-2.22,5.4.62,7.74,3,.38,4.15-2,5.48-3.74,6.92-9.16,13.89-18.26,22.34-26.11,1.8-1.67,3.29-3.89,6.52-2.95,2.76,3.64,1.42,7.13-.86,10.38-4.67,6.67-9.73,13.06-14.58,19.61-1.07,1.44-2.53,2.67-2.83,4.58,8.15,5.42,17.21,3.83,22.52-3.93a30.46,30.46,0,0,0,3.88-8.6,453,453,0,0,0,12.19-48.83A68.17,68.17,0,0,1,285,362.09c.75-2.11,1.76-4,4.08-4.69l8.47.85c1.47,1.15,1.15,2.71.7,4.11-5.23,16.16-7,33.16-12.1,49.35-1.4,4.44-2.74,8.89-3.87,13.41-2.35,9.46-8.09,16.63-15.5,22.62-4.39,3.54-9.56,3.41-14.76,2.64-4.77-.7-9.41-2.18-14.25-2.48-2.25-.14-4.71-.78-6.53,1.62-.72,2.57.59,4.7,2.16,7.42,28.91,8,59.42,7.86,88.16,13.66a15,15,0,0,0,5.58-7,12,12,0,0,0-2.87-8.05c-3.86-1.12-8-1.24-12.11-1.94-25.58-4.37-26.52-14.22-22.36-31.86,2.4-10.21,7.05-19.69,9.56-29.88,2.1-8.54,4.12-17.14,7.5-25.31C307.79,364.3,308.2,361.64,310.92,360.58Z"/><path class="cls-4" d="M193.16,623.45c32.54,13.23,66.94,9.81,100.67,10.14,51,.49,102-.91,153-2.07,5.89-.14,11.71-3.88,17.56-6,2.09,1.77,1.23,3.93.74,6a143.34,143.34,0,0,1-4.86,15.18c-2.2,6.2-10.87,11.19-18.52,11-28.22,4.75-56.57,7.77-85.24,7-2,2-4.5,1.8-7,2-9,.6-17.89-1.48-26.84-.94-16.92,1-33.85,1.1-50.78.86-7.13-.1-14.25.24-21.37.08-2.53-.06-5-.18-7-2A180.52,180.52,0,0,1,183.84,653c-1.87-2.25-1.73-4.88-1.48-7.54.68-7.07,3.54-13.36,7-19.4C190.21,624.69,191.07,623.12,193.16,623.45Z"/><path class="cls-6" d="M441.79,657.72c17.41-3.79,20.43-17.68,22.64-32.16l11.92-12.35c.21-.66.6-.8,1.17-.4l2.78-.58a7.1,7.1,0,0,1,2.24-.41l6-.85a122,122,0,0,1,16,.07c30.1,7.26,41.54,26.4,35.7,59.7-4.59,26.21-28.34,39-65.4,35C445.44,702.48,440.69,682,441.79,657.72Z"/><path class="cls-6" d="M677.3,627.38c20.91-5.6,20.36-26.29,28.7-40.72,19.21-5.06,40.14-10.32,51.42,11.49,12.94,25,15.72,52.19-9.11,72.43-15,12.23-35.11,11-52.5,5.22-12.77-4.23-13.74-19.21-16.27-31.17C678.35,639,678,633.14,677.3,627.38Z"/><path class="cls-6" d="M243.57,664.63l113,.07c-15.82,27.07-38.88,38.57-70.15,32.94C266.31,694,250.73,684.85,243.57,664.63Z"/><path class="cls-7" d="M843.36,599.54c-1.72-18.75-7.12-39,18.84-46.59l5,1.08c0,14.22,9.27,28.89.38,41.71C863.39,601.73,852.11,601.92,843.36,599.54Z"/><path class="cls-8" d="M193.16,623.45c-6.29,8.86-9.93,18.54-9.32,29.57-8.5-.89-17.07-4.51-18.9-12.4-2.81-12.15,5.71-21.7,12.45-31.1Z"/><path class="cls-7" d="M171.7,407.09l-4.61-1.69c-3.8-4.44-5.46-9.38-1.73-14.46,3-4.05,7.49-4.89,12.11-3.06a8.71,8.71,0,0,1,5.77,9.94C182.32,404.33,178,407.07,171.7,407.09Z"/><path class="cls-7" d="M173.45,552.05c7.64-.33,9.74,5.28,10.09,10.92.59,9.54.14,19.22-11.86,22.42l-2.16-.06a3.36,3.36,0,0,1-.18-3.21c3.59-7.9,5.19-16,2.55-24.55C171.28,555.61,170.74,553.26,173.45,552.05Z"/><path class="cls-5" d="M169.79,583l-.27,2.37c-10.69-4.41-10.63-13.49-9.45-22.67.83-6.48,3.45-11.91,11.67-10.92l-.05-.24c1.48,2.25-.09,3.57-1.5,5A16.42,16.42,0,0,0,168,577.08C169.22,578.9,170.45,580.62,169.79,583Z"/><path class="cls-9" d="M174.72,527.16c3.15,4.62,5.32,9.19-.78,13.28-1.85-2.54-4.82-5-5.12-7.67C168.64,531.14,172.62,529,174.72,527.16Z"/><path class="cls-7" d="M504.52,611l-16-.07Z"/><path class="cls-7" d="M482.54,611.82l-2.24.41Z"/><path class="cls-7" d="M477.52,612.81l-1.17.4a2.61,2.61,0,0,1,.27-.86Z"/><path class="cls-10" d="M177.58,483.73c3.11-7.89,6.21-15.77,9.78-24.82L358.68,481.2c-.76,10.48-1.59,21.75-2.41,33C319.46,528.94,286.57,551,252.38,572,231.23,537.58,199.43,514.94,177.58,483.73Z"/><path class="cls-11" d="M571.44,470.89c-.66-2.55-1.31-5.1-2.25-8.79,93.2-4,185.17-20.9,277.79-20.76.64,5.17,1,8.42,1.45,11.67C756.46,464.51,664,468.49,571.44,470.89Z"/><path class="cls-11" d="M315.62,595.74c-10.57-2-11.78-10.43-11.45-18.49.41-9.77,6.1-15,16.54-13.14,6.94,1.6,8.59,7.18,9.42,13,.73,5.08-1.12,9.75-3.6,14.13S319.45,594.73,315.62,595.74Z"/><path class="cls-5" d="M777.72,504c4.55,18.19-7.82,20.27-21.36,21.14-7.33.47-12.41-.22-14.35-9.87-4.24-21.12,5.56-27.6,24.42-27.42C777.68,488,778.94,494.79,777.72,504Z"/><path class="cls-7" d="M315.62,595.74c17.94-7.93,17-18.89,5.09-31.63,11.34-1.08,15.76,6.26,15.57,15.4C336,592.05,328.3,597.68,315.62,595.74Z"/><path class="cls-12" d="M169.79,583c-9.55-11.1-8.1-21.54,1.9-31.46l1.76.54C173.88,562.55,177.62,573.43,169.79,583Z"/><path class="cls-5" d="M824.26,509l-30.12,5.19-.6-3.25,30.1-5.68C823.85,506.54,824.06,507.79,824.26,509Z"/><path class="cls-5" d="M789.63,485.93l28.47-4.7.6,3.48-28.52,4.63Z"/><path class="cls-9" d="M335.55,551.68c-3.75-2.58-6-5.91-4.06-10.13.8-1.72,4.37-3.77,5.72-3.23,2.13.85,4.54,3.58,4.87,5.8C342.65,548,340.5,551.09,335.55,551.68Z"/><path class="cls-5" d="M794,497.26l24.18-3.95c.2,1.19.39,2.38.59,3.56l-24.21,3.78C794.36,499.52,794.18,498.39,794,497.26Z"/><path class="cls-13" d="M843.08,348.89c2.46,29.45,4.92,58.89,7.32,87.57-97.24.65-191.59,18-287.81,20.16,3.51-40.18-8.18-77.47-22.87-114.13C641,335.34,742,344.67,843.08,348.89Z"/><path class="cls-14" d="M535.61,343.4c14.74,35.89,24.15,72.85,22.76,112.76-64.77,3.31-127.65,22.8-192.76,19.37,11.94-38.24,23.64-75.69,35.34-113.13,41.12-15.16,84.5-14.72,127.27-18.46C530.68,343.73,533.15,343.58,535.61,343.4Z"/><path class="cls-13" d="M374.52,360.54c-6.76,23-13.92,45.94-20.14,69.1-3.43,12.77-10.83,16.94-23.81,13.52-1.67-10.55-3.45-21.74-5.24-32.94l-5.15,1.14,3.87,33.25-27.21-6.07,23.34-79.14Z"/><path class="cls-14" d="M289.08,357.4c-5.25,19.52-10.9,38.94-15.61,58.59-4.47,18.63-12.77,29.71-33.63,20.2l23.85-33.76-3.76-2.77-30.5,35.78-6.89-1.67c7.84-27.19,15.52-53.8,23.2-80.41Z"/><path class="cls-12" d="M310.92,360.58c-6.23,19.41-12.83,38.72-18.6,58.27-7.32,24.81.67,32.86,33.93,34.37,1.15,3.4,2.4,7.07,3.52,10.36l-5.8,8.85-92.45-12.68c-1.23-3.76-2.23-6.79-3.34-10.16l2.93-3.89c47.35-.68,51.13-5,61.53-68.81,1-6.31,3.24-12.43,4.91-18.64Z"/><path class="cls-12" d="M396.47,362.54c-11.84,37.1-23.69,74.2-35.65,111.63l-19-.95-9.58-19.73c35.88,1.57,31.66-29.24,40.22-48.32,6-13.5,7.38-29.1,10.83-43.77Z"/><path class="cls-12" d="M237.46,353.41C210,433,209.58,435.4,224,444.47l-12.18,13.29-23.39-2.63c13.47-34.74,26.72-68.88,40-103Z"/><path class="cls-15" d="M565.19,471.53c2.93,27.37-.65,54.61-5.9,81.09-2.48,12.49-19.32,8.25-29.79,9.86-19,2.93-38.31,4-57.47,5.86-7.83.78-14.91,4.11-19.25,10.38-23.66,34.22-59.21,22.47-91.85,26,.06-32.78-4.36-63.75,2.84-94.44,4.54-5.08,10.85-7.36,17-8.85,26-6.3,51.45-15.3,77.95-18.52,27.51-3.34,54.81-8.3,82.43-10.75,6-.52,11.79-2.07,17.81-1.91C561.09,470.36,563.29,470.17,565.19,471.53Z"/><path class="cls-11" d="M565.19,471.53c-68.12,7.87-136.71,13.25-201.42,38.79q1.05-15.06,2.11-30.16c63.62,2.56,124.24-14,186.08-18.74C559.82,460.82,565.8,461.57,565.19,471.53Z"/><path class="cls-7" d="M326,472.68Z"/><path class="cls-8" d="M220.84,456.38l2.89-.54.33,1.6-2.88.6Z"/><path class="cls-16" d="M517,658.21c-1.47,8.16-.51,18.8-14.13,18.61-12.29-.16-17.23-7.32-16.62-18.79.52-9.93,4.22-18.08,15.78-17.81C512.63,640.48,517,647.38,517,658.21Z"/><path class="cls-4" d="M488.75,617.5C461.06,650.13,460,656.88,476.91,697c-11-7-13.49-16.61-14.4-26.78C460.13,643.54,470.68,622.06,488.75,617.5Z"/><path class="cls-16" d="M477.76,675.83l7.31-11.6-5.35,12.62Z"/><path class="cls-16" d="M522.34,655.81c-.34-1.76-.67-3.51-1-5.27l1.85-.42c.42,1.72.83,3.45,1.24,5.17Z"/><path class="cls-7" d="M498.67,629.65l-6.38.91c-.07-.49-.14-1-.2-1.47l6.28-.78Z"/><path class="cls-7" d="M501.14,687.42l4.39.24c0,.56-.07,1.13-.1,1.69l-4.62-.24Z"/><path class="cls-5" d="M530.47,676.74,528,679.83l-1.33-.94,2.18-3.38Z"/><path class="cls-16" d="M475,660.24c.07-1.33.15-2.66.22-4l1.09,0v4Z"/><path class="cls-5" d="M517.21,637l-3.64-2.65.78-1.25,3.89,2.32C517.9,635.9,517.56,636.43,517.21,637Z"/><path class="cls-8" d="M484.75,638.53c-.19,1.12-.38,2.24-1.88,11.34V638.38Z"/><path class="cls-16" d="M482,684.24l-2-2.76.94-.69,2,2.78Z"/><path class="cls-7" d="M530.54,663.16v3.72l-.95.06v-3.67Z"/><path class="cls-16" d="M451.43,661.41v4.09h-.89v-4Z"/><path class="cls-5" d="M496.32,625.28l-2.73,1.5-.71-1.14,2.61-1.69Z"/><path class="cls-7" d="M501.75,637.85h-3.39v-1h3.39Z"/><path class="cls-5" d="M500.84,680.21l3-1.26.57,1.13-2.87,1.62C501.29,681.2,501.06,680.71,500.84,680.21Z"/><path class="cls-8" d="M487.51,692.6l-2.3-1.2.44-1.07,2.71,1Z"/><path class="cls-16" d="M523.58,639.49l1.94,2.33-1,.83-1.95-2.31Z"/><path class="cls-7" d="M513.25,625.43l2.32,1.31-.49,1-2.61-1.16Z"/><path class="cls-5" d="M455.89,678.14Z"/><path class="cls-5" d="M517,692.1l.28-1.71.79.09-.21,1.74Z"/><path class="cls-7" d="M490.49,616.58l3.67.59-3.59.7C489.92,617.48,489.89,617.05,490.49,616.58Z"/><path class="cls-4" d="M490.49,616.58l.08,1.29-8.29,1.51Z"/><path class="cls-5" d="M486.62,685.5l-1.32-.44c1.92,1.12,1.52.88,1.11.65Z"/><path class="cls-5" d="M490.64,687.38Z"/><path class="cls-5" d="M486.41,685.71l-.31-.31.52.1Z"/><path class="cls-16" d="M719.93,628.28c-.13-10.11,4.67-16.88,14.8-16.92,8.82,0,11.72,7.07,11.67,15-.06,9.53-3.22,17.82-14.07,18.24C721.78,645,720.4,636.55,719.93,628.28Z"/><path class="cls-4" d="M717.68,675.9c-14-11.33-17.33-22.4-19.25-33.75-2.48-14.74-2.23-29.29,9-41.37C694.24,626,700.12,649.07,717.68,675.9Z"/><path class="cls-8" d="M709.4,595.86,722,587l1.2,1.75-12.42,9C709.68,597.56,709.68,596.61,709.4,595.86Z"/><path class="cls-8" d="M717.38,634.54q1.05,3.45,2.12,6.9l-1.83.69-2.75-6.72Z"/><path class="cls-7" d="M710.72,630.1l1.92,8.72-1.66.39-2.1-8.87Z"/><path class="cls-7" d="M740.32,662.47l-5,3-.84-1.41,5-2.95Z"/><path class="cls-8" d="M751.22,626.26q-.54-2.64-1.07-5.27l2-.44c.39,1.79.79,3.58,1.18,5.36Z"/><path class="cls-8" d="M730.4,651.31l-6.07-.46.18-2,6,.69Z"/><path class="cls-7" d="M692.48,631.26l.75,5.55-1.69.24-.72-5.57Z"/><path class="cls-16" d="M727.57,598.22l-3,1.7-.87-.74,3.05-2.27Z"/><path class="cls-16" d="M741.15,653.34l-2.72,2.26c-.31-.36-.63-.72-.94-1.09l2.69-2.3Z"/><path class="cls-16" d="M745.94,605.48,743,603.25l.78-1.14,3.13,2Z"/><path class="cls-16" d="M751.28,602.12l1.59,2.5-1.1.69c-.51-.84-1-1.68-1.55-2.52Z"/><path class="cls-16" d="M754.4,647.36q-1.2,2.22-2.41,4.44l-1.26-.61,2.07-4.55Z"/><path class="cls-8" d="M716.77,610.15l2.6-2,1.06,1.24-2.4,2.23Z"/><path class="cls-7" d="M692.14,657q-1.07-2-2.15-4.05l1.25-.74,2.51,3.87Z"/><path class="cls-16" d="M726.18,594.3l2.43-1,.42.91-2.5,1.26C726.41,595.1,726.29,594.7,726.18,594.3Z"/><path class="cls-5" d="M724.21,656.84l2,1.39-.76,1.09-2-1.42Z"/><path class="cls-4" d="M709.4,595.86l1.34,1.9-2.61,3.48-1.52-1Z"/><path class="cls-16" d="M716,650.77l1.61,1.42-1.14,1.24-1.81-1.25Z"/><path class="cls-16" d="M713.44,616.46c-.28.77-.52,1.47-.72,2l-.75.12-.7-.38c.14-.7.3-1.52.49-2.53Z"/><path class="cls-5" d="M756.91,637.22c-.11-.12-.22-.24-.51-.53l.68-2.56c.58,1.57.78,2.14,1,2.74Z"/><path class="cls-16" d="M736.26,593.71l-2,.94c-.11-.21-.21-.43-.32-.65l2-1.09Z"/><path class="cls-5" d="M746.76,642.49Z"/><path class="cls-7" d="M274.86,670.9l-11.64-.69,0-1.14h11.59Z"/><path class="cls-7" d="M333.85,671.58l-7.34,1-.19-2.1,7.38-.46Z"/><path class="cls-5" d="M286.82,687.59l-6.41.41c0-.76-.09-1.52-.14-2.29H286C286.53,686.21,287.4,686.57,286.82,687.59Z"/><path class="cls-7" d="M303.78,675.92l-5-.47c.07-.56.15-1.13.22-1.69l4.9.81Z"/><path class="cls-16" d="M272.54,677.23l3.37-.2.12,1.08-3.39.38Z"/><path class="cls-16" d="M312.93,681c.15-.08.29-.16.68-.4l4.64.67-4.89.87C313.13,681.54,313,681.26,312.93,681Z"/><path class="cls-16" d="M286.82,687.59c-.28-.63-.57-1.25-.86-1.88l5.4.51Z"/><path class="cls-5" d="M262.46,482.44c16.83.62,27.29,8,27,24.12-.3,18.05-10.55,29.83-29.23,29.68-13.84-.1-24.24-8.82-24.39-23.16C235.68,495.64,243.64,483,262.46,482.44Z"/><path class="cls-15" d="M744.65,496.42l28.76-4.25v26.2l-26.31,3.46C746.23,512.83,745.5,505.25,744.65,496.42Z"/><path class="cls-17" d="M701.11,363.63c33.42-1.78,49.88,21.57,36.93,51.8-6.54,15.24-22.18,8.74-33.82,10.43-11.48,1.66-27.47,5.81-33.62-4.75-8.87-15.24-6.34-35-.1-50.82C675.47,357.7,691.62,366.15,701.11,363.63Z"/><path class="cls-17" d="M614.52,434.45c-29.88,7.45-33.38-12.54-31.66-33.82,1-12.32-7.68-33.85,14.64-34.45,53.41-1.42,56.78,2.07,56.79,35C654.3,428,642.24,440.28,614.52,434.45Z"/><path class="cls-17" d="M818.94,380c1.24,45.2,6.53,40.65-47.9,41.58-28.11.48-18.56-28.59-16.57-43.37,4.45-33,34-13.09,51.54-18.41C820.14,355.47,820.05,370.78,818.94,380Z"/><path class="cls-17" d="M405.44,443.77,386.1,464.42c2.89-8.31,3-12.14,4.77-13.19,21.92-12.93,20.45-36.81,26.58-56.86,4.41-14.4,12.53-21.52,27.67-22.29,19-1,38-2.73,56.87-4.93,19.94-2.31,31.59,5.93,35.34,25.46,1.87,9.78,4.4,19.55,5.06,29.43,1.47,22.1-16.58,16.42-28.52,18.79-26.21,5.2-52.44,10.43-78.81,14.74C424,457.38,411.84,458.67,405.44,443.77Z"/><path class="cls-11" d="M529.34,512c-7.17,0-13.15,0-12.89-7.72.44-13.08,11.43-10.88,19.31-11.87,5.42-.68,12.52,1,12,8.11C546.77,512.84,535.71,510.36,529.34,512Z"/><path class="cls-17" d="M503.37,652.72c3.12,4.78,2.05,6.92-2.38,8.3l-3.41-4.35Z"/><path class="cls-6" d="M727.72,628.19l8.07-6c.27,3.35.4,5,.64,7.9Z"/><path class="cls-12" d="M268.91,519.2,263.19,507l10.26-17,6.44,5.52Z"/><path class="cls-12" d="M245.87,498l6.21-7.17c2.39,9.34,8.8,17.56,0,25.81Z"/><path class="cls-12" d="M267.92,529.83l-14.6-.77,6.86-15.4C262.72,519,264.88,523.49,267.92,529.83Z"/><path class="cls-4" d="M271.67,526.64c3.72-8.65,6.61-15.39,10-23.35C283,513.11,280.56,520,271.67,526.64Z"/><path class="cls-12" d="M260.77,500.55c-1.19-4.07-2.13-7.27-3.24-11.08h10.31Z"/><path class="cls-4" d="M243.17,505c1.89,7,3.39,12.52,5.22,19.3C241.87,518.87,240.53,513.31,243.17,505Z"/><path class="cls-14" d="M730,399.52c4.48,22.39-13.23,15.52-23.47,17-9.36,1.34-19.05.28-29.46.28-.36-5.83-.67-10.89-1-15.95.92-.38,1.63-1.23,2.61-1.42,10.06-1.91,15.27-9.23,19.64-17.51.53-1,1-2.13,2.28-2.72,2.3.19,2.95,2.27,3.81,3.94,4.85,9.43,12,15.17,23.1,15.05A2.42,2.42,0,0,1,730,399.52Z"/><path class="cls-16" d="M730,399.52c-15.07,1.7-23.35-6.73-28.83-19.79-5.41,11-11.25,20.9-25.08,21.1.44-8.86.88-17.72,1.36-27.45h50.8C728.81,382.51,729.38,391,730,399.52Z"/><path class="cls-16" d="M592.52,412.26V375.44c39.25-8.86,55.22,1.34,51.91,31.6-4.9,2.88-16.78,1-20.06-3.65-3.69-5.24-7.51-10.56-8.35-18.2-2.41,10.41-7.83,18-15.2,24.18C598.51,411.32,596.2,413.93,592.52,412.26Z"/><path class="cls-14" d="M592.52,412.26c13.82-5.84,19.64-17.81,24.07-33.26,2.46,18.11,8.65,30.13,27.84,28,.22,16.75-9.58,21.65-24.06,19C610.05,424.09,592.81,434.8,592.52,412.26Z"/><path class="cls-16" d="M763.58,401.61V371.55L809.35,368v29.07c-2.73,2.88-5.85,1.65-8.7.5a39.48,39.48,0,0,1-13.71-8.81c-1.12-1.14-2-2.67-4-2.9-2,1-2.71,3.22-3.84,5a33.18,33.18,0,0,1-9.62,9.91C767.74,401.94,765.82,403.1,763.58,401.61Z"/><path class="cls-14" d="M763.58,401.61c10.51-2.28,14.2-11.38,18.93-19.54,7.73,7.74,14.57,16.29,26.84,15,.43,3.94.86,7.87,1.42,12.93l-45.15,4.11C764.84,409.33,764.21,405.47,763.58,401.61Z"/><path class="cls-14" d="M534.46,429.27l-38.13,4.28c-1.47-18.55-2.91-36.63-4.39-55.33,9.32-1.62,21.1-6.23,28.49,1.21C533.3,392.38,529.79,411.38,534.46,429.27Z"/><path class="cls-12" d="M426.77,429.37l-8.23,3.4c-1-32.59,12.2-49.29,41.56-53.09C457.53,400.41,455,421,452.36,442c-11.93,1.06-23.16,9.23-36.18,2.7.3-1.85.6-3.73.95-5.95l12.22-3.83c2.41-1.58,4.81-.25,7.22,0,5.62.6,11.17-3.64,11.19-8.73,0-4-1.82-7.37-5.55-8.61s-7.46.29-10.19,3.43C429.84,423.53,429.14,427,426.77,429.37Z"/><path class="cls-11" d="M464.62,378.7l22.18-1.13c1.34,19.33,2.63,37.93,3.94,56.76l-32.65,6.59C460.24,420.44,462.37,400.1,464.62,378.7Z"/><path class="cls-7" d="M426.77,429.37c1.7-8.72,5.92-15.47,15.8-13.6,5.82,1.11,8.38,7.24,6.51,12.72-3.45,10.16-11.57,9-19.73,6.43Z"/><path class="cls-7" d="M550.44,496.51c-5.84,4.56-7,6.2-8.38,6.42-8,1.27-16.1,2.22-24.68-1.54Z"/></g><g id="Layer_2" data-name="Layer 2"><text class="cls-18" transform="translate(73.33 758)">2019/09/29 (2)<tspan x="0" y="28.8">O</tspan><tspan class="cls-19" x="16.54" y="28.8">r</tspan><tspan x="24.48" y="28.8">i</tspan><tspan class="cls-20" x="30.1" y="28.8">g</tspan><tspan x="43.37" y="28.8">inal: </tspan><tspan class="cls-21" x="89.59" y="28.8">S</tspan><tspan class="cls-22" x="101.49" y="28.8">an</tspan><tspan class="cls-23" x="126.38" y="28.8">n</tspan><tspan class="cls-22" x="139.39" y="28.8">y </tspan><tspan class="cls-24" x="155.78" y="28.8">v</tspan><tspan x="167.23" y="28.8">an </tspan><tspan class="cls-25" x="197.2" y="28.8">L</tspan><tspan class="cls-22" x="208.2" y="28.8">oon</tspan><tspan class="cls-26"><tspan x="0" y="57.6">h</tspan><tspan class="cls-27" x="13.7" y="57.6">ttps://pin.it/cn</tspan><tspan class="cls-28" x="165.28" y="57.6">x</tspan><tspan class="cls-27" x="176.52" y="57.6">dt</tspan><tspan class="cls-29" x="198.96" y="57.6">r</tspan><tspan class="cls-27" x="207.09" y="57.6">ganf4enp</tspan></tspan></text></g></svg>