<svg xmlns="http://www.w3.org/2000/svg" viewBox="0 0 1024 1024"><defs><style>.cls-1{fill:#f2f2f2;}.cls-2{fill:#fefefe;}.cls-3{fill:#2d7a8c;}.cls-4{fill:#d9c14a;}.cls-5{fill:#fdfdfc;}.cls-6{fill:#050c0e;}.cls-7{fill:#b79c46;}.cls-8{font-size:24px;font-family:MyriadPro-Regular, Myriad Pro;}.cls-9{letter-spacing:0em;}.cls-10{letter-spacing:-0.01em;}.cls-11{letter-spacing:0em;}.cls-12{letter-spacing:0em;}.cls-13{letter-spacing:-0.01em;}.cls-14{letter-spacing:0em;}.cls-15{letter-spacing:-0.01em;}.cls-16{letter-spacing:0.02em;}.cls-17{letter-spacing:0.02em;}.cls-18{letter-spacing:0.02em;}.cls-19{letter-spacing:0.01em;}.cls-20{letter-spacing:0.02em;}.cls-21{letter-spacing:0.03em;}.cls-22{letter-spacing:0.01em;}.cls-23{letter-spacing:0.02em;}</style></defs><title>Artboard 2</title><g id="Layer_1" data-name="Layer 1"><rect class="cls-1" x="0.5" y="-511.5" width="1023" height="2047"/><path class="cls-2" d="M0,1023.89V.11Q509.21.11,1018.4,0c3.84,0,4.6.75,4.6,4.6q-.16,507.41,0,1014.8c0,3.85-.76,4.6-4.6,4.6Q509.45,1023.84,0,1023.89ZM834.91,316.34c9.61-18.2,11.33-36.19-5.69-50.68-16.36-13.93-34.44-12-51.87-.15-4.32-22.43-16-37.92-37.58-42.22-32-6.37-64.33-8.87-97.2-5.51-65.38,6.7-89.35,29.36-92.15,89.65-27,5.25-49.94,17.68-67.91,38.64-24.79,28.91-29.38,61-11.75,80.62,23.31,25.88,52.48,42.83,86.48,47.66,59.09,8.4,118.78,14.88,177.86.19,36.44-9.06,76.16-7.72,106.44-37C884.76,395.83,882.29,335.67,834.91,316.34ZM435.67,582.48c-.09-30.75-13.4-53.25-43.71-61.35-55.16-14.74-104.54-2.49-147.66,35.62-25.76-17.73-40.24-11.14-43.5,21-.76,7.51.3,15.21.53,22.82-21.45,7.45-34,25.39-48.54,41C129,667.08,127,721.16,147.64,748.74c21.3,28.49,53.44,42.77,84.14,50.57,82.15,20.86,163.53,14.87,238-30.84,37.26-22.89,60.72-76.06,52.37-113.1C513.79,618.49,477.41,587.81,435.67,582.48Z"/><path class="cls-3" d="M435.67,582.48c41.74,5.33,78.12,36,86.43,72.89,8.35,37-15.11,90.21-52.37,113.1-74.42,45.71-155.8,51.7-237.95,30.84-30.7-7.8-62.84-22.08-84.14-50.57C127,721.16,129,667.08,152.79,641.52c14.53-15.61,27.09-33.55,48.53-41q4.69,10.34,9.38,20.68c-23.88,13.56-36.95,34.29-39.86,61.3-3,27.59.94,55.5,28,67.8,77.47,35.22,157.06,41.47,235.21,2.08,41.19-20.77,61-58.62,55.56-95.68-4.9-33.33-30.13-42.55-58.09-48.39Z"/><path class="cls-4" d="M834.91,316.34c47.38,19.33,49.85,79.49,6.63,121.24-30.28,29.24-70,27.9-106.44,37-59.08,14.69-118.77,8.21-177.86-.19-34-4.83-63.17-21.78-86.48-47.66-17.63-19.58-13-51.71,11.75-80.62,18-21,40.92-33.39,67.91-38.64a1.65,1.65,0,0,0,.61.18l1.14,5.82.27,7.12.67,9.42c-22.84,5.9-40.87,18.82-52.8,38.95-9,15.14-14.8,32.65.17,46.77a133,133,0,0,0,74.61,35.56c79,9.75,157.64,11.4,231.18-27.59,21.38-11.33,32.37-29.38,34.7-52.47,1.69-16.66-10.5-25.88-22.81-34.16Z"/><path class="cls-4" d="M435.67,582.48l-4.17,25.84c-6,19-11.34,38.18-18.14,56.86-8.61,23.66-13.35,49.63-35.68,66,9.08-44.46,20.63-88.48,23.42-134,12.89-6.26,25.6-13.2,25.08-30-.47-15.48-11.15-25.21-23.39-31.89-42.25-23-112.14-12.52-145.61,21.73-14.62,15-11.41,28.07,6.58,38,4.06,47.56,11.25,94.61,22.92,140.93-4.06-3.26-8.85-5.93-12-9.89C256,702.78,253,673,241.4,646.19a66.61,66.61,0,0,1-30.7-25q-4.69-10.35-9.38-20.68c-.22-7.62-1.28-15.32-.52-22.83,3.26-32.09,17.74-38.68,43.5-21,43.12-38.11,92.5-50.36,147.66-35.62C422.27,529.23,435.58,551.73,435.67,582.48Zm-200.92,4.76c1.26-9.77,0-18.13-11.79-21.18-4.14,8.7-4,17.31-2.41,26.07-1.58,8.41,2.93,14.7,7.38,21l10.52,12c-.87-7.19-1.35-11.08-1.82-15Q235.69,598.69,234.75,587.24Z"/><path class="cls-3" d="M551,307.61a1.65,1.65,0,0,1-.61-.18c2.8-60.29,26.77-83,92.15-89.65,32.87-3.36,65.19-.86,97.2,5.51,21.61,4.3,33.26,19.79,37.58,42.22,17.43-11.85,35.51-13.78,51.87.15,17,14.49,15.3,32.48,5.69,50.68L818.16,337c-8.32,4-16.47,8.37-25,11.84-8.94,3.63-20.08-.91-28,7.2l-1,1.34.06,0L744.16,375q-18.81-17.37-37.22-34.41l29.41-41.48,7.32-2.88c8.18,9.66,16.11,19.59,27.87,25.3a5.13,5.13,0,0,1,.45.87c-.61,2.47-1.23,4.94-1.94,7.79l14.41-3.36c12.25-1.89,21.71-7.88,27.75-18.88,5.33-8,10.79-16.2,1.79-24.83-3.89-3.72-9.26-5.94-14.26-1.15-6.56,6.29-12.87,12.84-19.28,19.27l-5.52,1-2.84,14.55c-10.25-5.45-18-13.47-24-23.29,25.5-24.66,25.69-43.36.56-57.3-41.72-23.15-136.18-15-173.4,15-13.15,10.63-17.11,23.56-8.76,39.11Z"/><path class="cls-5" d="M210.7,621.21a66.61,66.61,0,0,0,30.7,25C253,673,256,702.78,274.64,726c3.19,4,8,6.63,12,9.89l6.94,2.88,23,5.43,5.44.34,22.5-1.53,5.89-1.52,20.1-7,7.13-3.29c22.33-16.34,27.07-42.31,35.68-66,6.8-18.68,12.15-37.89,18.14-56.86,28,5.84,53.19,15.06,58.09,48.39,5.45,37.06-14.37,74.91-55.56,95.68-78.15,39.39-157.74,33.14-235.21-2.08-27-12.3-31-40.21-28-67.8C173.75,655.5,186.82,634.77,210.7,621.21Z"/><path class="cls-5" d="M765.2,356.07c7.88-8.11,19-3.57,28-7.2,8.53-3.47,16.68-7.86,25-11.84,12.31,8.28,24.5,17.5,22.81,34.16-2.33,23.09-13.32,41.14-34.7,52.47-73.54,39-152.18,37.34-231.18,27.59a133,133,0,0,1-74.61-35.56c-15-14.12-9.14-31.63-.17-46.77,11.93-20.13,30-33.05,52.8-38.95l.38.48,10.59,47.89,2,4.25q10.06,29.09,38.22,41.6l5,1.94,34,7.84,7.93,1,41.13-2.83,6-1,16.77-6.06,5.67-2.67c19.78-5.35,33.72-16.29,36.38-38,.22-1,.43-2.06.65-3.09q2-8.16,4-16.34l2.43-7.58-.06,0Z"/><path class="cls-6" d="M566.08,382.59l-2-4.25,15-9.74c-14-10-17.85-25.29-25.62-38.15l-.38-.48q-.33-4.71-.67-9.42c11.21,13.84,13.13,33.7,30,45.19,11-12.45,22.19-25.06,33.21-37.49l-9.5-17.74,6.34,2.39,6.19,11.36c2.49-3.62,4.13-6,5.78-8.39l6.28.14-10.55,13.06L664,376.22l36.13-34.87c-7.49-9.49-14.3-18.14-21.12-26.79l5.14-.2,19,23.79,26-35.86,0,0,1.15-.81,6.12-2.46-29.41,41.48q18.39,17,37.22,34.41l20.09-17.57L761.82,365l-13.69,11.66,9.74,4.68c-.22,1-.43,2.06-.65,3.09l-7.24-2-39,34.79,9.87,5.2-5.67,2.67-7.23-4.43-9.54,10.49-6,1L703.94,418l-40.25-34.77-36.21,31L651.23,435l-7.93-1c-5.87-6.34-11.73-12.69-18-19.44l-16,11.6-5-1.94,19.14-13.6-38.72-40.84Zm21.49-16.13,39.6,42.31,34.23-29.14c-14.81-15.92-29.16-31.32-43.78-47Zm117.77-21.52L667,380.57l38.05,32.7,38.16-33.48Z"/><path class="cls-3" d="M606.19,310.51l9.5,17.74c-11,12.43-22.19,25-33.21,37.49-16.91-11.49-18.83-31.35-30-45.19l-.27-7.12,17.25-19.09Z"/><path class="cls-6" d="M569.42,294.34l-17.25,19.09L551,307.61l15.49-17.33Z"/><path class="cls-5" d="M263.76,595c-18-10-21.2-23.07-6.58-38,33.47-34.25,103.36-44.76,145.61-21.73,12.24,6.68,22.92,16.41,23.39,31.89.52,16.84-12.19,23.78-25.08,30l-5.56,1.59-29.89,6.23-5.1,1-47.84,2-5-.71-37.91-10Zm87.09-34.69c-3.16-8.64-4.14-17.94-9.17-23.7-11.87-13.57-17-7.49-16.78,7.71-6.85,2.53-16.7-1.25-20,8.58-.53,1.56,4,6.94,6.45,7.07C324.58,560.63,337.91,560.26,350.85,560.26ZM370,580c-19-13.06-34.62-13.53-50.83-7.48-5.32,2-11.4,5-9,12.14s9.26,9.56,15.6,7C338.73,586.49,350.66,578.57,370,580Zm15.54-5.36c-7.85-12.28,4.71-30.67-12.05-39.27-4-2.05-10.91.79-11.23,7.45C361.47,559.1,373.88,566.51,385.54,574.63Z"/><path class="cls-6" d="M263.76,595l6,2.31c3.79,47.87,11,95.16,23.87,141.5l-6.94-2.88C275,689.56,267.82,642.51,263.76,595Z"/><path class="cls-6" d="M395.54,598.71l5.56-1.59c-2.79,45.55-14.34,89.57-23.42,134l-7.13,3.29C381.49,689.68,391.71,644.78,395.54,598.71Z"/><path class="cls-3" d="M227.93,613.14c-4.45-6.31-9-12.6-7.39-21l14.21-4.89q.93,11.46,1.88,22.91Z"/><path class="cls-5" d="M234.75,587.24l-14.21,4.89c-1.59-8.76-1.72-17.37,2.42-26.07C234.76,569.11,236,577.47,234.75,587.24Z"/><path class="cls-5" d="M227.93,613.14l8.7-3c.47,3.9,1,7.79,1.82,15Z"/><path class="cls-5" d="M569.42,294.34l-2.9-4.06c-8.35-15.55-4.39-28.48,8.76-39.11,37.22-30.06,131.68-38.2,173.4-15,25.13,13.94,24.94,32.64-.56,57.3l-4.45,2.76-7.32,2.88-6.12,2.46-1.15.81,0,0-45,12.07-5.13.2L630.78,316l-6.28-.14-12-3-6.34-2.39Zm89.42-28.17c-12.25-11.6,2.52-29.35-16.26-33.37-9.58-2.05-11.32,5.37-9.81,13.38-7.65-2-15.12-4.4-20.76,2.42-1.39,1.68-1.21,7,.32,8.39C624.56,268.42,640.08,261.17,658.84,266.17Zm47,20.58c-21.13-10.93-34.25-7.56-47.15-3.08-6,2.06-10,6.35-9.08,15.26C667.92,301,679.9,282.08,705.88,286.75Zm-7.5-10.31c-.58-9.05-.76-17.44-1.78-25.74-.59-4.87.91-11.83-6.47-12.69-2.17-.26-6.51,3.43-7,5.88C680.26,258.13,686.89,268.34,698.38,276.44Zm-35-1.69c-16.55-3.69-28.79-4.95-40.54,1.36-1.65.88-3.22,4.35-2.76,6.05s3.91,4.28,5.36,3.9C636.92,283,648.21,279.38,663.41,274.75Zm5-5.42c-.55-11.25,11.16-22.07.85-33.12-.67-.72-5.63.72-6.45,2.28C656.75,249.93,663.19,259.54,668.37,269.33Z"/><path class="cls-4" d="M812.21,307.9c-6,11-15.5,17-27.75,18.88L772,322.35a4.69,4.69,0,0,0-.45-.86c.19-1.6.38-3.19.56-4.78l2.84-14.55,5.52-1Z"/><path class="cls-5" d="M812.21,307.9l-31.75-6.71c6.41-6.43,12.72-13,19.28-19.27,5-4.79,10.37-2.57,14.26,1.15C823,291.7,817.54,299.94,812.21,307.9Z"/><path class="cls-6" d="M772.1,316.71c-.18,1.59-.37,3.18-.56,4.78-11.76-5.72-19.69-15.65-27.87-25.31l4.45-2.76C754.12,303.24,761.85,311.26,772.1,316.71Z"/><path class="cls-5" d="M772,322.35l12.47,4.43-14.41,3.36C770.76,327.29,771.38,324.82,772,322.35Z"/><path class="cls-6" d="M765.2,356.07l-1,1.34Z"/><path class="cls-4" d="M312.71,607.94l47.84-2L344.56,743l-22.5,1.53C311.18,699.53,313.61,653.62,312.71,607.94Z"/><path class="cls-4" d="M293.62,738.76c-12.84-46.34-20.08-93.63-23.87-141.5l37.91,10c.26,45.83-2.3,91.84,9,137Z"/><path class="cls-4" d="M395.54,598.71c-3.83,46.07-14.05,91-25,135.73l-20.1,7q7.6-68.28,15.2-136.54Z"/><path class="cls-6" d="M316.62,744.19c-11.26-45.12-8.7-91.13-9-137l5,.71c.9,45.68-1.53,91.59,9.35,136.59Z"/><path class="cls-6" d="M365.65,604.94q-7.61,68.26-15.2,136.54L344.56,743l16-137.09Z"/><path class="cls-3" d="M651.23,435l-23.75-20.73,36.21-31L703.94,418l-11.58,14.13Z"/><path class="cls-3" d="M566.08,382.59l18.64-12.84,38.72,40.84-19.14,13.6Q576.09,411.73,566.08,382.59Z"/><path class="cls-3" d="M720.84,422.39l-9.87-5.2,39-34.79,7.24,2C754.56,406.1,740.62,417,720.84,422.39Z"/><path class="cls-3" d="M553.49,330.45c7.77,12.86,11.67,28.14,25.62,38.15l-15,9.74Z"/><path class="cls-3" d="M609.34,426.13l16-11.6c6.24,6.75,12.1,13.1,18,19.44Z"/><path class="cls-3" d="M757.87,381.3l-9.74-4.68L761.82,365Q759.84,373.14,757.87,381.3Z"/><path class="cls-3" d="M698.4,431.12l9.54-10.49,7.23,4.43Z"/><path class="cls-3" d="M587.57,366.46l30-33.87c14.62,15.72,29,31.12,43.78,47l-34.23,29.14Z"/><path class="cls-3" d="M630.78,316,679,314.56c6.81,8.65,13.62,17.3,21.11,26.79L664,376.22l-43.77-47.15Z"/><path class="cls-3" d="M705.34,344.94l37.89,34.85-38.16,33.48L667,380.57Z"/><path class="cls-3" d="M684.15,314.36l45-12.07-26,35.86Z"/><path class="cls-3" d="M612.53,312.9l12,3c-1.65,2.38-3.29,4.77-5.78,8.39Z"/><path class="cls-3" d="M729.08,302.33l1.15-.81Z"/><path class="cls-7" d="M350.85,560.26c-12.94,0-26.27.37-39.54-.34-2.41-.13-7-5.51-6.45-7.07,3.34-9.83,13.19-6.05,20-8.58-.24-15.2,4.91-21.28,16.78-7.71C346.71,542.32,347.69,551.62,350.85,560.26Z"/><path class="cls-7" d="M370,580c-19.34-1.42-31.27,6.5-44.23,11.68-6.34,2.54-13.22,0-15.6-7s3.68-10.16,9-12.14C335.38,566.46,351,566.93,370,580Z"/><path class="cls-7" d="M385.54,574.63c-11.66-8.12-24.07-15.53-23.28-31.82.32-6.66,7.26-9.5,11.23-7.45C390.25,544,377.69,562.35,385.54,574.63Z"/><path class="cls-7" d="M658.84,266.17c-18.76-5-34.28,2.25-46.51-9.18-1.53-1.43-1.71-6.71-.32-8.39,5.64-6.82,13.11-4.42,20.76-2.42-1.51-8,.23-15.43,9.81-13.38C661.36,236.82,646.59,254.57,658.84,266.17Z"/><path class="cls-7" d="M705.88,286.75c-26-4.67-38,14.2-56.23,12.18-.91-8.91,3.13-13.2,9.08-15.26C671.63,279.19,684.75,275.82,705.88,286.75Z"/><path class="cls-7" d="M698.38,276.44c-11.49-8.1-18.12-18.31-15.25-32.55.49-2.45,4.83-6.14,7-5.88,7.38.86,5.88,7.82,6.47,12.69C697.62,259,697.8,267.39,698.38,276.44Z"/><path class="cls-7" d="M663.41,274.75c-15.2,4.63-26.49,8.28-37.94,11.31-1.45.38-4.88-2.16-5.36-3.9s1.11-5.17,2.76-6.05C634.62,269.8,646.86,271.06,663.41,274.75Z"/><path class="cls-7" d="M668.37,269.33c-5.18-9.79-11.62-19.4-5.6-30.84.82-1.56,5.78-3,6.45-2.28C679.53,247.26,667.82,258.08,668.37,269.33Z"/></g><g id="Layer_2" data-name="Layer 2"><text class="cls-8" transform="translate(578.33 614)">2019/09/30<tspan x="0" y="28.8">O</tspan><tspan class="cls-9" x="16.54" y="28.8">r</tspan><tspan x="24.48" y="28.8">i</tspan><tspan class="cls-10" x="30.1" y="28.8">g</tspan><tspan x="43.37" y="28.8">inal: </tspan><tspan class="cls-11" x="89.59" y="28.8">S</tspan><tspan class="cls-12" x="101.49" y="28.8">an</tspan><tspan class="cls-13" x="126.38" y="28.8">n</tspan><tspan class="cls-12" x="139.39" y="28.8">y </tspan><tspan class="cls-14" x="155.78" y="28.8">v</tspan><tspan x="167.23" y="28.8">an </tspan><tspan class="cls-15" x="197.2" y="28.8">L</tspan><tspan class="cls-12" x="208.2" y="28.8">oon</tspan><tspan class="cls-16"><tspan x="0" y="57.6">h</tspan><tspan class="cls-17" x="13.7" y="57.6">ttps://pin.it/v5</tspan><tspan class="cls-18" x="165.07" y="57.6">r</tspan><tspan class="cls-17" x="173.28" y="57.6">aut7</tspan><tspan class="cls-19" x="220.24" y="57.6">r</tspan><tspan class="cls-20" x="228.38" y="57.6">g</tspan><tspan class="cls-21" x="242.27" y="57.6">v</tspan><tspan class="cls-22" x="254.59" y="57.6">y</tspan><tspan class="cls-17" x="266.13" y="57.6">e</tspan><tspan class="cls-23" x="278.63" y="57.6">g</tspan><tspan class="cls-17" x="292.63" y="57.6">f</tspan></tspan></text></g></svg>