<svg xmlns="http://www.w3.org/2000/svg" viewBox="0 0 1024 1024"><defs><style>.cls-1{fill:#f2f2f2;}.cls-2{fill:#fefefe;}.cls-3{fill:#499875;}.cls-4{fill:#1b593e;}.cls-5{fill:#dad508;}.cls-6{fill:#d64b0b;}.cls-7{fill:#141312;}.cls-8{font-size:24px;font-family:MyriadPro-Regular, Myriad Pro;}.cls-9{letter-spacing:0em;}.cls-10{letter-spacing:-0.01em;}.cls-11{letter-spacing:0em;}.cls-12{letter-spacing:0em;}.cls-13{letter-spacing:-0.01em;}.cls-14{letter-spacing:0em;}.cls-15{letter-spacing:-0.01em;}.cls-16{letter-spacing:0.02em;}.cls-17{letter-spacing:0.02em;}.cls-18{letter-spacing:0.01em;}</style></defs><title>Artboard 2</title><g id="Layer_1" data-name="Layer 1"><rect class="cls-1" x="0.5" y="-511.5" width="1023" height="2047"/><path class="cls-2" d="M0,1023.89V.11Q509.21.11,1018.4,0c3.84,0,4.6.75,4.6,4.6q-.16,507.41,0,1014.8c0,3.85-.76,4.6-4.6,4.6Q509.45,1023.84,0,1023.89ZM764.51,283.07c2.86-7.77,2.57-14.64-5.57-19.24,6.69-26.37-13-22.2-27.64-23.77-4.7-4.29-8.74-9.84-14.19-12.63-25.36-13-51.1-25.2-76.71-37.69-4.57-9.2-12.78-10.36-21.76-9.82-14.56-15.43-33.38-13.94-51.84-12.36-42,3.6-84.57-10.27-126.13,4.39-41.15,14.52-88.44,13.16-122.09,47.07-17.56,1.25-41.09-5.51-35.75,26.53l-7.61,7.27,1.65,31.56c-1.54,2.55-3.1,5.1-4.64,7.66L221.8,375.85c-18.38-.48-35.31.66-30,26.72-4,1.77-7.89,3.6-8.12,8.83l-.28.28.29.28.21,3.05c1.1,14.33,2.67,28.65,3.18,43,.69,19.32,2.62,37.21,27.83,38.65,8.29.47,16.57.83,24.86,1.24,8.63,22.68,9.61,46.57,11.11,70.37-17.85.33-38.31-2.56-32.93,26.54-5.15,2.33-9.17,5.39-7.75,12,2.25,23.83-3.11,52.83,8.69,70.18,14.82,21.77,45.79,14.77,71,9.32,15.67-3.38,17.52-15.58,19-28.4,1.21-10.37,3-20.68,4.48-31l41.77,27.93a18.09,18.09,0,0,1-1.45,3.59Q295.15,744,236.48,829.62C226.63,844,216.35,858,205.42,873.37c16.93,0,34.94,5.35,45.38-1.24,16-10.11,28.28-27.41,39.51-43.49,33.74-48.32,66.21-97.53,99.17-146.39l18.6,13.59c-13,4.74-10.79,15.5-10.11,25.64-5.43,2.25-9.2,5.54-7.62,12.17,1.41,18.34,4.08,36.7,3.89,55-.21,19.71,12,24.73,27.34,26.8,9.84,1.32,20.21,2.77,29.78,1,13.35-2.42,31.12-.92,35.05-18.91,4.22-19.37,5.51-39.37,8.08-59.09,2.92-7.69,2.12-14.27-5.63-18.77l2-8,67.8,2.8.56,6.94-8,8.4,0,1.6.24,2.78c1.42,18,3.85,36,4,54,.1,16.71,8.32,24.37,23.49,26.58,19.22,2.79,38.35,3.59,57-3.46,6-2.26,10.47-6.47,11.41-12.28,3.23-19.94,5.6-40,8.29-60,2.87-7.75,2.72-14.62-5.53-19.17,5.26-13.61-.91-20.5-13.8-23.45l22.11-18c45.2,61.68,88.26,125,138.12,184.51l43.5-2.39c-28.52-38.55-56.11-75.73-83.57-113q-36-48.81-71.69-97.8l30.91-27.28c1.17,19.35-.74,40.74,27.54,42.48,10.44.64,21.22,2.77,31.27,1,13-2.32,30.46-1.09,34.31-18.51,4.26-19.34,5.54-39.33,8.12-59,2.94-7.81,2.33-14.58-5.6-19.23,6.29-31.72-19-20.2-33.07-24.13l8.85-48.1c15.82-2.31,35.85.73,41.44-19.1,5.34-18.94,5.75-39.26,8.33-59,2.71-7.68,2.57-14.52-5.68-18.92,6.71-28.88-15.55-21.63-30.06-24-1-3.6-1.36-7.52-3.06-10.73-11.54-21.75-23.36-43.36-35.08-65Z"/><path class="cls-3" d="M355.16,654.8l-41.77-27.93-12.1-8.28-8.37-6L268.7,594.81l-9.88-7.1q-3.08-6.87-6.14-13.73c-.61-1.91-1.21-3.81-1.82-5.71-1.5-23.8-2.48-47.69-11.11-70.37q-3.51-20.34-7-40.67-3-16.35-6.07-32.71-.6-10.69-1.19-21.39c-.28-2.47-.55-4.93-.83-7.4l-1.89-14.19c-.31-1.89-.63-3.79-.94-5.69L272.23,292c1.54-2.56,3.1-5.11,4.64-7.66l9.21-13.75,4-6.18,10.53-16.67q3.07-4.08,6.13-8.17l8.93-14.86,2.93-5.73c33.65-33.91,80.94-32.55,122.09-47.07,41.56-14.66,84.15-.79,126.13-4.39,18.46-1.58,37.28-3.07,51.84,12.36l21.76,9.82c25.61,12.49,51.35,24.71,76.71,37.69,5.45,2.79,9.49,8.34,14.19,12.63l2.88,5.95,7,14,4,7.54,7.56,14.17,3.35,6.07q3.4,6.17,6.83,12.32c11.72,21.65,23.54,43.26,35.08,65,1.7,3.21,2.07,7.13,3.06,10.73q-.41,3.1-.8,6.21l1,12.18c-.29,2.39-.59,4.79-.88,7.18l-7.23,42.78-1.08,10.48-5.07,42.2L778.2,545l-1.89,6q-2.82,6.31-5.65,12.65l-7,7.19-16,19.07-8.58,8.62-23.48,23.92-30.91,27.28-16.49-21.44L712.87,586l18.18-18.87,13.11-17,6-5.93q.89-3.47,1.76-6.93c.39-1.45.77-2.9,1.16-4.35q3.23-19,6.44-38.09l8.07-66.49c.45-2.45.91-4.9,1.36-7.36q1.66-9.37,3.32-18.76l1.4-7.58q.71-7,1.42-14.11l-4.62-7.15-15.06-28.06L732.3,301.57l-4.79-8.5L713,265.51l-3.69-7.15-7.58-8.45-5.47-2.27-7.87-2.92-10-5L645.3,222.63l-6.83-3.4-31.38-14.48-11.37-7-3.9-3.06-37.57.16-6,0-43.57-1.1-5.24-.13-37,.09-4.52,1.88-52.8,13.57-40.59,12.57-12.63,4.55-8.24,5.23-1.56,5.6-6.33,8.49-17.49,25.61-6.54,10.6q-15.1,23.44-30.2,46.91-15,24-30,48.09l-2.78,5.9q1.41,6.28,2.81,12.57.59,3.75,1.16,7.51.61,9.34,1.21,18.71l2.49,15.83,10.5,55.35c7.31,23.07,9,47,11,70.91l1.53,3.13,1.45,2.75,8.76,6.37,14.9,10.91,5.14,3.26,59.9,42.8ZM250.48,470.64c-.8,3.12-1.78,5.32-1.81,7.54,0,1.7,1.16,3.41,1.84,5.22C256.81,481.39,256.79,478.54,250.48,470.64ZM459.8,184.23c2-2.41,4-3.78,4.06-5.2s-2.12-2.63-3.31-3.94c-1.29,1.29-3.19,2.41-3.64,3.95C456.6,180.09,458.32,181.73,459.8,184.23Zm129.31-1.58,6.07,5c1.28-2.37,2.57-4,2.91-5.79.14-.72-2-2.76-2.78-2.59C593.52,179.66,591.94,181,589.11,182.65ZM790.89,375.2c-2.3-1.78-4-3.85-4.76-3.55a7.89,7.89,0,0,0-3.8,4c-.23.51,2.15,3.12,3.25,3.06C787.07,378.62,788.48,376.9,790.89,375.2ZM764.38,552.74c1.92-2.94,3.7-4.46,3.59-5.82s-2-2.72-3.18-4.07c-1.23,1.26-3.24,2.39-3.47,3.81S762.73,549.67,764.38,552.74ZM332.57,222.4c4.17-1.52,6.26-1.77,7.47-2.93.66-.63.29-3.17-.49-4.19-.59-.78-3.35-1.13-3.75-.61C334.65,216.16,334.22,218.2,332.57,222.4Zm374.52,20.44c3.71,0,5.58.36,7.16-.15.78-.26,1.54-2.18,1.41-3.25-.19-1.72-1.12-3.35-2.38-6.75Zm68.45,180.58c7.59-4.5,9.8-5.17,10.85-6.66.65-.92-.47-3.08-1.38-7.62C782,413.69,780.64,415.73,775.54,423.42ZM346.37,628.24c-5.46-2.06-7.66-.86-8.21,4.57,1.81.3,4,1.34,5.08.67C344.63,632.64,345.18,630.38,346.37,628.24ZM741.71,299l12.92,8.75c-1.44-4.82-1.45-7.16-2.58-8S748.6,299.4,741.71,299ZM308.82,602.14l-6.83-.62v12.24C305.41,607.94,306.71,605.74,308.82,602.14ZM661.75,225.55l14.26-4.1c-3.94-2-5.85-3.72-6.9-3.3C667.37,218.84,666.18,220.91,661.75,225.55Zm-394,344.9c-5.21-1-6.77.9-5.57,5.86C267.14,577.53,268.67,575.63,267.74,570.45ZM406.46,185l11.21,9.58c-.26-4.3.24-6.71-.6-7.36C415.72,186.22,413.46,186.37,406.46,185Zm140.35-2.24c3.28-3.11,2.83-5.11-.82-7.39l-4.1,4.63Zm88,25.91c2-4.61,3-6,3-7.46,0-.78-1.65-2.13-2.64-2.21s-2.88,1.16-2.88,1.8C632.29,202.41,633.18,204,634.8,208.71ZM503.25,183v-8l-7.85,3.76C498.81,180.61,500.44,181.5,503.25,183ZM242.67,443c.66-2.94,1.32-4.5,1.21-6a3.1,3.1,0,0,0-2.53-1.65c-1.42.49-2.58,1.71-4.5,3.12Zm12.51,83.37c1.23,1.07,2.31,2.76,3.43,2.79,1.4,0,2.83-1.31,4.43-2.16C260.44,522.37,258.23,522.33,255.18,526.34Zm516.93-63.77c1.12,1.63,1.72,3.48,2.82,3.86,1.28.44,3-.41,4.8-.74C778.49,461.2,776.52,460.3,772.11,462.57ZM694.57,621c5.14-.59,7.37-.22,8.09-1.09s.18-3.06.18-6.77ZM279.5,304.64c2.19.14,4.15.81,5.49.17,1-.49,1.23-2.64,1.9-4.31C282.77,298.9,280.62,299.38,279.5,304.64Zm450-34.45c3.88,2,5.89,1.3,6.54-3.11C732.5,265.14,730.31,265.38,729.46,270.19ZM263.74,334.74c-4.62,1.64-6.46,1.81-7.41,2.82-.58.61-.11,2.71.52,3.77.36.61,2.55,1,2.93.57C260.87,340.71,261.44,339.07,263.74,334.74Zm-25.93,47.11,3.75-5-4.32-2.74-3,4ZM776.9,505.1c-4.6,0-7.14-.56-7.52.12-.73,1.27-.21,3.24-.21,6.92Zm-399.52-301c-1.42-1.22-2.45-2.82-3.59-2.91s-2.39,1.36-3.64,2.17C372.1,207.22,374.05,207.43,377.38,204.15Zm362,375.64c-1.82,0-3.59-.51-4.6.15s-1.15,2.46-1.73,3.92C737,585.53,739.05,585.11,739.39,579.79ZM306.53,260.28c2.18,3.65,4,3.66,6.36.52l-2.74-3.87C308.66,258.32,307.68,259.22,306.53,260.28Zm457.35,71.09c1.49,3.56,1.72,5.57,2.72,6.09s2.65-.69,6.22-1.85Z"/><path class="cls-4" d="M355.16,654.8l14.45-22c11-14.32,22.77-28.08,32.75-43.05,27.35-41,53.94-82.59,80.84-123.94,8.3,13,18.69,22.58,35.57,21.3L509.64,502l-13.19,15.38v1.66l.06-.12c-8,11.49-16.4,22.75-24,34.49-22.92,35.31-45.55,70.8-68.3,106.22q-7.35,11.3-14.69,22.58c-33,48.86-65.43,98.07-99.17,146.39C279.08,844.72,266.8,862,250.8,872.13c-10.44,6.59-28.45,1.24-45.38,1.24C216.35,858,226.63,844,236.48,829.62q58.74-85.53,117.23-171.23A18.09,18.09,0,0,0,355.16,654.8Z"/><path class="cls-4" d="M668.23,628.25l16.49,21.44q35.84,48.91,71.69,97.8c27.46,37.27,55.05,74.45,83.57,113l-43.5,2.39c-49.86-59.56-92.92-122.83-138.12-184.51L642,655.64a1.09,1.09,0,0,1,.06-.71l-.51-1.27-96.9-138.82-19.55-29c15-5.08,20.88-17.18,24.32-31.2l1.67,1.42,2.37,1.11-.11-.07c13.77,19.77,27.86,39.31,41.23,59.35C619.38,553.54,643.72,591,668.23,628.25Z"/><path class="cls-3" d="M642,655.64l16.32,22.73-22.11,18-5.91,5.79c-19.6,18.4-44.16,8.38-66.41,11.56l-5.26.75-67.8-2.8-6.21-.11c-22.88-4.5-47.71,3.3-69.06-10.9l-7.52-4.84-18.6-13.59q7.35-11.28,14.69-22.58c12.82,6.67,21.91,19.68,37.33,22l4.14.85c11.44.54,22.88,1,34.32,1.64,41.55,2.36,83.09,5.55,124.67.41l4.74-1.74ZM483.09,692.41c-2.14,2.44-4.13,3.76-4.41,5.38-.17,1,2.33,3.65,3.36,3.51a6.17,6.17,0,0,0,4.25-3.45C486.65,696.82,484.69,695,483.09,692.41Zm76.15,6.44c5.32,2.84,6.65,4.07,8,4.17,1.67.11,3.41-.74,5.11-1.18l-2.68-3.73Zm-120.46,2.22c-2-5.68-2.16-7.7-3.2-8.45s-2.84.12-7.15.53Zm171.65.32c.16-2.76.27-4.69.38-6.61-4.77-.83-5.76,1-5.23,4.79Zm-81.5-9.34c-4.94,3.94-6.84,4.76-7.36,6.11-.35.9,1.28,2.55,3.14,5.86C526.11,700.06,526.73,698.28,528.93,692.05Z"/><path class="cls-5" d="M655.58,739c-2.69,20-5.06,40.11-8.29,60-.94,5.81-5.43,10-11.41,12.28-18.68,7-37.81,6.25-57,3.46-15.17-2.21-23.39-9.87-23.49-26.58-.1-18-2.53-36-4-54,7,16.5,21.25,15.86,35,14.29,3.32,11.49,2.81,26.8,16.26,28,18.77,1.65,18.8-17.45,24.91-29.84C637.56,746.89,647.35,745.65,655.58,739Z"/><path class="cls-5" d="M494.49,738.51c-2.57,19.72-3.86,39.72-8.08,59.09-3.93,18-21.7,16.49-35.05,18.91-9.57,1.73-19.94.28-29.78-1-15.38-2.07-27.55-7.09-27.34-26.8.19-18.32-2.48-36.68-3.89-55,6.34,17.11,20.64,16.44,34.56,14.84,3.57,11.34,3.21,26.74,16.38,28,19,1.81,18.94-17.7,25.25-29.93C476.75,746.82,486.55,745.72,494.49,738.51Z"/><path class="cls-5" d="M301.29,618.59l12.1,8.28c-1.51,10.33-3.27,20.64-4.48,31-1.49,12.82-3.34,25-19,28.4-25.24,5.45-56.21,12.45-71-9.32-11.8-17.35-6.44-46.35-8.69-70.18,6.24,17.56,20.81,16.63,34.64,15.14,3.78,11.22,2.93,26.62,16.42,27.94,18.95,1.86,18.86-17.32,24.89-29.31Z"/><path class="cls-5" d="M715.63,622.41l23.48-23.92,8.46-.65c3,11.39,3,26.54,16,27.95,19.08,2.08,19.08-17.4,25.33-29.75,10.06.17,19.85-1,28-7.72-2.58,19.71-3.86,39.7-8.12,59-3.85,17.42-21.28,16.19-34.31,18.51-10.05,1.79-20.83-.34-31.27-1C714.89,663.15,716.8,641.76,715.63,622.41Z"/><path class="cls-5" d="M232.72,457.23q3.53,20.34,7,40.67c-8.29-.41-16.57-.77-24.86-1.24-25.21-1.44-27.14-19.33-27.83-38.65-.51-14.35-2.08-28.67-3.18-43,6.91,16.49,20.93,16.19,35.11,14.3C221.86,440,222,451.22,232.72,457.23Z"/><path class="cls-5" d="M787.05,496.86l5.07-42.21c11.65-5.34,11.3-17.84,16.5-27.71,9.72-.79,20-.9,28.2-8.15-2.58,19.71-3,40-8.33,59C822.9,497.59,802.87,494.55,787.05,496.86Z"/><path class="cls-6" d="M494.49,738.51c-7.94,7.21-17.74,8.31-27.95,8-6.31,12.23-6.29,31.74-25.25,29.93-13.17-1.25-12.81-16.65-16.38-28-13.92,1.6-28.22,2.27-34.56-14.84-1.58-6.63,2.19-9.92,7.62-12.17l4.52-2c27.19-8,54.65-5.94,82.15-2.09l4.22,2.31C496.61,724.24,497.41,730.82,494.49,738.51ZM489,737.29c1.05-9.12-3.39-11.83-7.2-12.41-28.24-4.32-56.46-6.49-89.22,6.37C411.8,744.45,445,736.8,441,773.53,455.8,754.64,460.85,729.21,489,737.29Z"/><path class="cls-6" d="M655.58,739c-8.23,6.64-18,7.88-28,7.63-6.11,12.39-6.14,31.49-24.91,29.84-13.45-1.17-12.94-16.48-16.26-28-13.78,1.57-28.06,2.21-35-14.29l-.24-2.78c0-.54,0-1.07,0-1.61l8-8.4,4.37-1.91c27.27-8,54.8-5.92,82.37-2.13l4.08,2.45C658.3,724.39,658.45,731.26,655.58,739Zm-5.92-1.53c1.77-9.1-2.61-11.78-6.52-12.44-28.23-4.72-56.4-6.54-89.84,6.39,20.35,12.62,52.65,5.93,48.91,42.12C617.1,754.9,621.8,729.26,649.66,737.48Z"/><path class="cls-6" d="M301.29,618.59l-15.16,2c-6,12-5.94,31.17-24.89,29.31-13.49-1.32-12.64-16.72-16.42-27.94-13.83,1.49-28.4,2.42-34.64-15.14-1.42-6.58,2.6-9.64,7.75-12l4.38-1.89,36.51-5.21,9.88,7.1c-17.28.78-34.9-.37-51.1,8.65C219.25,613,226,615.38,233.66,615c10.65-.57,21.26-3.1,21,13.73-.09,5,1.25,13.19,8.29,13.75,7.65.61,9.73-7,11.8-12.86,3.14-9,3.87-20.15,18.21-17Z"/><path class="cls-6" d="M816.87,588.32c-8.16,6.74-18,7.89-28,7.72-6.25,12.35-6.25,31.83-25.33,29.75-12.92-1.41-13-16.56-16-27.95l-8.46.65,8.58-8.62c6.5.12,8.08,4,8.52,9.81.53,6.9,1.6,14.09,7.78,18.61,1.13.83,5.23,0,5.75-1.1,8.6-18.16,16.92-36.39,51.26-28.94-22.28-20.51-40.62-15.78-57.3-17.45l7-7.19,36.41,3.22,4.2,2.26C819.2,573.74,819.81,580.51,816.87,588.32Z"/><path class="cls-6" d="M232.72,457.23C222,451.22,221.86,440,219,429.31c-14.18,1.89-28.2,2.19-35.11-14.3l-.21-3.05a.36.36,0,0,0,0-.56c.23-5.23,4.15-7.06,8.12-8.83l4.35-2.08,28.5-4.76c.28,2.47.55,4.93.83,7.4a72.3,72.3,0,0,0-33.67,7.59c-.23,8.45,6.07,10.28,11.87,11.82,7.47,2,15.72-3.62,23,2Q229.68,440.87,232.72,457.23Z"/><path class="cls-6" d="M836.82,418.79c-8.15,7.25-18.48,7.36-28.2,8.15-5.2,9.87-4.85,22.37-16.5,27.71l1.08-10.47c3.33-22.2,19.27-28.47,40.63-27.86-8.07-18-23.05-10.57-33.4-14.92.29-2.39.59-4.79.88-7.18L827,397.38l4.16,2.49C839.39,404.27,839.53,411.11,836.82,418.79Z"/><path class="cls-6" d="M306.72,239.61c-2,2.72-4.08,5.45-6.13,8.16L283,253.05c-.59,6.77,3,9.28,7.07,11.4l-4,6.18c-7.55-3.55-10.88-9.65-10.86-17.81l7.61-7.27,4.35-1.9Z"/><path class="cls-7" d="M811.27,569.09l-4.2-2.26c.28-25.65-20.25-11.07-30.76-15.87l1.89-6C792.24,548.89,817.56,537.37,811.27,569.09Z"/><path class="cls-7" d="M222.31,592.92l-4.38,1.89c-5.38-29.1,15.08-26.21,32.93-26.54.61,1.9,1.21,3.8,1.82,5.71-9.78,1.42-20.6-3-29.05,4.38C223.14,583.74,222.73,588.33,222.31,592.92Z"/><path class="cls-7" d="M287.18,243.65l-4.35,1.9c-5.34-32,18.19-25.28,35.75-26.53q-1.47,2.86-2.93,5.73c-9.24,1.45-19.72-3.17-27.12,4.57C288,234.78,287.6,239.22,287.18,243.65Z"/><path class="cls-6" d="M756.11,287.77l-3.35-6.07,7.67-3.47c-2.72-8-8-10.68-15.23-10.7l-4-7.54,13.63,1.46,4.11,2.38c8.14,4.6,8.43,11.47,5.57,19.25Z"/><path class="cls-7" d="M831.14,399.87,827,397.38c1.29-22.81-16.37-12.71-26.7-15.34q.39-3.1.8-6.21C815.59,378.24,837.85,371,831.14,399.87Z"/><path class="cls-7" d="M196.13,400.49l-4.35,2.08c-5.29-26.06,11.64-27.2,30-26.72.31,1.9.63,3.8.94,5.69-8.55,1.56-18.33-2.79-25.35,4.67C196.94,391.36,196.54,395.92,196.13,400.49Z"/><path class="cls-7" d="M758.94,263.83l-4.11-2.38c2.34-17.46-10.55-14.59-20.65-15.44l-2.88-5.95C746,241.63,765.63,237.46,758.94,263.83Z"/><path class="cls-7" d="M650.05,719.84,646,717.39c2-12.44-5.06-15.63-15.63-15.21l5.91-5.79C649.14,699.34,655.31,706.23,650.05,719.84Z"/><path class="cls-7" d="M402.48,719.52l-4.51,2c-.68-10.14-2.93-20.9,10.11-25.64l7.52,4.84-11.86,3.16C403.21,710.37,402.85,715,402.48,719.52Z"/><path class="cls-5" d="M275.22,252.82c0,8.16,3.31,14.26,10.86,17.81l-9.21,13.75Z"/><path class="cls-7" d="M640.4,189.74l-21.76-9.82C627.62,179.38,635.83,180.54,640.4,189.74Z"/><path class="cls-5" d="M756.11,287.77l8.4-4.69q-.78,8.51-1.57,17Q759.52,293.94,756.11,287.77Z"/><path class="cls-7" d="M488.86,719.74l-4.23-2.31,0-5.85,6.21.11Z"/><path class="cls-7" d="M563.6,719.52l-4.37,1.91q-.27-3.46-.56-6.94l5.26-.75Z"/><path class="cls-5" d="M551.21,729.83c0,.54,0,1.07,0,1.61C551.18,730.9,551.2,730.37,551.21,729.83Z"/><path class="cls-5" d="M183.66,411.4a.36.36,0,0,1,0,.56l-.29-.28Z"/><path class="cls-2" d="M277.93,563.6c-2-23.89-3.69-47.84-11-70.91,6.64-1.5,11.66-5.9,12.7-12.05,3.44-20.2,5.87-40.56,8.68-60.86,1.9-7.49,2.7-14.65-5.7-19.07l2-6.08C355.83,398.5,425,411.49,493.48,428.3l-11.05,21c-12.43,6.93-25.41,13-37.2,20.93C392,505.9,333.35,531.88,277.93,563.6Z"/><path class="cls-2" d="M759.52,494.84q-3.22,19.05-6.44,38.09L547.46,446.1c-.24-1.16-.49-2.32-.74-3.48l192.85-55.54c.26,5.1.49,9.69.73,14.28-5.17,2.29-9.13,5.36-7.74,11.9,1.31,17.52,3.33,35,3.73,52.56C736.66,482,742.45,492.61,759.52,494.84Z"/><path class="cls-2" d="M251.54,376.82q15-24,30-48.09c24,17.16,50.14,14.49,76.22,7.19,18.25-5.1,14.13-22.67,17.42-35.82,1.39-5.6,1.66-11.47,2.44-17.23,44.23,41.09,74.5,93.65,118,140.18-28.86-8.43-54.37-12.37-79.6-17.6C361.43,394.12,305.1,393.35,251.54,376.82Z"/><path class="cls-2" d="M483.2,465.83c-26.9,41.35-53.49,82.9-80.84,123.94-10,15-21.78,28.73-32.75,43.05L309.71,590c2.81-24.21-15.59-18.75-28.8-20.54l-1.45-2.75c21.65-11.12,43.62-21.67,64.88-33.48,46.2-25.66,92.05-52,138-78C482.65,458.76,482.92,462.3,483.2,465.83Z"/><path class="cls-2" d="M668.23,628.25c-24.51-37.29-48.85-74.71-73.61-111.84-13.37-20-27.46-39.58-41.23-59.35,28.81,10.8,56.71,23.59,84.72,36.32,37,16.8,75.79,29.46,113.81,43.9q-.87,3.47-1.76,6.93c-18.32-.49-34.91.94-29.75,26.63-7.53,2.57-9.06,8.13-7.54,15.19Z"/><path class="cls-2" d="M504.63,193.76l43.57,1.09c.17,3.32.35,6.63.52,9.94-5.1,2.34-9.2,5.33-7.72,11.92,1.58,19.28,4.38,38.56,4.39,57.84,0,18.33,12.23,21.05,25.35,24.17-.38,1.61-.71,3.24-1.14,4.84Q553,365.45,536.38,427.33L518,421.09c-17.6-40.72-18.87-85.53-31.87-127.41,7.59-1.84,13.61-6.41,14.86-13.91,3.28-19.77,5.5-39.73,8.14-59.61,2.56-7.7,2.42-14.61-5.63-19.21C503.89,198.55,504.26,196.16,504.63,193.76Z"/><path class="cls-2" d="M755.41,345.33l15.06,28.06L544.65,438,542,434c9.68-10.6,20.65-20.29,28.8-31.95,26.67-38.2,60.89-69.84,90.14-105.76,1.95,17.41.41,36.23,6.74,51.87C675.6,367.65,744.59,364.14,755.41,345.33Z"/><path class="cls-2" d="M364.49,221.74l40.59-12.57-.21,4.67c1.15,15.55,3.13,31.1,3.23,46.66.12,20.05,5.09,35.47,28.54,36.46,14.5.61,29.21,3.6,43.48-1.88,13.93,41.19,13.81,85.94,32,126.05l-10.94,2.7c-40.43-50-76.78-103.33-122.79-148.72q.48-6,.95-12c2.51-7.7,2.52-14.67-5.63-19.26C378.24,233.31,374.84,226.08,364.49,221.74Z"/><path class="cls-2" d="M645.3,222.63l33.14,17.09c-13,4.73-11.38,15.34-10.33,25.71-11.88,4.11-7.15,14-7.63,22-39,46.63-81.52,90.28-121.83,147.78,14.76-51.39,26.91-93.68,39.06-136,4,.27,8,1,11.91.75,17.69-1,39.56,2.81,46.83-18.14,6.37-18.4,6-39.12,8.66-58.82Z"/><path class="cls-5" d="M755.41,345.33c-10.82,18.81-79.81,22.32-87.71,2.82-6.33-15.64-4.79-34.46-6.74-51.87l7.06-7.89c8.32,6.66,18.08,4.93,27.2,4.06,3.62,11.53,2.55,26.48,17.48,28.34,11.75,1.46,16.31-9.4,19.6-19.22Z"/><path class="cls-5" d="M377.58,282.87c-.78,5.76-1.05,11.63-2.44,17.23-3.29,13.15.83,30.72-17.42,35.82-26.08,7.3-52.22,10-76.22-7.19q15.11-23.46,30.2-46.91c3.51,8,4.73,19.64,15.89,19.16,17.75-.77,17.74-18,23.56-30l14.26-.88Z"/><path class="cls-7" d="M377.58,282.87l-12.16-12.78L360,262.63l-10.63-15.95-7.31-9.55q.76-2.81,1.55-5.6l6.4,8.11,2.32.73-.13-.12,5.25,7.4L367,262l4.18,5.79,7.18,7.32c46,45.39,82.36,98.74,122.79,148.72l-7.69,4.47c-68.5-16.81-137.65-29.8-208.89-33.67l-2,6.08-4.13-2.32v-8.05l-29.72-7.62,2.78-5.9c53.56,16.53,109.89,17.3,164.43,28.63,25.23,5.23,50.74,9.17,79.6,17.6C452.08,376.52,421.81,324,377.58,282.87Z"/><path class="cls-7" d="M668,288.39,661,296.28C631.71,332.2,597.49,363.84,570.82,402,562.67,413.7,551.7,423.39,542,434l-5.64-6.66Q553,365.46,569.6,303.56c.43-1.6.76-3.23,1.14-4.84l10.44-48.78L585,233.65l4.23-28.72q.81-3.57,1.61-7.14l1-3.12,3.9,3.06c.28,2.37.55,4.75.83,7.13l-8,44.33c-.72,2.78-1.44,5.57-2.15,8.35l-8.64,41.73c-12.15,42.28-24.3,84.57-39.06,136,40.31-57.5,82.83-101.15,121.83-147.78l8-9.13,7.46-7.8q4.74-5,9.5-10l10.79-12.9,5.47,2.27-7,8.7-7.87,8.74-13.7,15.31Z"/><path class="cls-5" d="M759.52,494.84c-17.07-2.23-22.86-12.82-23.23-29-.4-17.54-2.42-35-3.73-52.56,6.3,17.49,20.52,16.62,35,15.09Z"/><path class="cls-5" d="M292.92,612.6c-14.34-3.15-15.07,8-18.21,17-2.07,5.9-4.15,13.47-11.8,12.86-7-.56-8.38-8.72-8.29-13.75.3-16.83-10.31-14.3-21-13.73-7.69.4-14.41-2-16.06-11.52,16.2-9,33.82-7.87,51.1-8.65Z"/><path class="cls-7" d="M544.65,438l225.82-64.61,4.62,7.15L746,385.21c-.51,5.26-.93,9.68-1.36,14.09l-4.37,2.06c-.24-4.59-.47-9.18-.73-14.28L546.72,442.62Z"/><path class="cls-5" d="M763.7,570.8c16.68,1.67,35-3.06,57.3,17.45-34.34-7.45-42.66,10.78-51.26,28.94-.52,1.1-4.62,1.93-5.75,1.1-6.18-4.52-7.25-11.71-7.78-18.61-.44-5.83-2-9.69-8.52-9.81Q755.7,580.35,763.7,570.8Z"/><path class="cls-7" d="M751.92,537.28c-38-14.44-76.85-27.1-113.81-43.9-28-12.73-55.91-25.52-84.72-36.32l.11.07L551.13,456l-1.67-1.42c-.66-2.84-1.33-5.67-2-8.5l205.61,86.83C752.69,534.38,752.31,535.83,751.92,537.28Z"/><path class="cls-5" d="M288.31,419.78c-2.81,20.3-5.24,40.66-8.68,60.86-1,6.15-6.06,10.55-12.7,12.05l-10.5-55.35,3.23-9.39C269.73,427.23,280.14,427.12,288.31,419.78Z"/><path class="cls-7" d="M512.11,421.13c-18.18-40.11-18.06-84.86-32-126l-8.94-43.59q-1.1-6.53-2.17-13l-9.92-35.87c-.4-2.33-.81-4.65-1.21-7l4.52-1.88,1,2.05,2.61,7q3.22,12.69,6.47,25.39l2.88,14.48q5.42,25.5,10.82,51c13,41.88,14.27,86.69,31.87,127.41Z"/><path class="cls-7" d="M482.38,455.23c-46,26-91.84,52.36-138,78-21.26,11.81-43.23,22.36-64.88,33.48l-1.53-3.13c55.42-31.72,114-57.7,167.3-93.34,11.79-7.89,24.77-14,37.2-20.93C482.42,451.29,482.4,453.26,482.38,455.23Z"/><path class="cls-5" d="M673.13,282.66l13.71-15.31L713,265.51l14.49,27.56c-3.53,7.35-3.47,17.19-13.29,20.15-1.43.43-5.22-1.77-5.39-3.08-2.46-19.15-11.67-29.35-32.27-25.64C675.56,284.68,674.28,283.31,673.13,282.66Z"/><path class="cls-5" d="M349.38,246.68,360,262.63c-7.18,1.84-16.55-1.6-18.45,11.14-1.15,7.74-3.28,20.27-13.62,19-9.61-1.18-8.32-13.33-9.7-21.56l17.49-25.61Z"/><path class="cls-5" d="M588.5,249.19q4-22.17,8-44.34l10.54-.1,31.38,14.48c-10.71,6.47-30.24-3.52-33,18.87C604.73,244.65,602.51,258.48,588.5,249.19Z"/><path class="cls-6" d="M469,238.45q1.08,6.51,2.17,13c-29.06,20.22-24.32-9.06-32.84-21.54-29.86-5-29.86-5-33.47-16.11l.21-4.67,52.8-13.57c.4,2.33.81,4.65,1.21,7-15.77,1.18-31.95.24-46.76,8.68,1.72,9.6,8.36,12.08,16.4,11.56,10.51-.67,20.91-3,20.61,13.61-.09,5.07,1.13,13.45,8.68,13.92C464.82,250.77,466.9,243.93,469,238.45Z"/><path class="cls-6" d="M673.13,282.66c1.15.65,2.43,2,3.43,1.84,20.6-3.71,29.81,6.49,32.27,25.64.17,1.31,4,3.51,5.39,3.08,9.82-3,9.76-12.8,13.29-20.15l4.79,8.5c-3.29,9.82-7.85,20.68-19.6,19.22-14.93-1.86-13.86-16.81-17.48-28.34-9.12.87-18.88,2.6-27.2-4.06Z"/><path class="cls-6" d="M318.24,271.22c1.38,8.23.09,20.38,9.7,21.56,10.34,1.26,12.47-11.27,13.62-19,1.9-12.74,11.27-9.3,18.45-11.14l5.41,7.46-14.27.88c-5.82,12-5.81,29.24-23.56,30-11.16.48-12.38-11.18-15.89-19.16Z"/><path class="cls-6" d="M740.3,401.36l4.37-2.06,29-4.65q-.7,3.78-1.4,7.58a68.51,68.51,0,0,0-32.68,7.85c5.6,16.06,18.61,10.57,29.36,10.91-.45,2.46-.91,4.91-1.36,7.36-14.51,1.53-28.73,2.4-35-15.09C731.17,406.72,735.13,403.65,740.3,401.36Z"/><path class="cls-6" d="M288.31,419.78c-8.17,7.34-18.58,7.45-28.65,8.17l-3.23,9.39-2.49-15.84c9.64-3.08,21,1.21,30.12-7.14-6.78-14.51-21-8-31.33-11.56q-.57-3.76-1.16-7.51l26.91,3.1,4.13,2.32C291,405.13,290.21,412.29,288.31,419.78Z"/><path class="cls-5" d="M800.43,401.4c10.35,4.35,25.33-3.09,33.4,14.92-21.36-.61-37.3,5.66-40.63,27.86Z"/><path class="cls-6" d="M588.5,249.19c14,9.29,16.23-4.54,17-11.09,2.71-22.39,22.24-12.4,33-18.87l6.83,3.4-.19.43c-8.67,5.81-18.71,6.84-26.5,7.28-10.25,11.92-6.34,36.64-32.26,27.2C587.06,254.76,587.78,252,588.5,249.19Z"/><path class="cls-5" d="M226.65,424.52c-7.27-5.6-15.52,0-23-2-5.8-1.54-12.1-3.37-11.87-11.82a72.3,72.3,0,0,1,33.67-7.59Q226.06,413.83,226.65,424.52Z"/><path class="cls-2" d="M222.31,592.92c.42-4.59.83-9.18,1.32-14.56,8.45-7.37,19.27-3,29.05-4.38q3.07,6.85,6.14,13.73Z"/><path class="cls-5" d="M769,421c-10.75-.34-23.76,5.15-29.36-10.91a68.51,68.51,0,0,1,32.68-7.85Q770.61,411.61,769,421Z"/><path class="cls-2" d="M776.31,551c10.51,4.8,31-9.78,30.76,15.87l-36.41-3.22Q773.48,557.28,776.31,551Z"/><path class="cls-5" d="M252.73,402.8c10.36,3.52,24.55-2.95,31.33,11.56-9.08,8.35-20.48,4.06-30.12,7.14Q253.34,412.16,252.73,402.8Z"/><path class="cls-2" d="M196.13,400.49c.41-4.57.81-9.13,1.26-14.28,7-7.46,16.8-3.11,25.35-4.67l1.89,14.19Z"/><path class="cls-2" d="M773.67,394.65l-29,4.65c.43-4.41.85-8.83,1.36-14.09l29.06-4.67Q774.39,387.59,773.67,394.65Z"/><path class="cls-2" d="M287.18,243.65c.42-4.43.84-8.87,1.35-14.33,7.4-7.74,17.88-3.12,27.12-4.57l-8.93,14.86Z"/><path class="cls-2" d="M800.28,382c10.33,2.63,28-7.47,26.7,15.34l-25.67-3.16Q800.8,388.13,800.28,382Z"/><path class="cls-2" d="M350,239.64l-6.4-8.11,8.24-5.24c10.34,0,20.1.63,17.65,15.31l-17.3-1.35.13.12Z"/><path class="cls-2" d="M278.48,398.39l-26.91-3.1q-1.41-6.29-2.81-12.57l29.72,7.62Z"/><path class="cls-2" d="M696.28,247.64l-10.79,12.9-13,3c.38-4.6.76-9.2,1.14-13.73,3.54-5.74,9.38-4.79,14.79-5.12Z"/><path class="cls-7" d="M720.41,570.84c-5.16-25.69,11.43-27.12,29.75-26.63l-6,5.93c-6.46.64-13.87-1.92-18.19,5-.52,4.91-1,9.37-1.46,13.83Z"/><path class="cls-2" d="M734.18,246c10.1.85,23-2,20.65,15.44L741.2,260Z"/><path class="cls-2" d="M591.82,194.67l-1,3.12-37.6,5.12,1-8.08Z"/><path class="cls-2" d="M724.51,569c.47-4.46.94-8.92,1.46-13.83,4.32-6.9,11.73-4.34,18.19-5l-13.11,17Z"/><path class="cls-7" d="M280.91,569.48c13.21,1.79,31.61-3.67,28.8,20.54l-5.14-3.26c.69-11.34-7.52-10.56-14.9-10.91Z"/><path class="cls-7" d="M688.41,244.72c-5.41.33-11.25-.62-14.79,5.12-.38,4.53-.76,9.13-1.14,13.73l-4.37,1.86c-1.05-10.37-2.68-21,10.33-25.71Z"/><path class="cls-7" d="M369.51,241.6c2.45-14.68-7.31-15.33-17.65-15.31l12.63-4.55c10.35,4.34,13.75,11.57,9.21,22.1Z"/><path class="cls-6" d="M713,265.51l-26.18,1.84,7.86-8.74,14.63-.25Z"/><path class="cls-5" d="M290.06,264.45c-4.11-2.12-7.66-4.63-7.07-11.4l17.6-5.28Z"/><path class="cls-2" d="M463.36,195.77l-1-2.05,37-.09-.18,5.1Z"/><path class="cls-6" d="M724.51,569l6.54-1.78L712.87,586c-1.52-7.07,0-12.63,7.54-15.2Z"/><path class="cls-5" d="M745.2,267.53c7.19,0,12.51,2.72,15.23,10.7l-7.67,3.47Z"/><path class="cls-2" d="M709.33,258.36l-14.63.25,7-8.7Z"/><path class="cls-2" d="M289.67,575.85c7.38.35,15.59-.43,14.9,10.91Z"/><path class="cls-6" d="M349.38,246.68l-13.65-1.07,6.33-8.49Z"/><path class="cls-2" d="M250.48,470.64c6.31,7.9,6.33,10.75,0,12.76-.68-1.81-1.86-3.52-1.84-5.22C248.7,476,249.68,473.76,250.48,470.64Z"/><path class="cls-7" d="M554.25,194.83l-1,8.08-4.51,1.88c-.17-3.31-.35-6.62-.52-9.94Z"/><path class="cls-2" d="M459.8,184.23c-1.48-2.5-3.2-4.14-2.89-5.19.45-1.54,2.35-2.66,3.64-3.95,1.19,1.31,3.34,2.65,3.31,3.94S461.8,181.82,459.8,184.23Z"/><path class="cls-2" d="M589.11,182.65c2.83-1.64,4.41-3,6.2-3.37.77-.17,2.92,1.87,2.78,2.59-.34,1.8-1.63,3.42-2.91,5.79Z"/><path class="cls-2" d="M790.89,375.2c-2.41,1.7-3.82,3.42-5.31,3.49-1.1.06-3.48-2.55-3.25-3.06a7.89,7.89,0,0,1,3.8-4C786.89,371.35,788.59,373.42,790.89,375.2Z"/><path class="cls-2" d="M764.38,552.74c-1.65-3.07-3.28-4.73-3.06-6.08s2.24-2.55,3.47-3.81c1.14,1.35,3.06,2.63,3.18,4.07S766.3,549.8,764.38,552.74Z"/><path class="cls-2" d="M332.57,222.4c1.65-4.2,2.08-6.24,3.23-7.73.4-.52,3.16-.17,3.75.61.78,1,1.15,3.56.49,4.19C338.83,220.63,336.74,220.88,332.57,222.4Z"/><path class="cls-2" d="M707.09,242.84l6.19-10.15c1.26,3.4,2.19,5,2.38,6.75.13,1.07-.63,3-1.41,3.25C712.67,243.2,710.8,242.84,707.09,242.84Z"/><path class="cls-2" d="M775.54,423.42c5.1-7.69,6.46-9.73,9.47-14.28.91,4.54,2,6.7,1.38,7.62C785.34,418.25,783.13,418.92,775.54,423.42Z"/><path class="cls-6" d="M607.09,204.75l-10.54.1c-.28-2.37-.55-4.75-.83-7.12Z"/><path class="cls-2" d="M346.37,628.24c-1.19,2.14-1.74,4.4-3.13,5.24-1.12.67-3.27-.37-5.08-.67C338.71,627.38,340.91,626.18,346.37,628.24Z"/><path class="cls-2" d="M741.71,299c6.89.36,9.16-.17,10.34.73s1.14,3.2,2.58,8Z"/><path class="cls-2" d="M308.82,602.14c-2.11,3.6-3.41,5.8-6.83,11.62V601.52Z"/><path class="cls-2" d="M661.75,225.55c4.43-4.64,5.62-6.71,7.36-7.4,1-.42,3,1.31,6.9,3.3Z"/><path class="cls-2" d="M267.74,570.45c.93,5.18-.6,7.08-5.57,5.86C261,571.35,262.53,569.49,267.74,570.45Z"/><path class="cls-2" d="M406.46,185c7,1.33,9.26,1.18,10.61,2.22.84.65.34,3.06.6,7.36Z"/><path class="cls-2" d="M546.81,182.8,541.89,180l4.1-4.63C549.64,177.69,550.09,179.69,546.81,182.8Z"/><path class="cls-2" d="M634.8,208.71c-1.62-4.74-2.51-6.3-2.53-7.87,0-.64,1.92-1.87,2.88-1.8s2.65,1.43,2.64,2.21C637.78,202.68,636.75,204.1,634.8,208.71Z"/><path class="cls-2" d="M503.25,183c-2.81-1.51-4.44-2.4-7.85-4.25l7.85-3.76Z"/><path class="cls-2" d="M242.67,443l-5.82-4.54c1.92-1.41,3.08-2.63,4.5-3.12a3.1,3.1,0,0,1,2.53,1.65C244,438.47,243.33,440,242.67,443Z"/><path class="cls-2" d="M255.18,526.34c3.05-4,5.26-4,7.86.63-1.6.85-3,2.19-4.43,2.16C257.49,529.1,256.41,527.41,255.18,526.34Z"/><path class="cls-2" d="M772.11,462.57c4.41-2.27,6.38-1.37,7.62,3.12-1.79.33-3.52,1.18-4.8.74C773.83,466.05,773.23,464.2,772.11,462.57Z"/><path class="cls-2" d="M694.57,621l8.27-7.86c0,3.71.61,5.81-.18,6.77S699.71,620.39,694.57,621Z"/><path class="cls-2" d="M279.5,304.64c1.12-5.26,3.27-5.74,7.39-4.14-.67,1.67-.89,3.82-1.9,4.31C283.65,305.45,281.69,304.78,279.5,304.64Z"/><path class="cls-2" d="M729.46,270.19c.85-4.81,3-5.05,6.54-3.11C735.35,271.49,733.34,272.18,729.46,270.19Z"/><path class="cls-2" d="M263.74,334.74c-2.3,4.33-2.87,6-4,7.16-.38.41-2.57,0-2.93-.57-.63-1.06-1.1-3.16-.52-3.77C257.28,336.55,259.12,336.38,263.74,334.74Z"/><path class="cls-2" d="M237.81,381.85l-3.55-3.74,3-4,4.32,2.74Z"/><path class="cls-2" d="M776.9,505.1l-7.73,7c0-3.68-.52-5.65.21-6.92C769.76,504.54,772.3,505.1,776.9,505.1Z"/><path class="cls-7" d="M499.21,198.73l.18-5.1,5.24.13c-.37,2.4-.74,4.79-1.12,7.19Z"/><path class="cls-2" d="M377.38,204.15c-3.33,3.28-5.28,3.07-7.23-.74,1.25-.81,2.5-2.25,3.64-2.17S376,202.93,377.38,204.15Z"/><path class="cls-2" d="M739.39,579.79c-.34,5.32-2.41,5.74-6.33,4.07.58-1.46.76-3.29,1.73-3.92S737.57,579.79,739.39,579.79Z"/><path class="cls-2" d="M306.53,260.28c1.15-1.06,2.13-2,3.62-3.35l2.74,3.87C310.49,263.94,308.71,263.93,306.53,260.28Z"/><path class="cls-2" d="M763.88,331.37l8.94,4.24c-3.57,1.16-5.32,2.32-6.22,1.85S765.37,334.93,763.88,331.37Z"/><path class="cls-2" d="M604.63,684.53c-41.58,5.14-83.12,2-124.67-.41-11.44-.65-22.88-1.1-34.32-1.64C466.3,622.1,483,560.31,509.64,502l9.13-14.91,4.82-.44C558.9,549.24,572,620.9,604.63,684.53Z"/><path class="cls-2" d="M441.5,681.63c-15.42-2.28-24.51-15.29-37.33-22,22.75-35.42,45.38-70.91,68.3-106.22,7.63-11.74,16-23,24-34.49C474.43,571.93,457.58,626.65,441.5,681.63Z"/><path class="cls-3" d="M523.59,486.69l-4.82.44c-16.88,1.28-27.27-8.27-35.57-21.3-.28-3.53-.55-7.07-.82-10.6,0-2,0-3.94.05-5.9l11.05-21,7.69-4.47,10.94-2.7,5.9,0,18.37,6.24L542,434l2.63,4,2.07,4.62c.25,1.16.5,2.32.74,3.48q1,4.25,2,8.5c-3.44,14-9.37,26.12-24.32,31.2Zm4-32.11c-1.58-6.67-4.45-13.87-13.53-14.1-7.57-.2-11.23,5.46-11.39,12.5-.22,9.2,6.49,13,14.14,13.63C523.45,467.13,527.45,462.7,527.64,454.58Z"/><path class="cls-7" d="M441.5,681.63c16.08-55,32.93-109.7,55-162.67l-.06.12c0-.55,0-1.1,0-1.66L509.64,502c-26.64,58.27-43.34,120.06-64,180.44Z"/><path class="cls-2" d="M496.45,517.42c0,.56,0,1.11,0,1.66Z"/><path class="cls-2" d="M642,655.64l-32.67,27.15c-2.73-5.06-6.14-9.89-8.08-15.24C590.35,637.44,580,607.11,569,577c-7.68-20.89-16.17-41.47-24.29-62.2l96.9,138.82.51,1.27A1.09,1.09,0,0,0,642,655.64Z"/><path class="cls-7" d="M544.69,514.84c8.12,20.73,16.61,41.31,24.29,62.2,11,30.07,21.37,60.4,32.31,90.51,1.94,5.35,5.35,10.18,8.08,15.24l-4.74,1.74c-32.68-63.63-45.73-135.29-81-197.84l1.55-.89Z"/><path class="cls-2" d="M551.13,456l2.37,1.11Z"/><path class="cls-3" d="M642.1,654.93l-.51-1.27Z"/><path class="cls-2" d="M484.66,711.58l0,5.85c-27.49-3.85-54.95-5.87-82.14,2.09.36-4.57.72-9.15,1.25-15.68l11.86-3.16C437,714.88,461.78,707.08,484.66,711.58Z"/><path class="cls-2" d="M563.6,719.52l.33-5.78c22.25-3.18,46.81,6.84,66.41-11.56C640.91,701.76,648,705,646,717.39,618.4,713.6,590.87,711.55,563.6,719.52Z"/><path class="cls-2" d="M483.09,692.41c1.6,2.56,3.56,4.41,3.2,5.44A6.17,6.17,0,0,1,482,701.3c-1,.14-3.53-2.47-3.36-3.51C479,696.17,481,694.85,483.09,692.41Z"/><path class="cls-2" d="M559.24,698.85l10.48-.74,2.68,3.73c-1.7.44-3.44,1.29-5.11,1.18C565.89,702.92,564.56,701.69,559.24,698.85Z"/><path class="cls-2" d="M438.78,701.07l-10.35-7.92c4.31-.41,6.25-1.18,7.15-.53S436.75,695.39,438.78,701.07Z"/><path class="cls-2" d="M610.43,701.39l-4.85-1.82c-.53-3.8.46-5.62,5.23-4.79C610.7,696.7,610.59,698.63,610.43,701.39Z"/><path class="cls-2" d="M528.93,692.05c-2.2,6.23-2.82,8-4.22,12-1.86-3.31-3.49-5-3.14-5.86C522.09,696.81,524,696,528.93,692.05Z"/><path class="cls-5" d="M489,737.29c-28.11-8.08-33.16,17.35-48,36.24,4-36.73-29.16-29.08-48.42-42.28,32.76-12.86,61-10.69,89.22-6.37C485.57,725.46,490,728.17,489,737.29Z"/><path class="cls-5" d="M649.66,737.48c-27.86-8.22-32.56,17.42-47.45,36.07,3.74-36.19-28.56-29.5-48.91-42.12,33.44-12.93,61.61-11.11,89.84-6.39C647.05,725.7,651.43,728.38,649.66,737.48Z"/><path class="cls-5" d="M581.18,249.94l-10.44,48.78c-13.12-3.12-25.34-5.84-25.35-24.17,0-19.28-2.81-38.56-4.39-57.84,6.16,17.6,20.68,16.57,34.43,15.09Z"/><path class="cls-5" d="M486.14,293.68q-5.42-25.5-10.82-51L480.76,228c10.21,0,20.19-.93,28.38-7.82C506.5,240,504.28,260,501,279.77,499.75,287.27,493.73,291.84,486.14,293.68Z"/><path class="cls-6" d="M581.18,249.94l-5.75-18.14c-13.75,1.48-28.27,2.51-34.43-15.09-1.48-6.59,2.62-9.58,7.72-11.92l4.51-1.88,37.6-5.12q-.8,3.57-1.61,7.14c-14,.92-28.13.93-41.15,8.75,2.59,9.39,9.17,11.42,17.48,11.51,7.52.08,17.9-5.6,19.44,8.46Z"/><path class="cls-6" d="M509.14,220.16C501,227.05,491,227.94,480.76,228l-5.44,14.69-2.88-14.48c5.59-16.31,24.56-1,32.39-15.16-10-12.94-25.7-7.56-38.86-10.23l-2.61-7,35.85,3,4.3,2.22C511.56,205.55,511.7,212.46,509.14,220.16Z"/><path class="cls-5" d="M404.87,213.84C408.48,225,408.48,225,438.34,230c8.52,12.48,3.78,41.76,32.84,21.54l8.94,43.59c-14.27,5.48-29,2.49-43.48,1.88-23.45-1-28.42-16.41-28.54-36.46C408,244.94,406,229.39,404.87,213.84Z"/><path class="cls-6" d="M369.51,241.6l4.19,2.24c8.15,4.59,8.14,11.56,5.63,19.27l-8.13,4.68L367,262l8.18-3.56c-3.18-9.59-9.91-11.11-17.74-10.79l-5.25-7.4Z"/><path class="cls-5" d="M371.2,267.79l8.13-4.68q-.46,6-.95,12Z"/><path class="cls-5" d="M586.35,257.54c25.92,9.44,22-15.28,32.26-27.2,7.79-.44,17.83-1.47,26.5-7.28-2.63,19.7-2.29,40.42-8.66,58.82C629.18,302.83,607.31,299,589.62,300c-3.94.22-7.94-.48-11.91-.75Z"/><path class="cls-6" d="M668.11,265.43l4.37-1.86,13-3q-4.75,5-9.5,10l-7.88,2.89c.17,2,.29,3.46.42,4.91l-8,9.13C661,279.4,656.23,269.54,668.11,265.43Z"/><path class="cls-5" d="M357.46,247.65c7.83-.32,14.56,1.2,17.74,10.79L367,262Z"/><path class="cls-6" d="M350,239.64l2.32.73Z"/><path class="cls-5" d="M585,233.65c-1.54-14.06-11.92-8.38-19.44-8.46-8.31-.09-14.89-2.12-17.48-11.51,13-7.82,27.19-7.83,41.15-8.75Z"/><path class="cls-5" d="M668.53,278.32c-.13-1.45-.25-2.89-.42-4.91l7.88-2.89Z"/><path class="cls-5" d="M469,238.45c-2.11,5.48-4.19,12.32-11,11.9-7.55-.47-8.77-8.85-8.68-13.92.3-16.6-10.1-14.28-20.61-13.61-8,.52-14.68-2-16.4-11.56,14.81-8.44,31-7.5,46.76-8.68Z"/><path class="cls-5" d="M466,202.8c13.16,2.67,28.85-2.71,38.86,10.23-7.83,14.19-26.8-1.15-32.39,15.16Q469.2,215.49,466,202.8Z"/><path class="cls-4" d="M527.64,454.58c-.19,8.12-4.19,12.55-10.78,12-7.65-.61-14.36-4.43-14.14-13.63.16-7,3.82-12.7,11.39-12.5C523.19,440.71,526.06,447.91,527.64,454.58Z"/></g><g id="Layer_2" data-name="Layer 2"><text class="cls-8" transform="translate(358.33 894)">2019/10/05<tspan x="0" y="28.8">O</tspan><tspan class="cls-9" x="16.54" y="28.8">r</tspan><tspan x="24.48" y="28.8">i</tspan><tspan class="cls-10" x="30.1" y="28.8">g</tspan><tspan x="43.37" y="28.8">inal: </tspan><tspan class="cls-11" x="89.59" y="28.8">S</tspan><tspan class="cls-12" x="101.49" y="28.8">an</tspan><tspan class="cls-13" x="126.38" y="28.8">n</tspan><tspan class="cls-12" x="139.39" y="28.8">y </tspan><tspan class="cls-14" x="155.78" y="28.8">v</tspan><tspan x="167.23" y="28.8">an </tspan><tspan class="cls-15" x="197.2" y="28.8">L</tspan><tspan class="cls-12" x="208.2" y="28.8">oon</tspan><tspan class="cls-16"><tspan x="0" y="57.6">h</tspan><tspan class="cls-17" x="13.7" y="57.6">ttps://pin.it/3ltsd</tspan><tspan class="cls-18" x="191.61" y="57.6">y</tspan><tspan class="cls-17" x="203.25" y="57.6">so34uw43</tspan></tspan></text></g></svg>